<svg width="44" height="44" viewBox="0 0 44 44" fill="none" xmlns="http://www.w3.org/2000/svg">
<path d="M0 10C0 4.47715 4.47715 0 10 0H34C39.5228 0 44 4.47715 44 10V34C44 39.5228 39.5228 44 34 44H10C4.47715 44 0 39.5228 0 34V10Z" fill="#F5F6FC"/>
<g clip-path="url(#clip0_2117_20191)">
<path d="M19.5577 18.7392C18.8402 18.8583 18.3532 19.548 18.4701 20.2795C18.5871 21.0111 19.2636 21.5075 19.9812 21.3882L19.5577 18.7392ZM34.1476 24.3774C34.1476 25.1185 34.7371 25.7194 35.4642 25.7194C36.1912 25.7194 36.7806 25.1185 36.7806 24.3774H34.1476ZM9.39257 21.7905C8.95044 21.2022 8.12411 21.0904 7.54689 21.5412C6.96967 21.9918 6.86015 22.8342 7.30226 23.4225L9.39257 21.7905ZM21.396 26.1877L21.9559 27.4025C22.3519 27.2127 22.6297 26.8346 22.6969 26.3936C22.764 25.9527 22.6118 25.5067 22.2907 25.2034L21.396 26.1877ZM20.8498 20.4231C21.008 19.6996 20.5608 18.9824 19.8511 18.8214C19.1415 18.6602 18.438 19.116 18.2798 19.8393L20.8498 20.4231ZM34.3522 22.0162C34.3522 28.7696 28.8508 34.2957 22.0017 34.2957V36.9798C30.2488 36.9798 36.9852 30.3088 36.9852 22.0162H34.3522ZM22.0017 34.2957C15.1526 34.2957 9.65131 28.7696 9.65131 22.0162H7.01831C7.01831 30.3088 13.7547 36.9798 22.0017 36.9798V34.2957ZM9.65131 22.0162C9.65131 15.2629 15.1526 9.73677 22.0017 9.73677V7.05273C13.7547 7.05273 7.01831 13.7237 7.01831 22.0162H9.65131ZM22.0017 9.73677C28.8508 9.73677 34.3522 15.2629 34.3522 22.0162H36.9852C36.9852 13.7237 30.2488 7.05273 22.0017 7.05273V9.73677ZM19.9812 21.3882C21.7727 21.0906 25.46 20.171 28.8015 20.2884C30.4637 20.3468 31.8256 20.6636 32.74 21.2887C33.5606 21.8497 34.1476 22.7408 34.1476 24.3774H36.7806C36.7806 21.9218 35.8158 20.1595 34.2064 19.0594C32.6902 18.0231 30.7436 17.671 28.8921 17.6059C25.2063 17.4764 21.0465 18.4918 19.5577 18.7392L19.9812 21.3882ZM7.30226 23.4225C10.1598 27.2257 13.5014 28.4361 16.3317 28.5499C19.0956 28.6611 21.2777 27.7272 21.9559 27.4025L20.8362 24.9732C20.3361 25.2126 18.5988 25.9551 16.4356 25.868C14.3386 25.7836 11.7449 24.9212 9.39257 21.7905L7.30226 23.4225ZM22.2907 25.2034C21.5642 24.5171 21.0042 23.8283 20.8441 23.194L18.2942 23.8629C18.6611 25.317 19.752 26.4647 20.5012 27.1721L22.2907 25.2034ZM20.8441 23.194C20.6388 22.3808 20.6281 21.4374 20.8498 20.4231L18.2798 19.8393C17.98 21.2112 17.9723 22.5876 18.2942 23.8629L20.8441 23.194Z" fill="#0D111A"/>
</g>
<defs>
<clipPath id="clip0_2117_20191">
<rect width="30" height="30" fill="white" transform="translate(7 7)"/>
</clipPath>
</defs>
</svg>
