<svg width="44" height="44" viewBox="0 0 44 44" fill="none" xmlns="http://www.w3.org/2000/svg">
<path d="M0 10C0 4.47715 4.47715 0 10 0H34C39.5228 0 44 4.47715 44 10V34C44 39.5228 39.5228 44 34 44H10C4.47715 44 0 39.5228 0 34V10Z" fill="#FFD000"/>
<path d="M19.1229 17.6965L10.3045 12.4434L8 16.5573L14.5447 20.4497L19.1229 17.6965Z" fill="white"/>
<path d="M28.9554 20.4497L35.5001 16.5573L33.1957 12.4434L24.3464 17.6965L28.9554 20.4497Z" fill="white"/>
<path d="M21.7344 16.1455L24.0389 14.7848V7H19.4299V14.7848L21.7344 16.1455Z" fill="white"/>
<path d="M35.5 27.4438L24.0391 20.6401L21.7346 19.2793L8 27.4438L10.3045 31.5577L17.1564 27.4754C17.3715 27.3488 17.6173 27.2539 17.8938 27.2539C18.7542 27.2539 19.4301 27.9502 19.4301 28.8362V37.0008H24.0391V28.8362C24.0391 27.9502 24.7151 27.2539 25.5754 27.2539C25.852 27.2539 26.0977 27.3488 26.3129 27.4754L33.1955 31.526L35.5 27.4438Z" fill="white"/>
</svg>
