<svg width="44" height="44" viewBox="0 0 44 44" fill="none" xmlns="http://www.w3.org/2000/svg">
<path d="M0 10C0 4.47715 4.47715 0 10 0H34C39.5228 0 44 4.47715 44 10V34C44 39.5228 39.5228 44 34 44H10C4.47715 44 0 39.5228 0 34V10Z" fill="white"/>
<mask id="mask0_2117_20198" style="mask-type:luminance" maskUnits="userSpaceOnUse" x="7" y="7" width="30" height="30">
<path d="M37 7H7V37H37V7Z" fill="white"/>
</mask>
<g mask="url(#mask0_2117_20198)">
<mask id="mask1_2117_20198" style="mask-type:luminance" maskUnits="userSpaceOnUse" x="7" y="7" width="30" height="30">
<path d="M37 7H7V37H37V7Z" fill="white"/>
</mask>
<g mask="url(#mask1_2117_20198)">
<path d="M24.9772 8.19343L25.7756 10.0634C27.3426 13.7351 30.2672 16.6596 33.9387 18.2267L35.8088 19.025C36.2982 19.2337 36.6955 19.533 37.0022 19.8895C36.0709 13.2123 30.7899 7.93055 24.1128 7C24.4686 7.30595 24.7686 7.704 24.9772 8.19343Z" fill="black" fill-opacity="0.6"/>
<path d="M8.19342 19.025L10.0634 18.2267C13.7351 16.6596 16.6596 13.7351 18.2273 10.0634L19.025 8.19343C19.2344 7.704 19.5337 7.30595 19.8894 7C13.2122 7.93055 7.93126 13.2123 7 19.8895C7.3067 19.533 7.70402 19.2337 8.19342 19.025Z" fill="black" fill-opacity="0.6"/>
<path d="M35.8088 24.9758L33.9387 25.7741C30.2672 27.3411 27.3426 30.2664 25.7756 33.9381L24.9772 35.8073C24.7686 36.2967 24.4686 36.6948 24.1128 37.0015C30.7899 36.0703 36.0709 30.7885 37.0022 24.1113C36.6955 24.4677 36.2982 24.767 35.8088 24.9758Z" fill="black" fill-opacity="0.6"/>
<path d="M19.025 35.8073L18.2273 33.9381C16.6596 30.2664 13.7351 27.3411 10.0634 25.7741L8.19342 24.9758C7.70402 24.767 7.3067 24.4677 7 24.1113C7.93126 30.7885 13.2122 36.0703 19.8894 37.0015C19.5337 36.6948 19.2344 36.2967 19.025 35.8073Z" fill="black" fill-opacity="0.6"/>
</g>
<path d="M15.1939 20.5341L16.1155 20.1405C17.9246 19.368 19.3661 17.9273 20.1384 16.1182L20.5313 15.1966C21.0824 13.9058 22.9122 13.9058 23.4632 15.1966L23.8561 16.1182C24.6284 17.9273 26.07 19.368 27.8791 20.1405L28.8007 20.5341C30.0914 21.0851 30.0914 22.9142 28.8007 23.4653L27.8791 23.8589C26.07 24.6313 24.6284 26.072 23.8561 27.8819L23.4632 28.8027C22.9122 30.0934 21.0824 30.0934 20.5313 28.8027L20.1384 27.8819C19.3661 26.072 17.9246 24.6313 16.1155 23.8589L15.1939 23.4653C13.9032 22.9142 13.9032 21.0851 15.1939 20.5341Z" fill="black"/>
</g>
</svg>
