<svg width="50" height="50" viewBox="0 0 50 50" fill="none" xmlns="http://www.w3.org/2000/svg">
<g clip-path="url(#clip0_309_413)">
<path d="M25.1797 0.180176C20.2352 0.180176 15.4017 1.6464 11.2904 4.39343C7.17921 7.14047 3.9749 11.0449 2.08271 15.6131C0.19052 20.1812 -0.304564 25.2079 0.660067 30.0574C1.6247 34.9069 4.00572 39.3615 7.50203 42.8578C10.9983 46.3541 15.4529 48.7352 20.3024 49.6998C25.152 50.6644 30.1786 50.1693 34.7468 48.2772C39.3149 46.385 43.2194 43.1807 45.9664 39.0694C48.7135 34.9582 50.1797 30.1247 50.1797 25.1802C50.1797 18.5498 47.5458 12.1909 42.8574 7.5025C38.169 2.8141 31.8101 0.180176 25.1797 0.180176ZM24.6071 45.3415C23.1675 45.1936 21.8396 44.4986 20.8977 43.3998C19.9558 42.301 19.4719 40.8825 19.546 39.4371C19.62 37.9918 20.2462 36.6301 21.2954 35.6333C22.3446 34.6365 23.7365 34.0807 25.1837 34.0807C26.6309 34.0807 28.0229 34.6365 29.0721 35.6333C30.1212 36.6301 30.7475 37.9918 30.8215 39.4371C30.8955 40.8825 30.4116 42.301 29.4697 43.3998C28.5279 44.4986 27.2 45.1936 25.7603 45.3415C25.5668 45.3415 25.3813 45.3415 25.1878 45.3415C24.9942 45.3415 24.7926 45.3415 24.6071 45.3415ZM35.6636 39.9463C35.6636 39.8657 35.6636 39.7769 35.6636 39.6963C35.6636 36.9158 34.559 34.2492 32.5929 32.2831C30.6268 30.317 27.9602 29.2124 25.1797 29.2124C22.3992 29.2124 19.7326 30.317 17.7665 32.2831C15.8004 34.2492 14.6958 36.9158 14.6958 39.6963C14.6958 39.785 14.6958 39.8657 14.6958 39.9463C13.3124 38.0181 12.4875 35.7458 12.3119 33.3792C12.1362 31.0126 12.6167 28.6434 13.7003 26.5321C14.784 24.4208 16.4289 22.6493 18.4542 21.4124C20.4794 20.1755 22.8066 19.521 25.1797 19.521C27.5528 19.521 29.88 20.1755 31.9052 21.4124C33.9305 22.6493 35.5754 24.4208 36.6591 26.5321C37.7427 28.6434 38.2232 31.0126 38.0475 33.3792C37.8719 35.7458 37.047 38.0181 35.6636 39.9463ZM42.7361 35.1076C43.1203 32.5812 42.9542 30.0017 42.2491 27.5455C41.5441 25.0893 40.3168 22.8144 38.6512 20.8764C36.9856 18.9384 34.9211 17.3831 32.5988 16.3168C30.2764 15.2506 27.7512 14.6986 25.1958 14.6986C22.6404 14.6986 20.1152 15.2506 17.7929 16.3168C15.4706 17.3831 13.406 18.9384 11.7404 20.8764C10.0748 22.8144 8.84755 25.0893 8.14252 27.5455C7.43749 30.0017 7.27136 32.5812 7.65551 35.1076C5.91732 32.0405 5.01374 28.5713 5.0349 25.046C5.05607 21.5207 6.00124 18.0626 7.77612 15.0166C9.55101 11.9706 12.0936 9.44327 15.1501 7.68671C18.2067 5.93014 21.6705 5.00575 25.1958 5.00575C28.7212 5.00575 32.1849 5.93014 35.2415 7.68671C38.2981 9.44327 40.8406 11.9706 42.6155 15.0166C44.3904 18.0626 45.3356 21.5207 45.3567 25.046C45.3779 28.5713 44.4743 32.0405 42.7361 35.1076Z" fill="#F76B8A"/>
</g>
<defs>
<clipPath id="clip0_309_413">
<rect width="50" height="50" fill="white"/>
</clipPath>
</defs>
</svg>
