<svg width="50" height="50" viewBox="0 0 50 50" fill="none" xmlns="http://www.w3.org/2000/svg">
  <path
    d="M6.99853 16.3306C6.87449 16.7308 6.7023 17.3635 6.7023 17.3635C6.69938 17.3707 6.69791 17.3765 6.69646 17.3836C6.22801 19.0823 5.97847 20.8168 5.97847 22.5413C5.97847 22.6646 5.97847 22.7837 5.98139 22.9042C6.00766 25.0117 5.74206 27.1063 5.26486 29.1594L5.05179 30C3.95293 29.5783 2.82778 28.7762 1.75225 27.4378C-1.22915 23.7248 -0.235345 17.7667 3.44216 16.3636C4.88251 15.8156 6.07624 15.9561 7 16.3306H6.99853Z"
    fill="#8480D1" />
  <path
    d="M48.4983 27.4472C47.5834 28.7753 46.626 29.5778 45.6897 30L45.5108 29.1672C45.1014 27.1128 44.8737 25.0179 44.8949 22.9088C44.8949 22.7883 44.8949 22.6691 44.8949 22.5456C44.8949 20.8126 44.681 19.0712 44.2754 17.3655L44 16.3303C44.7911 15.9556 45.8148 15.8163 47.0478 16.3633C50.2018 17.7675 51.0542 23.7287 48.4971 27.4458L48.4983 27.4472Z"
    fill="#8480D1" />
  <path
    d="M42.3772 28.2026C42.0124 26.5932 41.81 24.9525 41.8293 23.3002C41.8293 23.2065 41.8293 23.1129 41.8293 23.0166C41.8293 21.6596 41.6384 20.2961 41.2775 18.9587L40.9565 17.897C40.7593 17.3128 40.5311 16.7338 40.2732 16.1665C40.0849 15.7528 39.8825 15.3442 39.6646 14.9436C37.7255 11.3644 34.6352 8.31477 31.0317 6.63642C30.5006 6.38923 29.321 3.65442 29.321 3.65442L26.5426 5.33798C26.4316 5.32497 26.3208 5.31326 26.2086 5.30285C26.0037 5.28464 25.7999 5.27032 25.5924 5.26122L24.6615 3C21.236 4.17874 19.2157 6.50501 18.5557 6.83547C15.1288 8.54895 12.1996 11.5023 10.334 14.9436C10.1149 15.3456 9.91373 15.7528 9.72549 16.1665C9.46764 16.7338 9.23944 17.3128 9.0409 17.897C9.00738 17.8774 8.72117 18.9573 8.72117 18.9573C8.71859 18.9626 8.71729 18.9677 8.71729 18.9729C8.36017 20.3039 8.16937 21.6635 8.16937 23.0152C8.16937 23.1115 8.16937 23.2052 8.16937 23.299C8.19 24.9512 7.98629 26.5932 7.62143 28.2026L7.31588 29.4464C7.30298 29.5048 7.29009 29.5634 7.2772 29.622C7.09412 30.465 7 31.3302 7 32.215C7 38.2635 11.4209 43.465 17.755 45.7537C19.1977 46.2766 20.7409 46.6475 22.3524 46.8426C23.1544 46.9402 23.973 46.9922 24.8073 47C24.8717 47 24.9375 47 25.0019 47C34.9421 47 43 40.379 43 32.2136C43 31.329 42.9058 30.4624 42.7228 29.6206C42.7099 29.5622 42.697 29.5036 42.6828 29.4464L42.3772 28.1999V28.2026Z"
    fill="#8480D1" />
</svg>