<svg width="50" height="50" viewBox="0 0 50 50" fill="none" xmlns="http://www.w3.org/2000/svg">
  <path d="M49.0811 46.6077C49.2669 46.6077 49.3994 46.6405 49.4794 46.7064H0.175781L49.0811 46.6077Z" fill="white" />
  <path
    d="M21.1095 31.8321L22.1493 32.879C22.201 33.121 22.1504 33.2526 21.9977 33.2737C21.9272 33.511 21.9542 33.7202 22.0788 33.9011C22.1426 33.9925 22.1737 34.1031 22.1669 34.2148C22.1293 34.9104 22.0001 35.5953 21.7792 36.2697C21.7674 36.3026 21.7451 36.3179 21.7122 36.3156C21.6723 36.3109 21.6534 36.2838 21.6558 36.2345C21.6556 36.23 21.6539 36.2258 21.6512 36.2223C21.6484 36.2188 21.6446 36.2163 21.6403 36.2152C21.636 36.214 21.6314 36.2142 21.6272 36.2158C21.6231 36.2174 21.6195 36.2202 21.617 36.2239L20.7746 38.596C20.7542 38.6553 20.7145 38.7064 20.6618 38.7406L19.8899 39.2657C19.7983 39.3267 19.6996 39.3704 19.5939 39.3961C19.1897 39.4903 18.8584 39.6651 18.5999 39.9213C18.5318 39.9894 18.4507 40.0119 18.3567 39.9883C18.1663 39.939 18.0254 39.9883 17.9337 40.1363C17.6658 40.5639 17.5436 41.0538 17.5671 41.6061C17.5766 41.806 17.4837 41.8881 17.2887 41.8529C16.7952 41.7683 16.2994 41.787 15.8013 41.9093C15.3666 42.0175 14.9307 42.089 14.4936 42.1243C14.0237 42.1641 13.5748 42.2512 13.1472 42.3851C12.8417 42.4792 12.5421 42.5261 12.2484 42.5261C12.1544 42.5261 12.0651 42.5462 11.9805 42.586C11.6351 42.7552 11.3977 43.0255 11.2685 43.3967C11.104 43.8644 10.9771 44.3554 10.8878 44.87C10.8596 45.0392 10.7844 45.1862 10.6622 45.3106C10.5236 45.4516 10.4778 45.6254 10.5248 45.8323C10.5506 45.9496 10.6188 46.0296 10.7292 46.0719C10.8396 46.1167 10.9618 46.1414 11.0958 46.146C11.1522 46.1812 11.1898 46.2542 11.2086 46.3645L0 46.3751V45.3741L1.37464 43.224C2.27931 42.7915 3.16049 42.5744 4.01817 42.5719C4.12155 42.5719 4.21319 42.5402 4.2931 42.4767C4.36123 42.4228 4.43056 42.4193 4.50105 42.4662C4.60679 42.5342 4.72075 42.5553 4.84295 42.5296C5.80167 42.3135 6.83557 42.1641 7.94469 42.082C7.98463 42.0795 8.20083 42.0432 8.59324 41.9727C8.77889 41.9375 8.98332 41.9138 9.20654 41.9022C9.83158 41.8716 10.4543 41.7542 11.0746 41.5497C11.2697 41.4863 11.4388 41.3957 11.5822 41.2783C11.7349 41.156 11.8289 40.9893 11.8642 40.7778C11.9793 40.1106 12.2084 39.449 12.5515 38.7934C12.6126 38.6761 12.7089 38.6077 12.8405 38.589C14.0295 38.4082 15.2173 38.2541 16.404 38.1273C17.1982 38.045 17.6388 37.6408 17.7258 36.9148C17.7442 36.7614 17.8007 36.6153 17.89 36.4902C17.9794 36.3651 18.0987 36.265 18.2368 36.1992L19.7525 35.4661C19.837 35.4273 19.9065 35.3602 19.9499 35.2758C20.2577 34.6601 20.5655 34.0221 20.8733 33.3618C20.9403 33.2279 21.0672 33.0199 21.187 32.9354C21.3233 32.8343 21.3327 32.7227 21.2152 32.6005C21.0742 32.4548 21.039 32.1987 21.1095 31.8321Z"
    fill="#D5D6D6" />
  <path
    d="M49.5747 46.3786C49.4524 46.4702 49.2832 46.5125 49.0672 46.5055L47.1286 46.4526C45.5943 44.3191 44.0575 42.1852 42.5183 40.0517C42.3234 39.7814 41.9885 39.4339 41.5137 39.0084C41.2836 38.8015 41.0333 38.6782 40.763 38.6383C40.0474 38.5255 39.2967 38.8005 38.5917 38.8392C38.479 38.8438 38.3767 38.8135 38.2851 38.7476C37.9985 38.5386 37.767 38.294 37.5907 38.0145C37.4497 37.7936 37.2876 37.5903 37.1043 37.4047C36.7705 37.0639 36.484 36.6986 36.2443 36.3085C35.7533 35.5096 35.0259 35.0255 34.0625 34.8563C33.5303 34.7647 33.1425 34.4615 32.6914 34.1831C32.6538 34.1619 32.615 34.1537 32.5751 34.1584C32.561 34.1608 32.5504 34.1666 32.5433 34.176C32.4987 34.2512 32.44 34.2642 32.3671 34.2148C31.2075 33.4288 30.3439 33.8905 29.1244 33.8694C28.7602 33.8647 28.3748 33.9446 27.9683 34.1091C27.5735 34.2689 27.1811 34.4239 26.791 34.5743C26.8075 34.3911 26.8639 34.1901 26.9602 33.9716C27.6017 33.8024 28.168 33.5028 28.6591 33.0728C29.028 32.7509 29.4627 32.6146 29.9633 32.6639C30.5237 32.7168 31.1652 32.7203 31.6586 32.4278C31.9853 32.2351 32.3319 32.1599 32.6984 32.2022C33.0579 32.2421 33.3693 32.3643 33.6325 32.5688C34.5606 33.2855 35.5827 33.7778 36.699 34.0456C37.0391 34.1279 37.3419 34.3215 37.559 34.5955C38.3017 35.5307 39.0087 36.4131 39.6809 37.2425C39.917 37.5351 40.2096 37.7536 40.4951 37.9968C40.5892 38.0744 40.6971 38.1131 40.8194 38.1131H42.2997C42.4453 38.1131 42.5687 38.1649 42.6698 38.2682L42.8813 38.4797C42.9201 38.5185 42.9708 38.5432 43.0258 38.5502C43.4604 38.6182 43.7861 38.8347 44.0022 39.1988C44.5143 40.0542 45.1664 40.8296 45.9584 41.5251C46.0712 41.6238 46.0617 41.7024 45.9302 41.7612C45.8995 41.7729 45.8749 41.794 45.8562 41.8247C45.8375 41.8504 45.8375 41.8775 45.8562 41.9057C46.2746 42.451 46.6397 43.0326 46.9524 43.6505C47.1638 44.0688 47.4694 44.453 47.8688 44.803C47.9699 44.8922 48.039 45.0029 48.0767 45.1344C48.333 46.0085 48.8321 46.4234 49.5747 46.3786Z"
    fill="#D5D6D6" />
  <path
    d="M27.9788 7.98393L30.3333 12.0232L29.8292 12.7952C29.7775 12.8727 29.7987 12.9126 29.8927 12.915C30.0172 12.9174 30.096 12.989 30.1288 13.13C30.15 13.2146 30.1159 13.2581 30.0266 13.2604H29.8539C29.7505 13.2628 29.7094 13.3145 29.7305 13.4155C29.747 13.4931 29.7893 13.5506 29.8574 13.5882C29.9655 13.6493 29.9749 13.7233 29.8856 13.8103C29.4368 14.252 29.1231 14.7725 28.9445 15.3717C28.6344 16.4197 28.202 17.3902 27.6474 18.2831C27.5864 18.3818 27.5534 18.4887 27.5488 18.6039L27.5029 19.8516C27.4959 19.995 27.5511 20.1089 27.6686 20.1935C28.2043 20.5718 28.5039 21.0606 28.5674 21.6598C28.6026 21.9817 28.6637 22.2966 28.7507 22.6044C28.8282 22.8817 28.8329 23.1707 28.7648 23.4715C28.7107 23.7065 28.6437 23.9379 28.5639 24.1659C28.4793 24.4173 28.4346 24.657 28.4299 24.8849C28.4135 25.9611 28.4064 27.0714 28.4088 28.2158C28.4088 28.3332 28.4663 28.4002 28.5815 28.4167L29.1877 28.5083C28.8164 28.5107 28.4569 28.5764 28.1092 28.7057L26.9672 29.0123C26.3421 28.3262 25.8686 27.4709 25.5467 26.4464C25.4128 26.021 25.3411 25.5852 25.3317 25.1387C25.327 24.7533 25.2812 24.3656 25.1942 23.9755C25.1308 23.6818 25.1202 23.3928 25.1625 23.1085C25.273 22.3847 25.4186 21.681 25.5996 20.9972C25.8275 20.1418 25.8968 19.3253 25.8075 18.5475C25.7934 18.423 25.7406 18.3184 25.6489 18.2338L24.0628 16.7499C24.0015 16.6924 23.9602 16.6166 23.945 16.5335C23.9298 16.4505 23.9414 16.3645 23.9782 16.2881L27.9788 7.98393Z"
    fill="#EBEBEB" />
  <path
    d="M43.463 46.4103L38.4861 46.4138C37.6448 44.9077 36.6402 43.5493 35.4725 42.3393C35.4256 42.2945 35.3784 42.2512 35.3315 42.2089C35.2422 42.1338 35.167 42.0467 35.1059 41.948L34.2811 40.6157C34.2435 40.5522 34.1871 40.517 34.112 40.5099C33.3224 40.4581 32.5928 40.5346 31.9231 40.7391C31.7821 40.7838 31.6458 40.7718 31.5142 40.7038C31.1865 40.5346 30.975 40.5804 30.6542 40.3161C29.9939 39.7758 29.336 39.247 28.6804 38.73C28.4125 38.5185 28.1153 38.3645 27.7886 38.2682C27.2564 38.1131 27.2423 37.5245 26.5902 37.3201C26.4915 37.2872 26.4058 37.232 26.3329 37.1544C26.2977 37.1145 26.2906 37.0722 26.3118 37.0275C26.3564 36.9288 26.327 36.8971 26.2237 36.9324C26.1931 36.9418 26.1579 36.9476 26.1179 36.95C26.1367 36.8066 26.1179 36.7268 26.0615 36.7103C26.3036 36.3273 26.4598 35.8891 26.5303 35.3956L28.8919 35.1348C28.9973 35.1233 29.1035 35.1455 29.195 35.1982C29.6109 35.4485 30.0832 35.4485 30.485 35.7445C30.9973 36.1229 31.5671 36.3907 32.1945 36.5482C32.4436 36.6116 32.6198 36.7502 32.7232 36.9641C32.7632 37.0463 32.8278 37.0804 32.9171 37.0663C32.9476 37.0639 32.9794 37.0639 33.0122 37.0663C33.0404 37.0687 33.0651 37.0816 33.0863 37.1051C33.4129 37.474 33.7478 37.8488 34.0908 38.2295C34.2999 38.4596 34.4856 38.7099 34.6477 38.9802C34.9203 39.4314 35.2822 39.6594 35.7333 39.664C36.6709 39.6711 37.3617 39.0824 38.3099 39.1882C38.6176 39.221 38.8139 39.3937 38.8985 39.7063C38.9242 39.8025 38.9761 39.8826 39.0536 39.946C39.3356 40.1786 39.5516 40.4536 39.7021 40.7708C40.0934 41.5885 40.7666 42.1278 41.2495 42.8927C41.5103 43.3015 41.9509 43.8961 42.5713 44.6762C42.7641 44.9183 43.0612 45.4964 43.463 46.4103Z"
    fill="#EBEBEB" />
  <path
    d="M24.8108 29.5622L22.206 30.2319C22.0415 29.8324 21.7877 29.5399 21.4447 29.3542C21.3037 29.2743 21.1721 29.1815 21.0499 29.0758C20.9395 28.9795 20.8478 28.8678 20.775 28.7409C20.7139 28.6328 20.6222 28.5694 20.5 28.5506L18.4663 28.2475C18.236 27.5238 18.0116 26.7765 17.7931 26.0058C17.551 25.1504 17.4265 24.382 17.4194 23.7006C17.4077 22.6549 17.3959 21.6363 17.3842 20.6447C17.3748 19.827 17.5287 18.8259 17.8459 17.6416C18.2713 16.0602 18.6707 14.4811 19.0443 12.9044C19.1524 12.6671 19.2922 12.5249 19.4638 12.4779C19.6283 12.4309 19.7751 12.4732 19.9044 12.6048C20.2615 12.9667 20.5412 13.3626 20.7432 13.7926C20.8701 14.0629 20.8795 14.3449 20.7714 14.6386C20.3955 15.6513 19.976 16.6395 19.5131 17.6029C19.3298 17.9835 19.1877 18.3583 19.0866 18.7272C18.9856 19.1055 18.8963 19.4992 18.8188 19.908C18.7958 20.033 18.802 20.1614 18.8368 20.2831C18.8717 20.4048 18.9343 20.5165 19.0197 20.6094C19.4121 21.0371 19.5519 21.4941 19.4391 21.9805C19.3616 22.3142 19.3287 22.6538 19.3404 22.9992C19.3569 23.5279 19.3545 24.0437 19.3334 24.5465C19.3287 24.664 19.3639 24.7674 19.4391 24.8567C19.8127 25.2985 20.211 25.7109 20.634 26.0939C21.0887 26.5027 21.2085 26.9856 21.4024 27.5425C21.5927 28.0994 22.2201 28.4695 22.7876 28.4378C22.9427 28.4284 23.0837 28.4684 23.2105 28.5577C23.3609 28.6681 23.5301 28.7398 23.7181 28.7727C24.1904 28.8537 24.5217 29.2062 24.8108 29.5622Z"
    fill="#BFC1C1" />
  <path
    d="M31.2407 28.5295C33.184 28.7597 34.7537 29.2403 35.9498 29.9711C37.5042 30.9227 39.0867 31.6876 40.405 32.96C41.7444 34.2501 43.0757 35.546 44.3985 36.8478C44.537 37.0734 44.6805 37.2989 44.8285 37.5245C44.8824 37.6068 44.906 37.6843 44.899 37.7572C44.8849 37.8746 44.8215 37.9569 44.7087 38.0039C44.6427 38.0297 44.5818 38.0227 44.5254 37.9827C44.1613 37.7313 43.7535 37.6303 43.3023 37.6796C42.1649 37.8065 41.3144 37.38 40.7504 36.4001C40.6422 36.2122 40.5143 36.0453 40.3662 35.8996C40.2323 35.7681 40.1043 35.6306 39.982 35.4872C39.8033 35.2734 39.6355 35.0408 39.478 34.7893C38.907 33.88 38.0822 33.2925 37.0036 33.027C36.3244 32.8602 35.7041 32.5124 35.1426 31.9837C34.695 31.5607 34.0887 31.4232 33.5142 31.2576C33.3873 31.2223 33.2627 31.2329 33.1406 31.2893C32.7904 31.4514 32.4051 31.5666 31.9845 31.6347C31.5803 31.7005 31.1808 31.6911 30.7861 31.6065C30.3748 31.5173 30.0141 31.549 29.704 31.7017C29.4431 31.831 29.1553 32.0448 28.8404 32.3432C28.3939 32.7662 27.8394 33.0211 27.1768 33.1081L27.5891 31.5572C28.1131 31.2658 28.6524 31.079 29.207 30.9968C29.3268 30.9803 29.422 30.9239 29.4925 30.8276L31.2407 28.5295Z"
    fill="#BFC1C1" />
  <path
    d="M18.4668 28.2475L20.5006 28.5506C20.6228 28.5694 20.7144 28.6328 20.7755 28.7409C20.8483 28.8678 20.94 28.9795 21.0504 29.0758C21.1726 29.1815 21.3042 29.2743 21.4452 29.3542C21.7882 29.5399 22.042 29.8324 22.2065 30.2319C21.5227 30.4751 20.6874 30.3905 20.2468 31.0673L18.8052 28.9172L18.4668 28.2475Z"
    fill="#A6A8A8" />
  <path
    d="M31.2395 28.5295L29.4912 30.8276C29.4207 30.9239 29.3256 30.9803 29.2057 30.9968C28.6512 31.079 28.1119 31.2658 27.5879 31.5572C27.8534 30.629 28.0814 29.7161 28.2717 28.8185C28.2905 28.7292 28.2364 28.6916 28.1095 28.7057C28.4573 28.5764 28.8169 28.5107 29.1881 28.5083L31.2395 28.5295Z"
    fill="#A6A8A8" />
  <path
    d="M26.1241 4.84341L27.9781 7.98393L23.9776 16.2881C23.9408 16.3645 23.9291 16.4505 23.9444 16.5335C23.9596 16.6166 24.0009 16.6924 24.0622 16.7499L25.6483 18.2338C25.7399 18.3184 25.7928 18.423 25.8069 18.5475C25.8962 19.3253 25.8269 20.1418 25.599 20.9972C25.418 21.681 25.2723 22.3847 25.1619 23.1085C25.1196 23.3928 25.1302 23.6818 25.1936 23.9755C25.2806 24.3656 25.3264 24.7533 25.3311 25.1387C25.3405 25.5852 25.4122 26.021 25.5461 26.4464C25.868 27.4709 26.3415 28.3262 26.9666 29.0123L25.7999 29.2943L25.7435 29.0441C25.7153 28.9101 25.6342 28.8267 25.5003 28.7938C24.7413 28.6129 24.2255 28.1206 23.9529 27.317C23.913 27.2018 23.8472 27.1043 23.7555 27.0244C23.4407 26.7495 23.1234 26.4311 22.8039 26.0692C22.5195 25.7473 22.3692 25.3549 22.3527 24.892C22.3316 24.3351 22.3245 23.8075 22.3316 23.3094C22.3316 23.2073 22.3087 23.1061 22.2646 23.0133C22.0414 22.5386 21.8698 22.0757 21.75 21.6246C21.6536 21.265 21.6971 20.8973 21.8804 20.5213C22.0989 20.0666 22.1729 19.6084 22.4338 19.1502C22.9202 18.3043 23.2468 17.3879 23.4136 16.4009C23.4372 16.274 23.4031 16.1636 23.3114 16.0696C22.9942 15.7477 22.6688 15.4246 22.3351 15.1003C22.18 14.9499 22.0895 14.7725 22.0637 14.5681C22.0261 14.2673 22.1283 14.0558 22.3703 13.9336C22.4596 13.8867 22.5266 13.8173 22.5712 13.7257C22.8321 13.197 23.087 12.6894 23.3361 12.203C24.0575 10.7908 24.6402 9.32332 25.0844 7.80065C25.1243 7.66671 25.2042 7.56449 25.324 7.494C25.4133 7.44465 25.4498 7.36947 25.4333 7.26841C25.4098 7.13448 25.4392 7.01347 25.5214 6.90537C25.8245 6.4965 26.0255 5.80918 26.1241 4.84341Z"
    fill="#DEDFDF" />
  <path
    d="M47.1287 46.4526L43.463 46.4103C43.0612 45.4964 42.764 44.9183 42.5712 44.6762C41.9509 43.8961 41.5103 43.3015 41.2495 42.8926C40.7666 42.1278 40.0934 41.5885 39.7021 40.7708C39.5516 40.4536 39.3355 40.1786 39.0536 39.946C38.976 39.8825 38.9242 39.8025 38.8985 39.7063C38.8139 39.3937 38.6176 39.221 38.3099 39.1882C37.3617 39.0824 36.6709 39.6711 35.7333 39.664C35.2821 39.6594 34.9202 39.4314 34.6477 38.9802C34.4855 38.7099 34.2999 38.4596 34.0908 38.2295C33.7477 37.8488 33.4128 37.474 33.0862 37.1051C33.0651 37.0816 33.0404 37.0687 33.0122 37.0663C32.9793 37.0639 32.9476 37.0639 32.917 37.0663C32.8277 37.0804 32.7631 37.0463 32.7232 36.9641C32.6198 36.7502 32.4435 36.6116 32.1945 36.5482C31.5671 36.3907 30.9972 36.1228 30.485 35.7445C30.0832 35.4485 29.6109 35.4485 29.195 35.1982C29.1034 35.1455 28.9973 35.1233 28.8918 35.1348L26.5303 35.3956L26.7911 34.5743C27.1811 34.4239 27.5736 34.2689 27.9684 34.1091C28.3749 33.9446 28.7602 33.8647 29.1245 33.8694C30.344 33.8905 31.2076 33.4288 32.3672 34.2148C32.44 34.2642 32.4988 34.2512 32.5434 34.176C32.5505 34.1666 32.5611 34.1608 32.5752 34.1584C32.6151 34.1537 32.6539 34.1619 32.6915 34.1831C33.1426 34.4615 33.5303 34.7647 34.0626 34.8563C35.026 35.0255 35.7534 35.5095 36.2444 36.3085C36.4841 36.6986 36.7706 37.0639 37.1044 37.4047C37.2877 37.5903 37.4498 37.7936 37.5908 38.0145C37.767 38.294 37.9986 38.5386 38.2852 38.7476C38.3768 38.8135 38.479 38.8438 38.5918 38.8392C39.2968 38.8005 40.0475 38.5255 40.7631 38.6383C41.0334 38.6782 41.2836 38.8015 41.5138 39.0084C41.9886 39.4339 42.3234 39.7814 42.5184 40.0517C44.0576 42.1852 45.5944 44.3191 47.1287 46.4526Z"
    fill="#DEDFDF" />
  <path
    d="M24.3415 3H25.5082C25.393 3.0329 25.3061 3.06344 25.2473 3.09164C25.1745 3.12924 25.1698 3.19386 25.2332 3.2855C25.6868 3.927 25.984 4.4463 26.125 4.84342C26.0263 5.80919 25.8254 6.49651 25.5223 6.90538C25.44 7.01348 25.4106 7.13448 25.4342 7.26842C25.4506 7.36948 25.4142 7.44466 25.3249 7.494C25.205 7.5645 25.1251 7.66671 25.0852 7.80065C24.6411 9.32333 24.0584 10.7908 23.337 12.203C23.0879 12.6894 22.8329 13.197 22.5721 13.7257C22.5274 13.8173 22.4605 13.8867 22.3712 13.9336C22.1291 14.0558 22.0269 14.2673 22.0645 14.5681C22.0904 14.7725 22.1808 14.9499 22.3359 15.1003C22.6696 15.4246 22.9951 15.7477 23.3123 16.0696C23.4039 16.1636 23.438 16.2741 23.4145 16.4009C23.2477 17.3879 22.921 18.3043 22.4346 19.1502C22.1738 19.6084 22.0998 20.0666 21.8812 20.5213C21.698 20.8973 21.6545 21.265 21.7508 21.6246C21.8707 22.0757 22.0422 22.5386 22.2654 23.0133C22.3096 23.1061 22.3324 23.2073 22.3324 23.3094C22.3254 23.8075 22.3324 24.3351 22.3536 24.892C22.37 25.3549 22.5204 25.7473 22.8047 26.0692C23.1243 26.4311 23.4415 26.7495 23.7564 27.0244C23.848 27.1043 23.9138 27.2018 23.9538 27.317C24.2263 28.1206 24.7421 28.6129 25.5011 28.7938C25.6351 28.8267 25.7161 28.9101 25.7443 29.0441L25.8007 29.2943L24.8103 29.5622C24.5213 29.2062 24.1899 28.8537 23.7176 28.7727C23.5297 28.7398 23.3605 28.6681 23.2101 28.5577C23.0832 28.4684 22.9422 28.4284 22.7871 28.4378C22.2196 28.4695 21.5922 28.0994 21.4019 27.5425C21.208 26.9856 21.0882 26.5028 20.6335 26.0939C20.2105 25.7109 19.8122 25.2985 19.4386 24.8567C19.3634 24.7674 19.3282 24.664 19.3329 24.5465C19.354 24.0437 19.3564 23.5279 19.3399 22.9992C19.3282 22.6538 19.3611 22.3142 19.4386 21.9806C19.5514 21.4941 19.4116 21.0371 19.0192 20.6094C18.9338 20.5165 18.8713 20.4048 18.8364 20.2831C18.8015 20.1614 18.7953 20.033 18.8183 19.908C18.8958 19.4992 18.9851 19.1056 19.0862 18.7273C19.1872 18.3583 19.3294 17.9835 19.5126 17.6029C19.9755 16.6395 20.395 15.6513 20.771 14.6386C20.8791 14.3449 20.8697 14.0629 20.7428 13.7927C20.5407 13.3626 20.261 12.9667 19.9039 12.6048C19.7746 12.4733 19.6278 12.431 19.4633 12.4779C19.2918 12.5249 19.152 12.6671 19.0439 12.9044C19.011 12.7564 18.944 12.6694 18.8429 12.6436L24.3415 3Z"
    fill="#CFD0D0" />
  <path
    d="M20.3511 31.106L21.1089 31.8321C21.0384 32.1987 21.0736 32.4548 21.2146 32.6005C21.3321 32.7227 21.3227 32.8343 21.1864 32.9354C21.0666 33.0199 20.9397 33.2279 20.8727 33.3618C20.5649 34.0221 20.2571 34.6601 19.9492 35.2758C19.9059 35.3602 19.8364 35.4272 19.7519 35.4661L18.2362 36.1992C18.0981 36.265 17.9788 36.3651 17.8894 36.4902C17.8001 36.6153 17.7435 36.7614 17.7251 36.9147C17.6382 37.6408 17.1976 38.045 16.4034 38.1272C15.2167 38.2541 14.0289 38.4082 12.8399 38.589C12.7083 38.6077 12.612 38.676 12.5509 38.7934C12.2078 39.449 11.9787 40.1106 11.8636 40.7778C11.8283 40.9893 11.7343 41.156 11.5816 41.2783C11.4383 41.3957 11.2691 41.4863 11.074 41.5497C10.4537 41.7542 9.83099 41.8715 9.20592 41.9022C8.9827 41.9138 8.77827 41.9375 8.59262 41.9727C8.20021 42.0432 7.98405 42.0795 7.94407 42.082C6.83499 42.1641 5.80105 42.3135 4.84233 42.5296C4.72016 42.5553 4.60618 42.5342 4.50043 42.4662C4.42994 42.4193 4.36064 42.4228 4.29248 42.4767C4.21261 42.5402 4.12096 42.5719 4.01755 42.5719C3.15988 42.5744 2.2787 42.7915 1.37402 43.224L3.27384 39.9354C3.81664 39.8392 4.32067 39.6418 4.78594 39.3433C4.90109 39.2703 5.02445 39.2492 5.15603 39.2798C5.47562 39.3574 5.7799 39.295 6.06893 39.093C6.18408 39.013 6.31213 38.9721 6.45312 38.9697C7.52463 38.9485 8.52801 38.8932 9.46322 38.804C9.61362 38.7899 9.74992 38.7395 9.87209 38.6524C10.0977 38.4903 10.7744 38.5573 11.1234 38.4621C11.3372 38.4011 11.5593 38.3564 11.7895 38.3282C12.2219 38.2742 12.4886 38.0309 12.5896 37.5985C12.7412 36.9429 12.9844 36.3014 13.1924 35.6705C13.2658 35.4465 13.4031 35.249 13.5873 35.1024C13.7715 34.9559 13.9945 34.8666 14.2286 34.8457L17.1823 34.5955C17.3257 34.5838 17.435 34.5168 17.5101 34.3946L17.7533 34.0033C17.8019 33.9224 17.8712 33.8556 17.9542 33.8095C18.2832 33.6309 18.5675 33.4018 18.8072 33.1222C18.8801 33.0399 18.9694 32.9859 19.0751 32.96C19.4487 32.866 19.8106 32.6311 20.1607 32.2551C20.4709 31.9238 20.4286 31.5325 20.3511 31.106Z"
    fill="#E5E5E5" />
  <path
    d="M18.8053 28.9172L20.2469 31.0673C20.2821 31.0814 20.3174 31.0943 20.3526 31.106C20.4302 31.5325 20.4725 31.9238 20.1623 32.2551C19.8121 32.6311 19.4503 32.866 19.0767 32.96C18.9709 32.9859 18.8816 33.0399 18.8088 33.1222C18.5691 33.4018 18.2848 33.6309 17.9558 33.8095C17.8727 33.8556 17.8035 33.9225 17.7549 34.0033L17.5117 34.3946C17.4365 34.5168 17.3272 34.5838 17.1839 34.5955L14.2302 34.8458C13.996 34.8666 13.7731 34.9559 13.5889 35.1025C13.4047 35.249 13.2674 35.4465 13.1939 35.6705C12.986 36.3015 12.7428 36.943 12.5912 37.5986C12.4902 38.0309 12.2234 38.2742 11.7911 38.3282C11.5608 38.3564 11.3387 38.4011 11.1249 38.4621C10.776 38.5573 10.0992 38.4903 9.87365 38.6524C9.75145 38.7395 9.61515 38.7899 9.46479 38.804C8.52954 38.8932 7.5262 38.9485 6.45468 38.9697C6.3137 38.9721 6.18561 39.013 6.07049 39.093C5.78147 39.295 5.47714 39.3574 5.15759 39.2798C5.02598 39.2492 4.90261 39.2703 4.7875 39.3433C4.32224 39.6418 3.8182 39.8392 3.27539 39.9354L6.67322 33.9857L7.45218 34.0527C7.56261 34.0621 7.63546 34.0151 7.67071 33.9117C7.72943 33.7496 7.83637 33.6791 7.99146 33.7002C8.0831 33.712 8.17122 33.6991 8.25581 33.6614C8.35919 33.6168 8.36155 33.5663 8.26286 33.5099C8.26078 33.5081 8.2593 33.5058 8.25849 33.5032C8.25772 33.5007 8.25771 33.4979 8.25845 33.4953C8.2592 33.4927 8.26068 33.4904 8.26268 33.4886C8.26473 33.4868 8.26723 33.4856 8.26991 33.4852C9.20043 33.3959 10.1815 33.2949 11.213 33.1821C11.5162 33.1468 11.5937 32.9318 11.8792 32.9036C12.5794 32.8402 13.127 32.5794 13.5217 32.1212C13.8883 31.6982 14.1973 31.2447 14.4487 30.7606C14.6578 30.3658 14.9375 30.0616 15.2876 29.8477C16.2322 29.2767 16.9019 29.4706 17.8289 29.5375C18.0709 29.554 18.2695 29.527 18.4246 29.4565C18.7089 29.3272 18.8358 29.1475 18.8053 28.9172Z"
    fill="#F1F1F1" />
  <path
    d="M30.3339 12.0233L44.69 36.742C44.6382 36.789 44.5409 36.8243 44.3975 36.8478C43.0746 35.546 41.7434 34.2501 40.404 32.96C39.0857 31.6876 37.5031 30.9227 35.9487 29.9711C34.7527 29.2403 33.183 28.7597 31.2397 28.5295L29.1883 28.5083L28.5821 28.4167C28.4669 28.4002 28.4094 28.3332 28.4094 28.2158C28.407 27.0714 28.4141 25.9611 28.4305 24.8849C28.4352 24.657 28.4799 24.4173 28.5645 24.1659C28.6443 23.9379 28.7113 23.7065 28.7654 23.4715C28.8335 23.1707 28.8288 22.8817 28.7513 22.6044C28.6643 22.2966 28.6032 21.9817 28.568 21.6598C28.5045 21.0606 28.2049 20.5718 27.6692 20.1935C27.5517 20.1089 27.4965 19.995 27.5035 19.8516L27.5494 18.6039C27.554 18.4887 27.5869 18.3818 27.648 18.2831C28.2026 17.3902 28.635 16.4197 28.9451 15.3717C29.1237 14.7725 29.4374 14.252 29.8862 13.8103C29.9755 13.7233 29.9661 13.6493 29.858 13.5882C29.7899 13.5506 29.7476 13.4931 29.7311 13.4155C29.71 13.3145 29.7511 13.2628 29.8545 13.2604H30.0272C30.1165 13.2581 30.1506 13.2146 30.1294 13.13C30.0965 12.989 30.0178 12.9174 29.8933 12.915C29.7993 12.9126 29.7781 12.8727 29.8298 12.7952L30.3339 12.0233Z"
    fill="#F9F9F9" />
  <path
    d="M38.4862 46.4138L11.2085 46.3645C11.1897 46.2542 11.1521 46.1812 11.0957 46.146C12.804 45.8122 14.4935 45.3952 16.1642 44.8947C17.2898 44.5563 18.2708 44.1415 19.1074 43.6505C19.7559 43.2673 20.4068 42.8997 21.0601 42.5472C23.1819 41.3982 25.0148 39.0472 26.118 36.95C26.1579 36.9476 26.1932 36.9418 26.2238 36.9324C26.3271 36.8971 26.3565 36.9288 26.3119 37.0275C26.2907 37.0722 26.2978 37.1145 26.333 37.1544C26.4058 37.232 26.4916 37.2872 26.5903 37.3201C27.2424 37.5245 27.2565 38.1131 27.7887 38.2682C28.1153 38.3645 28.4126 38.5185 28.6805 38.73C29.3361 39.247 29.994 39.7758 30.6543 40.3161C30.9751 40.5804 31.1865 40.5346 31.5143 40.7038C31.6459 40.7718 31.7822 40.7838 31.9232 40.7391C32.5929 40.5346 33.3225 40.4581 34.1121 40.5099C34.1872 40.517 34.2436 40.5522 34.2812 40.6157L35.106 41.948C35.1671 42.0467 35.2423 42.1338 35.3316 42.2089C35.3785 42.2512 35.4257 42.2945 35.4726 42.3393C36.6403 43.5493 37.6449 44.9077 38.4862 46.4138Z"
    fill="#F9F9F9" />
  <path
    d="M22.1492 32.879L26.0616 36.7103C26.118 36.7268 26.1368 36.8066 26.118 36.95C25.0148 39.0472 23.1819 41.3982 21.06 42.5472C20.4068 42.8997 19.7559 43.2673 19.1073 43.6505C18.2708 44.1415 17.2898 44.5563 16.1642 44.8947C14.4935 45.3952 12.804 45.8122 11.0957 46.146C10.9617 46.1414 10.8396 46.1167 10.7291 46.0719C10.6187 46.0296 10.5505 45.9496 10.5247 45.8323C10.4777 45.6254 10.5235 45.4516 10.6621 45.3106C10.7843 45.1862 10.8595 45.0392 10.8877 44.87C10.977 44.3554 11.1039 43.8644 11.2684 43.3967C11.3976 43.0255 11.635 42.7552 11.9804 42.586C12.065 42.5462 12.1543 42.5261 12.2483 42.5261C12.542 42.5261 12.8416 42.4792 13.1471 42.3851C13.5747 42.2512 14.0235 42.1641 14.4935 42.1243C14.9306 42.089 15.3665 42.0175 15.8012 41.9093C16.2993 41.787 16.7951 41.7683 17.2886 41.8529C17.4836 41.8881 17.5765 41.806 17.567 41.6061C17.5436 41.0538 17.6657 40.5639 17.9336 40.1363C18.0253 39.9883 18.1662 39.9389 18.3566 39.9883C18.4506 40.0119 18.5317 39.9893 18.5998 39.9213C18.8583 39.6651 19.1896 39.4903 19.5938 39.3961C19.6995 39.3704 19.7982 39.3267 19.8898 39.2657L20.6617 38.7405C20.7144 38.7064 20.7541 38.6552 20.7745 38.596L21.6169 36.2239C21.6194 36.2202 21.623 36.2173 21.6271 36.2158C21.6313 36.2142 21.6359 36.214 21.6402 36.2152C21.6445 36.2163 21.6483 36.2188 21.6511 36.2223C21.6539 36.2258 21.6555 36.23 21.6557 36.2345C21.6534 36.2838 21.6722 36.3109 21.7121 36.3155C21.745 36.3179 21.7673 36.3026 21.7791 36.2697C22 35.5953 22.1292 34.9103 22.1668 34.2148C22.1736 34.103 22.1425 33.9925 22.0787 33.9011C21.9541 33.7202 21.9271 33.511 21.9976 33.2737C22.1504 33.2526 22.2009 33.121 22.1492 32.879Z"
    fill="#C3C5C5" />
  <path
    d="M18.8427 12.6436C18.9437 12.6694 19.0107 12.7564 19.0436 12.9044C18.67 14.4811 18.2705 16.0602 17.8452 17.6416C17.528 18.8259 17.3741 19.827 17.3835 20.6447C17.3952 21.6363 17.407 22.6549 17.4187 23.7006C17.4258 24.382 17.5503 25.1504 17.7923 26.0058C18.0109 26.7765 18.2353 27.5238 18.4656 28.2475L18.8039 28.9172C18.8345 29.1474 18.7076 29.3272 18.4233 29.4565C18.2682 29.527 18.0696 29.554 17.8276 29.5375C16.9006 29.4706 16.2309 29.2767 15.2863 29.8477C14.9362 30.0615 14.6565 30.3658 14.4474 30.7606C14.196 31.2447 13.887 31.6982 13.5204 32.1211C13.1256 32.5794 12.5781 32.8402 11.8779 32.9036C11.5924 32.9318 11.5148 33.1468 11.2117 33.1821C10.1801 33.2949 9.19909 33.3959 8.26857 33.4852C8.26589 33.4856 8.26339 33.4868 8.26134 33.4886C8.25933 33.4903 8.25785 33.4927 8.25711 33.4953C8.25637 33.4979 8.25637 33.5006 8.25715 33.5032C8.25796 33.5058 8.25947 33.5081 8.26152 33.5099C8.36021 33.5663 8.35785 33.6168 8.25447 33.6614C8.16988 33.699 8.08176 33.7119 7.99012 33.7002C7.83503 33.6791 7.72812 33.7496 7.66937 33.9117C7.63412 34.0151 7.56126 34.0621 7.45084 34.0527L6.67188 33.9857L18.8427 12.6436Z"
    fill="#FCFBFB" />
  <path
    d="M44.3967 36.8478C44.5402 36.8243 44.6374 36.789 44.6893 36.742L49.9622 45.9345C50.0232 46.0448 50.0105 46.1449 49.9234 46.2341C49.8484 46.307 49.732 46.355 49.5745 46.3786C48.8318 46.4233 48.3327 46.0085 48.0765 45.1344C48.0388 45.0029 47.9697 44.8922 47.8685 44.803C47.4692 44.453 47.1636 44.0688 46.9521 43.6505C46.6395 43.0326 46.2743 42.451 45.8559 41.9057C45.8372 41.8775 45.8372 41.8504 45.8559 41.8247C45.8746 41.794 45.8993 41.7728 45.9299 41.7612C46.0614 41.7023 46.0709 41.6237 45.9581 41.5251C45.1661 40.8296 44.5141 40.0542 44.0019 39.1987C43.7859 38.8346 43.4602 38.6182 43.0256 38.5502C42.9706 38.5432 42.9198 38.5185 42.8811 38.4797L42.6696 38.2682C42.5684 38.1648 42.4451 38.1131 42.2995 38.1131H40.8191C40.6968 38.1131 40.589 38.0744 40.4948 37.9968C40.2093 37.7536 39.9168 37.5351 39.6806 37.2425C39.0085 36.4131 38.3014 35.5307 37.5588 34.5955C37.3416 34.3215 37.0389 34.1279 36.6987 34.0456C35.5825 33.7777 34.5604 33.2854 33.6322 32.5688C33.369 32.3643 33.0577 32.2421 32.6982 32.2022C32.3316 32.1599 31.985 32.2351 31.6584 32.4278C31.1649 32.7203 30.5234 32.7168 29.963 32.6639C29.4625 32.6146 29.0278 32.7509 28.6589 33.0728C28.1678 33.5028 27.6015 33.8024 26.96 33.9716L27.175 33.1081C27.8376 33.0211 28.3922 32.7662 28.8386 32.3432C29.1535 32.0448 29.4414 31.8309 29.7022 31.7017C30.0124 31.549 30.373 31.5172 30.7843 31.6065C31.179 31.6911 31.5785 31.7005 31.9827 31.6347C32.4033 31.5666 32.7887 31.4514 33.1388 31.2893C33.261 31.2329 33.3855 31.2223 33.5124 31.2576C34.0869 31.4232 34.6932 31.5607 35.1408 31.9837C35.7023 32.5124 36.3226 32.8602 37.0019 33.027C38.0804 33.2925 38.9052 33.88 39.4762 34.7893C39.6338 35.0408 39.8015 35.2734 39.9802 35.4872C40.1025 35.6306 40.2305 35.768 40.3644 35.8996C40.5125 36.0453 40.6404 36.2122 40.7486 36.4001C41.3126 37.38 42.1631 37.8065 43.3005 37.6796C43.7517 37.6303 44.1595 37.7313 44.5236 37.9827C44.58 38.0227 44.641 38.0297 44.7069 38.0039C44.8197 37.9569 44.8831 37.8746 44.8972 37.7571C44.9043 37.6843 44.8806 37.6067 44.8267 37.5245C44.6787 37.2989 44.5352 37.0733 44.3967 36.8478Z"
    fill="#CBCCCC" />
</svg>