<svg width="50" height="50" viewBox="0 0 50 50" fill="none" xmlns="http://www.w3.org/2000/svg">
<g clip-path="url(#clip0_309_469)">
<path d="M4.29983 28.7051V25.3807C4.29983 25.1261 4.2442 24.9053 4.13298 24.7182C4.02601 24.5273 3.86344 24.38 3.64523 24.2766C3.42702 24.1731 3.15748 24.1214 2.83661 24.1214C2.53711 24.1214 2.27398 24.1692 2.04723 24.2647C1.82475 24.3601 1.64933 24.4855 1.52098 24.6407C1.39691 24.7958 1.33487 24.963 1.33487 25.142H0.147607C0.147607 24.9112 0.211781 24.6824 0.340134 24.4556C0.468487 24.2289 0.65246 24.0239 0.892054 23.8409C1.13592 23.6539 1.42686 23.5067 1.76485 23.3993C2.10713 23.2878 2.48791 23.2321 2.90721 23.2321C3.41205 23.2321 3.857 23.3117 4.24207 23.4709C4.63143 23.63 4.93518 23.8708 5.15339 24.193C5.37585 24.5113 5.4871 24.9112 5.4871 25.3927V28.4007C5.4871 28.6155 5.50634 28.8443 5.54487 29.0871C5.58763 29.3298 5.64964 29.5387 5.73098 29.7137V29.8092H4.49237C4.43245 29.6819 4.3854 29.5128 4.35116 29.3019C4.31695 29.0871 4.29983 28.8881 4.29983 28.7051ZM4.50522 25.894L4.51804 26.6699H3.31792C2.97994 26.6699 2.67831 26.6958 2.41303 26.7475C2.14777 26.7952 1.92529 26.8688 1.7456 26.9683C1.56591 27.0678 1.429 27.1931 1.33487 27.3443C1.24075 27.4915 1.19368 27.6646 1.19368 27.8635C1.19368 28.0665 1.24289 28.2515 1.34129 28.4186C1.43969 28.5857 1.5873 28.719 1.78411 28.8185C1.98519 28.914 2.2312 28.9617 2.52214 28.9617C2.88581 28.9617 3.20668 28.8901 3.48478 28.7468C3.76288 28.6036 3.98321 28.4285 4.14579 28.2217C4.31267 28.0147 4.40252 27.8138 4.41533 27.6188L4.92232 28.15C4.89241 28.3171 4.81112 28.5021 4.67848 28.7051C4.54585 28.908 4.36828 29.1029 4.14579 29.29C3.92761 29.473 3.66663 29.6262 3.36285 29.7495C3.06335 29.8689 2.72536 29.9286 2.34886 29.9286C1.87823 29.9286 1.46536 29.843 1.11025 29.672C0.75942 29.5008 0.485603 29.2721 0.288794 28.9856C0.0962643 28.6951 0 28.3708 0 28.0128C0 27.6666 0.0727335 27.3622 0.2182 27.0996C0.363667 26.833 0.573313 26.6122 0.847129 26.4371C1.12095 26.2581 1.45039 26.1228 1.83545 26.0312C2.2205 25.9397 2.65048 25.894 3.12539 25.894H4.50522ZM11.3978 28.0963C11.3978 27.9371 11.3592 27.79 11.2822 27.6546C11.2095 27.5154 11.0576 27.39 10.8266 27.2787C10.5998 27.1633 10.2575 27.0638 9.79973 26.9802C9.41469 26.9046 9.06603 26.8151 8.75366 26.7117C8.44563 26.6082 8.1825 26.4829 7.96429 26.3357C7.75036 26.1884 7.58567 26.0154 7.47013 25.8164C7.3546 25.6175 7.29687 25.3847 7.29687 25.1181C7.29687 24.8635 7.35679 24.6228 7.47656 24.396C7.60062 24.1692 7.77393 23.9682 7.99638 23.7932C8.22317 23.6181 8.49482 23.4808 8.81143 23.3814C9.12804 23.2819 9.48103 23.2321 9.87036 23.2321C10.4266 23.2321 10.9014 23.3237 11.295 23.5067C11.6887 23.6897 11.9903 23.9344 12.2 24.2408C12.4096 24.5432 12.5144 24.8794 12.5144 25.2494H11.3271C11.3271 25.0704 11.2694 24.8973 11.1539 24.7302C11.0426 24.5591 10.8779 24.4178 10.6597 24.3064C10.4458 24.195 10.1827 24.1393 9.87036 24.1393C9.54089 24.1393 9.27353 24.1871 9.06812 24.2826C8.86705 24.3741 8.71942 24.4915 8.62531 24.6347C8.53545 24.7779 8.49054 24.9291 8.49054 25.0883C8.49054 25.2076 8.51192 25.3151 8.55473 25.4106C8.60179 25.5021 8.68308 25.5876 8.79862 25.6672C8.91411 25.7428 9.0767 25.8144 9.28634 25.8821C9.49598 25.9497 9.76339 26.0174 10.0885 26.085C10.6576 26.2044 11.1261 26.3476 11.494 26.5147C11.862 26.6818 12.1358 26.8867 12.3154 27.1294C12.4951 27.3721 12.585 27.6666 12.585 28.0128C12.585 28.2953 12.5208 28.5539 12.3925 28.7886C12.2684 29.0234 12.0866 29.2263 11.847 29.3974C11.6117 29.5645 11.3293 29.6958 10.9999 29.7913C10.6747 29.8828 10.3089 29.9286 9.90246 29.9286C9.29062 29.9286 8.7729 29.8271 8.34937 29.6242C7.9258 29.4212 7.60491 29.1587 7.3867 28.8364C7.16853 28.5141 7.05942 28.1739 7.05942 27.8158H8.25308C8.27022 28.1182 8.36433 28.3589 8.53545 28.5379C8.70661 28.713 8.91625 28.8383 9.16438 28.914C9.41254 28.9856 9.65857 29.0214 9.90246 29.0214C10.2276 29.0214 10.4993 28.9816 10.7175 28.902C10.94 28.8225 11.109 28.713 11.2245 28.5737C11.34 28.4345 11.3978 28.2754 11.3978 28.0963ZM18.1876 28.0963C18.1876 27.9371 18.1491 27.79 18.0721 27.6546C17.9994 27.5154 17.8475 27.39 17.6164 27.2787C17.3897 27.1633 17.0474 27.0638 16.5896 26.9802C16.2046 26.9046 15.8559 26.8151 15.5436 26.7117C15.2355 26.6082 14.9724 26.4829 14.7542 26.3357C14.5403 26.1884 14.3755 26.0154 14.26 25.8164C14.1445 25.6175 14.0867 25.3847 14.0867 25.1181C14.0867 24.8635 14.1467 24.6228 14.2664 24.396C14.3905 24.1692 14.5638 23.9682 14.7863 23.7932C15.013 23.6181 15.2847 23.4808 15.6013 23.3814C15.9179 23.2819 16.2709 23.2321 16.6602 23.2321C17.2164 23.2321 17.6913 23.3237 18.085 23.5067C18.4785 23.6897 18.7802 23.9344 18.9898 24.2408C19.1995 24.5432 19.3043 24.8794 19.3043 25.2494H18.1171C18.1171 25.0704 18.0593 24.8973 17.9438 24.7302C17.8325 24.5591 17.6678 24.4178 17.4496 24.3064C17.2357 24.195 16.9725 24.1393 16.6602 24.1393C16.3308 24.1393 16.0634 24.1871 15.858 24.2826C15.6569 24.3741 15.5093 24.4915 15.4152 24.6347C15.3254 24.7779 15.2804 24.9291 15.2804 25.0883C15.2804 25.2076 15.3018 25.3151 15.3446 25.4106C15.3917 25.5021 15.4729 25.5876 15.5885 25.6672C15.704 25.7428 15.8666 25.8144 16.0762 25.8821C16.2858 25.9497 16.5533 26.0174 16.8784 26.085C17.4475 26.2044 17.9159 26.3476 18.2839 26.5147C18.6518 26.6818 18.9257 26.8867 19.1054 27.1294C19.285 27.3721 19.3749 27.6666 19.3749 28.0128C19.3749 28.2953 19.3107 28.5539 19.1824 28.7886C19.0583 29.0234 18.8764 29.2263 18.6369 29.3974C18.4015 29.5645 18.1192 29.6958 17.7897 29.7913C17.4646 29.8828 17.0987 29.9286 16.6923 29.9286C16.0805 29.9286 15.5628 29.8271 15.1392 29.6242C14.7157 29.4212 14.3948 29.1587 14.1766 28.8364C13.9584 28.5141 13.8493 28.1739 13.8493 27.8158H15.043C15.0601 28.1182 15.1542 28.3589 15.3254 28.5379C15.4965 28.713 15.7061 28.8383 15.9543 28.914C16.2024 28.9856 16.4484 29.0214 16.6923 29.0214C17.0175 29.0214 17.2892 28.9816 17.5074 28.902C17.7298 28.8225 17.8988 28.713 18.0143 28.5737C18.1299 28.4345 18.1876 28.2754 18.1876 28.0963ZM22.2243 23.3515V29.8092H21.0306V23.3515H22.2243ZM20.9408 21.6386C20.9408 21.4596 20.9986 21.3084 21.1141 21.185C21.2339 21.0617 21.4093 21 21.6403 21C21.8671 21 22.0404 21.0617 22.1602 21.185C22.2842 21.3084 22.3462 21.4596 22.3462 21.6386C22.3462 21.8097 22.2842 21.9569 22.1602 22.0803C22.0404 22.1996 21.8671 22.2593 21.6403 22.2593C21.4093 22.2593 21.2339 22.1996 21.1141 22.0803C20.9986 21.9569 20.9408 21.8097 20.9408 21.6386ZM28.1735 28.0963C28.1735 27.9371 28.135 27.79 28.0579 27.6546C27.9851 27.5154 27.8333 27.39 27.6024 27.2787C27.3756 27.1633 27.0332 27.0638 26.5755 26.9802C26.1904 26.9046 25.8417 26.8151 25.5293 26.7117C25.2213 26.6082 24.9583 26.4829 24.7402 26.3357C24.5262 26.1884 24.3613 26.0154 24.2459 25.8164C24.1304 25.6175 24.0726 25.3847 24.0726 25.1181C24.0726 24.8635 24.1325 24.6228 24.2522 24.396C24.3763 24.1692 24.5496 23.9682 24.7721 23.7932C24.9989 23.6181 25.2706 23.4808 25.5871 23.3814C25.9039 23.2819 26.2569 23.2321 26.6462 23.2321C27.2022 23.2321 27.6771 23.3237 28.0707 23.5067C28.4643 23.6897 28.7661 23.9344 28.9757 24.2408C29.1854 24.5432 29.29 24.8794 29.29 25.2494H28.1029C28.1029 25.0704 28.0451 24.8973 27.9295 24.7302C27.8183 24.5591 27.6537 24.4178 27.4356 24.3064C27.2216 24.195 26.9585 24.1393 26.6462 24.1393C26.3166 24.1393 26.0492 24.1871 25.8439 24.2826C25.6427 24.3741 25.4953 24.4915 25.4009 24.6347C25.3113 24.7779 25.2663 24.9291 25.2663 25.0883C25.2663 25.2076 25.2878 25.3151 25.3304 25.4106C25.3775 25.5021 25.4587 25.5876 25.5743 25.6672C25.6899 25.7428 25.8524 25.8144 26.062 25.8821C26.2716 25.9497 26.539 26.0174 26.8642 26.085C27.4334 26.2044 27.9017 26.3476 28.2697 26.5147C28.6377 26.6818 28.9114 26.8867 29.0913 27.1294C29.2709 27.3721 29.3606 27.6666 29.3606 28.0128C29.3606 28.2953 29.2966 28.5539 29.1682 28.7886C29.0442 29.0234 28.8623 29.2263 28.6227 29.3974C28.3875 29.5645 28.105 29.6958 27.7755 29.7913C27.4505 29.8828 27.0847 29.9286 26.6783 29.9286C26.0663 29.9286 25.5487 29.8271 25.1251 29.6242C24.7015 29.4212 24.3806 29.1587 24.1625 28.8364C23.9442 28.5141 23.8352 28.1739 23.8352 27.8158H25.0288C25.046 28.1182 25.1401 28.3589 25.3113 28.5379C25.4825 28.713 25.6921 28.8383 25.9401 28.914C26.1882 28.9856 26.4343 29.0214 26.6783 29.0214C27.0033 29.0214 27.275 28.9816 27.4931 28.902C27.7158 28.8225 27.8848 28.713 28.0001 28.5737C28.1157 28.4345 28.1735 28.2754 28.1735 28.0963ZM33.8274 23.3515V24.199H30.0732V23.3515H33.8274ZM31.3438 21.7818H32.5312V28.2097C32.5312 28.4285 32.5674 28.5937 32.6402 28.7051C32.7129 28.8165 32.807 28.8901 32.9226 28.9259C33.0382 28.9617 33.1622 28.9796 33.2947 28.9796C33.3931 28.9796 33.4958 28.9717 33.6027 28.9558C33.7139 28.9358 33.7976 28.9199 33.8532 28.908L33.8595 29.8092C33.7654 29.8371 33.6414 29.8629 33.4874 29.8868C33.3375 29.9146 33.1557 29.9286 32.9417 29.9286C32.6508 29.9286 32.3834 29.8749 32.1397 29.7674C31.8958 29.66 31.7011 29.4809 31.5555 29.2303C31.4143 28.9756 31.3438 28.6334 31.3438 28.2037V21.7818ZM38.1016 29.9286C37.618 29.9286 37.1797 29.853 36.786 29.7018C36.3965 29.5466 36.0607 29.3298 35.7783 29.0512C35.5002 28.7727 35.2863 28.4425 35.1366 28.0605C34.9869 27.6785 34.912 27.2608 34.912 26.8071V26.5565C34.912 26.0312 34.9954 25.5637 35.1622 25.1539C35.3291 24.7401 35.5558 24.39 35.8426 24.1035C36.1291 23.817 36.4543 23.6002 36.8179 23.453C37.1816 23.3058 37.5583 23.2321 37.9476 23.2321C38.444 23.2321 38.8717 23.3117 39.2312 23.4709C39.5949 23.63 39.892 23.8529 40.1231 24.1393C40.3543 24.4218 40.5252 24.756 40.6365 25.142C40.7479 25.524 40.8035 25.9417 40.8035 26.3954V26.8907H35.618V25.9895H39.6161V25.9059C39.599 25.6195 39.5349 25.3409 39.4237 25.0704C39.3166 24.7998 39.1456 24.577 38.9101 24.4019C38.6749 24.2269 38.354 24.1393 37.9476 24.1393C37.678 24.1393 37.4299 24.193 37.2031 24.3005C36.9763 24.4039 36.7817 24.5591 36.6192 24.766C36.4565 24.9729 36.3303 25.2255 36.2406 25.524C36.1506 25.8224 36.1057 26.1666 36.1057 26.5565V26.8071C36.1057 27.1135 36.1506 27.402 36.2406 27.6725C36.3346 27.9392 36.4693 28.1739 36.6449 28.3768C36.8245 28.5797 37.0407 28.7389 37.2931 28.8543C37.5496 28.9696 37.8407 29.0274 38.1657 29.0274C38.5852 29.0274 38.9401 28.9478 39.2312 28.7886C39.5221 28.6295 39.7767 28.4166 39.9948 28.15L40.7136 28.6812C40.5639 28.8921 40.3734 29.093 40.1425 29.284C39.9113 29.475 39.6268 29.6302 39.2887 29.7495C38.9551 29.8689 38.5593 29.9286 38.1016 29.9286ZM43.3768 24.3661V29.8092H42.1897V23.3515H43.3449L43.3768 24.3661ZM45.546 23.3157L45.5397 24.3422C45.4411 24.3224 45.3473 24.3104 45.2571 24.3064C45.1714 24.2985 45.0732 24.2945 44.9621 24.2945C44.6884 24.2945 44.4465 24.3343 44.2368 24.4139C44.0272 24.4934 43.8497 24.6049 43.7042 24.7481C43.5587 24.8913 43.4433 25.0624 43.3577 25.2614C43.2762 25.4563 43.2228 25.6712 43.1972 25.9059L42.8635 26.085C42.8635 25.695 42.9042 25.329 42.9854 24.9868C43.071 24.6446 43.2015 24.3422 43.3768 24.0796C43.5524 23.8131 43.7748 23.6061 44.0444 23.4589C44.3181 23.3077 44.6433 23.2321 45.0196 23.2321C45.1054 23.2321 45.2036 23.2421 45.3152 23.262C45.4263 23.2779 45.5031 23.2958 45.546 23.3157ZM47.8308 24.3661V29.8092H46.6437V23.3515H47.7987L47.8308 24.3661ZM50 23.3157L49.9933 24.3422C49.8951 24.3224 49.8009 24.3104 49.7112 24.3064C49.6254 24.2985 49.5272 24.2945 49.4161 24.2945C49.142 24.2945 48.9004 24.3343 48.6906 24.4139C48.4813 24.4934 48.3036 24.6049 48.158 24.7481C48.0125 24.8913 47.8969 25.0624 47.8116 25.2614C47.7304 25.4563 47.6768 25.6712 47.6509 25.9059L47.3174 26.085C47.3174 25.695 47.358 25.329 47.4393 24.9868C47.525 24.6446 47.6554 24.3422 47.8308 24.0796C48.0062 23.8131 48.2286 23.6061 48.4982 23.4589C48.7719 23.3077 49.0973 23.2321 49.4737 23.2321C49.5594 23.2321 49.6576 23.2421 49.7687 23.262C49.8799 23.2779 49.9571 23.2958 50 23.3157Z" fill="#DB5F94"/>
</g>
<defs>
<clipPath id="clip0_309_469">
<rect width="50" height="8.92857" fill="white" transform="translate(0 21)"/>
</clipPath>
</defs>
</svg>
