<svg width="50" height="50" viewBox="0 0 50 50" fill="none" xmlns="http://www.w3.org/2000/svg">
<g clip-path="url(#clip0_4990_4018)">
<mask id="mask0_4990_4018" style="mask-type:luminance" maskUnits="userSpaceOnUse" x="0" y="0" width="50" height="50">
<path d="M46.0938 0H3.90625C1.74889 0 0 1.74889 0 3.90625V46.0938C0 48.2511 1.74889 50 3.90625 50H46.0938C48.2511 50 50 48.2511 50 46.0938V3.90625C50 1.74889 48.2511 0 46.0938 0Z" fill="white"/>
</mask>
<g mask="url(#mask0_4990_4018)">
<path d="M46.0938 0H3.90625C1.74889 0 0 1.74889 0 3.90625V46.0938C0 48.2511 1.74889 50 3.90625 50H46.0938C48.2511 50 50 48.2511 50 46.0938V3.90625C50 1.74889 48.2511 0 46.0938 0Z" fill="#54FFF5"/>
<g filter="url(#filter0_f_4990_4018)">
<path d="M2.63284 38.7896C-5.72813 62.3127 38.9963 55.6689 62.4036 49.4066C86.3601 41.4563 69.8019 6.41111 52.62 5.6355C35.4381 4.8599 54.7504 21.8403 40.1553 26.6901C25.5601 31.54 13.0841 9.386 2.63284 38.7896Z" fill="white"/>
</g>
<g filter="url(#filter1_f_4990_4018)">
<path d="M16.7014 -8.9499C12.3155 -20.933 -3.30465 -4.68678 -10.5665 4.93424C-17.4933 15.3998 0.587594 24.4436 7.67968 19.5384C14.7718 14.6332 1.51828 13.6788 5.73631 7.3003C9.95432 0.921832 22.1837 6.02901 16.7014 -8.9499Z" fill="#00FFF0" fill-opacity="0.67"/>
</g>
<g filter="url(#filter2_f_4990_4018)">
<path d="M18.8428 44.0278C12.8606 23.8989 -12.9073 34.4992 -25.0436 42.3156C-36.7176 51.5705 -8.99904 78.1928 2.51338 76.831C14.0258 75.4691 -6.72183 63.8797 0.387307 58.2362C7.49645 52.5927 26.3208 69.1891 18.8428 44.0278Z" fill="#9D81FF"/>
</g>
<g filter="url(#filter3_f_4990_4018)">
<path d="M55.1006 -20.9674C42.1958 -36.3342 23.7222 -23.627 16.0986 -15.3524C9.42756 -5.98529 43.8027 11.1779 53.3431 8.23659C62.8835 5.29522 40.3334 -0.791093 44.393 -6.50156C48.4526 -12.212 71.2318 -1.75892 55.1006 -20.9674Z" fill="#4D94FF"/>
</g>
<path fill-rule="evenodd" clip-rule="evenodd" d="M18.2011 29.8508H26.6941L17.033 20.1271L26.8183 10.4036L29.4836 7.8125H20.668L9.44071 19.0972C8.87412 19.6659 8.87703 20.5862 9.44652 21.1521L18.2011 29.8508ZM23.3067 20.15H23.2414L23.306 20.1493L23.3067 20.15ZM23.3067 20.15L32.9672 29.8729L23.1818 39.5965L20.5166 42.1876H29.3322L40.5595 30.9036C41.1261 30.3349 41.1231 29.4146 40.5537 28.8486L31.7991 20.15H23.3067Z" fill="black"/>
</g>
</g>
<defs>
<filter id="filter0_f_4990_4018" x="-17.6253" y="-13.621" width="111.241" height="88.1703" filterUnits="userSpaceOnUse" color-interpolation-filters="sRGB">
<feFlood flood-opacity="0" result="BackgroundImageFix"/>
<feBlend mode="normal" in="SourceGraphic" in2="BackgroundImageFix" result="shape"/>
<feGaussianBlur stdDeviation="9.61538" result="effect1_foregroundBlur_4990_4018"/>
</filter>
<filter id="filter1_f_4990_4018" x="-31.3499" y="-32.4197" width="68.6705" height="72.5602" filterUnits="userSpaceOnUse" color-interpolation-filters="sRGB">
<feFlood flood-opacity="0" result="BackgroundImageFix"/>
<feBlend mode="normal" in="SourceGraphic" in2="BackgroundImageFix" result="shape"/>
<feGaussianBlur stdDeviation="9.61538" result="effect1_foregroundBlur_4990_4018"/>
</filter>
<filter id="filter2_f_4990_4018" x="-47.0862" y="13.2113" width="86.8854" height="82.9008" filterUnits="userSpaceOnUse" color-interpolation-filters="sRGB">
<feFlood flood-opacity="0" result="BackgroundImageFix"/>
<feBlend mode="normal" in="SourceGraphic" in2="BackgroundImageFix" result="shape"/>
<feGaussianBlur stdDeviation="9.61538" result="effect1_foregroundBlur_4990_4018"/>
</filter>
<filter id="filter3_f_4990_4018" x="-3.98467" y="-47.4139" width="84.0221" height="75.2159" filterUnits="userSpaceOnUse" color-interpolation-filters="sRGB">
<feFlood flood-opacity="0" result="BackgroundImageFix"/>
<feBlend mode="normal" in="SourceGraphic" in2="BackgroundImageFix" result="shape"/>
<feGaussianBlur stdDeviation="9.61538" result="effect1_foregroundBlur_4990_4018"/>
</filter>
<clipPath id="clip0_4990_4018">
<rect width="50" height="50" fill="white"/>
</clipPath>
</defs>
</svg>
