<svg width="50" height="50" viewBox="0 0 50 50" fill="none" xmlns="http://www.w3.org/2000/svg">
<path fill-rule="evenodd" clip-rule="evenodd" d="M40.6872 2.50002C40.6872 1.11929 39.5846 0 38.2243 0H32.835C31.4749 0 30.3723 1.11929 30.3723 2.50002V7.91672C30.3723 9.29745 31.4749 10.4167 32.835 10.4167H36.2221C37.5824 10.4167 38.685 11.536 38.685 12.9168V47.4997C38.685 48.8805 39.7877 49.9998 41.1478 49.9998H46.5372C47.8973 49.9998 49 48.8805 49 47.4997V12.9162C49 11.5355 47.8973 10.4162 46.5372 10.4162H43.1502C41.7899 10.4162 40.6872 9.29688 40.6872 7.91615V2.50002ZM19.9873 2.50018C19.9873 1.11945 18.8847 0.000157232 17.5245 0.000157232H12.1352C10.775 0.000157232 9.67235 1.11945 9.67235 2.50018V7.91647C9.67235 9.29718 8.56968 10.4165 7.20949 10.4165H3.46286C2.10266 10.4165 1 11.5358 1 12.9165V47.5001C1 48.8807 2.10266 50 3.46286 50H8.85216C10.2124 50 11.315 48.8807 11.315 47.5001V12.9169C11.315 11.5362 12.4177 10.4169 13.7779 10.4169H17.5245C18.8847 10.4169 19.9873 9.29759 19.9873 7.91688V2.50018ZM30.2297 22.4402C30.2297 21.0596 29.1271 19.9403 27.7668 19.9403H22.3775C21.0172 19.9403 19.9146 21.0596 19.9146 22.4402V37.6785C19.9146 39.0593 21.0172 40.1786 22.3775 40.1786H27.7668C29.1271 40.1786 30.2297 39.0593 30.2297 37.6785V22.4402Z" fill="#2B6CB0"/>
</svg>
