<svg width="50" height="50" viewBox="0 0 50 50" fill="none" xmlns="http://www.w3.org/2000/svg">
<path d="M50 13.7729C49.7032 14.2682 48.9956 15.2587 48.5398 15.2587C47.9699 15.2587 47.2219 14.9049 46.6521 14.0205C46.1962 13.313 44.8475 13.372 44.2302 13.4899C43.5178 12.6881 41.8937 10.9854 41.096 10.5892C40.0987 10.0939 38.4603 9.13883 36.6083 9.10346C34.7563 9.06808 34.1508 9.49258 33.1179 9.10346C32.085 8.71433 30.6604 9.52795 30.2686 9.81095C29.8768 10.0939 27.5618 10.8014 26.6714 10.8722C25.781 10.9429 24.2495 12.2518 24.0358 12.7117C23.8221 13.1715 23.0741 14.445 22.718 14.728C22.3618 15.011 19.8687 18.5131 18.5153 18.6192C17.1618 18.7254 15.203 19.3975 14.3125 18.6192C13.4221 17.841 13.1372 17.5226 11.855 17.7349C10.5728 17.9471 8.47151 16.2138 8.50713 14.728C8.54275 13.2423 9.25503 12.0749 9.93175 11.7919C10.6916 12.0278 12.3323 12.3296 12.8167 11.6504C13.301 10.9712 13.161 9.99962 13.0304 9.5987C12.8998 10.0822 12.4961 10.9429 11.9263 10.5184C11.2139 9.98782 10.0119 10.2354 9.61123 11.3321C9.17194 11.7448 8.24356 12.8178 8.04407 13.8083C7.79479 15.0464 8.11531 16.4968 9.21941 17.558C10.3235 18.6192 12.5673 18.7961 12.6029 19.7159C12.6386 20.6356 12.5318 21.0955 11.9263 21.803C11.3208 22.5105 10.5016 22.7934 10.6085 24.4561C10.6847 25.6424 10.9604 27.2789 11.0862 28.3119C10.6895 28.6892 9.80356 29.458 9.43313 29.5147C8.97013 29.5854 8.04407 29.6562 7.72355 30.1514C7.40303 30.6466 7.04683 31.7786 6.37012 32.3446C5.6934 32.9107 3.52084 34.3256 3.02221 34.4671C2.52358 34.6086 2.09618 35.0331 1.98933 35.4576C1.88249 35.8821 1.2414 36.3773 1.0277 36.4481C0.814001 36.5188 0.315374 37.9338 0.279757 38.3937C0.244139 38.8536 0.386605 39.5257 0.707153 39.5611C1.0277 39.5965 1.52632 39.5257 1.84687 39.3488C2.10331 39.2073 2.3505 39.0305 2.44204 38.9597C2.41801 39.3687 2.4284 40.677 2.52358 40.8345C2.63043 41.0115 2.63043 41.2237 2.87974 41.0822C3.12905 40.9407 3.20029 41.2237 3.20029 41.3298C3.20029 41.4359 3.27152 41.5421 3.52084 41.4359C3.77015 41.3298 4.83864 40.3039 4.9811 40.0209C5.12356 39.738 5.05233 39.3135 5.08795 39.172C5.12356 39.0305 5.47973 38.6413 5.58659 38.6413C5.6934 38.6413 6.01397 38.6059 6.12083 38.1815C6.22769 37.757 6.44136 36.9787 6.79755 36.5188C7.15369 36.059 8.61393 34.6086 9.43313 34.4671C10.2523 34.3256 10.3591 34.1841 10.8934 33.6181C11.4276 33.0521 11.8907 32.946 12.3537 32.9107C12.8167 32.8752 13.244 33.0168 13.8851 32.7691C14.5262 32.5215 15.4879 32.5922 15.666 32.5922C15.8441 32.5922 16.3783 32.8045 16.8413 32.2385C17.3043 31.6725 18.2304 31.0004 18.4084 30.8589C18.5865 30.7174 18.7646 30.5051 18.907 29.9392C19.3107 29.9627 20.2961 29.9462 21.0084 29.6915C21.8988 29.3732 23.2879 28.8779 24.4276 28.9841C25.5673 29.0902 27.4193 29.4439 27.9892 29.2671C28.4451 29.1256 29.2001 28.9251 29.5207 28.8425C29.5207 29.1845 29.599 29.9887 29.9124 30.4698C30.3043 31.0712 30.5535 31.6371 30.4111 32.0616C30.2686 32.4861 29.77 32.7691 29.7344 32.8752C29.6988 32.9814 30.5179 32.946 30.5535 32.9107C30.5892 32.8752 30.3043 33.2998 29.9124 33.3705C29.599 33.4271 29.2357 33.3941 29.0933 33.3705C28.8796 33.7596 28.4451 34.5803 28.4166 34.7501C28.3881 34.9199 28.4047 35.7642 28.4166 36.1651H29.2713C29.6038 35.8821 30.2971 35.2878 30.4111 35.1746C30.5535 35.0331 32.37 33.1229 32.4056 32.9107C32.4412 32.6984 32.5837 32.097 32.3344 31.814C32.085 31.531 31.6576 30.682 31.6576 29.9392V28.4534C31.7407 28.3237 31.8998 28.0218 31.8714 27.8521C32.1326 27.5926 32.6692 27.0314 32.7261 26.8615C32.7831 26.6917 32.9398 26.3427 33.0111 26.1894C33.1179 26.4135 33.353 26.8474 33.4385 26.7908C33.5453 26.72 34.2933 25.4112 34.4713 25.1282C34.6494 24.8452 35.0412 24.7391 35.3618 24.9513C35.6823 25.1636 36.6083 26.5432 36.7508 26.7908C36.8648 26.9889 36.8932 27.2271 36.8932 27.3214C36.9645 27.4629 36.3946 27.8521 36.5015 27.9228C36.587 27.9794 36.7983 27.9935 36.8932 27.9935C36.9645 28.3473 36.6795 28.5595 36.5015 28.701C36.3234 28.8425 35.8604 28.7718 35.5754 28.9487C35.2905 29.1256 35.0412 29.8684 35.0412 30.1868C35.0412 30.5051 34.8987 32.0616 35.0412 32.0616C35.1837 32.0616 35.7179 31.814 36.074 31.5664C36.359 31.3683 36.6914 30.8942 36.822 30.682C36.822 30.8707 36.8505 31.2056 36.9645 31.0358C37.107 30.8235 37.285 30.4698 37.7124 30.3636C38.1398 30.2575 38.7453 29.4793 38.8878 29.0902C39.0302 28.701 38.5316 27.7106 38.3179 27.3214C38.1042 26.9323 38.3891 25.6235 38.3179 25.2697C38.2467 24.9159 38.2111 24.1023 38.033 23.2534C37.8549 22.4043 37.285 22.7934 36.9645 22.652C36.708 22.5387 36.3544 22.6048 36.2096 22.652C36.6185 22.2345 36.9785 21.938 37.107 21.5554C37.2494 21.1309 37.8549 20.1757 38.2111 19.8927C38.496 19.6663 39.0421 19.4683 39.2795 19.3975C39.517 19.5626 39.999 19.9423 40.0275 20.1404C40.0631 20.388 40.9891 21.8384 40.8823 22.652C40.7754 23.4656 42.6987 24.3853 43.2686 23.8193C43.8384 23.2534 44.4795 23.6425 44.5507 22.2628C44.622 20.8832 45.1562 21.237 45.3699 20.1404C45.3343 19.9045 45.3628 19.2701 45.7617 18.6192C46.1606 17.9683 45.9991 17.3104 45.8685 17.0627C46.0822 17.275 46.6236 17.6641 47.0795 17.5226C47.6493 17.3458 48.1123 17.0627 48.2192 16.6736C47.9461 16.7326 47.3359 16.8151 47.0795 16.6736C46.823 16.5321 46.4265 16.4024 46.2603 16.3553C46.1297 16.1194 45.8044 15.6478 45.548 15.6478C45.4649 15.577 45.3129 15.4002 45.3699 15.2587C45.4411 15.0818 46.011 15.5417 47.0082 15.8247C48.0055 16.1076 48.8603 16.0369 49.3589 15.5417C49.8575 15.0464 50 14.1856 50 13.7729Z" fill="#1B837C"/>
<path d="M12.7227 32.9095L14.7347 27.2613C14.8009 27.0754 15.0543 27.0476 15.16 27.2146C15.2616 27.3752 15.5032 27.357 15.5793 27.183L17.1219 23.6543C17.1994 23.4773 17.4452 23.4587 17.5487 23.6222C17.6546 23.7896 17.9079 23.7652 17.9793 23.5807L18.439 22.3932C18.7063 21.7027 19.6635 21.6318 20.0313 22.2753L21.2648 24.4336C21.8222 25.4089 23.2637 25.3346 23.7159 24.3071L24.3704 22.8203C24.4853 22.5593 24.8388 22.5125 25.0187 22.7347C25.201 22.9598 25.5604 22.908 25.6705 22.6407L27.0487 19.2942C27.3404 18.5858 28.3482 18.575 28.6554 19.2767C28.956 19.9633 29.9349 19.9722 30.2482 19.2914L31.1229 17.3907C31.263 17.0862 31.6841 17.0487 31.8767 17.3235C32.0755 17.6072 32.513 17.5561 32.6399 17.2344L34.4824 12.5633C34.8329 11.6747 36.0638 11.5808 36.5473 12.4057L37.0744 13.3051C37.2875 13.6686 37.8182 13.6653 38.0268 13.2992C38.226 12.9493 38.726 12.927 38.9563 13.2577L38.99 13.3061C39.2449 13.6724 39.8035 13.6301 39.9994 13.2297L41.249 10.675C42.0865 11.1881 43.5606 12.7367 44.2298 13.49C44.8472 13.3721 46.1959 13.3132 46.6517 14.0207C47.2216 14.905 47.9695 15.2588 48.5394 15.2588C48.9953 15.2588 49.7029 14.2683 49.9996 13.773C49.9996 14.1857 49.8572 15.0465 49.3585 15.5418C48.8599 16.037 48.0052 16.1078 47.0079 15.8248C46.5279 15.6886 46.147 15.5114 45.873 15.384C45.5776 15.2466 45.4065 15.167 45.3695 15.2588C45.3126 15.4003 45.4645 15.5771 45.5476 15.6479C45.8041 15.6479 46.1293 16.1195 46.26 16.3554C46.4262 16.4025 46.8227 16.5322 47.0791 16.6737C47.3356 16.8153 47.9458 16.7327 48.2188 16.6737C48.112 17.0629 47.649 17.3459 47.0791 17.5228C46.6232 17.6643 46.0819 17.2751 45.8682 17.0629C45.9988 17.3105 46.1603 17.9685 45.7613 18.6193C45.3624 19.2702 45.3339 19.9046 45.3695 20.1405C45.2746 20.6279 45.1162 20.8288 44.9634 21.0227C44.7724 21.2651 44.59 21.4966 44.5504 22.263C44.5026 23.1888 44.1981 23.3181 43.8307 23.4741C43.6507 23.5504 43.4556 23.6333 43.2682 23.8194C42.6983 24.3854 40.775 23.4657 40.8819 22.6521C40.9575 22.0762 40.5157 21.1813 40.2384 20.6197C40.1239 20.3878 40.0375 20.2128 40.0271 20.1405C39.9986 19.9424 39.5166 19.5627 39.2792 19.3976C39.0417 19.4684 38.4956 19.6664 38.2107 19.8929C37.8546 20.1758 37.2491 21.131 37.1066 21.5555C37.0023 21.8663 36.7451 22.1202 36.4332 22.4284C36.3611 22.4996 36.286 22.5737 36.2093 22.6521C36.354 22.6049 36.7077 22.5389 36.9641 22.6521C37.0598 22.6943 37.1778 22.6893 37.3009 22.684C37.5901 22.6716 37.9077 22.6579 38.0326 23.2535C38.1426 23.7781 38.1983 24.2893 38.2415 24.6868C38.2683 24.9325 38.2903 25.1347 38.3176 25.2698C38.3455 25.4087 38.3186 25.6947 38.2885 26.0145C38.2419 26.5094 38.1877 27.0852 38.3176 27.3216C38.5312 27.7107 39.0299 28.7012 38.8874 29.0903C38.7449 29.4794 38.1395 30.2576 37.7121 30.3638C37.3355 30.4573 37.1524 30.7431 37.0168 30.9549C36.9985 30.9835 36.9811 31.0107 36.9641 31.0359C36.8502 31.2057 36.8216 30.8708 36.8216 30.6822C36.6911 30.8944 36.3586 31.3684 36.0737 31.5665C35.7175 31.8141 35.1833 32.0617 35.0408 32.0617C34.9362 32.0617 34.9853 31.222 35.0187 30.6499C35.0308 30.4432 35.0408 30.2714 35.0408 30.1869C35.0408 29.8685 35.2902 29.1257 35.5751 28.9488C35.7235 28.8566 35.9204 28.8317 36.1 28.8089C36.2651 28.788 36.4158 28.7689 36.5011 28.7012C36.5067 28.6967 36.5125 28.6921 36.5184 28.6875C36.6969 28.5461 36.9618 28.3362 36.8929 27.9937C36.7979 27.9937 36.5866 27.9795 36.5011 27.9229C36.45 27.889 36.5537 27.7824 36.6681 27.6648C36.7928 27.5365 36.9301 27.3954 36.8929 27.3216C36.8929 27.2272 36.8644 26.989 36.7504 26.7909C36.608 26.5433 35.6819 25.1637 35.3614 24.9515C35.0408 24.7392 34.6491 24.8453 34.471 25.1283C34.4196 25.2099 34.3209 25.3768 34.2038 25.5747C33.9149 26.0632 33.5142 26.7406 33.4381 26.7909C33.3526 26.8475 33.1176 26.4136 33.0107 26.1895C32.9395 26.3428 32.7828 26.6919 32.7258 26.8617C32.6688 27.0315 32.1322 27.5928 31.871 27.8522C31.8995 28.0219 31.7404 28.3238 31.6573 28.4535V29.9393C31.6573 30.6822 32.0847 31.5311 32.334 31.8141C32.5594 32.07 32.4646 32.5861 32.418 32.8396C32.413 32.8665 32.4087 32.8904 32.4052 32.9108C32.3696 33.123 30.5532 35.0332 30.4108 35.1747C30.2968 35.2879 29.6034 35.8822 29.271 36.1652H28.4162C28.4044 35.7643 28.3878 34.92 28.4162 34.7503C28.4447 34.5804 28.8792 33.7597 29.0929 33.3706C29.2354 33.3942 29.5987 33.4272 29.9121 33.3706C30.3039 33.2999 30.5888 32.8754 30.5532 32.9108C30.5176 32.9461 29.6984 32.9815 29.734 32.8754C29.7459 32.84 29.8092 32.785 29.8936 32.7116C30.0625 32.5648 30.3158 32.3447 30.4108 32.0617C30.5532 31.6373 30.3039 31.0713 29.9121 30.4699C29.5987 29.9888 29.5203 29.1846 29.5203 28.8427C29.1998 28.9252 28.4447 29.1257 27.9888 29.2672C27.5888 29.3913 26.5569 29.254 25.5832 29.1244C25.1698 29.0694 24.7668 29.0158 24.4272 28.9842C23.2875 28.8781 21.8984 29.3733 21.0081 29.6916C20.2957 29.9464 19.3103 29.9628 18.9067 29.9393C18.7642 30.5052 18.5861 30.7175 18.408 30.859C18.3832 30.8788 18.3437 30.9089 18.293 30.9476C17.9803 31.1862 17.2393 31.7517 16.8409 32.2386C16.4571 32.7079 16.0242 32.6422 15.786 32.606C15.7369 32.5986 15.696 32.5924 15.6656 32.5924C15.6428 32.5924 15.6071 32.5912 15.5609 32.5897C15.2464 32.5795 14.4438 32.5534 13.8848 32.7693C13.442 32.9403 13.1012 32.9257 12.7802 32.912C12.7609 32.9111 12.7418 32.9103 12.7227 32.9095Z" fill="url(#paint0_linear_309_514)" fill-opacity="0.62"/>
<path d="M41.5809 10.9054L40.3597 13.4021C40.0305 14.0753 39.0878 14.1463 38.659 13.5302L38.6254 13.482C38.5637 13.3933 38.4292 13.3992 38.3758 13.4931C38.0154 14.1258 37.0951 14.1314 36.7268 13.5032L36.1997 12.6038C35.8856 12.068 35.0836 12.1288 34.856 12.7057L33.0129 17.3784C32.7696 17.9949 31.9278 18.0927 31.5465 17.5486C31.5409 17.5407 31.5364 17.5381 31.5335 17.5368C31.5293 17.5351 31.5231 17.5337 31.5155 17.5344C31.5079 17.535 31.5021 17.5374 31.4983 17.54C31.4956 17.5418 31.4917 17.545 31.4876 17.5539L30.6128 19.4548C30.1562 20.447 28.7248 20.434 28.2868 19.4336C28.1214 19.0557 27.5768 19.0616 27.4197 19.443L26.0412 22.7901C25.82 23.3272 25.1045 23.4389 24.7253 23.0059L24.0832 24.4646C23.4999 25.7899 21.6339 25.8856 20.9146 24.6272L19.682 22.4704C19.4816 22.1199 18.9585 22.1584 18.813 22.5344L18.3532 23.7221C18.1984 24.1222 17.7194 24.2384 17.3961 24.0248L15.9468 27.3399C15.7847 27.7108 15.3405 27.8176 15.028 27.6295L13.1442 32.9179C13.0174 32.9217 12.8972 32.9167 12.7797 32.9116C12.6359 32.9055 12.4961 32.8994 12.3528 32.9104C12.3335 32.9119 12.3142 32.9135 12.2949 32.9153L14.356 27.1292C14.5006 26.7233 14.9797 26.5985 15.3058 26.8079L16.7534 23.4967C16.9189 23.1181 17.3764 23.0128 17.6915 23.2134L18.0639 22.2514C18.4519 21.2492 19.8464 21.1466 20.3804 22.0809L21.613 24.2377C22.0068 24.9267 23.0283 24.8743 23.3477 24.1487L24.0023 22.6616C24.233 22.1375 24.9363 22.0359 25.3104 22.4621L26.6767 19.1444C27.1017 18.1125 28.5753 18.0966 29.023 19.1192C29.1848 19.4889 29.7139 19.4938 29.8827 19.127L30.7575 17.2261C31.0261 16.6424 31.8364 16.5706 32.2059 17.0977C32.2119 17.1063 32.2165 17.1087 32.2193 17.1098C32.2234 17.1116 32.2299 17.1129 32.2378 17.112C32.2458 17.111 32.2518 17.1083 32.2554 17.1056C32.2578 17.1038 32.2618 17.1005 32.2655 17.0908L34.1087 12.4181C34.5803 11.2224 36.2428 11.0963 36.8938 12.2069L37.4209 13.1062C37.4781 13.2037 37.6208 13.2028 37.6768 13.1047C38.0211 12.4999 38.8883 12.4613 39.2863 13.0332L39.3199 13.0814C39.4 13.1965 39.5761 13.1832 39.6376 13.0575L40.8945 10.4879C40.964 10.5232 41.0309 10.5571 41.0951 10.589C41.2349 10.6584 41.3999 10.7678 41.5809 10.9054Z" fill="#4EFFD4"/>
<defs>
<linearGradient id="paint0_linear_309_514" x1="34.5481" y1="5.31304" x2="34.5481" y2="39.3775" gradientUnits="userSpaceOnUse">
<stop stop-color="#4EFFEA"/>
<stop offset="1" stop-color="#4EFFF4" stop-opacity="0"/>
</linearGradient>
</defs>
</svg>
