<svg width="50" height="50" viewBox="0 0 50 50" fill="none" xmlns="http://www.w3.org/2000/svg">
<g clip-path="url(#clip0_309_538)">
<path fill-rule="evenodd" clip-rule="evenodd" d="M50.0004 12.5001C50.0004 5.60108 44.3993 0 37.5005 0H12.5007C5.6012 0 0 5.60108 0 12.5001V37.5001C0 44.3989 5.6012 50 12.5007 50H37.5005C44.3993 50 50.0004 44.3989 50.0004 37.5001V12.5001Z" fill="url(#paint0_linear_309_538)"/>
<mask id="mask0_309_538" style="mask-type:luminance" maskUnits="userSpaceOnUse" x="0" y="0" width="51" height="50">
<path d="M50.0014 12.5001C50.0014 5.60108 44.4002 0 37.5015 0H12.5017C5.60218 0 0.000976562 5.60108 0.000976562 12.5001V37.5001C0.000976562 44.3989 5.60218 50 12.5017 50H37.5015C44.4002 50 50.0014 44.3989 50.0014 37.5001V12.5001Z" fill="white"/>
</mask>
<g mask="url(#mask0_309_538)">
<path fill-rule="evenodd" clip-rule="evenodd" d="M0.175106 9.15897C0.175106 9.15897 9.54405 10.1041 12.7986 12.9415C12.7986 12.9415 9.32166 8.8602 10.385 5.01576C10.385 5.01576 12.8215 8.7055 16.4298 10.1855C19.8866 11.603 31.1688 14.503 29.6301 21.1148C29.6301 21.1148 31.2675 21.9991 32.3065 23.6973C32.9779 24.7948 33.2815 26.3456 32.9993 27.7729C32.629 29.6453 31.6337 31.5828 28.7649 32.6364C28.7649 32.6364 24.6861 25.9445 19.1889 30.0066C16.7523 31.8079 15.9587 35.4927 17.5328 38.9619C19.0541 42.3145 23.3371 46.1793 35.0252 47.0675C38.9963 47.369 48.5633 47.7714 51.9687 42.2241C51.9687 42.2241 53.8604 48.4024 46.7536 53.5501C46.7536 53.5501 23.6882 58.4051 9.42521 54.0338C0.152179 51.1914 -2.59297 42.7203 -2.44981 32.3862C-2.44981 32.3862 -1.23777 11.3529 0.175106 9.15897Z" fill="white"/>
<mask id="mask1_309_538" style="mask-type:luminance" maskUnits="userSpaceOnUse" x="-3" y="5" width="56" height="51">
<path d="M0.175106 9.15897C0.175106 9.15897 9.54405 10.1041 12.7986 12.9415C12.7986 12.9415 9.32166 8.8602 10.385 5.01576C10.385 5.01576 12.8215 8.7055 16.4298 10.1855C19.8866 11.603 31.1688 14.503 29.6301 21.1148C29.6301 21.1148 31.2675 21.9991 32.3065 23.6973C32.9779 24.7948 33.2815 26.3456 32.9993 27.7729C32.629 29.6453 31.6337 31.5828 28.7649 32.6364C28.7649 32.6364 24.6861 25.9445 19.1889 30.0066C16.7523 31.8079 15.9587 35.4927 17.5328 38.9619C19.0541 42.3145 23.3371 46.1793 35.0252 47.0675C38.9963 47.369 48.5633 47.7714 51.9687 42.2241C51.9687 42.2241 53.8604 48.4024 46.7536 53.5501C46.7536 53.5501 23.6882 58.4051 9.42521 54.0338C0.152179 51.1914 -2.59297 42.7203 -2.44981 32.3862C-2.44981 32.3862 -1.23777 11.3529 0.175106 9.15897Z" fill="white"/>
</mask>
<g mask="url(#mask1_309_538)">
<path fill-rule="evenodd" clip-rule="evenodd" d="M28.7664 32.6361C28.7664 32.6361 28.754 30.0814 27.2966 27.7471C26.0714 25.7844 23.7808 23.9836 20.0439 23.9305C17.9958 23.9015 13.9128 25.3932 12.3588 29.2155C12.3588 29.2155 11.3532 25.0324 13.9921 22.2692C13.9921 22.2692 4.81493 24.5501 6.43492 34.7322C6.55653 35.4952 7.26268 38.7817 9.41848 41.5756C12.4159 45.4604 16.0819 48.0644 22.2997 49.371C26.5856 50.2718 32.0996 50.697 40.0376 50.2716C40.0376 50.2716 53.035 50.9917 53.2866 38.0527C53.2866 38.0527 18.5677 46.4813 28.7664 32.6361Z" fill="#FFEDDC"/>
</g>
<path fill-rule="evenodd" clip-rule="evenodd" d="M26.4526 20.6276L25.3194 22.069C25.3194 22.069 24.1674 19.5974 21.9424 17.4381L26.4526 20.6276Z" fill="#F9A14C"/>
</g>
</g>
<defs>
<linearGradient id="paint0_linear_309_538" x1="45.1939" y1="5.35921" x2="9.34404" y2="40.2469" gradientUnits="userSpaceOnUse">
<stop stop-color="#FF9133"/>
<stop offset="1" stop-color="#FF2905"/>
</linearGradient>
<clipPath id="clip0_309_538">
<rect width="50" height="50" fill="white"/>
</clipPath>
</defs>
</svg>
