<svg width="50" height="50" viewBox="0 0 50 50" fill="none" xmlns="http://www.w3.org/2000/svg">
<path d="M24.5 2C11.5212 2 1 12.5212 1 25.5C1 38.4783 11.5212 49 24.5 49C37.4788 49 48 38.4783 48 25.5C48 12.5212 37.4788 2 24.5 2Z" fill="#A00009"/>
<path fill-rule="evenodd" clip-rule="evenodd" d="M10.3272 16C10.3272 16 8.81577 20.5982 9.01876 24.9236C9.22225 29.2195 10.2687 33.7869 10.2687 34.9668C10.2687 36.1159 9.57124 40.2306 9.57124 40.2306L13.4371 37.8397C13.4371 37.8397 12.1292 36.0249 11.7517 33.7859C11.3447 31.5167 11.8687 29.0373 14.1351 28.9764C16.372 28.8853 19.8314 27.3729 19.8314 27.3729C19.8314 27.3729 19.1334 30.9421 17.6805 32.2131C16.1985 33.4533 14.6006 33.4533 14.6006 33.4533C14.6006 33.4533 15.2401 38.293 13.8161 42.7699C12.3907 47.2775 10.5887 50 10.5887 50C10.5887 50 17.3595 46.2491 23.0258 46.7029C23.0258 46.7029 18.8699 35.7225 30 35.7225C29.5355 33.7859 28.8375 30.761 27.7336 28.1905C27.1526 28.7042 26.3681 29.0373 25.5257 29.0373C23.6362 29.0373 22.0968 27.4338 22.0968 25.468C22.0968 24.6515 22.3873 23.8645 22.8518 23.2598C21.1663 23.381 15.8485 23.1385 10.3272 16Z" fill="white"/>
<path fill-rule="evenodd" clip-rule="evenodd" d="M13 17.2126C20.1888 11.2739 33.7673 13.3022 35.5485 25.5326C36.6849 33.3528 42 38.2915 42 38.2915C42 38.2915 36.7774 40.8782 35.9486 40.996C35.0268 41.172 32.8148 35.4403 25.7492 37.9091C27.0394 36.8798 28.9443 36.5854 30.9099 36.5854H32.6917L32.2609 34.9395C31.523 32.2643 30.5711 28.3246 28.698 25.4142C28.6361 26.7086 27.5309 27.7368 26.1789 27.7368C24.7661 27.7368 23.6286 26.6494 23.6286 25.2963C23.6286 23.9731 24.765 22.8857 26.1789 22.8857C26.2714 22.8857 26.3628 22.8857 26.4548 22.8857C23.9664 21.0334 22.8918 22.2681 20.0345 21.475C17.3621 20.74 14.9974 19.124 13 17.2126Z" fill="white"/>
<path fill-rule="evenodd" clip-rule="evenodd" d="M12.259 16.129L7 0.989751C26.7835 -3.95718 44.2362 10.1981 43.9976 31L38.4095 30.2842C38.1097 17.5298 28.3975 6.47353 14.7697 10.5857L16.085 13.9237C15.7564 14.0431 15.4572 14.1918 15.1584 14.3113C14.1121 14.8174 13.1568 15.4137 12.259 16.129Z" fill="white"/>
</svg>
