<svg width="50" height="50" viewBox="0 0 50 50" fill="none" xmlns="http://www.w3.org/2000/svg">
  <path fill-rule="evenodd" clip-rule="evenodd"
    d="M47.9202 25.6816C47.9155 25.8365 47.7046 25.8774 47.6437 25.7347C47.6176 25.673 47.5909 25.6112 47.5637 25.5494C47.514 25.4363 47.5279 25.3048 47.6021 25.2058C47.6174 25.1856 47.6486 25.1447 47.686 25.0959C47.7862 24.9648 47.9308 24.9844 47.9308 25.1298C47.9308 25.3207 47.9263 25.486 47.9202 25.6816ZM46.8105 22.6508C46.6396 22.9586 46.2014 22.9728 46.0116 22.676C45.9822 22.6301 45.9525 22.5842 45.9226 22.5381C45.2386 21.4879 44.4515 20.457 43.5723 19.4552C43.3565 19.2092 43.533 18.8232 43.8604 18.8229H43.8682C45.9226 18.8229 46.9995 19.3304 47.3283 19.95C47.6026 20.4683 47.5185 21.3746 46.8105 22.6508ZM46.3513 33.394C46.2412 33.6743 46.1258 33.9529 46.0046 34.2288C45.9858 34.2668 45.968 34.3052 45.9484 34.343C45.1923 35.7984 43.9235 36.9444 42.228 37.7419C41.8476 37.9206 41.4314 37.5726 41.5448 37.1679C42.1078 35.1529 42.5338 32.9677 42.8099 30.6768C42.8614 30.2496 43.0721 29.8575 43.3976 29.576C44.0949 28.9728 44.746 28.3704 45.345 27.7724L45.3515 27.7656C45.6462 27.4715 46.149 27.5981 46.269 27.997C46.8608 29.9641 46.8936 31.7963 46.3513 33.394ZM41.7426 40.6688C41.5702 40.8532 41.3941 41.0353 41.2147 41.2147C40.9022 41.5268 40.5822 41.8287 40.2553 42.1203C40.0491 42.304 39.7373 42.0743 39.854 41.8238C39.8873 41.7523 39.9203 41.6803 39.9531 41.6077C40.0905 41.3049 40.2232 40.9941 40.3522 40.6776C40.3828 40.6029 40.4471 40.5472 40.5254 40.5271C40.8505 40.4446 41.1675 40.3536 41.4762 40.254C41.7264 40.1735 41.9225 40.4768 41.7426 40.6688ZM38.3581 38.8499C37.6737 38.949 36.954 39.0131 36.2011 39.0396C34.3639 39.1039 32.4213 38.9454 30.4259 38.578C30.1826 38.5333 30.1358 38.2044 30.3564 38.0928C30.7917 37.8725 31.2272 37.6472 31.6625 37.4165C34.7158 35.7981 37.5647 34.0291 40.0586 32.2154C40.2457 32.0793 40.5033 32.2399 40.4653 32.4681C40.1195 34.5467 39.6406 36.5035 39.0392 38.2797C38.9367 38.5823 38.6745 38.804 38.3581 38.8499ZM37.6524 41.6192C36.0153 44.8389 33.9992 46.6465 32.0449 46.6101C29.9209 46.5723 27.8029 44.3604 26.2345 40.542L26.2327 40.5377C26.1331 40.2953 26.2475 40.0179 26.4876 39.9136C26.5043 39.9062 26.5209 39.899 26.5375 39.8915C26.6405 39.8468 26.7561 39.8387 26.8645 39.8693C29.7984 40.6926 32.6891 41.1223 35.3975 41.1223C35.6918 41.1223 35.9841 41.1173 36.2739 41.1072C36.6132 41.0951 36.9471 41.076 37.2751 41.0499C37.5793 41.0258 37.7909 41.3471 37.6524 41.6192ZM27.9583 47.742C26.985 47.867 25.9973 47.931 24.9999 47.931C20.5427 47.931 16.2796 46.6679 12.6194 44.3109C12.3676 44.1486 12.4746 43.7578 12.7739 43.7441C12.836 43.7412 12.894 43.7381 12.945 43.7349C13.8752 43.6744 14.895 43.5382 16.0001 43.3253C18.3508 42.8731 20.9638 42.0974 23.6999 41.0528C23.9452 40.9593 24.219 41.0809 24.3189 41.3237L24.3207 41.328C25.381 43.9096 26.6859 45.8603 28.1512 47.1012C28.3934 47.3064 28.2731 47.7015 27.9583 47.742ZM14.6976 31.6751C16.7182 30.0297 19.0858 28.388 21.6829 26.8337C21.7386 30.1554 22.1029 33.3445 22.7475 36.2251C21.7843 35.8143 20.824 35.362 19.872 34.8675C18.0281 33.9093 16.2933 32.8359 14.6976 31.6751ZM8.41364 40.5755C7.93159 39.666 8.55461 37.5593 11.7196 34.3574L11.7212 34.3558C12.0517 34.0219 12.02 33.474 11.6511 33.1833C11.5243 33.0837 11.3984 32.983 11.2733 32.8822C10.9581 32.6275 10.5019 32.6509 10.2157 32.9375C10.153 33.0003 10.1062 33.0475 10.0925 33.0617C8.51032 34.6857 7.40299 36.1889 6.78267 37.5411C6.60684 37.9242 6.07578 37.9656 5.8433 37.6139C3.38785 33.9021 2.06895 29.5526 2.06895 24.9999C2.06895 23.3723 2.23803 21.7705 2.56697 20.2147C2.61666 19.9793 2.94874 19.9642 3.01844 20.1944C3.4942 21.7652 4.26854 23.3898 5.33854 25.0327C6.77884 27.2447 8.67827 29.371 10.9291 31.3214C11.6974 31.9872 12.5088 32.6311 13.3551 33.2523C15.0706 34.5112 16.9347 35.6729 18.918 36.7033C19.7971 37.1602 20.6533 37.5962 21.5302 37.991C22.0183 38.2107 22.5739 38.2277 23.0721 38.0321C23.4856 37.8702 23.902 37.7018 24.3209 37.5267C24.7764 37.3367 25.0235 36.84 24.9028 36.3614C24.8877 36.3016 24.8758 36.2534 24.869 36.2251C24.1786 33.3193 23.7948 30.0482 23.7496 26.6219L23.7482 26.6225C23.7478 26.5818 23.748 26.5405 23.7475 26.4993C23.7455 26.312 23.7466 26.1234 23.7433 25.9366C23.7421 25.877 23.7439 25.776 23.7446 25.7162C23.7451 25.6924 23.7446 25.6688 23.7446 25.6452L23.7455 25.6449C23.7466 25.4305 23.7482 25.2162 23.752 25.001C23.7626 24.4133 23.7837 23.8298 23.8141 23.2511L23.813 23.2518C24.0259 19.1172 24.7269 15.2323 25.8424 11.9643C25.9456 11.6619 25.7843 11.3336 25.4819 11.2304C25.1872 11.1297 24.8926 11.0334 24.5986 10.9413C24.3011 10.848 23.9832 11.0085 23.8827 11.3037C22.6737 14.8528 21.9277 19.0633 21.7287 23.5189C21.7033 24.0841 21.3957 24.5986 20.909 24.887C18.2701 26.451 15.8465 28.1089 13.7528 29.7802C13.3167 30.1284 12.6936 30.1152 12.2718 29.7493C10.1734 27.93 8.40734 25.9539 7.07226 23.9036C4.44863 19.8749 3.82516 16.0797 5.31718 13.2189C5.32122 13.2121 5.32482 13.2051 5.32864 13.1986C5.51886 12.883 5.71671 12.5716 5.92266 12.2644C7.63705 9.99514 10.8279 8.68007 15.0598 8.53145C15.3276 8.52201 15.5972 8.51729 15.8692 8.51729C18.465 8.51729 21.2507 8.9456 24.0839 9.76311L24.0846 9.76244C24.1466 9.78042 24.2087 9.79908 24.2707 9.8173C24.3186 9.83146 24.3665 9.84473 24.4144 9.85912C25.0691 10.0547 25.7257 10.2717 26.3831 10.5082C26.3984 10.5136 26.4139 10.5192 26.4292 10.5246C26.6005 10.5865 26.7716 10.6499 26.9427 10.7144C26.9962 10.7346 27.05 10.7551 27.1035 10.7758C27.155 10.7956 27.2064 10.8147 27.2582 10.8347L27.2575 10.8356C28.6411 11.3711 30.0237 11.9939 31.3889 12.7035C34.0314 14.0764 36.4502 15.6858 38.5551 17.4514C34.5379 18.3717 29.8685 20.147 25.1737 22.5406C24.9572 22.6512 24.8146 22.8689 24.8009 23.1117C24.7845 23.4026 24.7629 23.9877 24.7474 24.4526C24.7377 24.7445 25.0464 24.9378 25.305 24.802L25.3077 24.8005C29.956 22.3596 34.595 20.5353 38.5789 19.5712C39.3236 19.3911 39.8056 18.6759 39.7011 17.9171C39.6278 17.3869 39.5453 16.865 39.454 16.3524C39.3393 15.7085 38.9868 15.1327 38.4665 14.7365C36.6006 13.3151 34.5442 12.0113 32.3428 10.8673C30.8594 10.0965 29.3541 9.42113 27.8457 8.8451C27.523 8.72189 27.3847 8.34056 27.5531 8.03906C29.1072 5.25894 30.9556 3.70195 32.7563 3.70195C32.775 3.70195 32.7936 3.70195 32.8123 3.7024C34.9363 3.74039 37.0543 5.95212 38.6228 9.77053C39.4167 11.7035 40.0318 13.9325 40.4523 16.3549C40.45 16.3529 40.4478 16.3511 40.4458 16.349C40.6252 17.3828 40.7698 18.4513 40.877 19.5474C40.8678 19.5532 40.8579 19.5584 40.8487 19.5642C40.8613 19.577 40.8745 19.5898 40.8873 19.6029C41.0652 21.4421 41.1403 23.3572 41.1052 25.3115C41.0832 26.5477 41.0173 27.7667 40.9107 28.9595C38.069 31.256 34.5555 33.5415 30.6934 35.5882C29.4242 36.2609 28.1553 36.887 26.8986 37.4635C26.8791 37.4725 26.8597 37.4813 26.8402 37.4903C26.7442 37.5341 26.6479 37.5786 26.5519 37.622L26.5497 37.6214C25.5085 38.0924 24.4771 38.5281 23.4629 38.9261L23.4633 38.927C23.406 38.9495 23.3491 38.9711 23.292 38.9933C23.2207 39.0212 23.1495 39.0486 23.0784 39.076C22.9082 39.1413 22.7387 39.2056 22.5696 39.2687C22.5231 39.286 22.4763 39.3043 22.4298 39.3214C22.2245 39.3976 22.0203 39.4715 21.8169 39.5444C21.7915 39.5534 21.7661 39.563 21.7409 39.572L21.74 39.5716C19.5665 40.3457 17.4959 40.9305 15.6091 41.2936C11.0496 42.1714 8.90266 41.498 8.41364 40.5755ZM11.6884 6.32355C15.5475 3.56007 20.1589 2.06895 24.9999 2.06895C26.2776 2.06895 27.539 2.1735 28.7749 2.37743C29.1059 2.43207 29.2169 2.85453 28.953 3.06161C27.7553 4.00053 26.6425 5.3898 25.6578 7.19142C25.4174 7.63098 24.9077 7.84592 24.4257 7.71012C21.163 6.79166 17.953 6.35952 14.9872 6.46362C13.8931 6.50207 12.8571 6.61292 11.8838 6.79234C11.6104 6.8427 11.4624 6.48521 11.6884 6.32355ZM43.1652 23.0357C43.1584 22.7729 43.4957 22.6607 43.6481 22.8747C43.8354 23.1376 44.0159 23.4017 44.1889 23.6673C44.4186 24.0203 44.6325 24.3712 44.8312 24.72C44.9551 24.9374 44.9254 25.2101 44.7568 25.3949C44.489 25.689 44.1985 25.993 43.8831 26.3082C43.768 26.4231 43.6506 26.5382 43.531 26.6536C43.3826 26.797 43.1337 26.6877 43.1418 26.4813C43.1564 26.1052 43.1672 25.7277 43.1739 25.3484C43.1879 24.5713 43.1845 23.7999 43.1652 23.0357ZM40.7871 8.36867C40.9312 8.50537 41.0737 8.64432 41.2147 8.78529C43.4244 10.995 45.1264 13.577 46.2645 16.3891C46.3794 16.6726 46.1386 16.9694 45.8376 16.9152C45.179 16.7969 44.438 16.7441 43.6175 16.7578C43.0489 16.7672 42.5547 16.3688 42.4549 15.809C42.0091 13.309 41.3644 10.9997 40.5366 8.98427C40.4894 8.86938 40.4417 8.75584 40.3934 8.64342C40.2881 8.39812 40.5935 8.18475 40.7871 8.36867ZM49.4599 19.8003C48.472 15.1064 46.149 10.7935 42.6775 7.32205C37.9557 2.60024 31.6778 0 24.9999 0C18.3222 0 12.0441 2.60024 7.32228 7.32205C6.17381 8.47052 5.15237 9.7114 4.26179 11.0271C3.99693 11.3797 3.75973 11.752 3.54883 12.1417C1.23548 15.9857 0 20.3979 0 24.9999C0 31.6778 2.60047 37.9557 7.32228 42.6775C12.0441 47.3993 18.3222 50 24.9999 50C31.6778 50 37.9557 47.3993 42.6775 42.6775C44.9061 40.4491 46.6614 37.8738 47.8944 35.0737C48.045 34.7634 48.1766 34.4458 48.2897 34.1218C49.412 31.2537 50 28.1721 50 24.9999C50 23.2538 49.8206 21.5358 49.4737 19.8651C49.4689 19.8435 49.4647 19.8219 49.4599 19.8003Z"
    fill="#8033FB" />
</svg>