<svg width="50" height="50" viewBox="0 0 50 50" fill="none" xmlns="http://www.w3.org/2000/svg">
  <path fill-rule="evenodd" clip-rule="evenodd"
    d="M32.3441 18.8662C35.4728 16.8992 36.1367 15.4114 36.1626 15.4214C36.1899 15.4328 35.9456 16.2444 34.9295 17.2815C32.0279 20.4239 26.0322 22.1071 26.0293 22.0786C26.025 22.0486 27.2437 20.6892 27.2724 20.6849C27.2724 20.6849 30.1122 20.2684 32.3441 18.8662Z"
    fill="#000" />
  <path fill-rule="evenodd" clip-rule="evenodd"
    d="M36.1638 15.3859C36.1638 15.3859 37.7205 31.9297 25.5033 34.3597C13.2847 36.7897 15.0559 18.47 25.2902 17.4988C27.6201 17.2765 28.5302 19.817 27.2788 20.9129C25.1836 22.7505 20.4646 28.6691 26.1239 29.4308C34.6619 30.5798 36.1638 15.3859 36.1638 15.3859Z"
    fill="#000" />
  <path fill-rule="evenodd" clip-rule="evenodd"
    d="M40.3363 34.6902C37.2225 39.2142 31.9974 42.1864 26.0799 42.1864C16.5486 42.1864 8.81049 34.4781 8.81049 24.9831C8.81049 15.4886 16.5486 7.78032 26.0799 7.78032C31.9974 7.78032 37.2225 10.7525 40.3363 15.2765L42.5443 18.485L48.9857 14.0855L46.7776 10.8771C42.2576 4.31002 34.6697 -3.05176e-05 26.0799 -3.05176e-05C12.2379 -3.05176e-05 1 11.1945 1 24.9831C1 38.7718 12.2379 49.9663 26.0799 49.9663C34.6697 49.9663 42.2576 45.6567 46.7776 39.0897L48.9857 35.8812L42.5443 31.4818L40.3363 34.6902Z"
    fill="#000" />
</svg>