<svg width="50" height="50" viewBox="0 0 50 50" fill="none" xmlns="http://www.w3.org/2000/svg">
<path d="M40.7181 0H9.28188C4.1552 0 0 4.1204 0 9.20417V40.3771C0 45.4609 4.1552 49.5813 9.28188 49.5813H40.7181C45.8448 49.5813 50 45.4609 50 40.3771V9.20417C50 4.1204 45.8448 0 40.7181 0Z" fill="#F0C43F"/>
<path d="M40.33 19.2136V19.2167C40.33 19.2841 40.33 19.3501 40.3269 19.4207C40.3239 19.5357 40.3176 19.6523 40.3068 19.7689C40.296 19.8916 40.282 20.0143 40.2666 20.1355C40.2187 20.496 40.1413 20.8504 40.0361 21.1971C40.0005 21.3152 39.9618 21.4333 39.9186 21.5484C39.0491 20.8243 38.0529 20.2429 36.97 19.8426C37.0071 19.64 37.0257 19.4314 37.0257 19.2182C37.0257 18.9697 36.9993 18.7304 36.9514 18.4956C36.9406 18.4389 36.9267 18.3806 36.9112 18.3239C36.8818 18.2103 36.8477 18.0999 36.8075 17.9925C36.7673 17.8835 36.7209 17.7762 36.6698 17.6703C36.3945 17.0997 35.9675 16.6134 35.44 16.2605C35.1074 16.0366 34.7315 15.8679 34.3293 15.7651C34.2721 15.7498 34.2132 15.736 34.156 15.7252C33.924 15.6776 33.6811 15.6531 33.432 15.6531C33.3113 15.6531 33.1907 15.6592 33.0731 15.6715C31.2569 15.8495 29.8384 17.3682 29.8384 19.2182C29.8384 19.4391 29.8585 19.6554 29.8988 19.864C28.822 20.269 27.8304 20.852 26.9672 21.5791C26.7645 21.0375 26.6299 20.473 26.5712 19.8962C26.5712 19.8793 26.5681 19.8625 26.5665 19.8441C26.5541 19.7122 26.5449 19.5802 26.5403 19.4498V19.4207C26.5403 19.3517 26.5371 19.2841 26.5371 19.2167V19.2136C26.5371 18.9651 26.5495 18.7196 26.5773 18.4773C26.5866 18.3913 26.5975 18.307 26.6083 18.2196C26.6686 17.8084 26.7661 17.408 26.8991 17.023C26.9301 16.9294 26.9641 16.8358 27.0012 16.7438C27.1095 16.4662 27.2364 16.1977 27.3787 15.9384C27.4297 15.8449 27.4839 15.7528 27.5396 15.6623C27.5968 15.5703 27.654 15.4813 27.7144 15.3938C27.7778 15.3033 27.8427 15.2113 27.9077 15.1239C27.9758 15.0364 28.0408 14.9536 28.1104 14.8677C28.1104 14.8677 28.1135 14.8677 28.1135 14.8646C28.2141 14.7434 28.3208 14.6253 28.4291 14.5118C28.539 14.3982 28.6519 14.2878 28.7694 14.182C28.8855 14.0746 29.0045 13.9734 29.1299 13.8752C29.1917 13.8276 29.2552 13.7785 29.3202 13.7294C29.8941 13.3076 30.536 12.9701 31.2291 12.7385C31.3374 12.7032 31.4441 12.6694 31.554 12.6372C31.6607 12.6081 31.769 12.5804 31.8773 12.5543H31.885C32.1635 12.4915 32.4497 12.4454 32.7374 12.4163C32.7947 12.4101 32.8534 12.4055 32.9123 12.401C33.0855 12.3887 33.2634 12.381 33.4413 12.381C33.9147 12.381 34.3788 12.4286 34.8259 12.5191C34.9373 12.5421 35.0471 12.5682 35.1569 12.5958C35.2668 12.6234 35.3735 12.6526 35.4833 12.6878C35.6442 12.7369 35.8036 12.7936 35.9598 12.855C36.0279 12.8811 36.0944 12.9087 36.1609 12.9379C36.2321 12.967 36.3032 12.9993 36.3713 13.0314C37.0937 13.3705 37.7466 13.8307 38.3034 14.383C38.4195 14.498 38.534 14.6192 38.6423 14.7434C38.6778 14.7848 38.715 14.8278 38.7521 14.8708C38.8125 14.9428 38.8697 15.0165 38.9254 15.0901C39.1357 15.3647 39.326 15.6546 39.4931 15.9615C39.5457 16.0581 39.5983 16.1547 39.6447 16.2529C39.6447 16.2575 39.6494 16.2605 39.6494 16.2621C39.6942 16.3511 39.736 16.4447 39.7746 16.5367C39.8288 16.6609 39.8798 16.7867 39.9247 16.9156C39.9402 16.9524 39.9541 16.9893 39.965 17.026C40.0965 17.4111 40.1954 17.8099 40.2542 18.2226C40.2651 18.31 40.2774 18.3944 40.2852 18.4803C40.3146 18.7227 40.3269 18.9666 40.3269 19.2167L40.33 19.2136Z" fill="black"/>
<path d="M23.242 30.3506C23.242 34.1167 20.148 37.1633 16.3657 37.1633C12.5833 37.1633 9.47852 34.1167 9.47852 30.3506H12.7751C12.7751 32.3096 14.3855 33.9111 16.3657 33.9111C18.3458 33.9111 19.9299 32.3096 19.9299 30.3506H23.242Z" fill="black"/>
<path d="M16.2875 12.3828C11.8492 12.3828 8.22461 15.9601 8.22461 20.3782C8.22461 24.7962 11.8492 28.3398 16.2875 28.3398C20.7257 28.3398 24.3333 24.7793 24.3333 20.3782C24.3333 15.977 20.7257 12.3828 16.2875 12.3828ZM16.2875 25.0646C13.6576 25.0646 11.5274 22.9569 11.5274 20.3767C11.5274 17.7964 13.6591 15.6565 16.2875 15.6565C18.9158 15.6565 21.0321 17.7703 21.0321 20.3767C21.0321 22.983 18.9065 25.0646 16.2875 25.0646Z" fill="black"/>
<path d="M33.4632 21.2137C29.0249 21.2137 25.4004 24.7912 25.4004 29.2091C25.4004 33.6272 29.0249 37.1707 33.4632 37.1707C37.9015 37.1707 41.5091 33.6103 41.5091 29.2091C41.5091 24.808 37.9015 21.2137 33.4632 21.2137ZM33.4632 33.8956C30.8334 33.8956 28.7032 31.7878 28.7032 29.2076C28.7032 26.6274 30.8349 24.4874 33.4632 24.4874C36.0915 24.4874 38.2078 26.6013 38.2078 29.2076C38.2078 31.8139 36.0823 33.8956 33.4632 33.8956Z" fill="black"/>
</svg>
