<svg width="50" height="50" viewBox="0 0 50 50" fill="none" xmlns="http://www.w3.org/2000/svg">
<g clip-path="url(#clip0_309_640)">
<path fill-rule="evenodd" clip-rule="evenodd" d="M24.9493 0C38.7284 -1.18359e-05 49.8986 11.1928 49.8986 25C49.8986 38.8071 38.7284 50 24.9493 50C11.1702 50 0 38.8071 0 25C0 11.1928 11.1702 0 24.9493 0ZM25.0425 44.1643C14.5312 44.1643 6.0102 35.6259 6.0102 25.0934C6.0102 14.5608 14.5312 6.02241 25.0425 6.02241C32.2055 6.02241 38.4443 9.98759 41.6921 15.8469C42.734 17.7266 41.1934 19.8045 39.0477 19.8045C37.7725 19.8045 36.6466 19.0301 35.9487 17.9607C33.6236 14.3984 29.6073 12.0448 25.0425 12.0448C17.8506 12.0448 12.0204 17.8869 12.0204 25.0934C12.0204 32.2999 17.8506 38.1419 25.0425 38.1419C29.8606 38.1419 34.0676 35.5199 36.3198 31.6222C36.9885 30.4649 38.1497 29.6102 39.4843 29.6102C41.5487 29.6102 43.0703 31.5647 42.1673 33.4249C39.081 39.7826 32.5724 44.1643 25.0425 44.1643Z" fill="white"/>
</g>
<defs>
<clipPath id="clip0_309_640">
<rect width="50" height="50" fill="white"/>
</clipPath>
</defs>
</svg>
