<svg width="50" height="50" viewBox="0 0 50 50" fill="none" xmlns="http://www.w3.org/2000/svg">
<g clip-path="url(#clip0_5319_21623)">
<path d="M16.1881 40.7908V38.8068H17.9369C18.1035 38.8068 18.2622 38.8227 18.4128 38.8543C18.5714 38.8781 18.7102 38.9256 18.8292 38.9969C18.9482 39.0682 19.0434 39.1672 19.1147 39.2939C19.1861 39.4206 19.2218 39.583 19.2218 39.781C19.2218 40.1374 19.1147 40.3948 18.9006 40.5532C18.6865 40.7116 18.4128 40.7908 18.0797 40.7908H16.1881ZM14.3203 37.3574V45.84H18.4366C18.8173 45.84 19.1861 45.7924 19.543 45.6974C19.9079 45.6023 20.229 45.4558 20.5067 45.2578C20.7922 45.0598 21.0182 44.8063 21.1848 44.4975C21.3514 44.1807 21.4347 43.8084 21.4347 43.3808C21.4347 42.8501 21.3038 42.3987 21.0421 42.0263C20.7883 41.6462 20.3996 41.3809 19.8761 41.2304C20.2568 41.0483 20.5423 40.8146 20.7327 40.5294C20.931 40.2443 21.0302 39.8879 21.0302 39.4602C21.0302 39.0642 20.9627 38.7315 20.8279 38.4623C20.701 38.193 20.5186 37.9792 20.2806 37.8208C20.0427 37.6544 19.7572 37.5356 19.4241 37.4643C19.091 37.3931 18.7221 37.3574 18.3176 37.3574H14.3203ZM16.1881 44.3906V42.062H18.2225C18.627 42.062 18.9522 42.1571 19.198 42.3471C19.4439 42.5293 19.5668 42.8382 19.5668 43.2738C19.5668 43.4956 19.5272 43.6777 19.4479 43.8203C19.3765 43.9629 19.2773 44.0777 19.1504 44.1648C19.0235 44.2441 18.8768 44.3035 18.7102 44.3431C18.5437 44.3747 18.3692 44.3906 18.1868 44.3906H16.1881Z" fill="white"/>
<path d="M22.4004 39.6979V45.84H24.0897V43.0718C24.0897 42.7947 24.1175 42.5372 24.173 42.2997C24.2286 42.062 24.3198 41.8561 24.4467 41.6818C24.5815 41.4997 24.756 41.3572 24.9701 41.2542C25.1843 41.1512 25.446 41.0997 25.7553 41.0997C25.8584 41.0997 25.9655 41.1076 26.0766 41.1235C26.1876 41.1314 26.2827 41.1433 26.362 41.1591V39.5909C26.2273 39.5513 26.1043 39.5315 25.9933 39.5315C25.7791 39.5315 25.5729 39.5632 25.3746 39.6266C25.1764 39.6899 24.9899 39.781 24.8155 39.8998C24.641 40.0107 24.4863 40.1493 24.3515 40.3157C24.2167 40.474 24.1096 40.6483 24.0302 40.8383H24.0065V39.6979H22.4004Z" fill="white"/>
<path d="M28.6405 38.7474V37.3574H26.9512V38.7474H28.6405ZM26.9512 39.6979V45.84H28.6405V39.6979H26.9512Z" fill="white"/>
<path d="M34.2178 42.7511C34.2178 43.0045 34.1939 43.25 34.1464 43.4877C34.0988 43.7252 34.0195 43.9391 33.9084 44.1292C33.7974 44.3113 33.6467 44.4579 33.4563 44.5688C33.2739 44.6796 33.0439 44.7351 32.7663 44.7351C32.5046 44.7351 32.2786 44.6796 32.0882 44.5688C31.9058 44.45 31.7511 44.2994 31.6242 44.1173C31.5052 43.9272 31.418 43.7134 31.3625 43.4758C31.307 43.2382 31.2792 43.0006 31.2792 42.7629C31.2792 42.5095 31.303 42.2679 31.3506 42.0383C31.4061 41.8006 31.4894 41.5908 31.6004 41.4086C31.7194 41.2264 31.8741 41.0799 32.0644 40.9691C32.2547 40.8581 32.4887 40.8027 32.7663 40.8027C33.0439 40.8027 33.2739 40.8581 33.4563 40.9691C33.6387 41.0799 33.7855 41.2264 33.8965 41.4086C34.0155 41.5829 34.0988 41.7888 34.1464 42.0263C34.1939 42.2561 34.2178 42.4976 34.2178 42.7511ZM34.2415 45.0558V45.84H35.8476V37.3574H34.1583V40.4463H34.1345C33.9442 40.1453 33.6824 39.9196 33.3493 39.7691C33.0241 39.6107 32.679 39.5315 32.3142 39.5315C31.8621 39.5315 31.4656 39.6226 31.1245 39.8048C30.7835 39.979 30.4979 40.2127 30.268 40.5057C30.0459 40.7987 29.8754 41.1393 29.7564 41.5274C29.6454 41.9076 29.5898 42.3036 29.5898 42.7154C29.5898 43.1431 29.6454 43.555 29.7564 43.9509C29.8754 44.347 30.0459 44.6994 30.268 45.0083C30.4979 45.3093 30.7875 45.5509 31.1365 45.733C31.4854 45.9073 31.8899 45.9944 32.35 45.9944C32.7544 45.9944 33.1153 45.9231 33.4326 45.7806C33.7577 45.63 34.0195 45.3885 34.2178 45.0558H34.2415Z" fill="white"/>
<path d="M39.8739 44.3906C39.6122 44.3906 39.394 44.3351 39.2196 44.2243C39.0451 44.1133 38.9023 43.9708 38.7913 43.7966C38.6882 43.6223 38.6128 43.4283 38.5652 43.2144C38.5256 42.9927 38.5057 42.7709 38.5057 42.5491C38.5057 42.3195 38.5296 42.1016 38.5771 41.8957C38.6326 41.6818 38.7159 41.4957 38.8269 41.3374C38.9459 41.171 39.0887 41.0403 39.2553 40.9453C39.4298 40.8503 39.6359 40.8028 39.8739 40.8028C40.1515 40.8028 40.3815 40.8542 40.5639 40.9572C40.7463 41.0601 40.8931 41.1987 41.0041 41.3729C41.1152 41.5472 41.1945 41.7492 41.242 41.9789C41.2896 42.2007 41.3134 42.4382 41.3134 42.6917C41.3134 42.9135 41.2817 43.1273 41.2182 43.3332C41.1627 43.5312 41.0755 43.7095 40.9565 43.8678C40.8375 44.0262 40.6868 44.153 40.5044 44.248C40.322 44.3431 40.1118 44.3906 39.8739 44.3906ZM42.9195 45.448V39.6979H41.3134V40.5176H41.2896C41.0834 40.1612 40.8256 39.9078 40.5164 39.7572C40.215 39.6068 39.862 39.5315 39.4575 39.5315C39.0292 39.5315 38.6485 39.6147 38.3154 39.781C37.9902 39.9474 37.7166 40.1731 37.4945 40.4582C37.2724 40.7354 37.1019 41.0601 36.983 41.4324C36.8719 41.7967 36.8164 42.1769 36.8164 42.5729C36.8164 42.9927 36.864 43.3926 36.9591 43.7728C37.0622 44.1451 37.2209 44.4737 37.435 44.7589C37.6492 45.036 37.9228 45.2578 38.2559 45.4241C38.5891 45.5826 38.9856 45.6618 39.4456 45.6618C39.8184 45.6618 40.1713 45.5865 40.5044 45.436C40.8455 45.2776 41.1072 45.036 41.2896 44.7114H41.3134V45.5192C41.3213 45.9548 41.2143 46.3152 40.9922 46.6003C40.778 46.8855 40.433 47.028 39.9572 47.028C39.6558 47.028 39.3901 46.9647 39.1601 46.8379C38.9301 46.7191 38.7754 46.5013 38.6961 46.1845H37.0186C37.0424 46.533 37.1376 46.83 37.3041 47.0755C37.4787 47.3289 37.6928 47.5349 37.9466 47.6933C38.2083 47.8517 38.4938 47.9666 38.8032 48.0378C39.1204 48.117 39.4298 48.1566 39.7312 48.1566C40.4371 48.1566 41.0001 48.0616 41.4205 47.8715C41.8409 47.6814 42.1621 47.4478 42.3841 47.1706C42.6062 46.9013 42.749 46.6082 42.8124 46.2914C42.8838 45.9746 42.9195 45.6935 42.9195 45.448Z" fill="white"/>
<path d="M48.2989 42.1095H45.5507C45.5586 41.9908 45.5824 41.8561 45.6221 41.7057C45.6696 41.5551 45.745 41.4126 45.8481 41.278C45.9591 41.1433 46.1019 41.0324 46.2764 40.9453C46.4588 40.8503 46.6848 40.8028 46.9545 40.8028C47.3669 40.8028 47.6723 40.9136 47.8705 41.1354C48.0768 41.3572 48.2195 41.6818 48.2989 42.1095ZM45.5507 43.1788H49.9882C50.0199 42.7035 49.9802 42.2481 49.8692 41.8126C49.7582 41.377 49.5758 40.9889 49.322 40.6483C49.0761 40.3077 48.7588 40.0384 48.3702 39.8405C47.9816 39.6345 47.5255 39.5315 47.0021 39.5315C46.5341 39.5315 46.1059 39.6147 45.7172 39.781C45.3365 39.9474 45.0074 40.177 44.7297 40.4701C44.4522 40.7552 44.2381 41.0958 44.0874 41.4918C43.9367 41.8878 43.8613 42.3154 43.8613 42.7749C43.8613 43.2501 43.9327 43.6856 44.0755 44.0817C44.2261 44.4777 44.4363 44.8183 44.706 45.1034C44.9757 45.3886 45.3048 45.6103 45.6934 45.7687C46.082 45.9192 46.5183 45.9944 47.0021 45.9944C47.7001 45.9944 48.2948 45.836 48.7866 45.5192C49.2784 45.2024 49.6432 44.6757 49.8812 43.9391H48.394C48.3385 44.1292 48.1878 44.3114 47.9419 44.4857C47.6961 44.652 47.4026 44.7351 47.0615 44.7351C46.5857 44.7351 46.2209 44.6124 45.9671 44.3668C45.7133 44.1213 45.5745 43.7253 45.5507 43.1788Z" fill="white"/>
<path d="M4.62792 42.7511C4.62792 43.0045 4.6041 43.25 4.55652 43.4877C4.50895 43.7252 4.42966 43.9391 4.31857 44.1292C4.20756 44.3113 4.05687 44.4579 3.86649 44.5688C3.68408 44.6796 3.4541 44.7351 3.17646 44.7351C2.91476 44.7351 2.68872 44.6796 2.49834 44.5688C2.31593 44.45 2.1613 44.2994 2.03435 44.1173C1.91538 43.9272 1.82819 43.7134 1.77265 43.4758C1.71711 43.2382 1.68934 43.0006 1.68934 42.7629C1.68934 42.5095 1.71316 42.2679 1.76074 42.0383C1.81628 41.8006 1.89952 41.5908 2.0106 41.4086C2.12958 41.2264 2.28422 41.0799 2.4746 40.9691C2.66489 40.8581 2.8989 40.8027 3.17646 40.8027C3.4541 40.8027 3.68408 40.8581 3.86649 40.9691C4.0489 41.0799 4.19565 41.2264 4.30666 41.4086C4.42563 41.5829 4.50895 41.7888 4.55652 42.0263C4.6041 42.2561 4.62792 42.4976 4.62792 42.7511ZM4.65167 45.0558V45.84H6.25777V37.3574H4.56844V40.4463H4.54461C4.35431 40.1453 4.09253 39.9196 3.75943 39.7691C3.43422 39.6107 3.08928 39.5315 2.72438 39.5315C2.2723 39.5315 1.87577 39.6226 1.5347 39.8048C1.19363 39.979 0.908102 40.2127 0.678118 40.5057C0.456024 40.7987 0.285527 41.1393 0.166551 41.5274C0.055543 41.9076 0 42.3036 0 42.7154C0 43.1431 0.055543 43.555 0.166551 43.9509C0.285527 44.347 0.456024 44.6994 0.678118 45.0083C0.908102 45.3093 1.19765 45.5509 1.54661 45.733C1.89557 45.9073 2.30008 45.9944 2.76012 45.9944C3.16463 45.9944 3.5255 45.9231 3.84275 45.7806C4.16788 45.63 4.42966 45.3885 4.62792 45.0558H4.65167Z" fill="white"/>
<path d="M11.5547 42.1095H8.80652C8.81449 41.9908 8.83824 41.8561 8.87793 41.7057C8.9255 41.5551 9.00085 41.4126 9.10396 41.278C9.21497 41.1433 9.35778 41.0324 9.53222 40.9453C9.71463 40.8503 9.94066 40.8028 10.2103 40.8028C10.6228 40.8028 10.9281 40.9136 11.1264 41.1354C11.3326 41.3572 11.4754 41.6818 11.5547 42.1095ZM8.80652 43.1788H13.2441C13.2758 42.7035 13.2362 42.2481 13.1251 41.8126C13.0141 41.377 12.8317 40.9889 12.5779 40.6483C12.3319 40.3077 12.0147 40.0384 11.6261 39.8405C11.2375 39.6345 10.7814 39.5315 10.258 39.5315C9.78997 39.5315 9.36172 39.6147 8.97307 39.781C8.5924 39.9474 8.26324 40.177 7.9856 40.4701C7.70805 40.7552 7.49392 41.0958 7.34323 41.4918C7.19253 41.8878 7.11719 42.3154 7.11719 42.7749C7.11719 43.2501 7.18851 43.6856 7.33131 44.0817C7.48201 44.4777 7.69219 44.8183 7.96185 45.1034C8.23152 45.3886 8.56068 45.6103 8.94933 45.7687C9.33789 45.9192 9.77411 45.9944 10.258 45.9944C10.9559 45.9944 11.5508 45.836 12.0425 45.5192C12.5342 45.2024 12.8991 44.6757 13.137 43.9391H11.6499C11.5943 44.1292 11.4436 44.3114 11.1978 44.4857C10.952 44.652 10.6585 44.7351 10.3175 44.7351C9.84157 44.7351 9.47675 44.6124 9.22294 44.3668C8.96913 44.1213 8.83035 43.7253 8.80652 43.1788Z" fill="white"/>
<path d="M44.5601 29.9279H35.9077C34.0471 29.9279 33.2684 28.4004 33.1116 27.6366C32.9754 26.9815 32.7819 26.3483 32.5364 25.7425C32.1219 24.4346 32.827 23.7207 33.2313 23.5271L36.6964 21.529C37.1741 22.324 37.559 23.1884 37.8783 24.0818C38.0616 24.576 38.7452 25.4915 40.0133 25.1993L43.808 24.1921C44.2866 26.0357 44.5601 27.9477 44.5601 29.9279Z" fill="white"/>
<path fill-rule="evenodd" clip-rule="evenodd" d="M37.9956 14.1543C35.2605 11.4229 31.8415 9.3743 27.9437 8.35007L26.5078 13.7446C29.3797 14.4956 31.9782 16.0662 34.0296 18.1148L37.9956 14.1543Z" fill="white"/>
<path d="M7.635 21.4607C6.199 23.9872 5.37839 26.8552 5.37839 29.9279H2.82932C2.28367 29.9279 1.45218 29.7384 0.64664 28.8822C0.00221136 28.1971 -0.0399976 27.109 0.0194905 26.6506C0.348569 24.4819 0.991419 22.413 1.86788 20.4786C2.11041 19.9137 2.95926 18.9479 4.41443 19.6035L7.635 21.4607Z" fill="white"/>
<path d="M44.5607 29.9279C44.5607 27.9477 44.2872 26.0357 43.8086 24.192L47.3417 23.2543C47.9717 23.089 49.3179 23.1475 49.6638 24.7045C49.7942 25.3773 49.9007 26.0622 49.9816 26.7544C50.0458 27.1523 49.987 28.1608 49.2386 29.0119C48.4902 29.863 47.4197 29.928 47.1339 29.928L44.5607 29.9279Z" fill="white"/>
<path d="M34.0293 18.1148L40.6307 11.5227C41.0917 11.0902 42.2761 10.5107 43.3259 11.6524C44.0862 12.5244 44.7953 13.4474 45.4459 14.4289C45.7193 14.9789 45.9717 16.2485 44.7943 16.9275L36.6962 21.5973C35.9441 20.2999 35.055 19.139 34.0293 18.1148Z" fill="white"/>
<path d="M33.4145 10.6038C30.1323 8.69186 26.303 7.5993 22.2002 7.5993C20.7932 7.5993 19.4207 7.73682 18.0826 7.98739C16.8977 8.21043 16.225 7.27172 16.0368 6.77452L15.498 4.7505C15.3722 4.13502 15.4634 2.8292 16.8353 2.52987C18.5687 2.18572 20.3845 2 22.2002 2C26.5706 2 30.7369 3.01871 34.4789 4.83626C35.0159 5.08841 35.9341 5.93923 35.3104 7.32529L33.4145 10.6038Z" fill="white"/>
<path d="M22.1322 13.1984C23.6365 13.1984 25.1407 13.4031 26.5083 13.7446L25.5112 17.4908C25.3824 17.9801 24.8025 18.9286 23.5136 18.8086C23.0892 18.7558 22.6515 18.7293 22.2005 18.7293C16.7628 18.7293 12.265 22.5881 11.2169 27.6626C11.1323 28.0172 10.8176 28.8355 10.2355 29.2714C9.50796 29.8163 8.91032 29.928 8.44254 29.928L5.37891 29.9279C5.37891 20.6412 12.9008 13.1984 22.1322 13.1984Z" fill="white"/>
</g>
<defs>
<clipPath id="clip0_5319_21623">
<rect width="50" height="50" fill="white"/>
</clipPath>
</defs>
</svg>
