<svg xmlns="http://www.w3.org/2000/svg" width="50" height="50" fill="none"><g clip-path="url(#a)"><path fill="url(#b)" d="M26.7 50h-16c-1.6 0-3-.6-4-1.7a5.3 5.3 0 0 1-1.7-4V26.6a4 4 0 0 1 1.2-2.9 4 4 0 0 1 3-1.2h10.3c9.6 0 17.5 7.8 17.5 17.3C37 45.4 32.4 50 26.7 50Z"/><mask id="c" width="32" height="28" x="5" y="22" maskUnits="userSpaceOnUse" style="mask-type:luminance"><path fill="#fff" d="M26.7 50h-16c-1.6 0-3-.6-4-1.7a5.3 5.3 0 0 1-1.7-4V26.6a4 4 0 0 1 1.2-2.9 4 4 0 0 1 3-1.2h10.3c9.6 0 17.5 7.8 17.5 17.3C37 45.4 32.4 50 26.7 50Z"/></mask><g mask="url(#c)"><path fill="url(#d)" d="M5 33.3 34.4 50H5V33.3Z"/><path fill="url(#e)" d="m5 33 30.1 17h-.7L5 33.3V33Z"/><path fill="url(#f)" d="M5 32.5 35.9 50h-.8L5 33v-.5Z"/><path fill="url(#g)" d="m5 32 31.3 17.8v.2h-.4L5 32.5V32Z"/><path fill="url(#h)" d="m5 31.6 31.5 17.8-.2.4L5 32v-.4Z"/><path fill="url(#i)" d="m5 31.2 31.7 18-.2.2L5 31.6v-.4Z"/><path fill="url(#j)" d="m5 30.7 31.9 18-.2.4L5 31.1v-.4Z"/><path fill="url(#k)" d="m5 30.3 32 18.1v.2l-.1.2L5 30.8v-.5Z"/><path fill="url(#l)" d="m5 29.9 32 18v.5L5 30.3v-.4Z"/><path fill="url(#m)" d="m5 29.4 32 18.1v.5L5 29.9v-.5Z"/><path fill="url(#n)" d="m5 29 32 18v.5l-32-18V29Z"/><path fill="url(#o)" d="m5 28.6 32 18v.5L5 29v-.4Z"/><path fill="url(#p)" d="m5 28.1 32 18.1v.5L5 28.6V28Z"/><path fill="url(#q)" d="m5 28 .1-.3 31.9 18v.5l-32-18v-.3Z"/><path fill="url(#r)" d="m5.1 27.7.2-.3 31.7 18v.4l-32-18Z"/><path fill="url(#s)" d="m5.3 27.4.2-.3L37 44.9v.5l-31.7-18Z"/><path fill="url(#t)" d="m5.5 27 .1-.3L37 44.5v.4L5.5 27.1Z"/><path fill="url(#u)" d="m5.6 26.7.2-.3L37 44v.5L5.6 26.7Z"/><path fill="url(#v)" d="m5.8 26.4.2-.3 31 17.5v.4L5.8 26.4Z"/><path fill="url(#w)" d="m6 26 .2-.3L37 43.2v.4L6 26.1Z"/><path fill="url(#x)" d="m6.2 25.7.2-.3L37 42.7v.5L6.2 25.7Z"/><path fill="url(#y)" d="m6.4 25.4.1-.3L37 42.3v.4L6.4 25.4Z"/><path fill="url(#z)" d="m6.5 25 .2-.3L37 42v.4L6.5 25.1Z"/><path fill="url(#A)" d="m6.7 24.7.2-.3 30 17v.5L6.8 24.7Z"/><path fill="url(#B)" d="m6.9 24.4.2-.3L37 41v.4l-30.1-17Z"/><path fill="url(#C)" d="m7 24 .3-.3L37 40.6v.4L7 24Z"/><path fill="url(#D)" d="m7.3 23.7.1-.3L37 40.1v.5L7.3 23.7Z"/><path fill="url(#E)" d="m7.4 23.4.2-.3L37 39.7v.4L7.4 23.4Z"/><path fill="url(#F)" d="m7.6 23 .2-.2L37 39.3v.4L7.6 23.1Z"/><path fill="url(#G)" d="m7.8 22.8.2-.4 29 16.4v.5L7.8 22.8Z"/><path fill="url(#H)" d="m8.8 22.4 28.2 16v.4L8 22.4h.8Z"/><path fill="url(#I)" d="M9.5 22.4 37 38v.4l-28.2-16h.7Z"/><path fill="url(#J)" d="M10.3 22.4 37 37.5v.5L9.5 22.4h.8Z"/><path fill="url(#K)" d="m11 22.4 26 14.7v.4l-26.7-15h.8Z"/><path fill="url(#L)" d="M11.8 22.4 37 36.7v.4L11 22.4h.8Z"/><path fill="url(#M)" d="M12.6 22.4 37 36.2v.5L11.8 22.4h.8Z"/><path fill="url(#N)" d="M13.4 22.4 37 35.8v.4L12.6 22.4h.8Z"/><path fill="url(#O)" d="m14.1 22.4 22.9 13v.4L13.4 22.4h.7Z"/><path fill="url(#P)" d="m14.9 22.4 22 12.5v.5l-22.8-13h.8Z"/><path fill="url(#Q)" d="m15.7 22.4 21.3 12v.5L14.9 22.4h.8Z"/><path fill="url(#R)" d="M16.4 22.4 37 34v.5l-21.3-12h.7Z"/><path fill="url(#S)" d="M17.2 22.4 37 33.6v.4L16.4 22.4h.8Z"/><path fill="url(#T)" d="m18 22.4 19 10.8v.4L17.2 22.4h.8Z"/><path fill="url(#U)" d="M18.7 22.4 37 32.7v.5L18 22.4h.7Z"/><path fill="url(#V)" d="m19.5 22.4 17.5 10v.3L18.7 22.4h.8Z"/><path fill="url(#W)" d="M20.3 22.4 37 32v.4l-17.5-9.9h.8Z"/><path fill="url(#X)" d="m21 22.4 16 9v.5l-16.7-9.5h.7Z"/><path fill="url(#Y)" d="M21.8 22.4 37 31v.4l-16-9h.8Z"/><path fill="url(#Z)" d="M22.6 22.4 37 30.6v.4l-15.2-8.6h.8Z"/><path fill="url(#aa)" d="M23.4 22.4 37 30.1v.5l-14.4-8.2h.8Z"/><path fill="url(#ab)" d="M24.1 22.4 37 29.7v.4l-13.6-7.7h.7Z"/><path fill="url(#ac)" d="m24.9 22.4 12 6.9v.4l-12.8-7.3h.8Z"/><path fill="url(#ad)" d="m37 29.3-12.1-6.9h12v6.9Z"/></g><path fill="url(#ae)" d="M10.7 0H28c8 0 14.5 6.4 14.5 14.4 0 7.9-6.5 14.3-14.5 14.3h-7.5c-8 0-14.5-6.4-14.5-14.3V4.7c0-1.3.5-2.5 1.4-3.3.9-1 2-1.4 3.3-1.4Z"/><mask id="af" width="37" height="29" x="6" y="0" maskUnits="userSpaceOnUse" style="mask-type:luminance"><path fill="#fff" d="M10.7 0H28c8 0 14.5 6.4 14.5 14.4 0 7.9-6.5 14.3-14.5 14.3h-7.5c-8 0-14.5-6.4-14.5-14.3V4.7c0-1.3.5-2.5 1.4-3.3.9-1 2-1.4 3.3-1.4Z"/></mask><g mask="url(#af)"><path fill="url(#ag)" d="M42.5 17.3 9 0h33.5v17.3Z"/><path fill="url(#ah)" d="M42.5 17.8 8.1 0H9l33.5 17.3v.5Z"/><path fill="url(#ai)" d="M42.5 18.2 7.2 0h1l34.3 17.8v.4Z"/><path fill="url(#aj)" d="M42.5 18.7 6.7.2 7 0h.3l35.3 18.2v.5Z"/><path fill="url(#ak)" d="M42.5 19.1 6.5.5l.2-.3 35.8 18.5v.4Z"/><path fill="url(#al)" d="M42.5 19.6 6.3.9l.2-.4 36 18.6v.5Z"/><path fill="url(#am)" d="M42.5 20 6.1 1.2l.2-.3 36.2 18.7v.4Z"/><path fill="url(#an)" d="M42.5 20.5 6 1.6v-.2l.1-.2L42.5 20v.5Z"/><path fill="url(#ao)" d="M42.5 21 6 2v-.4l36.5 18.9v.4Z"/><path fill="url(#ap)" d="M42.5 21.4 6 2.5v-.4l36.5 18.8v.5Z"/><path fill="url(#aq)" d="M42.5 21.9 6 2.9v-.4l36.5 18.9v.5Z"/><path fill="url(#ar)" d="M42.5 22.3 6 3.4V3l36.5 18.9v.4Z"/><path fill="url(#as)" d="M42.5 22.8 6 3.8v-.4l36.5 19v.4Z"/><path fill="url(#at)" d="m42.5 23-.1.2L6 4.3V4l36.5 18.9v.1Z"/><path fill="url(#au)" d="m42.4 23.2-.2.3L6 4.8v-.5l36.4 18.9Z"/><path fill="url(#av)" d="m42.2 23.5-.2.3L6 5.3v-.5l36.2 18.7Z"/><path fill="url(#aw)" d="m42 23.8-.2.4L6 5.7v-.4l36 18.5Z"/><path fill="url(#ax)" d="m41.8 24.2-.2.3L6 6.2v-.5l35.8 18.5Z"/><path fill="url(#ay)" d="m41.6 24.5-.2.4L6 6.6v-.4l35.6 18.3Z"/><path fill="url(#az)" d="m41.4 24.9-.2.3L6 7.1v-.5L41.4 25Z"/><path fill="url(#aA)" d="m41.2 25.2-.2.4-35-18V7l35.2 18.1Z"/><path fill="url(#aB)" d="m41 25.6-.2.3L6 8v-.4l35 18Z"/><path fill="url(#aC)" d="m40.8 26-.2.3L6 8.4V8l34.8 18Z"/><path fill="url(#aD)" d="m40.6 26.3-.2.3L6 9v-.5l34.6 17.9Z"/><path fill="url(#aE)" d="m40.4 26.6-.3.4-34-17.7V9l34.3 17.7Z"/><path fill="url(#aF)" d="m40.1 27-.2.3L6 9.8v-.5L40.1 27Z"/><path fill="url(#aG)" d="m40 27.3-.3.4L6 10.2v-.4l34 17.5Z"/><path fill="url(#aH)" d="m39.7 27.7-.2.3L6 10.7v-.5l33.7 17.5Z"/><path fill="url(#aI)" d="m39.5 28-.2.4L6 11v-.4L39.5 28Z"/><path fill="url(#aJ)" d="m39.3 28.4-.2.3-33-17.1v-.5l33.2 17.3Z"/><path fill="url(#aK)" d="M38.2 28.7 6 12.1v-.5l33.1 17.1h-.9Z"/><path fill="url(#aL)" d="M37.4 28.7 6 12.5v-.4l32.2 16.6h-.8Z"/><path fill="url(#aM)" d="M36.5 28.7 6 13v-.5l31.4 16.2h-1Z"/><path fill="url(#aN)" d="M35.6 28.7 6 13.4V13l30.5 15.7h-.9Z"/><path fill="url(#aO)" d="M34.7 28.7 6 14v-.5l29.6 15.3h-.9Z"/><path fill="url(#aP)" d="M33.9 28.7 6 14.3V14l28.7 14.8H34Z"/><path fill="url(#aQ)" d="m33 28.7-27-14v-.4l28 14.4h-1Z"/><path fill="url(#aR)" d="m32.1 28.7-26-13.5v-.4l26.9 14h-1Z"/><path fill="url(#aS)" d="M31.2 28.7 6 15.7v-.5l26.1 13.5h-.9Z"/><path fill="url(#aT)" d="M30.3 28.7 6 16.1v-.4l25.2 13h-.9Z"/><path fill="url(#aU)" d="M29.5 28.7 6 16.6V16l24.3 12.6h-.8Z"/><path fill="url(#aV)" d="M28.6 28.7 6 17v-.4l23.5 12.1h-1Z"/><path fill="url(#aW)" d="M27.7 28.7 6 17.5V17l22.6 11.7h-.9Z"/><path fill="url(#aX)" d="M26.8 28.7 6 18v-.4l21.7 11.2h-.9Z"/><path fill="url(#aY)" d="M26 28.7 6 18.4v-.5l20.8 10.8H26Z"/><path fill="url(#aZ)" d="M25 28.7 6 19v-.5l20 10.3h-1Z"/><path fill="url(#ba)" d="M24.2 28.7 6 19.3V19l19 9.8h-.8Z"/><path fill="url(#bb)" d="M23.3 28.7 6 19.7v-.4l18.2 9.4h-.9Z"/><path fill="url(#bc)" d="M22.4 28.7 6 20.2v-.4l17.3 9h-.9Z"/><path fill="url(#bd)" d="M21.6 28.7 6 20.7v-.5l16.4 8.5h-.8Z"/><path fill="url(#be)" d="M20.7 28.7 6 21.1v-.4l15.6 8h-1Z"/><path fill="url(#bf)" d="M19.8 28.7 6 21.6V21l14.7 7.6h-.9Z"/><path fill="url(#bg)" d="m6 21.6 13.8 7.1H6v-7.1Z"/></g><path fill="url(#bh)" d="M6 4.1a8 8 0 0 0 2.9 6c1.7 1.8 4 3 6.2 4.2l16.5 8.6C36.2 25.2 41 28 43 32.7c1 2.4 1.3 6.1.6 8.6a10 10 0 0 1-4.7 5.9c-1.9 1.2-3.8 1.5-6 2.1-1.6.4-6.7.8-8.3.7a24 24 0 0 0 4.9-1.7c1.1-.6 2.3-1.6 3-2.5a5.9 5.9 0 0 0 0-7.1c-1.1-1.7-3.7-3.3-5.3-4.3-4.6-3-9.3-4.3-14-7.2-3.3-2-7-5-7.2-9.6V4Z"/></g><defs><linearGradient id="b" x1="37" x2="5" y1="36.2" y2="36.2" gradientUnits="userSpaceOnUse"><stop offset=".3" stop-color="#fff"/><stop offset=".7" stop-color="#E6E6E6"/></linearGradient><linearGradient id="d" x1="16.9" x2="24.7" y1="51.8" y2="22.7" gradientUnits="userSpaceOnUse"><stop offset=".3" stop-color="#fff"/><stop offset=".7" stop-color="#E6E6E6"/></linearGradient><linearGradient id="e" x1="35.1" x2="5" y1="41.4" y2="41.4" gradientUnits="userSpaceOnUse"><stop offset=".3" stop-color="#fff"/><stop offset=".7" stop-color="#E6E6E6"/></linearGradient><linearGradient id="f" x1="35.9" x2="5" y1="41.2" y2="41.2" gradientUnits="userSpaceOnUse"><stop offset=".3" stop-color="#fff"/><stop offset=".7" stop-color="#E6E6E6"/></linearGradient><linearGradient id="g" x1="36.3" x2="5" y1="41" y2="41" gradientUnits="userSpaceOnUse"><stop offset=".3" stop-color="#fff"/><stop offset=".7" stop-color="#E6E6E6"/></linearGradient><linearGradient id="h" x1="36.5" x2="5" y1="40.7" y2="40.7" gradientUnits="userSpaceOnUse"><stop offset=".3" stop-color="#fff"/><stop offset=".7" stop-color="#E6E6E6"/></linearGradient><linearGradient id="i" x1="36.7" x2="5" y1="40.3" y2="40.3" gradientUnits="userSpaceOnUse"><stop offset=".3" stop-color="#fff"/><stop offset=".7" stop-color="#E6E6E6"/></linearGradient><linearGradient id="j" x1="36.9" x2="5" y1="39.9" y2="39.9" gradientUnits="userSpaceOnUse"><stop offset=".3" stop-color="#fff"/><stop offset=".7" stop-color="#E6E6E6"/></linearGradient><linearGradient id="k" x1="37" x2="5" y1="39.5" y2="39.5" gradientUnits="userSpaceOnUse"><stop offset=".3" stop-color="#fff"/><stop offset=".7" stop-color="#E6E6E6"/></linearGradient><linearGradient id="l" x1="37" x2="5" y1="39.1" y2="39.1" gradientUnits="userSpaceOnUse"><stop offset=".3" stop-color="#fff"/><stop offset=".7" stop-color="#E6E6E6"/></linearGradient><linearGradient id="m" x1="37" x2="5" y1="38.7" y2="38.7" gradientUnits="userSpaceOnUse"><stop offset=".3" stop-color="#fff"/><stop offset=".7" stop-color="#E6E6E6"/></linearGradient><linearGradient id="n" x1="37" x2="5" y1="38.3" y2="38.3" gradientUnits="userSpaceOnUse"><stop offset=".3" stop-color="#fff"/><stop offset=".7" stop-color="#E6E6E6"/></linearGradient><linearGradient id="o" x1="37" x2="5" y1="37.8" y2="37.8" gradientUnits="userSpaceOnUse"><stop offset=".3" stop-color="#fff"/><stop offset=".7" stop-color="#E6E6E6"/></linearGradient><linearGradient id="p" x1="37" x2="5" y1="37.4" y2="37.4" gradientUnits="userSpaceOnUse"><stop offset=".3" stop-color="#fff"/><stop offset=".7" stop-color="#E6E6E6"/></linearGradient><linearGradient id="q" x1="37" x2="5" y1="37" y2="37" gradientUnits="userSpaceOnUse"><stop offset=".3" stop-color="#fff"/><stop offset=".7" stop-color="#E6E6E6"/></linearGradient><linearGradient id="r" x1="37" x2="5.1" y1="36.6" y2="36.6" gradientUnits="userSpaceOnUse"><stop offset=".3" stop-color="#fff"/><stop offset=".7" stop-color="#E6E6E6"/></linearGradient><linearGradient id="s" x1="37" x2="5.3" y1="36.2" y2="36.2" gradientUnits="userSpaceOnUse"><stop offset=".3" stop-color="#fff"/><stop offset=".7" stop-color="#E6E6E6"/></linearGradient><linearGradient id="t" x1="37" x2="5.5" y1="35.8" y2="35.8" gradientUnits="userSpaceOnUse"><stop offset=".3" stop-color="#fff"/><stop offset=".7" stop-color="#E6E6E6"/></linearGradient><linearGradient id="u" x1="37" x2="5.6" y1="35.4" y2="35.4" gradientUnits="userSpaceOnUse"><stop offset=".3" stop-color="#fff"/><stop offset=".7" stop-color="#E6E6E6"/></linearGradient><linearGradient id="v" x1="37" x2="5.8" y1="35.1" y2="35.1" gradientUnits="userSpaceOnUse"><stop offset=".3" stop-color="#fff"/><stop offset=".7" stop-color="#E6E6E6"/></linearGradient><linearGradient id="w" x1="37" x2="6" y1="34.7" y2="34.7" gradientUnits="userSpaceOnUse"><stop offset=".3" stop-color="#fff"/><stop offset=".7" stop-color="#E6E6E6"/></linearGradient><linearGradient id="x" x1="37" x2="6.2" y1="34.3" y2="34.3" gradientUnits="userSpaceOnUse"><stop offset=".3" stop-color="#fff"/><stop offset=".7" stop-color="#E6E6E6"/></linearGradient><linearGradient id="y" x1="37" x2="6.4" y1="33.9" y2="33.9" gradientUnits="userSpaceOnUse"><stop offset=".3" stop-color="#fff"/><stop offset=".7" stop-color="#E6E6E6"/></linearGradient><linearGradient id="z" x1="37" x2="6.5" y1="33.5" y2="33.5" gradientUnits="userSpaceOnUse"><stop offset=".3" stop-color="#fff"/><stop offset=".7" stop-color="#E6E6E6"/></linearGradient><linearGradient id="A" x1="37" x2="6.7" y1="33.1" y2="33.1" gradientUnits="userSpaceOnUse"><stop offset=".3" stop-color="#fff"/><stop offset=".7" stop-color="#E6E6E6"/></linearGradient><linearGradient id="B" x1="37" x2="6.9" y1="32.8" y2="32.8" gradientUnits="userSpaceOnUse"><stop offset=".3" stop-color="#fff"/><stop offset=".7" stop-color="#E6E6E6"/></linearGradient><linearGradient id="C" x1="37" x2="7.1" y1="32.4" y2="32.4" gradientUnits="userSpaceOnUse"><stop offset=".3" stop-color="#fff"/><stop offset=".7" stop-color="#E6E6E6"/></linearGradient><linearGradient id="D" x1="37" x2="7.3" y1="32" y2="32" gradientUnits="userSpaceOnUse"><stop offset=".3" stop-color="#fff"/><stop offset=".7" stop-color="#E6E6E6"/></linearGradient><linearGradient id="E" x1="37" x2="7.4" y1="31.6" y2="31.6" gradientUnits="userSpaceOnUse"><stop offset=".3" stop-color="#fff"/><stop offset=".7" stop-color="#E6E6E6"/></linearGradient><linearGradient id="F" x1="37" x2="7.6" y1="31.2" y2="31.2" gradientUnits="userSpaceOnUse"><stop offset=".3" stop-color="#fff"/><stop offset=".7" stop-color="#E6E6E6"/></linearGradient><linearGradient id="G" x1="37" x2="7.8" y1="30.8" y2="30.8" gradientUnits="userSpaceOnUse"><stop offset=".3" stop-color="#fff"/><stop offset=".7" stop-color="#E6E6E6"/></linearGradient><linearGradient id="H" x1="37" x2="8" y1="30.6" y2="30.6" gradientUnits="userSpaceOnUse"><stop offset=".3" stop-color="#fff"/><stop offset=".7" stop-color="#E6E6E6"/></linearGradient><linearGradient id="I" x1="37" x2="8.8" y1="30.4" y2="30.4" gradientUnits="userSpaceOnUse"><stop offset=".3" stop-color="#fff"/><stop offset=".7" stop-color="#E6E6E6"/></linearGradient><linearGradient id="J" x1="37" x2="9.5" y1="30.2" y2="30.2" gradientUnits="userSpaceOnUse"><stop offset=".3" stop-color="#fff"/><stop offset=".7" stop-color="#E6E6E6"/></linearGradient><linearGradient id="K" x1="37" x2="10.3" y1="30" y2="30" gradientUnits="userSpaceOnUse"><stop offset=".3" stop-color="#fff"/><stop offset=".7" stop-color="#E6E6E6"/></linearGradient><linearGradient id="L" x1="37" x2="11.1" y1="29.8" y2="29.8" gradientUnits="userSpaceOnUse"><stop offset=".3" stop-color="#fff"/><stop offset=".7" stop-color="#E6E6E6"/></linearGradient><linearGradient id="M" x1="37" x2="11.8" y1="29.5" y2="29.5" gradientUnits="userSpaceOnUse"><stop offset=".3" stop-color="#fff"/><stop offset=".7" stop-color="#E6E6E6"/></linearGradient><linearGradient id="N" x1="37" x2="12.6" y1="29.3" y2="29.3" gradientUnits="userSpaceOnUse"><stop offset=".3" stop-color="#fff"/><stop offset=".7" stop-color="#E6E6E6"/></linearGradient><linearGradient id="O" x1="37" x2="13.4" y1="29.1" y2="29.1" gradientUnits="userSpaceOnUse"><stop offset=".3" stop-color="#fff"/><stop offset=".7" stop-color="#E6E6E6"/></linearGradient><linearGradient id="P" x1="37" x2="14.1" y1="28.9" y2="28.9" gradientUnits="userSpaceOnUse"><stop offset=".3" stop-color="#fff"/><stop offset=".7" stop-color="#E6E6E6"/></linearGradient><linearGradient id="Q" x1="37" x2="14.9" y1="28.7" y2="28.7" gradientUnits="userSpaceOnUse"><stop offset=".3" stop-color="#fff"/><stop offset=".7" stop-color="#E6E6E6"/></linearGradient><linearGradient id="R" x1="37" x2="15.7" y1="28.4" y2="28.4" gradientUnits="userSpaceOnUse"><stop offset=".3" stop-color="#fff"/><stop offset=".7" stop-color="#E6E6E6"/></linearGradient><linearGradient id="S" x1="37" x2="16.4" y1="28.2" y2="28.2" gradientUnits="userSpaceOnUse"><stop offset=".3" stop-color="#fff"/><stop offset=".7" stop-color="#E6E6E6"/></linearGradient><linearGradient id="T" x1="37" x2="17.2" y1="28" y2="28" gradientUnits="userSpaceOnUse"><stop offset=".3" stop-color="#fff"/><stop offset=".7" stop-color="#E6E6E6"/></linearGradient><linearGradient id="U" x1="37" x2="18" y1="27.8" y2="27.8" gradientUnits="userSpaceOnUse"><stop offset=".3" stop-color="#fff"/><stop offset=".7" stop-color="#E6E6E6"/></linearGradient><linearGradient id="V" x1="37" x2="18.7" y1="27.6" y2="27.6" gradientUnits="userSpaceOnUse"><stop offset=".3" stop-color="#fff"/><stop offset=".7" stop-color="#E6E6E6"/></linearGradient><linearGradient id="W" x1="37" x2="19.5" y1="27.4" y2="27.4" gradientUnits="userSpaceOnUse"><stop offset=".3" stop-color="#fff"/><stop offset=".7" stop-color="#E6E6E6"/></linearGradient><linearGradient id="X" x1="37" x2="20.3" y1="27.1" y2="27.1" gradientUnits="userSpaceOnUse"><stop offset=".3" stop-color="#fff"/><stop offset=".7" stop-color="#E6E6E6"/></linearGradient><linearGradient id="Y" x1="37" x2="21" y1="26.9" y2="26.9" gradientUnits="userSpaceOnUse"><stop offset=".3" stop-color="#fff"/><stop offset=".7" stop-color="#E6E6E6"/></linearGradient><linearGradient id="Z" x1="37" x2="21.8" y1="26.7" y2="26.7" gradientUnits="userSpaceOnUse"><stop offset=".3" stop-color="#fff"/><stop offset=".7" stop-color="#E6E6E6"/></linearGradient><linearGradient id="aa" x1="37" x2="22.6" y1="26.5" y2="26.5" gradientUnits="userSpaceOnUse"><stop offset=".3" stop-color="#fff"/><stop offset=".7" stop-color="#E6E6E6"/></linearGradient><linearGradient id="ab" x1="37" x2="23.4" y1="26.3" y2="26.3" gradientUnits="userSpaceOnUse"><stop offset=".3" stop-color="#fff"/><stop offset=".7" stop-color="#E6E6E6"/></linearGradient><linearGradient id="ac" x1="37" x2="24.1" y1="26.1" y2="26.1" gradientUnits="userSpaceOnUse"><stop offset=".3" stop-color="#fff"/><stop offset=".7" stop-color="#E6E6E6"/></linearGradient><linearGradient id="ad" x1="37" x2="24.9" y1="25.8" y2="25.8" gradientUnits="userSpaceOnUse"><stop offset=".3" stop-color="#fff"/><stop offset=".7" stop-color="#E6E6E6"/></linearGradient><linearGradient id="ae" x1="6" x2="42.5" y1="14.4" y2="14.4" gradientUnits="userSpaceOnUse"><stop offset=".3" stop-color="#fff"/><stop offset=".7" stop-color="#E6E6E6"/></linearGradient><linearGradient id="ag" x1="28.7" x2="20.6" y1="-2.2" y2="28.1" gradientUnits="userSpaceOnUse"><stop offset=".3" stop-color="#fff"/><stop offset=".7" stop-color="#E6E6E6"/></linearGradient><linearGradient id="ah" x1="8.1" x2="42.5" y1="8.9" y2="8.9" gradientUnits="userSpaceOnUse"><stop offset=".3" stop-color="#fff"/><stop offset=".7" stop-color="#E6E6E6"/></linearGradient><linearGradient id="ai" x1="7.2" x2="42.5" y1="9.1" y2="9.1" gradientUnits="userSpaceOnUse"><stop offset=".3" stop-color="#fff"/><stop offset=".7" stop-color="#E6E6E6"/></linearGradient><linearGradient id="aj" x1="6.7" x2="42.5" y1="9.3" y2="9.3" gradientUnits="userSpaceOnUse"><stop offset=".3" stop-color="#fff"/><stop offset=".7" stop-color="#E6E6E6"/></linearGradient><linearGradient id="ak" x1="6.5" x2="42.5" y1="9.7" y2="9.7" gradientUnits="userSpaceOnUse"><stop offset=".3" stop-color="#fff"/><stop offset=".7" stop-color="#E6E6E6"/></linearGradient><linearGradient id="al" x1="6.3" x2="42.5" y1="10.1" y2="10.1" gradientUnits="userSpaceOnUse"><stop offset=".3" stop-color="#fff"/><stop offset=".7" stop-color="#E6E6E6"/></linearGradient><linearGradient id="am" x1="6.1" x2="42.5" y1="10.5" y2="10.5" gradientUnits="userSpaceOnUse"><stop offset=".3" stop-color="#fff"/><stop offset=".7" stop-color="#E6E6E6"/></linearGradient><linearGradient id="an" x1="6" x2="42.5" y1="10.9" y2="10.9" gradientUnits="userSpaceOnUse"><stop offset=".3" stop-color="#fff"/><stop offset=".7" stop-color="#E6E6E6"/></linearGradient><linearGradient id="ao" x1="6" x2="42.5" y1="11.3" y2="11.3" gradientUnits="userSpaceOnUse"><stop offset=".3" stop-color="#fff"/><stop offset=".7" stop-color="#E6E6E6"/></linearGradient><linearGradient id="ap" x1="6" x2="42.5" y1="11.7" y2="11.7" gradientUnits="userSpaceOnUse"><stop offset=".3" stop-color="#fff"/><stop offset=".7" stop-color="#E6E6E6"/></linearGradient><linearGradient id="aq" x1="6" x2="42.5" y1="12.2" y2="12.2" gradientUnits="userSpaceOnUse"><stop offset=".3" stop-color="#fff"/><stop offset=".7" stop-color="#E6E6E6"/></linearGradient><linearGradient id="ar" x1="6" x2="42.5" y1="12.6" y2="12.6" gradientUnits="userSpaceOnUse"><stop offset=".3" stop-color="#fff"/><stop offset=".7" stop-color="#E6E6E6"/></linearGradient><linearGradient id="as" x1="6" x2="42.5" y1="13.1" y2="13.1" gradientUnits="userSpaceOnUse"><stop offset=".3" stop-color="#fff"/><stop offset=".7" stop-color="#E6E6E6"/></linearGradient><linearGradient id="at" x1="6" x2="42.5" y1="13.5" y2="13.5" gradientUnits="userSpaceOnUse"><stop offset=".3" stop-color="#fff"/><stop offset=".7" stop-color="#E6E6E6"/></linearGradient><linearGradient id="au" x1="6" x2="42.4" y1="13.9" y2="13.9" gradientUnits="userSpaceOnUse"><stop offset=".3" stop-color="#fff"/><stop offset=".7" stop-color="#E6E6E6"/></linearGradient><linearGradient id="av" x1="6" x2="42.2" y1="14.3" y2="14.3" gradientUnits="userSpaceOnUse"><stop offset=".3" stop-color="#fff"/><stop offset=".7" stop-color="#E6E6E6"/></linearGradient><linearGradient id="aw" x1="6" x2="42" y1="14.7" y2="14.7" gradientUnits="userSpaceOnUse"><stop offset=".3" stop-color="#fff"/><stop offset=".7" stop-color="#E6E6E6"/></linearGradient><linearGradient id="ax" x1="6" x2="41.8" y1="15.1" y2="15.1" gradientUnits="userSpaceOnUse"><stop offset=".3" stop-color="#fff"/><stop offset=".7" stop-color="#E6E6E6"/></linearGradient><linearGradient id="ay" x1="6" x2="41.6" y1="15.5" y2="15.5" gradientUnits="userSpaceOnUse"><stop offset=".3" stop-color="#fff"/><stop offset=".7" stop-color="#E6E6E6"/></linearGradient><linearGradient id="az" x1="6" x2="41.4" y1="15.9" y2="15.9" gradientUnits="userSpaceOnUse"><stop offset=".3" stop-color="#fff"/><stop offset=".7" stop-color="#E6E6E6"/></linearGradient><linearGradient id="aA" x1="6" x2="41.2" y1="16.3" y2="16.3" gradientUnits="userSpaceOnUse"><stop offset=".3" stop-color="#fff"/><stop offset=".7" stop-color="#E6E6E6"/></linearGradient><linearGradient id="aB" x1="6" x2="41" y1="16.7" y2="16.7" gradientUnits="userSpaceOnUse"><stop offset=".3" stop-color="#fff"/><stop offset=".7" stop-color="#E6E6E6"/></linearGradient><linearGradient id="aC" x1="6" x2="40.8" y1="17.1" y2="17.1" gradientUnits="userSpaceOnUse"><stop offset=".3" stop-color="#fff"/><stop offset=".7" stop-color="#E6E6E6"/></linearGradient><linearGradient id="aD" x1="6" x2="40.6" y1="17.5" y2="17.5" gradientUnits="userSpaceOnUse"><stop offset=".3" stop-color="#fff"/><stop offset=".7" stop-color="#E6E6E6"/></linearGradient><linearGradient id="aE" x1="6" x2="40.4" y1="17.9" y2="17.9" gradientUnits="userSpaceOnUse"><stop offset=".3" stop-color="#fff"/><stop offset=".7" stop-color="#E6E6E6"/></linearGradient><linearGradient id="aF" x1="6" x2="40.1" y1="18.3" y2="18.3" gradientUnits="userSpaceOnUse"><stop offset=".3" stop-color="#fff"/><stop offset=".7" stop-color="#E6E6E6"/></linearGradient><linearGradient id="aG" x1="6" x2="39.9" y1="18.7" y2="18.7" gradientUnits="userSpaceOnUse"><stop offset=".3" stop-color="#fff"/><stop offset=".7" stop-color="#E6E6E6"/></linearGradient><linearGradient id="aH" x1="6" x2="39.7" y1="19.1" y2="19.1" gradientUnits="userSpaceOnUse"><stop offset=".3" stop-color="#fff"/><stop offset=".7" stop-color="#E6E6E6"/></linearGradient><linearGradient id="aI" x1="6" x2="39.5" y1="19.5" y2="19.5" gradientUnits="userSpaceOnUse"><stop offset=".3" stop-color="#fff"/><stop offset=".7" stop-color="#E6E6E6"/></linearGradient><linearGradient id="aJ" x1="6" x2="39.3" y1="19.9" y2="19.9" gradientUnits="userSpaceOnUse"><stop offset=".3" stop-color="#fff"/><stop offset=".7" stop-color="#E6E6E6"/></linearGradient><linearGradient id="aK" x1="6" x2="39.1" y1="20.2" y2="20.2" gradientUnits="userSpaceOnUse"><stop offset=".3" stop-color="#fff"/><stop offset=".7" stop-color="#E6E6E6"/></linearGradient><linearGradient id="aL" x1="6" x2="38.2" y1="20.4" y2="20.4" gradientUnits="userSpaceOnUse"><stop offset=".3" stop-color="#fff"/><stop offset=".7" stop-color="#E6E6E6"/></linearGradient><linearGradient id="aM" x1="6" x2="37.4" y1="20.6" y2="20.6" gradientUnits="userSpaceOnUse"><stop offset=".3" stop-color="#fff"/><stop offset=".7" stop-color="#E6E6E6"/></linearGradient><linearGradient id="aN" x1="6" x2="36.5" y1="20.8" y2="20.8" gradientUnits="userSpaceOnUse"><stop offset=".3" stop-color="#fff"/><stop offset=".7" stop-color="#E6E6E6"/></linearGradient><linearGradient id="aO" x1="6" x2="35.6" y1="21.1" y2="21.1" gradientUnits="userSpaceOnUse"><stop offset=".3" stop-color="#fff"/><stop offset=".7" stop-color="#E6E6E6"/></linearGradient><linearGradient id="aP" x1="6" x2="34.7" y1="21.3" y2="21.3" gradientUnits="userSpaceOnUse"><stop offset=".3" stop-color="#fff"/><stop offset=".7" stop-color="#E6E6E6"/></linearGradient><linearGradient id="aQ" x1="6" x2="33.9" y1="21.5" y2="21.5" gradientUnits="userSpaceOnUse"><stop offset=".3" stop-color="#fff"/><stop offset=".7" stop-color="#E6E6E6"/></linearGradient><linearGradient id="aR" x1="6" x2="33" y1="21.7" y2="21.7" gradientUnits="userSpaceOnUse"><stop offset=".3" stop-color="#fff"/><stop offset=".7" stop-color="#E6E6E6"/></linearGradient><linearGradient id="aS" x1="6" x2="32.1" y1="22" y2="22" gradientUnits="userSpaceOnUse"><stop offset=".3" stop-color="#fff"/><stop offset=".7" stop-color="#E6E6E6"/></linearGradient><linearGradient id="aT" x1="6" x2="31.2" y1="22.2" y2="22.2" gradientUnits="userSpaceOnUse"><stop offset=".3" stop-color="#fff"/><stop offset=".7" stop-color="#E6E6E6"/></linearGradient><linearGradient id="aU" x1="6" x2="30.3" y1="22.4" y2="22.4" gradientUnits="userSpaceOnUse"><stop offset=".3" stop-color="#fff"/><stop offset=".7" stop-color="#E6E6E6"/></linearGradient><linearGradient id="aV" x1="6" x2="29.5" y1="22.6" y2="22.6" gradientUnits="userSpaceOnUse"><stop offset=".3" stop-color="#fff"/><stop offset=".7" stop-color="#E6E6E6"/></linearGradient><linearGradient id="aW" x1="6" x2="28.6" y1="22.9" y2="22.9" gradientUnits="userSpaceOnUse"><stop offset=".3" stop-color="#fff"/><stop offset=".7" stop-color="#E6E6E6"/></linearGradient><linearGradient id="aX" x1="6" x2="27.7" y1="23.1" y2="23.1" gradientUnits="userSpaceOnUse"><stop offset=".3" stop-color="#fff"/><stop offset=".7" stop-color="#E6E6E6"/></linearGradient><linearGradient id="aY" x1="6" x2="26.8" y1="23.3" y2="23.3" gradientUnits="userSpaceOnUse"><stop offset=".3" stop-color="#fff"/><stop offset=".7" stop-color="#E6E6E6"/></linearGradient><linearGradient id="aZ" x1="6" x2="26" y1="23.6" y2="23.6" gradientUnits="userSpaceOnUse"><stop offset=".3" stop-color="#fff"/><stop offset=".7" stop-color="#E6E6E6"/></linearGradient><linearGradient id="ba" x1="6" x2="25.1" y1="23.8" y2="23.8" gradientUnits="userSpaceOnUse"><stop offset=".3" stop-color="#fff"/><stop offset=".7" stop-color="#E6E6E6"/></linearGradient><linearGradient id="bb" x1="6" x2="24.2" y1="24" y2="24" gradientUnits="userSpaceOnUse"><stop offset=".3" stop-color="#fff"/><stop offset=".7" stop-color="#E6E6E6"/></linearGradient><linearGradient id="bc" x1="6" x2="23.3" y1="24.2" y2="24.2" gradientUnits="userSpaceOnUse"><stop offset=".3" stop-color="#fff"/><stop offset=".7" stop-color="#E6E6E6"/></linearGradient><linearGradient id="bd" x1="6" x2="22.4" y1="24.5" y2="24.5" gradientUnits="userSpaceOnUse"><stop offset=".3" stop-color="#fff"/><stop offset=".7" stop-color="#E6E6E6"/></linearGradient><linearGradient id="be" x1="6" x2="21.6" y1="24.7" y2="24.7" gradientUnits="userSpaceOnUse"><stop offset=".3" stop-color="#fff"/><stop offset=".7" stop-color="#E6E6E6"/></linearGradient><linearGradient id="bf" x1="6" x2="20.7" y1="24.9" y2="24.9" gradientUnits="userSpaceOnUse"><stop offset=".3" stop-color="#fff"/><stop offset=".7" stop-color="#E6E6E6"/></linearGradient><linearGradient id="bg" x1="6" x2="19.8" y1="25.1" y2="25.1" gradientUnits="userSpaceOnUse"><stop offset=".3" stop-color="#fff"/><stop offset=".7" stop-color="#E6E6E6"/></linearGradient><linearGradient id="bh" x1="5.9" x2="43.8" y1="17.5" y2="49.3" gradientUnits="userSpaceOnUse"><stop offset="0" stop-color="#FFC255"/><stop offset=".5" stop-color="#FA7FFF"/><stop offset="1" stop-color="#C57FFF"/></linearGradient><clipPath id="a"><path fill="#fff" d="M5 0h39v50H5z"/></clipPath></defs></svg>