<svg width="50" height="50" viewBox="0 0 50 50" fill="none" xmlns="http://www.w3.org/2000/svg">
<path d="M33.2871 17.5972C33.7159 17.1836 34.1665 16.8452 34.5547 16.385C34.4244 16.9446 34.1121 17.4349 33.8362 17.9343L33.8033 17.8741C33.8915 17.5827 34.1762 17.3161 34.1805 17.0068L34.1372 16.9629C33.944 17.1382 33.5876 17.5211 33.3392 17.586C33.322 17.5905 33.3045 17.5935 33.2871 17.5972Z" fill="#EBB151"/>
<path d="M15.3047 32.8071L15.3495 32.7187C15.4387 32.6584 15.4725 32.6772 15.5782 32.6854C15.5814 33.0906 16.1242 33.5694 16.3188 33.9348C16.3977 34.083 16.4376 34.2519 16.4784 34.4131C16.0403 33.9439 15.6652 33.3382 15.3047 32.8071Z" fill="#EBB151"/>
<path d="M17.2322 32.0047C18.6348 31.7609 20.041 31.4598 21.4507 31.2676L21.6431 31.3112C21.3573 31.449 21.0058 31.3655 20.7418 31.5734C19.9708 31.7163 19.1982 31.8499 18.424 31.9743C18.0793 32.0318 17.7176 32.1255 17.3703 32.1459C17.0158 32.2228 15.9764 32.3748 15.7347 32.6203L15.7609 32.6965C15.7703 32.6991 15.7797 32.7014 15.789 32.7044C15.8988 32.7401 15.9757 32.7757 16.0538 32.8639C15.8903 32.8129 15.7328 32.7453 15.5742 32.681C15.4691 32.6726 15.4355 32.6535 15.3467 32.7148L15.3021 32.8048C15.2016 32.6673 15.1394 32.5152 15.0703 32.3605C15.7918 32.2997 16.5181 32.1266 17.2322 32.0047Z" fill="#F1AD35"/>
<path d="M30.2416 33.662C30.6479 34.1516 31.0034 34.7008 31.3731 35.2199L33.3367 37.9784L34.686 39.8787C34.8875 40.1596 35.1352 40.4337 35.3048 40.7338C35.0748 40.7913 34.8455 40.8544 34.6113 40.892C34.6431 40.8764 34.6754 40.8607 34.7065 40.8435C34.8035 40.7881 34.8296 40.7511 34.8559 40.6482C34.6622 39.9565 33.2327 38.1251 32.7493 37.4435C32.135 36.5778 31.5481 35.6942 30.9388 34.8266C30.7603 34.5725 30.5608 34.333 30.3868 34.0759C30.2927 33.9366 30.2088 33.8353 30.2416 33.662Z" fill="#F1AD35"/>
<path d="M27.6595 6.38498C29.026 8.1883 30.3116 10.0641 31.6316 11.9019L33.5747 14.5931C33.866 15.0012 34.2145 15.4225 34.4512 15.8634C34.5162 15.9845 34.5586 16.1138 34.6008 16.2441C34.3885 16.0766 34.1801 15.9489 33.9409 15.8232L33.972 15.7876C34.0395 15.8034 34.1052 15.8229 34.1715 15.843L34.263 15.7687C34.2228 15.4941 33.3731 14.56 33.1595 14.2692L29.0667 8.62777C28.575 7.96151 28.1265 7.18753 27.5586 6.58811C27.5895 6.51944 27.6257 6.45239 27.6595 6.38498Z" fill="#F1AD35"/>
<path d="M27.1061 6.00938C27.2004 6.30186 27.1743 6.60723 27.1831 6.91032C27.1342 6.82111 27.1301 6.76816 27.0305 6.7369C26.9215 6.83407 26.8917 7.02475 26.8101 7.1501C26.3035 7.92823 25.7876 8.73341 25.3278 9.54113C25.0957 9.94882 24.9083 10.3808 24.6778 10.7892C24.5252 11.0595 24.3521 11.3181 24.2011 11.5895L23.3202 13.1367C23.2001 13.351 23.0995 13.5891 22.9683 13.7949C22.8504 13.9799 22.6716 14.1322 22.5448 14.3192L22.4883 14.3173C22.5988 13.9288 23.1267 13.1678 23.3509 12.7549C24.5773 10.4923 25.8291 8.24384 27.1061 6.00938Z" fill="#F1AD35"/>
<path d="M35.7032 17.6995C36.0741 18.1002 36.3787 18.5985 36.6966 19.043C37.32 19.9034 37.9372 20.7682 38.5482 21.6375L40.9448 24.9815C41.5137 25.7646 42.0981 26.5401 42.6415 27.3415C42.7409 27.4881 42.9537 27.7622 42.9574 27.9423C42.9615 28.1365 42.8033 28.3034 42.6716 28.4258C42.6456 28.4501 42.6193 28.474 42.5925 28.4976C42.5936 28.3115 42.6774 28.1448 42.6534 27.9573C42.7112 27.9364 42.6821 27.9538 42.7341 27.8946C42.6815 27.8219 42.5884 27.7979 42.5082 27.7603C42.5103 27.6443 42.5275 27.4948 42.476 27.3882C42.2761 26.971 41.9253 26.6127 41.6558 26.2378C41.1083 25.4766 40.5894 24.6947 40.0414 23.9325C39.9102 23.7509 39.6271 23.4715 39.5688 23.2744C39.4991 23.0387 38.835 22.2847 38.6284 22.0057C38.0093 21.1697 37.4006 20.3182 36.7993 19.4693C36.527 19.0849 36.2583 18.5599 35.9099 18.246C35.5238 18.2378 34.9678 19.4396 34.7601 19.7692C34.6047 20.0158 34.4229 20.2397 34.2532 20.4759C34.182 20.5749 34.1089 20.732 33.9966 20.7858C33.9793 20.7941 33.9611 20.8004 33.9434 20.8077C34.5044 19.7571 35.091 18.7211 35.7032 17.6995Z" fill="#F1AD35"/>
<path d="M42.4172 28.9441C42.6302 28.7185 42.8419 28.4914 43.0521 28.2629C42.8949 28.9262 42.5091 29.5197 42.1854 30.1145C41.7813 30.8556 41.3734 31.5946 40.9616 32.3316L37.2055 39.1889C37.152 39.2848 37.1098 39.3588 37.0235 39.4297C36.9564 39.4365 36.9488 39.4469 36.8857 39.412C36.8102 39.3698 36.7507 39.3062 36.701 39.2369L32.3579 33.0889C31.5896 32.0021 30.7634 30.9326 30.0401 29.8177C29.8928 29.5905 29.7809 29.4 29.7188 29.1336C29.8744 29.2586 30.0418 29.3786 30.1783 29.5246L30.132 29.5597C29.9923 29.4632 29.8876 29.3393 29.7558 29.2397C30.1971 29.9332 34.9073 36.6192 35.0668 36.7256C35.0405 36.5909 34.9822 36.4673 34.9297 36.341C34.9964 36.3833 36.2897 38.1383 36.4237 38.352C36.5131 38.4943 36.5933 38.7997 36.7055 38.9028C36.7967 38.9101 36.8891 38.9346 36.9803 38.9346C37.0087 38.9346 37.0765 38.9232 37.0998 38.9075C37.3064 38.7705 37.7022 37.958 37.8402 37.7172C38.8182 35.9943 39.7808 34.263 40.7283 32.5232C41.3093 31.4681 41.869 30.4003 42.5133 29.3838C42.6041 29.2409 42.6245 29.0583 42.7367 28.9295C42.7832 28.876 42.802 28.8396 42.8224 28.7696L42.7916 28.7194C42.7153 28.7422 42.7373 28.7254 42.6856 28.7743C42.6182 28.8378 42.5671 28.906 42.4736 28.9312C42.4553 28.9362 42.436 28.9398 42.4172 28.9441Z" fill="#F1AD35"/>
<path d="M14.2715 30.939C14.8736 30.58 15.5006 30.258 16.1116 29.9137L19.0867 28.2207C19.9368 27.7475 20.8108 27.2932 21.6253 26.7606C23.0539 27.2727 24.4222 27.9493 25.849 28.4657C25.9998 28.5525 26.1662 28.6317 26.2903 28.7549L26.2846 28.7995C26.1389 28.8736 25.988 28.9067 25.8849 29.0403C23.2824 29.4925 20.6776 29.9307 18.0704 30.355C16.9071 30.5477 15.4095 30.8975 14.2715 30.939Z" fill="#F5C168"/>
<path d="M19.3711 5.25821C19.6771 5.99246 19.7421 8.98822 19.8052 9.97426L20.2824 17.385C20.2741 17.4782 20.2792 17.5767 20.2179 17.6526C20.1353 17.6424 20.1227 17.6269 20.0669 17.5606C19.7993 17.2427 19.5902 16.8364 19.3517 16.4924C18.8928 15.8303 18.4079 15.186 17.9394 14.5306C17.7926 14.3251 17.47 13.7848 17.2704 13.6635L17.043 13.3253C17.2016 12.6016 17.4461 11.8818 17.6563 11.1706C18.237 9.20662 18.8983 7.2507 19.3711 5.25821Z" fill="#F5C168"/>
<path d="M21.6995 26.6775C21.3348 25.7014 21.0747 24.5178 20.794 23.4995C20.3456 21.8732 19.8562 20.2365 19.4844 18.5916C20.0716 19.1607 20.524 19.9732 20.9941 20.6457C21.6668 21.6083 22.3629 22.5589 23.0461 23.5145L25.6706 27.1719C26.0605 27.7192 26.5225 28.2749 26.8553 28.8573C26.5336 28.907 26.2123 28.9593 25.8915 29.0141C25.9944 28.8802 26.1448 28.8471 26.2901 28.7728L26.2958 28.7281C26.172 28.6046 26.0061 28.5253 25.8557 28.4383C25.6088 28.2448 25.209 28.1273 24.9168 28.0055L22.8208 27.1417C22.4517 26.9919 22.05 26.866 21.6995 26.6775Z" fill="#EBB151"/>
<path d="M8.63867 13.0516C9.41402 13.1118 10.2045 13.1005 10.9825 13.1242L14.5388 13.2479C15.3532 13.2687 16.1806 13.2621 16.9915 13.3414C17.0904 13.4539 17.1894 13.5609 17.3 13.662C17.4991 13.7839 17.8209 14.3271 17.9674 14.5336C18.4347 15.1924 18.9183 15.8401 19.3761 16.5056C19.614 16.8514 19.8226 17.2598 20.0896 17.5794C20.1452 17.646 20.1578 17.6616 20.2402 17.6718C20.3013 17.5956 20.2962 17.4966 20.3045 17.4029C20.3301 17.5605 20.3245 17.7277 20.3288 17.8873C19.0168 17.4316 17.7344 16.8542 16.4534 16.3175L11.7567 14.3771C11.2146 14.1511 10.6712 13.9285 10.1263 13.7094C9.62803 13.5125 9.07741 13.3648 8.63867 13.0516Z" fill="#EBB151"/>
<path d="M36.9166 39.5775C36.9967 39.6755 37.0644 39.7756 37.1304 39.8835C37.7132 40.6233 38.2343 41.433 38.7852 42.1988L42.5005 47.378C42.8165 47.8003 43.1654 48.232 43.4267 48.6908C42.9219 49.1214 42.3795 49.5296 41.8032 49.8591C41.2327 48.8477 40.4702 47.8931 39.7907 46.951L37.3166 43.4897C36.6549 42.5685 35.9689 41.6561 35.3516 40.7046C35.7655 40.3407 36.4478 39.9101 36.9166 39.5775Z" fill="#EBB151"/>
<path d="M37.1516 39.9061C37.7309 40.643 38.2488 41.4494 38.7964 42.2123L42.4888 47.3709C42.3976 47.3319 42.3121 47.2972 42.2473 47.2182C41.6803 46.5312 41.2117 45.7626 40.682 45.0481L38.3031 41.7953C37.9682 41.3305 37.421 40.6544 37.1902 40.1611C37.1447 40.064 37.1185 40.0068 37.1516 39.9061Z" fill="#F1AD35"/>
<path d="M27.1367 6.01087L27.2125 5.87081C27.2886 5.8641 27.292 5.87008 27.3477 5.91938C27.4744 6.03151 27.5835 6.24412 27.6837 6.38714C27.65 6.45438 27.6139 6.52127 27.583 6.58976C28.1497 7.18769 28.5972 7.95974 29.0879 8.62434L33.1719 14.2518C33.385 14.5418 34.2328 15.4736 34.2729 15.7475L34.1816 15.8216C34.1154 15.8016 34.0499 15.7821 33.9826 15.7663L33.9516 15.8019C31.8947 14.98 29.7936 14.2703 27.7284 13.4693C27.6115 13.1731 27.6877 12.6708 27.6794 12.3421C27.6693 11.9399 27.6347 11.5385 27.6236 11.136C27.6081 10.5734 27.6294 9.98059 27.5322 9.42531C27.5146 9.20942 27.3816 7.44398 27.3354 7.37419C27.2253 7.2126 27.2692 7.08529 27.2139 6.91168C27.205 6.60864 27.2312 6.3033 27.1367 6.01087Z" fill="#F5C168"/>
<path d="M27.1367 6.01055L27.2083 5.8708C27.2801 5.86411 27.2833 5.87008 27.336 5.91927C27.4555 6.03116 27.5586 6.2433 27.6532 6.386C27.6213 6.4531 27.5872 6.51984 27.5581 6.58818C27.5036 6.60001 27.4004 6.60417 27.3663 6.65123C27.2492 6.81262 27.3394 7.16981 27.3243 7.37089C27.2204 7.20966 27.2618 7.08262 27.2096 6.9094C27.2012 6.60702 27.2259 6.30235 27.1367 6.01055Z" fill="#EBB151"/>
<path d="M22.4948 14.3101L22.5513 14.312C22.678 14.1246 22.8567 13.9719 22.9745 13.7866C23.1056 13.5804 23.2062 13.3417 23.3262 13.127L24.2064 11.5765C24.3573 11.3046 24.5303 11.0454 24.6828 10.7745C24.9131 10.3652 25.1004 9.93233 25.3323 9.52378C25.7918 8.71435 26.3073 7.90746 26.8136 7.12768C26.8951 7.00206 26.9249 6.81098 27.0338 6.71361C27.1333 6.74493 27.1375 6.798 27.1863 6.88739C27.2415 7.06138 27.1977 7.18898 27.3075 7.35093C27.3536 7.42088 27.4863 9.19029 27.5039 9.40666C27.6008 9.96319 27.5796 10.5573 27.5951 11.1212C27.6062 11.5246 27.6406 11.9269 27.6508 12.3301C27.659 12.6594 27.583 13.1629 27.6996 13.4597L27.6181 13.4647L24.1944 15.206C23.3472 15.6369 21.855 16.2886 21.2044 16.9014C21.1611 16.8185 21.1686 16.7366 21.1971 16.6497C21.3097 16.3059 22.273 14.6124 22.4948 14.3101Z" fill="url(#paint0_linear_5454_4120)"/>
<path d="M27.6262 13.4742C27.5969 13.0624 27.5052 12.6553 27.4922 12.2431C27.4638 11.3444 27.5446 10.4245 27.4709 9.52986L27.4648 9.46182L27.5232 9.43661C27.6105 9.99034 27.5914 10.5815 27.6054 11.1425C27.6154 11.5438 27.6464 11.9441 27.6555 12.3453C27.663 12.673 27.5945 13.1739 27.6996 13.4692L27.6262 13.4742Z" fill="#EBB151"/>
<path d="M23.9631 30.7902C24.989 30.5769 26.4965 30.2617 27.5126 30.2347C26.6869 31.0645 22.4647 34.8143 22.2406 35.3521C21.7769 35.0979 16.5077 32.9036 16.1578 32.8617L16.0486 32.8364C15.9702 32.7476 15.8931 32.7118 15.7829 32.6759C15.7736 32.6729 15.7642 32.6706 15.7548 32.6679L15.7285 32.5913C15.9709 32.3441 17.0135 32.1911 17.3691 32.1136C17.7175 32.0931 18.0802 31.9988 18.426 31.9408C19.2026 31.8157 19.9776 31.6811 20.7509 31.5373C21.0157 31.3279 21.3682 31.412 21.6549 31.2733L21.4619 31.2294C22.2855 31.0568 23.1299 30.9084 23.9631 30.7902Z" fill="#F5C168"/>
<path d="M21.4586 31.2397C22.2772 31.0662 23.1164 30.917 23.9444 30.7981C23.4937 31.1269 21.4051 31.4287 20.752 31.5493C21.0151 31.3388 21.3655 31.4233 21.6504 31.2838L21.4586 31.2397Z" fill="#EBB151"/>
<path d="M7.60547 1.69176C7.68454 1.37722 7.82889 1.07176 7.87669 0.751175C7.96962 0.809785 8.04033 0.870064 8.10988 0.955894C8.18012 1.04261 8.22227 1.14768 8.28545 1.23987C8.48658 1.5335 8.6964 1.82191 8.9034 2.11152C9.66224 3.18334 10.4314 4.24775 11.2108 5.30476C11.4128 5.57612 11.6302 5.94697 11.878 6.17036L11.9717 6.30692C11.9703 6.39442 11.9663 6.42023 11.9209 6.49725L9.57166 10.3952C9.17137 11.069 8.72036 11.9744 8.26986 12.5822L8.22583 12.5607C8.10413 12.2485 8.14262 11.3349 8.1149 10.9334C8.01538 9.49181 7.9543 8.05163 7.86848 6.60962C7.77089 4.96941 7.65191 3.33499 7.60547 1.69176Z" fill="#F5C168"/>
<path d="M13.9359 23.615C15.4524 24.134 16.9371 24.7968 18.4193 25.409C19.0029 25.6499 19.7016 26.007 20.3088 26.1584C20.3197 26.1748 20.3302 26.1913 20.3416 26.2073C20.393 26.2797 20.4624 26.3063 20.5416 26.3397L20.5632 26.3782C20.4893 26.4718 20.4224 26.5356 20.3252 26.6061C20.3744 26.6517 20.4002 26.6594 20.4623 26.6806C19.8528 27.0614 19.2587 27.4674 18.6589 27.8631C18.3424 28.0719 17.9923 28.261 17.7 28.5014L17.7063 28.5545C17.397 28.7991 17.0178 28.9913 16.6834 29.2058C15.9157 29.6985 15.1439 30.2389 14.3385 30.6655C14.2234 30.7265 14.1144 30.7715 13.9866 30.7981L13.9362 30.7645C13.8591 30.4376 13.9181 29.2165 13.9177 28.8046C13.9159 27.0773 13.8799 25.3416 13.9359 23.615Z" fill="#F5C168"/>
<path d="M22.3458 35.446L27.0627 37.3572C27.6659 37.6035 28.4073 38.0028 29.0117 38.1642C29.06 38.2634 29.0758 38.2676 29.0468 38.3721C28.973 38.4259 28.9109 38.4541 28.8267 38.486C28.8451 38.5539 28.8861 38.557 28.9438 38.5925C28.5306 38.8589 26.163 40.2801 26.01 40.5538C25.3274 41.0657 24.5717 41.5081 23.8479 41.9584C23.463 42.1976 23.0603 42.4964 22.6456 42.6761L22.5899 42.6526L22.5426 42.5173C22.4735 41.2529 22.4185 39.988 22.3775 38.7226C22.334 37.641 22.2478 36.5261 22.3458 35.446Z" fill="#F5C168"/>
<path d="M27.793 13.662C28.8332 14.0385 29.871 14.4217 30.9063 14.8116C31.7785 15.1304 33.8624 15.7596 34.5066 16.2753C33.4226 17.2162 32.2561 18.0932 31.1329 18.9884C30.1593 19.7643 29.1928 20.5966 28.1765 21.3146C28.1769 21.0492 28.1691 20.7811 28.1796 20.5161C28.1423 20.0617 28.1353 19.6045 28.094 19.151C28.0292 18.4399 27.9217 17.7288 27.8923 17.0146C27.8573 16.1615 27.9986 15.1277 27.8249 14.3066C27.8148 14.0926 27.7942 13.8759 27.793 13.662Z" fill="#F5C168"/>
<path d="M7.91906 22.4233C7.93392 22.1398 7.74625 21.9916 7.58559 21.7812C7.43195 21.5802 7.05634 21.1213 7.09225 20.8599C7.1792 20.8117 7.40085 20.8949 7.50749 20.913L7.57088 20.9235C8.37068 21.281 9.19403 21.5969 10.0048 21.9294C11.2602 22.4551 12.5203 22.9694 13.7852 23.472L13.8008 27.8787C13.805 28.8364 13.7946 29.7948 13.8504 30.7512C13.3811 30.2767 12.8572 29.4133 12.4537 28.8446C11.461 27.4549 10.4759 26.0597 9.4986 24.6592L8.39177 23.1071C8.23629 22.8877 8.04087 22.6597 7.91906 22.4233Z" fill="url(#paint1_linear_5454_4120)"/>
<path d="M36.2441 25.5869C37.5612 26.0805 38.882 26.5639 40.2065 27.0369C41.0199 27.3286 41.9016 27.5887 42.6718 27.9786C42.6957 28.166 42.6118 28.3327 42.6108 28.5187L38.4697 31.8432C37.865 32.3209 37.2383 32.8951 36.5752 33.2864C36.5818 33.0185 36.5424 32.7385 36.5416 32.4668C36.5395 31.7387 36.5599 31.0052 36.5327 30.2778C36.5034 29.4927 36.4072 28.7046 36.3521 27.9204C36.3281 27.5784 36.35 27.2322 36.3209 26.8922C36.3144 26.8166 36.2995 26.7719 36.2651 26.7055C36.272 26.3308 36.2462 25.9606 36.2441 25.5869Z" fill="#F5C168"/>
<path d="M12.1362 6.52582C12.462 6.93026 12.7325 7.39045 13.0368 7.81301L15.4297 11.1411C15.7423 11.5741 16.0424 12.1386 16.4283 12.5038C16.5096 12.5856 16.5959 12.6655 16.6673 12.7561C16.0493 12.8533 15.1841 12.7887 14.5432 12.7934C13.0683 12.8169 11.5933 12.8282 10.1182 12.8273C9.74845 12.8285 8.86762 12.8983 8.57319 12.8418C8.46045 12.8201 8.41703 12.778 8.35742 12.6838C9.7126 10.6972 10.7705 8.50493 12.1362 6.52582Z" fill="#EBB151"/>
<path d="M12.1602 6.49427C12.7204 6.3317 13.3143 6.2477 13.8852 6.12419L17.5825 5.31937C17.7641 5.27912 19.1286 4.92979 19.1816 4.92958C19.2426 5.00091 19.2538 5.03954 19.248 5.13517C19.2269 5.47991 18.931 6.11235 18.8117 6.47148C18.3526 7.84398 17.8816 9.21237 17.3986 10.5766C17.1467 11.2906 16.8247 12.0377 16.6425 12.77C16.5714 12.6794 16.4853 12.5997 16.4043 12.5179C15.8509 11.5511 15.1162 10.6535 14.4681 9.74497L13.0103 7.6993C12.7274 7.29867 12.4586 6.88312 12.1602 6.49427Z" fill="#F5C168"/>
<path d="M6.57227 20.517C7.63398 20.2464 8.74917 20.108 9.82974 19.9217L15.9685 18.8422C16.9975 18.6559 18.0441 18.5083 19.0605 18.2629C18.8844 18.4852 18.6939 18.6882 18.4648 18.8575C16.9617 20.4209 15.2696 21.8092 13.7732 23.3803C12.3293 22.8478 10.9121 22.2329 9.4865 21.6535C8.91684 21.422 8.16536 21.0392 7.58328 20.9334L7.52004 20.923C7.41367 20.9049 7.19257 20.8221 7.10584 20.8701C7.07002 21.1303 7.44469 21.5871 7.59795 21.7873C7.75821 21.9966 7.94541 22.1442 7.93058 22.4264C7.64103 22.0334 7.34119 21.6387 7.08432 21.2237C6.89926 21.0808 6.70944 20.7151 6.57227 20.517Z" fill="#F5C168"/>
<path d="M6.57227 20.5147C7.63398 20.2444 8.74917 20.1062 9.82974 19.92L15.9685 18.8416C16.9975 18.6555 18.0441 18.508 19.0605 18.2629C18.8844 18.485 18.6939 18.6877 18.4648 18.8569L18.4346 18.8049C18.4976 18.7427 18.5966 18.6756 18.6143 18.5892C18.496 18.5028 18.1537 18.5542 18.0053 18.5768C17.7275 18.6189 17.454 18.6869 17.1753 18.7283C16.6153 18.8114 15.9929 18.8577 15.4501 19.0088C15.3942 19.0244 15.3328 19.0508 15.2988 19.0984C15.2687 19.1405 15.2786 19.1228 15.263 19.1729C15.1652 19.1682 15.1277 19.132 15.0525 19.0755C14.9388 19.1022 14.8419 19.1274 14.7388 19.1828C14.7819 19.2461 14.7573 19.2214 14.8087 19.2607C14.6149 19.3254 14.3104 19.13 14.1757 19.2921L14.2436 19.3545C14.148 19.383 14.0114 19.4254 13.9188 19.3766L13.9829 19.2801C13.8721 19.2831 13.7918 19.2815 13.6931 19.34C13.6367 19.4292 13.6231 19.4859 13.5097 19.5099C13.3514 19.5433 13.229 19.4061 13.057 19.4416C13.0496 19.4543 13.0423 19.4671 13.0347 19.4797C13.0113 19.5186 12.9883 19.549 12.9583 19.5827C12.7759 19.5919 12.5325 19.4385 12.3899 19.5857C12.3712 19.605 12.3461 19.6418 12.3299 19.6645C12.2653 19.6453 12.22 19.6204 12.1638 19.5835C11.9835 19.577 11.861 19.7051 11.7328 19.8155C11.6534 19.7974 11.5993 19.762 11.5305 19.7203C11.4196 19.7136 11.3734 19.7285 11.2732 19.7763C11.2543 19.846 11.3231 19.8831 11.2724 19.9169C11.1957 19.9679 11.0864 19.9789 10.997 19.9977L10.8557 19.9582L10.8455 19.929L11.0128 19.9246L11.0212 19.879C10.9836 19.8421 10.9744 19.8151 10.9175 19.8131C10.8128 19.8094 10.6999 19.8575 10.6015 19.8901L10.6178 19.9429L10.7465 19.9545L10.7316 20.0083C10.4975 20.108 8.88489 20.3687 8.66421 20.3174C8.61909 20.3069 8.5792 20.2707 8.54364 20.2432C8.26573 20.214 7.02918 20.4416 6.73143 20.5587C6.74689 20.7858 7.11994 20.9746 7.08432 21.2207C6.89926 21.0779 6.70944 20.7126 6.57227 20.5147Z" fill="#F1AD35"/>
<path d="M22.3945 35.3836C22.414 35.3576 22.4334 35.3315 22.4538 35.3062C23.1445 34.4518 24.1184 33.6547 24.9208 32.8836C25.5458 32.283 26.1605 31.6725 26.7915 31.078C27.0217 30.8612 27.2454 30.623 27.4881 30.4211C27.5254 30.3902 27.552 30.3808 27.5995 30.3756C27.8151 30.6893 28.2884 32.885 28.3618 33.3572C28.523 33.7833 28.5951 34.2907 28.6943 34.7386C28.8296 35.3499 28.9893 35.967 29.0907 36.5846C29.2616 37.1185 29.3624 37.7567 29.4368 38.3125C29.0042 38.7247 28.3848 39.0433 27.8795 39.3682C27.2585 39.7673 26.6427 40.1998 26.0014 40.5634C26.1544 40.2897 28.5223 38.8683 28.9355 38.6019C28.8778 38.5664 28.8368 38.5633 28.8184 38.4954C28.9026 38.4635 28.9647 38.4353 29.0385 38.3815C29.0675 38.277 29.0518 38.2728 29.0035 38.1736C28.6795 37.9234 28.1404 37.7562 27.7627 37.5926C26.5676 37.0875 25.3668 36.5965 24.1602 36.1198C23.5802 35.8863 22.9442 35.6801 22.3945 35.3836Z" fill="#EBB151"/>
<path d="M28.3614 33.3333C28.5266 33.761 28.6005 34.2703 28.7022 34.7199C28.841 35.3334 29.0047 35.9528 29.1087 36.5728C28.8449 36.3517 28.8971 35.6103 28.7504 35.2877L28.7042 35.3316L28.6572 35.3147C28.5059 34.8621 28.3876 34.2724 28.3736 33.796C28.3693 33.651 28.3413 33.5174 28.3105 33.3761L28.3614 33.3333Z" fill="#F1AD35"/>
<path d="M13.8965 23.4626C13.9156 23.4388 13.9349 23.4152 13.9559 23.393C14.85 22.4484 15.8481 21.5763 16.788 20.6757C17.3146 20.168 17.8438 19.663 18.3758 19.1609C18.5919 18.9567 18.8035 18.727 19.0343 18.5403C19.1123 18.4773 19.152 18.4512 19.2525 18.4507C19.3416 18.557 19.3344 18.9562 19.3665 19.114C19.51 19.8193 19.7095 20.5205 19.873 21.2222C20.0976 22.2606 20.3507 23.2927 20.5811 24.3298C20.6696 24.7279 20.8284 25.2052 20.8352 25.6079C20.9394 25.8018 20.9562 26.1089 20.9857 26.3278C20.8748 26.4533 20.7561 26.5541 20.621 26.6529C20.2693 26.9104 17.9917 28.4514 17.7171 28.5446L17.7108 28.4915C18.0033 28.2512 18.3538 28.0622 18.6706 27.8535C19.271 27.458 19.8657 27.0522 20.4758 26.6716C20.4136 26.6504 20.3878 26.6427 20.3386 26.5971C20.4359 26.5266 20.5028 26.4629 20.5767 26.3693L20.5552 26.3309C20.4759 26.2974 20.4064 26.2709 20.3549 26.1985C20.3436 26.1825 20.333 26.166 20.3221 26.1497C20.154 25.9695 19.4834 25.7566 19.2197 25.6476C18.1101 25.1863 16.9978 24.7314 15.8828 24.2828C15.2306 24.0229 14.5095 23.8021 13.8965 23.4626Z" fill="#EBB151"/>
<path d="M19.8725 21.2206C20.0995 22.2655 20.3554 23.3041 20.5884 24.3477C20.6779 24.7482 20.8385 25.2286 20.8453 25.6338C20.6875 25.4351 20.5255 24.546 20.5026 24.2631C20.4953 24.1735 20.4872 24.1149 20.4506 24.0327L20.3985 24.0491L20.4293 24.0656L20.4121 24.2177L20.3861 24.2084C20.2115 23.7793 19.7789 21.5744 19.8725 21.2206Z" fill="#F1AD35"/>
<path d="M7.51172 0.0469513C9.33422 0.745809 11.1307 1.52309 12.9402 2.25602L14.9752 3.07225C15.3551 3.22453 15.7613 3.3644 16.1251 3.55223C16.7642 3.7989 17.4006 4.05274 18.0341 4.31375C18.3884 4.45687 18.766 4.58424 19.108 4.75369C18.3951 5.06234 17.5225 5.1651 16.7611 5.31843C15.7765 5.51715 14.7935 5.72377 13.8122 5.9383C13.2348 6.06367 12.6427 6.17554 12.0746 6.33803L11.9229 6.14204L11.8657 6.18276C11.6187 5.9585 11.402 5.5862 11.2006 5.31377C10.4237 4.25263 9.65706 3.18405 8.90066 2.10803C8.69433 1.81729 8.48519 1.52774 8.2847 1.23297C8.22172 1.14042 8.17971 1.03493 8.1097 0.947875C8.04037 0.861709 7.96989 0.801194 7.87725 0.742354C7.82961 1.06419 7.68573 1.37085 7.60691 1.68662C7.55613 1.14219 7.54294 0.593003 7.51172 0.0469513Z" fill="#F5C168"/>
<path d="M7.51172 0.0469513C9.33955 0.747452 11.1413 1.52655 12.9561 2.26121L14.997 3.07936C15.378 3.232 15.7854 3.3722 16.1502 3.56047C16.1296 3.56073 16.109 3.56157 16.0884 3.56126C15.5849 3.55428 14.7737 3.11714 14.2989 2.92619L10.8524 1.52897C10.0438 1.1931 9.22364 0.809578 8.39074 0.543388C8.24001 0.495166 8.07239 0.439862 7.91403 0.471082L7.87879 0.515106C7.94461 0.654314 8.45342 1.2983 8.58805 1.49261C9.31954 2.53095 10.0577 3.56455 10.8024 4.59338C11.1735 5.10288 11.6145 5.6179 11.9358 6.15636L11.8784 6.19719C11.6307 5.9724 11.4134 5.59922 11.2114 5.32615C10.4322 4.26251 9.66333 3.19142 8.90472 2.11288C8.69779 1.82145 8.48803 1.53123 8.28696 1.23576C8.2238 1.14299 8.18166 1.03725 8.11145 0.949993C8.04191 0.863624 7.97122 0.802967 7.87832 0.743988C7.83053 1.06659 7.68624 1.37397 7.60719 1.69048C7.55626 1.14477 7.54304 0.594286 7.51172 0.0469513Z" fill="#EBB151"/>
<path d="M36.1298 25.5399C36.1494 25.7249 36.1727 26.5905 36.2617 26.6719C36.2962 26.7386 36.3112 26.7835 36.3177 26.8595C36.3468 27.2013 36.3249 27.5492 36.349 27.8929C36.4042 28.6812 36.5006 29.4733 36.53 30.2624C36.5572 30.9936 36.5368 31.7308 36.5389 32.4626C36.5397 32.7357 36.5791 33.0172 36.5725 33.2864C36.2443 33.125 35.9325 32.8977 35.622 32.7021L34.0401 31.7169L30.9162 29.7575C30.5443 29.5244 30.1439 29.3132 29.7807 29.0704C29.701 29.0171 29.6911 28.9912 29.6719 28.8984C29.738 28.7823 29.8559 28.7315 29.9701 28.6651C30.8728 28.1401 31.8411 27.7073 32.7739 27.2376C33.8928 26.6743 34.9981 26.0767 36.1298 25.5399Z" fill="#EBB151"/>
<path d="M15.5859 32.6761C15.7443 32.7405 15.9016 32.8083 16.0648 32.8594L16.1735 32.8846C16.5218 32.9264 21.7671 35.1124 22.2286 35.3656L22.3286 35.3394L22.3375 35.4604C22.2396 36.5377 22.3257 37.6496 22.3692 38.7284C22.4102 39.9904 22.4652 41.252 22.5343 42.5131L22.481 42.5339C22.4711 42.5943 22.4564 42.6449 22.4375 42.7032L22.3956 42.723C22.2935 42.6678 22.2293 42.5896 22.1595 42.498C21.765 41.9801 21.4022 41.4311 21.0271 40.8986L18.8866 37.8657L17.4613 35.854C17.1292 35.3901 16.7716 34.9295 16.4802 34.439C16.4396 34.2744 16.4 34.1021 16.3216 33.9509C16.1283 33.578 15.5891 33.0895 15.5859 32.6761ZM16.1735 32.8846C16.6371 33.1424 17.1873 33.3185 17.679 33.5205L20.5107 34.6873C21.0604 34.9155 21.63 35.1278 22.1607 35.3981C22.1514 36.2699 22.2827 42.2015 22.481 42.5339L22.5343 42.5131C22.4652 41.252 22.4102 39.9904 22.3692 38.7284C22.3257 37.6496 22.2396 36.5377 22.3375 35.4604L22.3286 35.3394L22.2286 35.3656C21.7671 35.1124 16.5218 32.9264 16.1735 32.8846Z" fill="url(#paint2_linear_5454_4120)"/>
<path d="M21.1738 17.0026C22.3286 16.2756 23.5966 15.7037 24.8149 15.0917C25.7626 14.6156 26.7087 14.0775 27.6827 13.662C27.7477 13.8756 27.7703 14.0896 27.7804 14.312L27.8156 14.3341C27.9887 15.1547 27.8479 16.1878 27.8828 17.0404C27.912 17.7542 28.0192 18.4649 28.0838 19.1755C28.125 19.6288 28.1319 20.0857 28.1691 20.5398L28.1406 20.5452C28.0651 20.7754 28.1478 21.2039 28.1622 21.4554C26.7384 20.5331 25.3019 19.6312 23.8527 18.7496C22.9946 18.2191 21.9356 17.6528 21.1738 17.0026Z" fill="#EBB151"/>
<path d="M42.4126 28.9575C42.4314 28.9532 42.4507 28.9496 42.4689 28.9445C42.5623 28.9193 42.6134 28.851 42.6806 28.7874C42.7323 28.7384 42.7104 28.7552 42.7865 28.7324L42.8173 28.7826C42.7969 28.8527 42.7782 28.8893 42.7317 28.9429C42.6196 29.0719 42.5993 29.2549 42.5085 29.398C41.865 30.4165 41.306 31.4863 40.7255 32.5435C39.7792 34.2866 38.8176 36.0212 37.8408 37.7474C37.703 37.9886 37.3076 38.8027 37.1013 38.94C37.078 38.9556 37.0102 38.9671 36.9819 38.9671C36.8907 38.9671 36.7985 38.9426 36.7074 38.9353C36.5953 38.8319 36.5152 38.5259 36.4259 38.3834C36.292 38.1693 35.0002 36.4109 34.9336 36.3685C34.9861 36.495 35.0443 36.6189 35.0705 36.7539C34.9112 36.6473 30.2064 29.9485 29.7656 29.2536C29.8973 29.3535 30.0019 29.4776 30.1414 29.5743L30.1876 29.539C31.6273 30.4855 33.0364 31.4951 34.4547 32.4751C35.2148 33.0005 35.9641 33.5575 36.7714 34.008C36.7916 34.1527 36.8118 34.2967 36.8389 34.4403L36.8279 34.2025C36.8114 34.1114 36.7818 34.0093 36.8058 33.9181C36.8206 33.8619 42.0491 29.1667 42.4126 28.9575Z" fill="#EBB151"/>
<path d="M36.8066 34.1973L36.839 33.9739C37.2283 33.6954 37.6561 33.2895 38.0253 33.0516C37.8658 33.2204 37.7075 33.4002 37.5255 33.5455C37.3292 33.7022 37.1237 33.8174 36.9528 34.008C37.6596 33.5698 37.9231 33.2531 38.8013 33.1364C38.8952 33.1893 38.976 33.2095 39.0041 33.3247C39.0432 33.4827 38.9463 33.744 38.8999 33.8986C38.6694 34.6588 38.3962 35.3322 37.8719 35.9474C37.6406 36.2187 37.4141 36.2601 37.0793 36.3416C37.0392 36.3514 36.9023 36.3672 36.8855 36.4113C36.8088 36.6141 36.9711 37.5163 36.8533 37.7075L36.8724 37.7934C36.8707 37.7857 36.8682 37.7779 36.8673 37.7696C36.7881 37.0581 36.8485 36.0419 36.8453 35.291C36.8441 35.0179 36.8672 34.7001 36.8176 34.433L36.8066 34.1973Z" fill="#F5C168"/>
<path d="M27.9086 30.4225C28.4325 30.957 28.8412 31.6712 29.2742 32.2833C29.5943 32.7356 29.9766 33.191 30.2466 33.6724C30.2136 33.8453 30.2979 33.9464 30.3925 34.0853C30.5672 34.3418 30.7676 34.5807 30.9469 34.8342C31.5591 35.6997 32.1487 36.5812 32.7658 37.4448C33.2514 38.1247 34.6875 39.9517 34.8821 40.6417C34.8556 40.7443 34.8294 40.7813 34.732 40.8365C34.7008 40.8537 34.6684 40.8693 34.6363 40.8849L27.4527 42.0994C26.0111 42.3452 24.5657 42.6447 23.119 42.8489C23.015 42.8634 22.9164 42.8775 22.8164 42.839C22.9189 42.6817 23.6009 42.3525 23.7922 42.2656C24.1006 41.9958 24.9315 41.6177 25.3155 41.4016L28.031 39.8699C28.7299 39.4756 29.436 39.0934 30.1022 38.645C30.4245 38.7538 30.7311 38.9043 31.0539 39.0116C30.8644 38.833 30.5525 38.7965 30.3295 38.6637C30.2181 38.5971 30.1549 38.5247 30.1069 38.4038C29.9538 38.0179 29.8617 37.5809 29.7487 37.1808C29.5133 36.3561 29.2859 35.5291 29.0666 34.6999C28.6879 33.2756 28.2466 31.8557 27.9086 30.4225Z" fill="#EBB151"/>
<path d="M30.0947 38.6385C30.416 38.7477 30.7217 38.8988 31.0437 39.0065C31.0522 39.0117 31.0607 39.0164 31.0693 39.0211C31.3848 39.1962 31.7514 39.3075 32.0862 39.444C32.6725 39.6828 33.2549 39.9322 33.838 40.1789C34.1007 40.2902 34.4191 40.3864 34.6471 40.5578L34.646 40.6111C34.3632 40.8767 33.4926 40.8876 33.0912 40.9592C32.7456 41.0209 32.4036 41.1019 32.058 41.1626C31.8646 41.196 31.5891 41.2028 31.4207 41.2938C31.4595 41.3016 31.4984 41.3094 31.5374 41.3162C31.451 41.3727 31.262 41.4124 31.1605 41.3957L31.2748 41.3162C30.9681 41.242 30.8336 41.4924 30.5807 41.5248C30.503 41.5353 30.48 41.3664 30.2494 41.494L30.2906 41.5332C30.1118 41.599 29.918 41.598 29.732 41.6335L29.7481 41.6408C29.6313 41.6508 29.1122 41.6617 29.0556 41.7234C28.9982 41.7861 28.9773 41.8149 28.8871 41.8191C28.7356 41.8259 28.6246 41.7443 28.4628 41.7762C28.4326 41.8112 28.4053 41.8457 28.3778 41.8828C28.1771 41.9189 27.9979 41.8604 27.7961 41.933C27.7147 41.9628 27.5531 42.0323 27.476 42.0072C27.3691 41.9722 27.2876 41.944 27.1726 41.9618L27.1742 42.0114L27.1756 42.071C27.0907 42.1191 26.9772 42.1123 26.8823 42.0982C26.8781 42.0977 26.8747 42.094 26.8705 42.093C26.7899 42.0794 26.6267 42.047 26.5637 42.0914L26.6579 42.1646C26.5634 42.1803 26.4431 42.2106 26.3477 42.1985C26.1894 42.1792 26.1103 42.0971 25.9541 42.1891L25.9928 42.2696C25.3252 42.4541 24.44 42.5937 23.7481 42.6606C23.5158 42.6831 23.2873 42.774 23.0546 42.8111C23.0477 42.8127 23.0411 42.8153 23.0344 42.8169L23.0039 42.7861C23.0099 42.7834 23.0162 42.7814 23.0221 42.7787C23.2642 42.6627 23.6431 42.4886 23.8028 42.2723C24.1103 42.0015 24.9389 41.622 25.3218 41.4051L28.0294 39.8679C28.7263 39.4722 29.4304 39.0885 30.0947 38.6385Z" fill="#F5C168"/>
<path d="M33.2793 17.5943C33.2967 17.5905 33.3144 17.5875 33.3317 17.5829C33.5817 17.5168 33.9405 17.1269 34.1349 16.9484L34.1785 16.9931C34.1742 17.308 33.8876 17.5796 33.7989 17.8763L33.832 17.9376C33.4937 18.6115 33.1106 19.2624 32.7489 19.9237L30.7591 23.5883L29.2832 26.2746C29.027 26.7423 28.8024 27.2873 28.4654 27.6995L24.3308 21.8127L22.3474 19.0317C22.0062 18.549 21.6137 18.0529 21.3305 17.5343C21.2585 17.4025 21.2158 17.262 21.1738 17.1185C21.8277 17.7928 22.6902 18.3092 23.4616 18.8402L26.6511 21.0379C27.1061 21.3538 27.7532 21.6976 28.1025 22.1263L28.1344 22.1647C28.1407 22.1724 28.1468 22.1804 28.153 22.1882C28.2189 22.0751 28.2985 21.989 28.3925 21.8997C28.7592 21.5515 29.1565 21.2286 29.5369 20.8951L31.6029 19.071C32.0747 18.6544 32.7906 17.9216 33.2793 17.5943Z" fill="#EBB151"/>
<path d="M33.2825 17.5922C33.2999 17.5884 33.3175 17.5854 33.3348 17.5808C33.5841 17.5149 33.9419 17.1264 34.1358 16.9484L34.1793 16.9929C34.175 17.3069 33.8892 17.5775 33.8007 17.8733C33.7193 17.9886 33.6179 18.099 33.5443 18.2178C33.3763 18.4888 33.2486 18.795 33.0945 19.075C32.6096 19.9565 32.1447 20.8423 31.6725 21.7303C31.4934 22.0669 31.2818 22.3864 31.0974 22.7207C30.5231 23.761 29.9574 24.7998 29.3593 25.8254C29.1447 26.1934 28.9705 26.5916 28.7339 26.946C28.6724 27.0382 28.6034 27.1506 28.4917 27.1831C28.3351 26.7788 28.4238 25.2182 28.4185 24.7004C28.4126 24.1225 28.3175 22.7054 28.1699 22.171C28.2357 22.0582 28.3151 21.9725 28.4088 21.8835C28.7746 21.5363 29.1708 21.2145 29.5501 20.8821L31.6106 19.064C32.0811 18.6488 32.7951 17.9184 33.2825 17.5922Z" fill="#F5C168"/>
<path d="M33.9532 20.8248C33.971 20.8175 33.9892 20.8112 34.0066 20.8029C34.119 20.7492 34.1922 20.592 34.2635 20.493C34.4336 20.2568 34.6156 20.0328 34.7713 19.7862C34.9792 19.4567 35.5361 18.2548 35.9228 18.263C36.2717 18.5769 36.5408 19.102 36.8136 19.4864C37.4158 20.3353 38.0254 21.1868 38.6455 22.0228C38.8524 22.3019 39.5175 23.0559 39.5874 23.2916C39.6457 23.4887 39.9293 23.7681 40.0606 23.9498C40.6095 24.712 41.1292 25.494 41.6775 26.2552C41.9475 26.6301 42.2988 26.9884 42.499 27.4057C42.5506 27.5122 42.5334 27.6618 42.5313 27.7778C41.1518 27.2382 39.7653 26.7175 38.3718 26.2157C37.6645 25.9539 36.9408 25.7111 36.2498 25.4104L36.179 24.9251C36.1397 24.972 36.1614 25.3018 36.1605 25.3829C34.827 26.0378 33.5015 26.7083 32.1837 27.3944C31.3565 27.817 30.412 28.2181 29.6719 28.7793C29.8444 28.0141 30.7969 26.5002 31.2029 25.7631L33.9532 20.8248Z" fill="#F5C168"/>
<defs>
<linearGradient id="paint0_linear_5454_4120" x1="23.0084" y1="11.3216" x2="27.7047" y2="12.8693" gradientUnits="userSpaceOnUse">
<stop stop-color="#EDAD48"/>
<stop offset="1" stop-color="#FACC77"/>
</linearGradient>
<linearGradient id="paint1_linear_5454_4120" x1="10.1734" y1="26.0132" x2="13.5574" y2="23.3458" gradientUnits="userSpaceOnUse">
<stop stop-color="#F8BD5D"/>
<stop offset="1" stop-color="#FFDD98"/>
</linearGradient>
<linearGradient id="paint2_linear_5454_4120" x1="18.6728" y1="37.927" x2="21.9748" y2="35.3544" gradientUnits="userSpaceOnUse">
<stop stop-color="#F6BE5C"/>
<stop offset="1" stop-color="#FFDA98"/>
</linearGradient>
</defs>
</svg>
