<svg width="50" height="50" viewBox="0 0 50 50" fill="none" xmlns="http://www.w3.org/2000/svg">
<path d="M20.996 7.19356C20.0997 8.05208 19.2188 8.8947 18.338 9.73334C14.2465 13.6364 10.1551 17.5435 6.05982 21.4387C5.121 22.3329 4.14739 23.1915 2.96904 23.7161C1.56659 24.3401 0.762985 23.9506 0.310958 22.3965C-0.318792 20.2224 0.0173316 18.1953 1.23433 16.3273C2.26975 14.7374 3.5756 13.4139 4.91623 12.1261C7.05273 10.0752 9.2047 8.04413 11.3837 6.04885C12.338 5.17443 13.3811 4.37554 14.6561 4.10923C18.4732 3.31828 20.9073 7.07828 21 7.18957L20.996 7.19356Z" fill="#4779FF"/>
<path d="M3 27.1226C5.37004 26.4337 7.14859 24.9167 8.87979 23.3202C14.4007 18.2396 19.9138 13.1551 25.4583 8.10246C26.6809 6.98762 27.9665 5.92054 29.327 4.98885C31.0582 3.80233 32.9393 3.63112 34.7926 4.7619C35.4631 5.16803 36.1216 5.64183 36.6658 6.20723C38.5547 8.17812 40.42 10.1809 42.238 12.2195C44.1704 14.3854 46.0711 16.5833 47.9206 18.8209C48.5554 19.5894 49.076 20.4852 49.506 21.3931C50.3065 23.0813 50.1014 24.7495 49.1274 26.3223C48.2557 27.7318 47.0886 28.8864 45.8859 29.9813C41.1772 34.2736 36.4686 38.5658 31.705 42.798C30.4272 43.9368 29.0194 44.9562 27.5681 45.8561C24.8352 47.5562 22.0946 47.3451 19.6022 45.3306C18.151 44.1598 16.7865 42.8499 15.5404 41.4563C11.5259 36.9691 7.5863 32.4182 3.61913 27.887C3.41802 27.6602 3.2366 27.4133 3 27.1185V27.1226Z" fill="#4779FF"/>
</svg>
