<svg width="50" height="50" viewBox="0 0 50 50" fill="none" xmlns="http://www.w3.org/2000/svg">
<g clip-path="url(#clip0_5092_12964)">
<path fill-rule="evenodd" clip-rule="evenodd" d="M24.6309 1.93007L6.40039 11.7233V13.6533L8.71538 14.8686L12.839 17.0845L16.9625 19.3005L21.0861 21.5165L25.2097 23.7324L29.3334 21.5165L43.4403 13.9393V12.0092L41.1254 10.794L25.2097 19.3719L21.0861 17.156L35.1932 9.5073V7.57725L16.8902 14.94L12.7666 12.7241L26.9393 5.14913L26.9468 3.21528L24.6309 1.93007Z" fill="url(#paint0_linear_5092_12964)"/>
<path fill-rule="evenodd" clip-rule="evenodd" d="M24.6309 0L6.40039 9.79322V11.7233L8.71538 12.9385L12.839 15.1545L16.9625 17.3705L21.0861 19.5864L25.2097 21.8024L29.3334 19.5864L43.4403 12.0092V10.0791L41.1254 8.86394L25.2097 17.442L21.0861 15.2259L35.1932 7.57723V5.64718L32.8781 4.43197L16.9625 13.01L12.839 10.794L26.9459 3.21674V1.2867L24.6309 0Z" fill="url(#paint1_linear_5092_12964)"/>
<path fill-rule="evenodd" clip-rule="evenodd" d="M6.47258 16.1554L24.1244 25.5911V28.3075L22.3881 29.4512L8.71522 22.1599V41.389L6.97898 42.5327L4.73633 20.0155V17.2991L6.47258 16.1554ZM12.6941 33.8833V38.6726V43.462L16.673 45.6064L22.3881 48.6803L24.1244 47.5366V44.8202L16.673 40.8171V36.0277L22.3881 39.1016L24.1244 37.9578V35.2415L14.4304 30.0232L12.6941 31.1669V33.8833Z" fill="url(#paint2_linear_5092_12964)"/>
<path fill-rule="evenodd" clip-rule="evenodd" d="M4.73625 17.299L22.388 26.7348V29.4512L20.6518 30.6664L6.9789 23.3037V42.5326L3 40.3882V21.1591V18.5143L4.73625 17.299ZM10.9578 35.0268V39.8162V44.6056L14.9367 46.7502L20.6518 49.8239L22.388 48.6801V45.9638L14.9367 41.9608V37.1714L20.6518 40.2451L22.388 39.1014V36.385L12.694 31.1667L10.9578 32.3105V35.0268Z" fill="url(#paint3_linear_5092_12964)"/>
<path fill-rule="evenodd" clip-rule="evenodd" d="M34.1074 17.0218L43.4396 12.0088V10.0788L34.1074 15.0826V17.0218Z" fill="url(#paint4_linear_5092_12964)"/>
<path fill-rule="evenodd" clip-rule="evenodd" d="M11.3203 22.8028L20.6526 27.8066V30.666L11.3203 25.6293V22.8028Z" fill="url(#paint5_linear_5092_12964)"/>
<path fill-rule="evenodd" clip-rule="evenodd" d="M15.0098 34.3833L20.6526 37.4571V40.2449L15.0098 37.2042V34.3833Z" fill="url(#paint6_linear_5092_12964)"/>
<path fill-rule="evenodd" clip-rule="evenodd" d="M15.0098 44.0375L20.6526 47.0399V49.8277L15.0098 46.7868V44.0375Z" fill="url(#paint7_linear_5092_12964)"/>
<path fill-rule="evenodd" clip-rule="evenodd" d="M25.7891 12.6759L35.1938 7.57718V5.64714L25.7891 10.728V12.6759Z" fill="url(#paint8_linear_5092_12964)"/>
<path fill-rule="evenodd" clip-rule="evenodd" d="M17.6133 8.22953L26.9456 3.22162V1.29156L17.6133 6.2954V8.22953Z" fill="url(#paint9_linear_5092_12964)"/>
<path fill-rule="evenodd" clip-rule="evenodd" d="M43.4409 16.1554L25.7891 25.5911V28.3075L27.5254 29.4512L41.1983 22.1599V41.389L42.9345 42.5327L45.1772 20.0155V17.2991L43.4409 16.1554Z" fill="url(#paint10_linear_5092_12964)"/>
<path fill-rule="evenodd" clip-rule="evenodd" d="M45.1772 17.299L27.5254 26.7348V29.4512L29.2617 30.6664L42.9346 23.3037V42.5326L46.9136 40.3882V21.1591V18.5143L45.1772 17.299Z" fill="url(#paint11_linear_5092_12964)"/>
<path fill-rule="evenodd" clip-rule="evenodd" d="M38.5921 22.8028L29.2598 27.8066V30.666L38.5921 25.6408V22.8028Z" fill="url(#paint12_linear_5092_12964)"/>
<path fill-rule="evenodd" clip-rule="evenodd" d="M37.2193 33.8831V35.9688L33.2405 38.1047V36.0277L27.5254 39.1014L25.7891 37.9577V35.2413L35.4831 30.0232L37.2193 31.1667V33.8831Z" fill="url(#paint13_linear_5092_12964)"/>
<path fill-rule="evenodd" clip-rule="evenodd" d="M38.9557 35.0268V35.0369L34.9769 37.1726L33.7351 37.8392L33.7271 37.8435L29.2577 40.2427L27.5254 39.1014V36.385L37.2195 31.1667L38.9557 32.3104V35.0268Z" fill="url(#paint14_linear_5092_12964)"/>
<path fill-rule="evenodd" clip-rule="evenodd" d="M29.2617 37.4571L34.9047 34.3835V37.2112L34.4208 37.4713L29.2617 40.2406V37.4571Z" fill="url(#paint15_linear_5092_12964)"/>
<path fill-rule="evenodd" clip-rule="evenodd" d="M37.2193 43.4646V45.5502L33.2405 47.6861V45.6091L27.5254 48.6827L25.7891 47.539V44.8228L35.4831 39.6045L37.2193 40.7483V43.4646Z" fill="url(#paint16_linear_5092_12964)"/>
<path fill-rule="evenodd" clip-rule="evenodd" d="M38.9557 44.6082V44.6181L34.9769 46.754L33.7351 47.4204L33.7271 47.4249L29.2577 49.8239L27.5254 48.6827V45.9664L37.2195 40.7481L38.9557 41.8918V44.6082Z" fill="url(#paint17_linear_5092_12964)"/>
<path fill-rule="evenodd" clip-rule="evenodd" d="M29.2617 47.0385L34.9047 43.9646V46.7929L29.2617 49.8218V47.0385Z" fill="url(#paint18_linear_5092_12964)"/>
</g>
<defs>
<linearGradient id="paint0_linear_5092_12964" x1="10.2213" y1="20.7005" x2="39.4088" y2="4.72111" gradientUnits="userSpaceOnUse">
<stop stop-color="#00ABE0"/>
<stop offset="1" stop-color="#0060D4"/>
</linearGradient>
<linearGradient id="paint1_linear_5092_12964" x1="15.9882" y1="15.6811" x2="34.4719" y2="5.56176" gradientUnits="userSpaceOnUse">
<stop stop-color="#6EE3FA"/>
<stop offset="1" stop-color="#00ABE0"/>
</linearGradient>
<linearGradient id="paint2_linear_5092_12964" x1="4.36738" y1="37.7869" x2="24.7043" y2="26.653" gradientUnits="userSpaceOnUse">
<stop stop-color="#1B008C"/>
<stop offset="0.9972" stop-color="#CB00FF"/>
</linearGradient>
<linearGradient id="paint3_linear_5092_12964" x1="2.98683" y1="33.5819" x2="22.3814" y2="33.5819" gradientUnits="userSpaceOnUse">
<stop stop-color="#9000D3"/>
<stop offset="1" stop-color="#FF5C7F"/>
</linearGradient>
<linearGradient id="paint4_linear_5092_12964" x1="43.4752" y1="13.5668" x2="34.1267" y2="13.5668" gradientUnits="userSpaceOnUse">
<stop stop-color="white" stop-opacity="0.4"/>
<stop offset="0.9972" stop-color="white" stop-opacity="0"/>
</linearGradient>
<linearGradient id="paint5_linear_5092_12964" x1="20.6362" y1="26.7204" x2="11.2878" y2="26.7204" gradientUnits="userSpaceOnUse">
<stop stop-color="white" stop-opacity="0.4"/>
<stop offset="0.9972" stop-color="white" stop-opacity="0"/>
</linearGradient>
<linearGradient id="paint6_linear_5092_12964" x1="20.642" y1="37.3258" x2="14.9899" y2="37.3258" gradientUnits="userSpaceOnUse">
<stop stop-color="white" stop-opacity="0.4"/>
<stop offset="0.9972" stop-color="white" stop-opacity="0"/>
</linearGradient>
<linearGradient id="paint7_linear_5092_12964" x1="20.6361" y1="46.9402" x2="14.9841" y2="46.9402" gradientUnits="userSpaceOnUse">
<stop stop-color="white" stop-opacity="0.4"/>
<stop offset="0.9972" stop-color="white" stop-opacity="0"/>
</linearGradient>
<linearGradient id="paint8_linear_5092_12964" x1="35.1732" y1="9.13644" x2="25.8249" y2="9.13644" gradientUnits="userSpaceOnUse">
<stop stop-color="white" stop-opacity="0.4"/>
<stop offset="0.9972" stop-color="white" stop-opacity="0"/>
</linearGradient>
<linearGradient id="paint9_linear_5092_12964" x1="26.9414" y1="4.70586" x2="17.5931" y2="4.70586" gradientUnits="userSpaceOnUse">
<stop stop-color="white" stop-opacity="0.4"/>
<stop offset="0.9972" stop-color="white" stop-opacity="0"/>
</linearGradient>
<linearGradient id="paint10_linear_5092_12964" x1="45.5461" y1="37.7869" x2="25.2092" y2="26.653" gradientUnits="userSpaceOnUse">
<stop stop-color="#CC522B"/>
<stop offset="0.9972" stop-color="#DF6C3B"/>
</linearGradient>
<linearGradient id="paint11_linear_5092_12964" x1="46.9266" y1="33.5819" x2="27.532" y2="33.5819" gradientUnits="userSpaceOnUse">
<stop stop-color="#FE7015"/>
<stop offset="1" stop-color="#FFA529"/>
</linearGradient>
<linearGradient id="paint12_linear_5092_12964" x1="29.2763" y1="26.7204" x2="38.6246" y2="26.7204" gradientUnits="userSpaceOnUse">
<stop stop-color="white" stop-opacity="0.4"/>
<stop offset="0.9972" stop-color="white" stop-opacity="0"/>
</linearGradient>
<linearGradient id="paint13_linear_5092_12964" x1="45.5461" y1="37.7868" x2="25.2092" y2="26.6528" gradientUnits="userSpaceOnUse">
<stop stop-color="#CC522B"/>
<stop offset="0.9972" stop-color="#DF6C3B"/>
</linearGradient>
<linearGradient id="paint14_linear_5092_12964" x1="46.9266" y1="33.5819" x2="27.532" y2="33.5819" gradientUnits="userSpaceOnUse">
<stop stop-color="#FE7015"/>
<stop offset="1" stop-color="#FFA529"/>
</linearGradient>
<linearGradient id="paint15_linear_5092_12964" x1="29.2725" y1="37.3258" x2="34.9245" y2="37.3258" gradientUnits="userSpaceOnUse">
<stop stop-color="white" stop-opacity="0.4"/>
<stop offset="0.9972" stop-color="white" stop-opacity="0"/>
</linearGradient>
<linearGradient id="paint16_linear_5092_12964" x1="45.5461" y1="47.3681" x2="25.2092" y2="36.2342" gradientUnits="userSpaceOnUse">
<stop stop-color="#CC522B"/>
<stop offset="0.9972" stop-color="#DF6C3B"/>
</linearGradient>
<linearGradient id="paint17_linear_5092_12964" x1="46.9266" y1="43.1632" x2="27.532" y2="43.1632" gradientUnits="userSpaceOnUse">
<stop stop-color="#FE7015"/>
<stop offset="1" stop-color="#FFA529"/>
</linearGradient>
<linearGradient id="paint18_linear_5092_12964" x1="29.2725" y1="46.9071" x2="34.9245" y2="46.9071" gradientUnits="userSpaceOnUse">
<stop stop-color="white" stop-opacity="0.4"/>
<stop offset="0.9972" stop-color="white" stop-opacity="0"/>
</linearGradient>
<clipPath id="clip0_5092_12964">
<rect width="44" height="50" fill="white" transform="translate(3)"/>
</clipPath>
</defs>
</svg>
