<svg width="50" height="50" viewBox="0 0 50 50" fill="none" xmlns="http://www.w3.org/2000/svg">

  <path
    d="M41.4834 19.5658H25.8349L27.6833 1.20742C27.7324 0.718294 27.4773 0.253085 27.0615 0.0748273C26.6448 -0.105604 26.1729 0.0487409 25.9088 0.446559L7.18937 28.7069C6.97065 29.0373 6.93913 29.4753 7.10662 29.8395C7.27509 30.2058 7.615 30.4351 7.98544 30.4351H23.634L21.7856 48.7935C21.7364 49.2826 21.9915 49.7478 22.4073 49.926C22.5236 49.976 22.6437 50 22.764 50C23.0713 50 23.3699 49.8413 23.56 49.5543L42.2794 21.294C42.4981 20.9636 42.5297 20.5256 42.3622 20.1614C42.1937 19.7951 41.8538 19.5658 41.4834 19.5658Z"
    fill="url(#paint0_linear_309_669)" />
  <path
    d="M25.8349 19.5658L27.6833 1.20742C27.7324 0.718294 27.4773 0.253085 27.0615 0.0748273C26.6448 -0.105604 26.1729 0.0487409 25.9088 0.446559L7.18937 28.7069C6.97065 29.0373 6.93913 29.4753 7.10662 29.8395C7.27509 30.2058 7.615 30.4351 7.98544 30.4351H23.634C24.7344 25 24.7344 25 25.8349 19.5658Z"
    fill="url(#paint1_linear_309_669)" />
  <path d="M25.8382 19.5676H40.052L35.2819 30.0893L22.0615 46.0479L23.5411 30.4355L25.8382 19.5676Z"
    fill="url(#paint2_linear_309_669)" />
  <defs>
    <linearGradient id="paint0_linear_309_669" x1="31.4929" y1="19.6863" x2="22.7377" y2="50.6505"
      gradientUnits="userSpaceOnUse">
      <stop stop-color="#029BF1" />
      <stop offset="1" stop-color="#A1EEFF" />
    </linearGradient>
    <linearGradient id="paint1_linear_309_669" x1="25.3913" y1="1.31579" x2="17.3204" y2="30.4284"
      gradientUnits="userSpaceOnUse">
      <stop stop-color="#A2EEFF" />
      <stop offset="1" stop-color="#029AF0" />
    </linearGradient>
    <linearGradient id="paint2_linear_309_669" x1="23.6255" y1="25.292" x2="30.6085" y2="28.0138"
      gradientUnits="userSpaceOnUse">
      <stop stop-color="#005796" />
      <stop offset="1" stop-color="#0091E2" stop-opacity="0" />
    </linearGradient>
  </defs>
</svg>