<svg width="50" height="50" viewBox="0 0 50 50" fill="none" xmlns="http://www.w3.org/2000/svg">
<g clip-path="url(#clip0_5904_4187)">
<path d="M33.9496 17.3724C34.2689 17.3431 34.6125 17.3711 34.9344 17.372C35.9076 17.3746 36.91 17.4236 37.8792 17.3464C37.8867 17.368 37.893 17.3899 37.8983 17.4121C37.9704 17.7298 37.9176 18.2916 37.917 18.6347L37.9141 21.393L37.92 32.5229C37.9195 32.5998 37.9171 32.617 37.8758 32.6827C37.8666 32.6848 37.8703 32.6843 37.8598 32.6852C37.4069 32.7221 36.9158 32.6766 36.4579 32.6757C35.6968 32.6743 34.9298 32.7029 34.1695 32.6784C34.1046 32.6763 34.0109 32.6861 33.9599 32.6425C33.8836 32.4383 33.9348 23.867 33.9348 22.9184V19.4087C33.9348 18.7322 33.9131 18.0475 33.9496 17.3724Z" fill="#FEC913"/>
<path d="M27.6787 28.9282C27.7068 28.8792 27.7375 28.8257 27.7482 28.7695C27.7958 28.5204 27.8006 28.2476 27.8334 27.9942L28.1032 25.9827L29.0118 19.3897L29.1801 18.1545C29.2108 17.9142 29.2164 17.6288 29.2932 17.3999C29.5392 17.3202 30.7289 17.375 31.0558 17.3756C31.8577 17.3784 32.6595 17.3726 33.4613 17.3582C33.4711 17.3817 33.4782 17.4058 33.4822 17.431C33.5122 17.6201 32.9601 20.1233 32.881 20.4107C32.8705 20.4488 32.8481 20.4856 32.8254 20.5174C32.8334 20.5419 32.8354 20.5712 32.8354 20.5971C32.8348 20.835 32.6977 21.2724 32.6428 21.5278L32.1442 23.8649L30.9237 29.5979C30.7128 30.5893 30.5333 31.6001 30.284 32.5816C30.2717 32.6302 30.2567 32.6609 30.2217 32.697C28.5418 32.5958 26.7913 32.7174 25.1028 32.6798C25.1533 32.3675 24.1839 28.0455 24.032 27.3152C23.3429 24.0019 22.6894 20.6757 21.957 17.3723C22.3216 17.3295 22.9596 17.3776 23.3547 17.3781C24.1919 17.3791 25.0368 17.3456 25.8725 17.3662C25.9598 17.3683 26.04 17.3762 26.1244 17.4C26.2244 17.836 26.2551 18.3084 26.315 18.7525L26.6631 21.2539L27.4821 27.2472C27.5479 27.7568 27.6381 28.2681 27.6956 28.7775C27.7014 28.8287 27.6931 28.8791 27.6787 28.9282Z" fill="url(#paint0_linear_5904_4187)"/>
<path d="M0.0680036 17.3941C0.368582 17.3191 1.6244 17.3815 2.02286 17.3823L6.44358 17.3806C7.30248 17.3806 8.19196 17.4262 9.04631 17.3478C9.03876 18.0376 9.03629 18.7273 9.0389 19.4171C9.0391 19.8301 9.0178 20.2595 9.05851 20.6701C7.81212 20.6145 6.55374 20.648 5.30588 20.6495C4.87501 20.65 4.43376 20.6745 4.00437 20.6512C4.05761 21.0723 4.0679 22.8251 4.00305 23.2348L6.99395 23.2375C7.56307 23.2373 8.15028 23.2617 8.71753 23.2139C8.71223 23.8825 8.71052 24.5511 8.7124 25.2197C8.71276 25.6116 8.69436 26.0182 8.7314 26.4084C7.57517 26.3574 6.40955 26.3859 5.25196 26.3876C4.83943 26.3882 4.4153 26.4132 4.00425 26.3895C4.07 26.9106 4.03009 27.4738 4.03009 27.9998C4.0301 28.4548 4.07143 28.955 4.0066 29.4048C5.75767 29.3811 7.50838 29.4336 9.25975 29.3824C9.20899 29.9131 9.22877 30.46 9.2291 30.9931C9.22945 31.5566 9.20992 32.1333 9.26708 32.6941C8.36193 32.6619 7.45364 32.6767 6.54796 32.6766L2.24801 32.6769C1.84622 32.6771 0.339858 32.7406 0.0452973 32.6552L0 32.6671V17.3745L0.0680036 17.3941ZM0 17.3745V32.6671L0.0452973 32.6552C0.0988807 32.2574 0.0607129 31.8063 0.0607146 31.4024L0.0596466 28.8688L0.0601157 21.2498L0.0598061 18.8488C0.0588365 18.3654 0.0411447 17.8767 0.0680036 17.3941L0 17.3745Z" fill="url(#paint1_linear_5904_4187)"/>
<path d="M0 17.3745L0.0680036 17.3941C0.0411447 17.8767 0.0588365 18.3654 0.0598061 18.8488L0.0601157 21.2498L0.0596466 28.8688L0.0607146 31.4024C0.0607129 31.8063 0.0988807 32.2574 0.0452973 32.6552L0 32.6671V17.3745Z" fill="#FE7F70" fill-opacity="0.027451"/>
<path d="M17.5411 26.8276C17.5623 26.785 17.593 26.731 17.5988 26.6834C17.6228 26.4891 17.5901 26.2528 17.5866 26.0552C17.5821 25.6279 17.5796 25.2005 17.5792 24.7731L17.5741 19.8689C17.574 19.1179 17.5366 18.351 17.5682 17.6019C17.5713 17.5296 17.5675 17.4209 17.6175 17.3653C18.829 17.4177 20.0646 17.3886 21.2767 17.3569C21.3102 17.4071 21.3188 17.4641 21.3201 17.5237C21.3435 18.634 21.3143 19.7529 21.3141 20.864L21.312 28.0806L21.3122 31.2885C21.3146 31.7048 21.379 32.263 21.3266 32.6552L21.251 32.691C19.8263 32.6506 18.3901 32.6625 16.9652 32.6915C16.9718 32.6659 16.4366 30.7806 16.3745 30.5586L14.9845 25.5539L14.5834 24.0943C14.5 23.7921 14.4292 23.4769 14.3097 23.1872C14.38 25.3897 14.3395 27.6033 14.3388 29.8075L14.3397 31.5451C14.3412 31.921 14.3215 32.3234 14.3861 32.694C13.1292 32.6724 11.8514 32.7214 10.6019 32.6776C10.5822 32.3278 10.6033 31.9686 10.604 31.6176L10.6052 29.4941L10.6046 22.7202L10.6069 19.0474C10.6059 18.5157 10.5365 17.877 10.6169 17.3579C11.1948 17.3948 11.7794 17.3805 12.3585 17.3805C13.2463 17.3856 14.1341 17.3788 15.0217 17.3601C15.1581 17.6444 15.2272 18.0097 15.3109 18.3146L15.8229 20.2043L16.8012 23.8402C17.0558 24.778 17.3281 25.7211 17.5428 26.6689C17.5552 26.7231 17.5525 26.7733 17.5411 26.8276Z" fill="url(#paint2_linear_5904_4187)"/>
<path d="M49.8889 26.5415C50.0472 27.0418 49.6643 28.9568 49.515 29.4835C49.1854 30.6469 48.6225 31.703 47.5457 32.3054C46.2294 33.0417 43.8944 33.0815 42.4629 32.6629C41.4421 32.3643 40.6502 31.7735 40.1338 30.8223C38.8695 28.4932 38.892 23.0194 39.6248 20.4832C39.9496 19.3592 40.5833 18.2582 41.6298 17.6816C42.9291 16.9657 45.2157 16.9114 46.6226 17.3326C47.6543 17.6414 48.4727 18.2993 48.9865 19.2572C49.1877 19.6325 49.3494 19.9976 49.4751 20.4064C49.6493 20.9732 50.0528 23.1074 49.8919 23.6434C49.8911 23.6459 49.8904 23.6484 49.8896 23.651C49.9982 23.7701 49.9604 24.2328 49.9611 24.394C50.03 24.5333 50.0336 25.49 49.9809 25.6508C49.9762 25.6651 49.9713 25.6791 49.9654 25.6929C49.9671 25.8406 49.9848 26.4455 49.8958 26.5352C49.8936 26.5374 49.8912 26.5394 49.8889 26.5415ZM44.4734 19.8C44.2089 19.8214 43.9792 19.8847 43.8003 20.0962C43.592 20.3426 43.5091 20.658 43.4466 20.969C43.2464 21.9654 43.2484 23.4139 43.2469 24.4483C43.2448 25.7685 43.249 27.0761 43.3573 28.3923C43.3938 28.8368 43.4768 29.7034 43.8302 30.0093C44.0172 30.171 44.3423 30.2803 44.5879 30.2594C44.8816 30.2381 45.1024 30.1479 45.2987 29.9165C45.5286 29.6455 45.6167 29.2644 45.68 28.9202C45.9056 27.6942 45.8641 26.3681 45.8645 25.1254C45.8647 24.1614 45.8821 23.188 45.8048 22.2266C45.7543 21.6004 45.7173 20.4322 45.216 20.0047C45.0085 19.8277 44.7374 19.7772 44.4734 19.8ZM49.8896 23.651C49.9579 23.898 49.9897 26.2507 49.8889 26.5415C49.8912 26.5394 49.8936 26.5374 49.8958 26.5352C49.9848 26.4455 49.9671 25.8406 49.9654 25.6929C49.9713 25.6791 49.9762 25.6651 49.9809 25.6508C50.0336 25.49 50.03 24.5333 49.9611 24.394C49.9604 24.2328 49.9982 23.7701 49.8896 23.651Z" fill="#FEC913"/>
<path d="M49.8894 23.651C49.998 23.7701 49.9602 24.2329 49.9609 24.394C50.0299 24.5333 50.0334 25.49 49.9807 25.6509C49.976 25.6652 49.9711 25.6791 49.9653 25.693C49.9669 25.8406 49.9846 26.4456 49.8956 26.5352C49.8935 26.5374 49.8911 26.5394 49.8887 26.5415C49.9895 26.2508 49.9577 23.898 49.8894 23.651Z" fill="#FEC913" fill-opacity="0.423529"/>
</g>
<defs>
<linearGradient id="paint0_linear_5904_4187" x1="33.3849" y1="25.03" x2="22.0015" y2="24.9858" gradientUnits="userSpaceOnUse">
<stop stop-color="#FFBC24"/>
<stop offset="1" stop-color="#FFA93B"/>
</linearGradient>
<linearGradient id="paint1_linear_5904_4187" x1="9.20394" y1="25.0306" x2="0.0828331" y2="24.9989" gradientUnits="userSpaceOnUse">
<stop stop-color="#FF9554"/>
<stop offset="1" stop-color="#FF8467"/>
</linearGradient>
<linearGradient id="paint2_linear_5904_4187" x1="21.242" y1="25.0335" x2="10.6231" y2="24.9961" gradientUnits="userSpaceOnUse">
<stop stop-color="#FFA73C"/>
<stop offset="1" stop-color="#FF9652"/>
</linearGradient>
<clipPath id="clip0_5904_4187">
<rect width="50" height="16" fill="white" transform="translate(0 17)"/>
</clipPath>
</defs>
</svg>
