<svg width="50" height="50" viewBox="0 0 50 50" fill="none" xmlns="http://www.w3.org/2000/svg">
  <path
    d="M22.836 0.0954199C23.0347 0.0780058 23.2335 0.0629686 23.4325 0.0503087C23.6316 0.0376624 23.8308 0.0273934 24.0301 0.0195014C24.2295 0.0116229 24.4289 0.00612798 24.6283 0.00301735C24.8277 -7.9697e-05 25.0272 -0.000792434 25.2267 0.00087834C25.4261 0.00254911 25.6255 0.0066038 25.8249 0.0130424C26.0243 0.0194946 26.2235 0.0283307 26.4227 0.0395507C26.6218 0.0507707 26.8208 0.0643743 27.0196 0.0803621C27.2184 0.0963499 27.4169 0.114715 27.6154 0.135457C27.8137 0.156199 28.0118 0.179311 28.2097 0.204794C28.4075 0.23029 28.605 0.25815 28.8022 0.288374C28.9993 0.318583 29.196 0.351157 29.3925 0.386093C29.5889 0.42103 29.7848 0.45831 29.9803 0.497934C30.1757 0.537557 30.3707 0.579517 30.5652 0.623812C30.7597 0.668108 30.9537 0.714727 31.1471 0.763668C31.3404 0.812609 31.5331 0.86386 31.7253 0.91742C31.9174 0.97098 32.1088 1.02684 32.2997 1.08499C32.4904 1.14312 32.6804 1.20354 32.8698 1.26625C33.0591 1.32895 33.2477 1.3939 33.4356 1.46111C33.6234 1.52833 33.8104 1.59778 33.9965 1.66947C34.1826 1.74117 34.3678 1.81508 34.5521 1.89122C34.7365 1.96734 34.92 2.04567 35.1024 2.12621C35.2849 2.20673 35.4664 2.28942 35.6468 2.37429C35.8273 2.45916 36.0068 2.54618 36.1853 2.63534C36.3636 2.72452 36.541 2.81581 36.7173 2.90923C36.8934 3.00264 37.0685 3.09815 37.2423 3.19577C37.4163 3.29338 37.5891 3.39306 37.7606 3.49481C37.9322 3.59655 38.1025 3.70034 38.2714 3.80617C38.4405 3.912 38.6084 4.01984 38.7749 4.12969C38.9413 4.23952 39.1064 4.35134 39.2702 4.46515C39.434 4.57895 39.5964 4.69469 39.7573 4.81238C39.9184 4.93008 40.078 5.04969 40.2361 5.17119C40.3942 5.29271 40.5509 5.4161 40.7062 5.54137C40.8656 5.66984 41.0235 5.80026 41.1797 5.93262C41.3359 6.06497 41.4905 6.19923 41.6434 6.3354C41.7963 6.47157 41.9476 6.6096 42.0971 6.74948C42.2466 6.88938 42.3943 7.0311 42.5403 7.17463C42.6863 7.31817 42.8306 7.46349 42.973 7.61058C43.1154 7.75767 43.256 7.90649 43.3948 8.05705C43.5336 8.20761 43.6705 8.35985 43.8055 8.51378C43.9406 8.66771 44.0736 8.82327 44.2047 8.98047C44.3359 9.13769 44.4651 9.2965 44.5924 9.45689C44.7197 9.61729 44.8449 9.77922 44.9681 9.9427C45.0914 10.1062 45.2127 10.2711 45.3318 10.4376C45.451 10.6041 45.5682 10.772 45.6832 10.9414C45.7983 11.1107 45.9112 11.2815 46.0221 11.4536C46.1329 11.6257 46.2416 11.7992 46.3481 11.974C46.4547 12.1489 46.5591 12.325 46.6614 12.5023C46.7636 12.6797 46.8635 12.8583 46.9613 13.0381C47.0591 13.2181 47.1548 13.3992 47.2482 13.5813C47.3415 13.7635 47.4326 13.9468 47.5214 14.1313C47.6103 14.3157 47.6968 14.5013 47.781 14.6879C47.8653 14.8746 47.9473 15.0622 48.0269 15.2507C48.1065 15.4394 48.1838 15.6289 48.2588 15.8194C48.3338 16.0099 48.4064 16.2013 48.4766 16.3935C48.5468 16.5859 48.6147 16.779 48.6801 16.973C48.7456 17.167 48.8087 17.3618 48.8694 17.5574C48.93 17.7528 48.9882 17.9491 49.044 18.146C49.0998 18.343 49.1532 18.5406 49.2042 18.7389C49.2552 18.9373 49.3038 19.1361 49.3498 19.3355C49.3959 19.5351 49.4394 19.7351 49.4804 19.9356C49.5216 20.1361 49.5602 20.3371 49.5964 20.5387C49.6326 20.7401 49.6663 20.9421 49.6974 21.1444C49.7287 21.3467 49.7573 21.5494 49.7834 21.7524C49.8096 21.9555 49.8333 22.1589 49.8545 22.3625C49.8765 22.5647 49.896 22.7673 49.913 22.9701C49.9301 23.1727 49.9446 23.3757 49.9566 23.5789C49.9687 23.782 49.9782 23.9852 49.9851 24.1885C49.9922 24.3919 49.9967 24.5953 49.9988 24.7988C50.0008 25.0022 50.0003 25.2057 49.9973 25.409C49.9943 25.6125 49.9888 25.8159 49.9808 26.0192C49.9728 26.2226 49.9624 26.4257 49.9495 26.6287C49.9364 26.8317 49.9209 27.0346 49.903 27.2373C49.8849 27.4399 49.8644 27.6424 49.8415 27.8447C49.8185 28.0468 49.7931 28.2486 49.7653 28.4502C49.7373 28.6517 49.7069 28.8528 49.674 29.0537C49.6411 29.2545 49.6058 29.4549 49.568 29.6548C49.5301 29.8548 49.4899 30.0542 49.4472 30.253C49.4044 30.452 49.3593 30.6504 49.3117 30.8482C49.2641 31.046 49.214 31.2432 49.1616 31.4399C49.1091 31.6364 49.0543 31.8323 48.9969 32.0275C48.9398 32.2228 48.8801 32.4174 48.8181 32.6111C48.756 32.8049 48.6915 32.9979 48.6247 33.1901C48.5579 33.3823 48.4887 33.5736 48.4173 33.7641C48.3457 33.9545 48.2719 34.1441 48.1958 34.3328C48.1196 34.5214 48.0411 34.7092 47.9603 34.8959C47.8795 35.0827 47.7964 35.2685 47.7111 35.4532C47.6257 35.6379 47.538 35.8216 47.4481 36.0042C47.3583 36.1866 47.2662 36.368 47.1718 36.5484C47.0774 36.7286 46.9808 36.9077 46.8821 37.0857C46.7833 37.2635 46.6824 37.4401 46.5793 37.6156C46.4762 37.791 46.371 37.9651 46.2635 38.1381C46.1562 38.3108 46.0467 38.4823 45.9351 38.6525C45.8236 38.8226 45.7099 38.9913 45.594 39.1587C45.4783 39.326 45.3605 39.4919 45.2407 39.6564C45.1208 39.8209 44.9989 39.9839 44.8752 40.1452C44.7513 40.3067 44.6255 40.4667 44.4977 40.6251C40.0976 46.0638 34.0611 49.1692 27.1443 49.9003C27.1301 49.9032 27.1158 49.9068 27.1011 49.9091C26.2845 50.0307 25.3585 49.9985 24.5338 49.9889C24.1901 49.9828 23.8467 49.9696 23.5036 49.9492C23.1605 49.9288 22.818 49.9015 22.4759 49.8671C22.1339 49.8326 21.7928 49.791 21.4525 49.7424C21.1123 49.6939 20.7732 49.6384 20.4352 49.5759C20.0973 49.5133 19.7608 49.4438 19.4257 49.3673C19.0906 49.2909 18.7572 49.2077 18.4255 49.1175C18.0938 49.0273 17.7641 48.9303 17.4365 48.8265C17.1088 48.7226 16.7834 48.612 16.4603 48.4948C16.1372 48.3776 15.8167 48.2538 15.4987 48.1234C15.1807 47.993 14.8656 47.8561 14.5533 47.7126C14.2409 47.569 13.9317 47.4191 13.6256 47.2629C13.3194 47.1067 13.0166 46.9443 12.7172 46.7756C12.4178 46.6068 12.122 46.432 11.8298 46.2511C11.5376 46.0702 11.2492 45.8833 10.9647 45.6906C10.6802 45.4977 10.3998 45.299 10.1235 45.0946C9.84725 44.8902 9.5753 44.6802 9.30769 44.4646C9.14938 44.3372 8.99265 44.2079 8.83749 44.0766C8.68234 43.9454 8.52882 43.8123 8.37692 43.6773C8.22503 43.5424 8.0748 43.4056 7.92626 43.2669C7.7777 43.1282 7.63087 42.9878 7.48577 42.8456C7.34064 42.7033 7.19728 42.5594 7.05568 42.4136C6.91409 42.2679 6.7743 42.1204 6.63631 41.9713C6.49833 41.8221 6.36218 41.6713 6.22789 41.5189C6.09358 41.3664 5.96116 41.2123 5.83063 41.0566C5.70009 40.9009 5.57148 40.7437 5.4448 40.5847C5.31812 40.4259 5.1934 40.2656 5.07064 40.1037C4.94786 39.9417 4.8271 39.7783 4.70834 39.6134C4.58957 39.4485 4.47283 39.2823 4.35812 39.1146C4.24343 38.9469 4.1308 38.7778 4.02024 38.6073C3.90966 38.4368 3.80119 38.2651 3.69484 38.092C3.58847 37.9188 3.48423 37.7444 3.38213 37.5688C3.28002 37.3931 3.18009 37.2163 3.08232 37.0382C2.98453 36.86 2.88895 36.6807 2.79557 36.5003C2.70217 36.3199 2.611 36.1384 2.52206 35.9557C2.43311 35.773 2.3464 35.5892 2.26194 35.4045C2.17748 35.2196 2.09529 35.0338 2.01537 34.847C1.93546 34.6603 1.85785 34.4725 1.78253 34.2839C1.7072 34.0951 1.63419 33.9054 1.5635 33.715C1.49282 33.5245 1.42447 33.3332 1.35846 33.141C1.29246 32.9489 1.22881 32.7561 1.16751 32.5624C1.10622 32.3687 1.04731 32.1742 0.990779 31.979C0.934247 31.7838 0.880105 31.588 0.828354 31.3916C0.776603 31.1952 0.727263 30.9981 0.680334 30.8003C0.633405 30.6027 0.5889 30.4045 0.54682 30.2058C0.50474 30.007 0.465098 29.8078 0.427894 29.6079C0.390677 29.4083 0.355919 29.2081 0.323618 29.0075C0.291304 28.807 0.261442 28.6061 0.234032 28.4048C0.206635 28.2033 0.181703 28.0017 0.159237 27.7998C0.135997 27.595 0.115296 27.39 0.0971358 27.1847C0.0789754 26.9795 0.0633548 26.774 0.0502745 26.5684C0.0372076 26.3626 0.0266877 26.1567 0.0187145 25.9508C0.0107277 25.7448 0.00530138 25.5389 0.00243538 25.3328C-0.000444211 25.1267 -0.00077017 24.9207 0.00145744 24.7146C0.00368504 24.5085 0.0084661 24.3026 0.0158009 24.0966C0.0231221 23.8906 0.0329969 23.6847 0.0454254 23.479C0.0578538 23.2733 0.072829 23.0677 0.090351 22.8625C0.107859 22.6571 0.127915 22.452 0.150517 22.2472C0.173105 22.0423 0.198234 21.8378 0.225902 21.6335C0.253557 21.4293 0.283739 21.2255 0.316446 21.022C0.349168 20.8185 0.384395 20.6154 0.422129 20.4128C0.459862 20.2102 0.500101 20.0081 0.542847 19.8064C0.585593 19.6048 0.630824 19.4038 0.678541 19.2033C0.726258 19.0028 0.776454 18.8029 0.829128 18.6036C0.881803 18.4044 0.936936 18.2059 0.994528 18.0081C1.05211 17.8102 1.11214 17.613 1.17462 17.4166C1.23709 17.2202 1.30198 17.0246 1.3693 16.8298C1.4366 16.635 1.50631 16.441 1.57844 16.2479C1.65055 16.0548 1.72505 15.8627 1.80193 15.6714C1.87879 15.4803 1.95802 15.2901 2.03961 15.1007C2.12121 14.9115 2.20512 14.7233 2.29136 14.5361C2.37761 14.3489 2.46617 14.1629 2.55702 13.9778C2.64788 13.7928 2.74101 13.609 2.83642 13.4263C2.93183 13.2436 3.02948 13.0621 3.12938 12.8819C3.22929 12.7016 3.33141 12.5226 3.43575 12.3448C3.54008 12.167 3.6466 11.9906 3.75531 11.8155C3.86401 11.6404 3.97487 11.4666 4.08788 11.2943C4.20089 11.1219 4.31601 10.951 4.43325 10.7814C4.55049 10.6119 4.66982 10.4439 4.79122 10.2773C4.91263 10.1107 5.03607 9.94569 5.16155 9.78218C5.28704 9.61866 5.41454 9.45673 5.54404 9.29638C9.89845 3.91271 15.9948 0.819273 22.836 0.0954199ZM19.791 2.16331C14.5837 2.67628 9.7935 4.86432 6.4364 8.95782C2.98896 13.1614 1.67336 18.6668 2.21602 24.0198C2.92739 31.0371 6.80569 37.5215 12.2324 41.9372C16.8898 45.727 23.9541 48.6093 30.0593 47.8528C30.0864 47.8495 30.1133 47.8438 30.1402 47.8389C35.4066 47.3057 40.1832 45.1616 43.5757 41.0018C46.9713 36.8383 48.3356 31.4063 47.7936 26.1036C47.0659 18.9834 43.2414 12.5019 37.7215 8.01937C32.9309 4.1292 26.2393 1.51289 19.9945 2.13721C19.9265 2.14422 19.8586 2.15292 19.791 2.16331Z"
    fill="#000" />
  <path
    d="M24.9959 5C25.2408 6.04866 25.1047 7.48851 25.1308 8.57523C25.2238 12.4628 25.1838 18.8385 27.3599 22.0419C29.207 24.7609 32.2103 24.5565 35 25.0364C32.6969 25.1076 29.9946 25.2751 28.1824 26.967C24.6268 30.2864 25.2779 40.2964 25.0104 45C24.8715 43.8952 24.9472 42.6903 24.9223 41.5731C24.8328 37.5639 24.9146 30.3725 22.2232 27.3112C20.412 25.2509 17.479 25.1508 15 25.0473C17.3766 24.6372 20.0106 24.7953 21.9126 22.9579C25.4103 19.5789 24.7951 9.68978 24.9959 5Z"
    fill="#000" />
</svg>