<svg width="50" height="50" viewBox="0 0 50 50" fill="none" xmlns="http://www.w3.org/2000/svg">
<path d="M25 38.75C21.3533 38.75 17.8559 37.3013 15.2773 34.7227C12.6987 32.1441 11.25 28.6467 11.25 25C11.25 21.3533 12.6987 17.8559 15.2773 15.2773C17.8559 12.6987 21.3533 11.25 25 11.25V0C20.0555 0 15.222 1.46622 11.1107 4.21326C6.99952 6.96029 3.79521 10.8648 1.90302 15.4329C0.0108298 20.0011 -0.48425 25.0277 0.48038 29.8773C1.44501 34.7268 3.82602 39.1814 7.32233 42.6777C10.8186 46.174 15.2732 48.555 20.1227 49.5196C24.9723 50.4843 29.9989 49.9892 34.5671 48.097C39.1352 46.2048 43.0397 43.0005 45.7867 38.8892C48.5338 34.778 50 29.9445 50 25H38.75C38.75 28.6467 37.3014 32.1441 34.7227 34.7227C32.1441 37.3013 28.6467 38.75 25 38.75Z" fill="#2354E6"/>
<path d="M38.75 11.25H25V25H38.75V11.25Z" fill="#17E6A1"/>
</svg>
