<svg width="50" height="50" viewBox="0 0 50 50" fill="none" xmlns="http://www.w3.org/2000/svg">
  <path d="M6.03571 18.9524C3.94048 19.3492 2.46032 20.5198 1.59524 22.4643M1.03571 24.5595L1 24.9167" stroke="#642080"
    stroke-opacity="0.5" stroke-width="0.238095" />
  <path
    d="M33.0244 28.619L33.0363 28.7143M48.7625 28.0476C48.9888 27.4594 49.0627 26.8236 48.9774 26.1992C48.892 25.5748 48.6502 24.9821 48.2744 24.4762C48.2427 24.4365 48.2506 24.4048 48.2982 24.381C48.9014 24.0476 49.1197 23.5595 48.953 22.9167C48.8736 22.5913 48.6514 22.3611 48.2863 22.2262"
    stroke="#48196F" stroke-opacity="0.5" stroke-width="0.238095" />
  <path
    d="M48.2863 22.2262C48.1911 22.131 48.1236 21.9722 48.0839 21.75C48.0363 21.5198 47.9927 21.3611 47.953 21.2738C47.6873 20.7052 47.2873 20.2098 46.7875 19.8302C46.2877 19.4507 45.703 19.1984 45.0839 19.0952C45.0695 19.092 45.0568 19.0835 45.0482 19.0714L45.0244 19.0476M44.6078 19.0238C43.0284 18.8968 41.6752 19.3571 40.5482 20.4048M39.8458 20.0833C38.6792 19.9246 37.5046 19.8254 36.322 19.7857M35.7625 19.7619H35.2863M34.7625 19.7857C33.9927 19.7857 33.5165 20.1429 33.3339 20.8571C33.3315 20.864 33.3276 20.8702 33.3224 20.8753C33.3172 20.8804 33.311 20.8843 33.3041 20.8866C33.2972 20.8889 33.2898 20.8895 33.2826 20.8886C33.2754 20.8876 33.2685 20.885 33.2625 20.881C32.5482 20.2857 31.7109 19.9127 30.7506 19.7619M28.203 19.8929L27.3339 20.0952M27.0244 20.2024L26.2268 20.5595M25.8101 20.8929C25.7625 20.9563 25.7149 21.004 25.6673 21.0357C25.6276 21.0516 25.5998 21.0437 25.5839 21.0119C25.33 20.504 24.9649 20.1865 24.4887 20.0595C23.4173 19.7976 21.8458 19.8214 20.7506 20.2857M20.1673 20.9048C19.7149 21.873 19.3458 22.8571 19.0601 23.8571C19.0284 23.9683 19.0085 23.9683 19.0006 23.8571C18.9173 22.7738 18.6554 21.8929 17.8577 21.1429M17.4054 20.7738C15.822 19.6786 13.8339 19.4643 11.9768 19.9643C11.58 20.0675 11.2744 20.2381 11.0601 20.4762C11.0363 20.5079 11.0085 20.5079 10.9768 20.4762C10.3974 19.8175 9.67521 19.3532 8.81013 19.0833M8.21489 18.9524L7.77441 18.869"
    stroke="#642080" stroke-opacity="0.5" stroke-width="0.238095" />
  <path
    d="M7.77423 18.869C7.2028 18.8294 6.62343 18.8532 6.03613 18.9405M8.2147 18.9524L8.80994 19.0714M17.4052 20.7738L17.8576 21.131M20.1671 20.9048C20.3258 20.6508 20.5203 20.4444 20.7504 20.2857M25.8099 20.8929L26.2266 20.5595M27.0242 20.2024C27.1353 20.1865 27.2385 20.1468 27.3338 20.0833M28.2028 19.8929C29.0599 19.7738 29.9091 19.7341 30.7504 19.7738M34.7623 19.7857L35.2861 19.75M35.7623 19.7619L36.3219 19.7857M39.8457 20.0833C40.0599 20.131 40.2941 20.2381 40.548 20.4048M44.6076 19.0238L45.0242 19.0476"
    stroke="#5C1E76" stroke-opacity="0.6" stroke-width="0.238095" />
  <path
    d="M48.2861 22.2262C48.2623 22.3294 48.183 22.381 48.048 22.381L48.0242 22.369L48.0004 22.3571C47.9528 22.3571 47.9528 22.3651 48.0004 22.381C48.0242 22.3968 48.052 22.3968 48.0837 22.381C48.1472 22.3651 48.1869 22.3889 48.2028 22.4524V22.5238C48.179 22.5556 48.1472 22.5754 48.1076 22.5833C48.0679 22.5913 48.0441 22.6071 48.0361 22.631M47.7504 22.6071C47.6155 22.5119 47.5758 22.4167 47.6314 22.3214C47.6631 22.2738 47.675 22.2222 47.6671 22.1667C47.6433 22.0635 47.5917 21.9563 47.5123 21.8452L47.5004 21.7976V21.4524C47.4925 21.4048 47.4687 21.3889 47.429 21.4048C47.3972 21.4127 47.3695 21.4048 47.3457 21.381V21.3333C47.3457 21.2698 47.3298 21.2698 47.298 21.3333L47.2861 21.369"
    stroke="#5B1E7E" stroke-width="0.238095" />
  <path
    d="M47.2861 21.369C46.9052 20.5198 46.2623 19.9484 45.3576 19.6548C43.8099 19.1667 42.0004 19.6071 40.929 20.869C40.5877 21.2659 40.3734 21.7302 40.2861 22.2619"
    stroke="#B491C3" stroke-width="0.238095" />
  <path
    d="M40.286 22.2619C40.0836 23.7143 40.4764 24.8809 41.905 25.5C42.1431 25.6032 42.5002 25.6905 42.9764 25.7619C43.4844 25.8254 43.9764 25.9206 44.4526 26.0476C44.5717 26.0794 44.6709 26.1508 44.7502 26.2619"
    stroke="#B08CBE" stroke-width="0.238095" />
  <path
    d="M44.7385 26.25C44.929 26.7619 44.0004 26.9524 43.7504 26.5595C43.6433 26.4048 43.6076 26.2738 43.429 26.1786C42.7742 25.8214 40.929 25.9405 40.429 26.5833C40.3417 26.6865 40.2941 26.8452 40.2861 27.0595"
    stroke="#A17BB0" stroke-width="0.238095" />
  <path d="M40.2864 27.0476C40.1911 27.2302 40.1634 27.4881 40.2031 27.8214" stroke="#5B1E7E" stroke-width="0.238095" />
  <path
    d="M40.2026 27.8214C40.1788 27.5198 40.1709 27.2222 40.1788 26.9286C40.1788 26.6548 40.1788 26.2143 39.8574 26.1429C39.6669 26.0952 39.4804 26.0714 39.2979 26.0714C38.6788 26.0714 38.0439 26.0516 37.3931 26.0119C37.3455 26.0119 37.3137 25.9921 37.2979 25.9524V25.8571"
    stroke="#A17BB0" stroke-width="0.238095" />
  <path
    d="M37.2861 25.8571C37.2861 25.8095 37.298 25.7698 37.3218 25.7381C37.3377 25.6984 37.3655 25.6786 37.4052 25.6786L38.3576 25.6548C38.4168 25.651 38.4733 25.628 38.5184 25.5894C38.5635 25.5507 38.5948 25.4985 38.6076 25.4405C38.7187 24.869 38.6949 24.2976 38.5361 23.7262C38.5044 23.6151 38.1552 23.5238 37.4885 23.4524C37.4578 23.4497 37.4291 23.4363 37.4073 23.4145C37.3855 23.3928 37.3721 23.364 37.3695 23.3333V23.3095C37.3536 23.1905 37.4012 23.131 37.5123 23.131H39.6433"
    stroke="#B08CBE" stroke-width="0.238095" />
  <path d="M39.7627 23.0833C39.8738 23.0833 39.9452 23.0159 39.977 22.881" stroke="#A17BB0" stroke-width="0.238095" />
  <path
    d="M39.977 22.881C40.1119 22.2778 40.1714 21.6667 40.1556 21.0476C40.1556 20.7619 40.0008 20.5952 39.6913 20.5476C38.0405 20.2857 36.2944 20.1944 34.4532 20.2738C34.3262 20.2738 34.2468 20.3294 34.2151 20.4405C34.104 20.7421 34.0246 21.0317 33.977 21.3095C33.8976 21.8254 33.8262 22.9524 33.7627 24.6905"
    stroke="#B08CBE" stroke-width="0.238095" />
  <path
    d="M33.7617 24.6905L33.6902 24.6548C33.6506 24.6389 33.6188 24.6468 33.595 24.6786C33.5474 24.7341 33.4998 24.7341 33.4521 24.6786"
    stroke="#5B1E7E" stroke-width="0.238095" />
  <path d="M33.4521 24.6905L33.6188 23.9048C33.6664 23.6905 33.6506 23.3571 33.5712 22.9048" stroke="#A883B6"
    stroke-width="0.238095" />
  <path
    d="M33.5712 22.9048C33.5593 21.4762 32.1188 20.4167 30.7974 20.2738C29.7339 20.1468 28.6307 20.2421 27.4878 20.5595C27.1466 20.6548 26.8291 20.7936 26.5355 20.9762C26.3132 21.127 26.214 21.3452 26.2378 21.631L26.3688 22.7024"
    stroke="#B491C3" stroke-width="0.238095" />
  <path
    d="M26.905 25.7976C26.905 25.877 26.8971 25.8611 26.8812 25.75C26.8732 25.6944 26.8375 25.6746 26.774 25.6905C26.7502 25.6984 26.7383 25.6905 26.7383 25.6667C26.7304 25.627 26.7066 25.6071 26.6669 25.6071C26.5875 25.6151 26.5479 25.6667 26.5479 25.7619"
    stroke="#5B1E7E" stroke-width="0.238095" />
  <path
    d="M26.1909 24.5476C25.9052 23.5794 25.5917 22.6548 25.2505 21.7738C25.0481 21.2619 24.7743 20.6071 24.2147 20.4881C23.3417 20.3056 22.4052 20.3294 21.4052 20.5595C21.1671 20.6151 21.0084 20.7183 20.929 20.869C20.7544 21.1786 20.5917 21.5317 20.4409 21.9286C20.1394 22.7222 19.8576 23.5556 19.5957 24.4286"
    stroke="#B08CBE" stroke-width="0.238095" />
  <path d="M19.596 24.4286C19.2389 25.5794 18.9611 26.7698 18.7627 28" stroke="#A17BB0" stroke-width="0.238095" />
  <path
    d="M18.7622 28C18.7384 27.9286 18.7344 27.8492 18.7503 27.7619C18.7503 27.7063 18.7423 27.6746 18.7265 27.6667C18.6947 27.6508 18.655 27.6508 18.6074 27.6667"
    stroke="#5B1E7E" stroke-width="0.238095" />
  <path
    d="M18.6079 27.6667C18.6793 27.5238 18.6873 27.3968 18.6317 27.2857C18.473 26.9683 18.2468 26.6627 17.9531 26.369"
    stroke="#A17BB0" stroke-width="0.238095" />
  <path
    d="M17.9535 26.369L17.3939 25.7738C17.3865 25.7683 17.3805 25.7611 17.3764 25.7528C17.3723 25.7445 17.3701 25.7354 17.3701 25.7262C17.3701 25.7169 17.3723 25.7078 17.3764 25.6996C17.3805 25.6913 17.3865 25.6841 17.3939 25.6786C17.9177 25.2262 18.1796 24.6508 18.1796 23.9524C18.1796 23.4127 18.1558 23.0159 18.1082 22.7619"
    stroke="#A883B6" stroke-width="0.238095" />
  <path
    d="M18.1081 22.7619C17.9732 22.2063 17.6954 21.7381 17.2748 21.3571C15.8462 20.119 13.8343 19.9405 12.0367 20.4405C11.8224 20.496 11.6915 20.6151 11.6438 20.7976C11.5565 21.1548 11.5089 21.623 11.501 22.2024"
    stroke="#B491C3" stroke-width="0.238095" />
  <path
    d="M11.3218 24.9643L11.1909 25.0476C11.1512 25.0556 11.1274 25.0754 11.1195 25.1071C11.0957 25.1468 11.0679 25.1587 11.0361 25.1429"
    stroke="#5B1E7E" stroke-width="0.238095" />
  <path
    d="M11.0478 25.1429C11.0636 24.873 10.9843 24.7063 10.8097 24.6429C10.1986 24.4206 9.45252 24.369 8.57157 24.4881C8.30966 24.5238 7.78585 24.619 7.71443 24.9048L7.53585 25.6429C7.51119 25.7498 7.45031 25.845 7.36354 25.9123C7.27676 25.9795 7.16941 26.0147 7.05966 26.0119C6.51998 26.0198 6.05966 25.8175 5.67871 25.4048"
    stroke="#A17BB0" stroke-width="0.238095" />
  <path
    d="M5.69028 25.4048C5.34901 24.873 5.27362 24.3571 5.46409 23.8571C5.80933 22.9524 6.7379 22.5714 7.65457 22.75C7.68404 22.753 7.71134 22.7668 7.73115 22.7888C7.75096 22.8108 7.76186 22.8394 7.76171 22.869C7.74584 23.0833 7.84504 23.2024 8.05933 23.2262C8.80933 23.2857 10.107 23.2857 10.6546 22.8333C10.6863 22.8095 10.7062 22.7778 10.7141 22.7381C10.7458 22.5794 10.7617 22.4127 10.7617 22.2381C10.7776 21.1746 10.3689 20.4087 9.53552 19.9405C8.90854 19.5913 8.26568 19.3929 7.60695 19.3452C6.51717 19.2191 5.41585 19.449 4.46746 20.0004C3.51908 20.5518 2.77454 21.3953 2.34505 22.4048C1.90854 23.381 1.72997 24.4206 1.80933 25.5238"
    stroke="#B491C3" stroke-width="0.238095" />
  <path d="M1.80957 25.5238C1.89687 26.1825 2.12703 26.7897 2.50005 27.3452" stroke="#A17BB0" stroke-width="0.238095" />
  <path
    d="M2.50023 27.3452C2.43674 27.377 2.38118 27.3492 2.33357 27.2619C2.30976 27.2063 2.28198 27.2063 2.25023 27.2619V27.2976C2.2423 27.3373 2.21452 27.3611 2.1669 27.369L1.88118 27.4643C1.84944 27.4722 1.83357 27.496 1.83357 27.5357V27.5833C1.79388 27.623 1.77404 27.619 1.77404 27.5714C1.77404 27.5317 1.75817 27.5079 1.72642 27.5C1.70261 27.4921 1.68674 27.496 1.6788 27.5119C1.6788 27.5278 1.6669 27.5357 1.64309 27.5357C1.61134 27.5357 1.59547 27.5198 1.59547 27.4881C1.59547 27.4167 1.57166 27.3214 1.52404 27.2738L1.29785 27.0357"
    stroke="#5B1E7E" stroke-width="0.238095" />
  <path
    d="M1.30998 27.0238C1.06395 26.3889 0.960772 25.6825 1.00045 24.9048M1.03617 24.5595C1.13934 23.8373 1.32585 23.1389 1.59569 22.4643"
    stroke="#5C1E76" stroke-opacity="0.6" stroke-width="0.238095" />
  <path
    d="M33.5725 22.9048C33.5805 23.0476 33.5725 23.1746 33.5487 23.2857C33.5249 23.3968 33.4575 23.4881 33.3464 23.5595C33.1083 23.7183 32.886 23.7897 32.6797 23.7738C32.4495 23.7579 31.9495 23.6627 31.1797 23.4881"
    stroke="#F2F1F2" stroke-width="0.238095" />
  <path d="M31.1786 23.4762C31.0199 22.7698 30.5635 22.5397 29.8096 22.7857" stroke="#B491C3" stroke-width="0.238095" />
  <path
    d="M29.7977 22.7857C29.7342 22.8254 29.6866 22.8175 29.6549 22.7619C29.639 22.7222 29.6152 22.6944 29.5834 22.6786C29.4803 22.6071 29.381 22.6071 29.2858 22.6786C29.2461 22.7024 29.2064 22.7143 29.1668 22.7143L27.1787 22.6905C27.0755 22.6905 26.9763 22.7063 26.881 22.7381L26.5834 22.8095C26.4803 22.8254 26.4088 22.7897 26.3691 22.7024"
    stroke="#F2F1F2" stroke-width="0.238095" />
  <path d="M39.7627 23.0845V23.0595" stroke="#DFDBDF" stroke-width="0.238095" />
  <path
    d="M48.2028 26.119C48.0599 26.1587 47.9012 26.1587 47.7266 26.119C47.5361 26.0794 47.3853 26.0635 47.2742 26.0714C47.0202 26.1032 46.7821 26.1429 46.5599 26.1905C46.3879 26.2281 46.2108 26.2362 46.0361 26.2143C45.5916 26.1349 45.1551 26.1468 44.7266 26.25"
    stroke="#E7E4E7" stroke-width="0.238095" />
  <path
    d="M29.7986 22.7857C29.4732 23.2302 29.5129 23.7183 29.9176 24.25C30.0208 24.3849 30.1557 24.4405 30.3224 24.4167C30.8779 24.3373 31.1637 24.0278 31.1795 23.4881"
    stroke="#A883B6" stroke-width="0.238095" />
  <path
    d="M47.2862 21.369C47.437 21.7103 47.3655 21.9722 47.0719 22.1548C46.3973 22.5833 45.6552 22.8214 44.8457 22.869C44.7886 22.8718 44.732 22.8574 44.6832 22.8277C44.6344 22.798 44.5956 22.7544 44.5719 22.7024L44.429 22.4167C44.4132 22.377 44.3814 22.3532 44.3338 22.3452C43.8576 22.2262 43.5282 22.3849 43.3457 22.8214"
    stroke="#A58DBA" stroke-width="0.238095" />
  <path
    d="M43.3457 22.8214C43.0758 22.6786 42.7822 22.619 42.4647 22.6429L41.8218 22.6905C41.552 22.6905 41.2901 22.6786 41.0361 22.6548C40.8218 22.6389 40.6036 22.6389 40.3814 22.6548C40.3417 22.6548 40.3179 22.6349 40.3099 22.5952L40.2861 22.2619"
    stroke="#FAFAFA" stroke-width="0.238095" />
  <path d="M26.1911 24.5476C25.2943 24.627 24.4054 24.6389 23.5244 24.5833" stroke="#E7E4E7" stroke-width="0.238095" />
  <path
    d="M23.524 24.5833L23.0597 23.8214C23.0442 23.7922 23.0218 23.7672 22.9944 23.7487C22.9669 23.7302 22.9354 23.7186 22.9025 23.7151C22.8696 23.7116 22.8364 23.7162 22.8057 23.7285C22.775 23.7408 22.7477 23.7604 22.7264 23.7857C22.5121 24.0159 22.3494 24.3095 22.2383 24.6667"
    stroke="#B08CBE" stroke-width="0.238095" />
  <path
    d="M22.2387 24.6667L21.7626 24.7619H21.6435C21.588 24.7381 21.5284 24.7341 21.4649 24.75H21.3459C21.0046 24.6468 20.6554 24.5992 20.2983 24.6071C20.1475 24.6071 19.9094 24.5516 19.584 24.4405"
    stroke="#E7E4E7" stroke-width="0.238095" />
  <path
    d="M14.0481 23.4167C14.0401 23.6151 14.0719 23.8413 14.1433 24.0952C14.2862 24.5476 14.8933 24.3929 15.1671 24.2143C15.6076 23.9048 15.7028 23.3452 15.2385 22.9881"
    stroke="#A883B6" stroke-width="0.238095" />
  <path
    d="M17.953 26.369C17.8737 26.4246 17.826 26.4881 17.8102 26.5595C17.7943 26.6151 17.7626 26.6429 17.7149 26.6429C17.5602 26.6429 17.4411 26.7143 17.2864 26.7143C17.0483 26.6984 16.8181 26.7063 16.5959 26.7381C16.453 26.75 16.3221 26.7024 16.1792 26.7024C15.1792 26.7024 14.2586 26.7103 13.4173 26.7262C12.8618 26.7262 12.3141 26.7183 11.7745 26.7024C11.7324 26.6994 11.693 26.6805 11.6642 26.6495C11.6355 26.6186 11.6196 26.5779 11.6197 26.5357L11.5483 24.9881C11.5483 24.7341 11.4768 24.5357 11.334 24.3929"
    stroke="#DFDBDF" stroke-width="0.238095" />
  <path
    d="M47.7507 22.6071C46.965 22.7857 46.9174 23.7976 47.715 23.9524C47.8975 23.9921 48.0483 23.9643 48.1674 23.869C48.6753 23.4484 48.6277 23.0397 48.0245 22.6429"
    stroke="#A188B5" stroke-width="0.238095" />
  <path
    d="M48.762 28.0476C48.3618 28.8722 47.7375 29.5675 46.9607 30.0538C46.1838 30.5402 45.2857 30.7979 44.3691 30.7976C42.9881 30.8611 41.7818 30.4524 40.75 29.5714C40.7183 29.5397 40.6866 29.5397 40.6548 29.5714C40.4326 29.8095 40.1588 29.9484 39.8334 29.9881C38.2381 30.1786 36.5715 30.1071 34.9286 29.9405C34.4048 29.8929 34.0199 29.8214 33.7739 29.7262C33.3532 29.5595 33.1072 29.2222 33.0358 28.7143M33.0239 28.619L32.9643 27.2024C32.9624 27.1923 32.958 27.183 32.9514 27.1751C32.9448 27.1673 32.9363 27.1613 32.9268 27.1577C32.9172 27.1542 32.9069 27.1531 32.8968 27.1547C32.8867 27.1562 32.8771 27.1604 32.8691 27.1667C32.4723 27.5 32.0199 27.7262 31.512 27.8452C31.4167 27.869 31.3691 27.9325 31.3691 28.0357C31.385 28.3294 31.3612 28.627 31.2977 28.9286C31.1786 29.5476 30.6786 29.8095 30.0834 29.9405C29.5278 30.0595 28.9921 30.131 28.4762 30.1548C28.1112 30.1706 27.754 30.1111 27.4048 29.9762C27.3731 29.9603 27.3334 29.9563 27.2858 29.9643C26.7699 30.0675 26.1826 30.131 25.5239 30.1548C24.631 30.1905 23.7858 30.25 23.4048 29.25C23.3175 29.0119 23.2381 28.7579 23.1667 28.4881C23.1564 28.4482 23.1335 28.4126 23.1013 28.3869C23.0691 28.3611 23.0294 28.3465 22.9881 28.3452L22.5358 28.3214C22.5189 28.3213 22.5023 28.3256 22.4877 28.334C22.473 28.3423 22.4609 28.3544 22.4524 28.369L21.9167 29.3214C21.7183 29.6865 21.4167 29.9087 21.012 29.9881C20.8056 30.0278 20.2818 30.0119 19.4405 29.9405C19.0278 29.9087 18.6746 29.8095 18.381 29.6429C18.3413 29.619 18.3016 29.623 18.262 29.6548C18.1032 29.8294 17.9207 29.996 17.7143 30.1548C17.3572 30.4524 16.7143 30.4048 16.3215 30.2143C15.9485 30.0317 15.5715 29.7738 15.1905 29.4405C15.1799 29.4293 15.1668 29.4209 15.1522 29.4159C15.1377 29.4109 15.1221 29.4095 15.1069 29.4118C15.0917 29.4142 15.0773 29.4202 15.0649 29.4293C15.0525 29.4384 15.0425 29.4504 15.0358 29.4643C14.8135 29.8611 14.4485 30.0675 13.9405 30.0833C13.0437 30.1071 12.2223 30.0595 11.4762 29.9405C11.4286 29.9325 11.4008 29.9484 11.3929 29.9881C11.2342 30.5754 10.8572 30.881 10.262 30.9048C9.45243 30.9365 8.71433 30.8651 8.04767 30.6905C7.85719 30.6349 7.65084 30.619 7.42862 30.6429C6.81751 30.6905 6.23417 30.6667 5.67862 30.5714C4.70318 30.4153 3.78597 30.0053 3.01909 29.3826C2.25221 28.7599 1.66264 27.9464 1.30957 27.0238"
    stroke="#421766" stroke-opacity="0.6" stroke-width="0.238095" />
  <path
    d="M2.50098 27.3452C3.78669 29.2143 5.73907 29.7738 7.95336 29.4881C7.99323 29.4783 8.03527 29.4825 8.07241 29.5C8.26288 29.6111 8.46923 29.6786 8.69145 29.7024C9.23114 29.7817 9.77082 29.8095 10.3105 29.7857C10.3837 29.7822 10.4537 29.7546 10.5097 29.7072C10.5656 29.6599 10.6044 29.5954 10.62 29.5238C10.9332 28.0853 11.0731 26.6146 11.0367 25.1429M11.3224 24.9643V27.5833C11.3224 27.9246 11.3502 28.2619 11.4057 28.5952C11.4158 28.6599 11.447 28.7195 11.4943 28.7646C11.5416 28.8098 11.6026 28.8382 11.6676 28.8452C12.2629 28.9246 12.8978 28.9722 13.5724 28.9881C13.8105 28.9881 14.0407 28.9484 14.2629 28.869C14.2927 28.8582 14.3193 28.8405 14.3401 28.8177C14.3609 28.7948 14.3753 28.7674 14.3819 28.7381L14.501 28.119C14.5068 28.0896 14.5235 28.0634 14.5478 28.0457C14.5721 28.0281 14.6021 28.0202 14.6319 28.0238C14.8383 28.0397 15.0288 28.1071 15.2034 28.2262C15.5922 28.4802 15.9811 28.746 16.37 29.0238C16.5605 29.1429 17.0129 29.381 17.2272 29.2143C17.7272 28.8254 18.1875 28.3095 18.6081 27.6667M18.7629 28C18.6676 28.4444 18.7629 28.7024 19.0486 28.7738C19.3978 28.8611 20.0049 28.9008 20.87 28.8929C21.0208 28.8849 21.1319 28.8135 21.2034 28.6786C21.4256 28.3056 21.624 27.9365 21.7986 27.5714C21.9176 27.3492 22.0962 27.2341 22.3343 27.2262L23.2629 27.2381C24.12 27.2857 23.8581 28.9881 24.5486 29.0357C25.3422 29.0833 26.1081 29.0436 26.8462 28.9167C27.1399 28.869 27.2589 28.7103 27.2034 28.4405C27.0446 27.6071 26.8224 26.7143 26.5367 25.7619"
    stroke="#9277A7" stroke-width="0.238095" />
  <path
    d="M26.9053 25.7976L27.2981 27.5595C27.3775 27.9087 27.4886 28.254 27.6315 28.5952C27.7267 28.8214 27.7743 29.0238 28.0481 29.0357C28.6831 29.0754 29.3894 28.9881 30.1672 28.7738C30.5957 28.6548 30.6077 28.25 30.5957 27.8929V26.9524C30.594 26.943 30.5942 26.9333 30.5963 26.924C30.5984 26.9147 30.6024 26.9059 30.6079 26.8981C30.6135 26.8904 30.6205 26.8838 30.6286 26.8788C30.6368 26.8738 30.6458 26.8705 30.6553 26.869C32.0204 26.7659 32.9529 26.0397 33.4529 24.6905"
    stroke="#997FAD" stroke-width="0.238095" />
  <path
    d="M33.7387 25.4405C33.699 26.5595 33.7109 27.373 33.7744 27.881C33.7982 28.0873 33.83 28.2738 33.8697 28.4405C33.9292 28.6667 34.3101 28.7381 34.5006 28.7738C36.0879 28.9802 37.7149 29.0317 39.3816 28.9286C39.5879 28.9127 39.7863 28.873 39.9768 28.8095C39.996 28.8013 40.0127 28.7882 40.0253 28.7715C40.0378 28.7548 40.0457 28.735 40.0482 28.7143L40.203 27.8214M40.2863 27.0476C40.4689 27.754 40.834 28.3254 41.3816 28.7619C42.08 29.3095 42.8498 29.6151 43.6911 29.6786C45.3578 29.7976 47.0244 29.2024 47.8697 27.7381C48.1633 27.2302 48.2744 26.6905 48.203 26.119"
    stroke="#9277A7" stroke-width="0.238095" />
  <path
    d="M48.2028 26.119C47.9767 23.881 45.8219 23.2024 43.9171 23.0238C43.8219 23.0238 43.6314 22.9563 43.3457 22.8214"
    stroke="#A188B5" stroke-width="0.238095" />
  <path
    d="M5.69052 25.4048C5.63497 25.4841 5.52386 25.5278 5.35719 25.5357C5.15878 25.5516 5.00798 25.5516 4.90481 25.5357C4.86513 25.5198 4.82544 25.5198 4.78576 25.5357C4.61116 25.5675 4.43655 25.5794 4.26195 25.5714C3.86513 25.5556 3.47227 25.5635 3.08338 25.5952L2.92862 25.5833C2.881 25.5675 2.82941 25.5635 2.77386 25.5714C2.59132 25.5873 2.40878 25.5754 2.22624 25.5357H2.10719C2.02782 25.5595 1.92862 25.5595 1.80957 25.5357"
    stroke="#EBE9EB" stroke-width="0.238095" />
  <path
    d="M39.9768 22.881C39.9371 22.9206 39.8974 22.873 39.8577 22.7381C39.8498 22.6984 39.8339 22.6984 39.8101 22.7381C39.7704 22.8175 39.7585 22.9246 39.7744 23.0595"
    stroke="#E7E4E7" stroke-width="0.238095" />
  <path d="M39.7618 23.0595V22.9405C39.7618 22.8611 39.7459 22.8611 39.7142 22.9405L39.6309 23.1429" stroke="#EEECED"
    stroke-width="0.238095" />
  <path
    d="M37.2859 25.8571L37.2145 25.8333H37.1907V25.881M37.1907 25.881C37.1986 25.881 37.1986 25.881 37.1907 25.881ZM37.1907 25.881C36.6113 25.9206 36.0399 25.881 35.4764 25.7619C35.4288 25.746 35.3811 25.746 35.3335 25.7619H35.2145C35.0002 25.7063 34.7819 25.6984 34.5597 25.7381C34.4049 25.7619 34.3097 25.7143 34.1669 25.6786H34.0597C33.9883 25.7024 33.9169 25.7024 33.8454 25.6786C33.8216 25.6627 33.8137 25.6429 33.8216 25.619V25.5714L33.7978 25.5595H33.7859C33.77 25.5833 33.7581 25.5833 33.7502 25.5595L33.7383 25.4405"
    stroke="#E7E4E7" stroke-width="0.238095" />
  <path
    d="M18.1073 22.7619C18.0676 22.8889 18.028 22.9325 17.9883 22.8929C17.9169 22.9643 17.8375 22.9881 17.7502 22.9643C17.7184 22.9643 17.6986 22.9762 17.6907 23H17.6549L17.5954 22.9881C17.4526 22.8849 17.3018 22.8651 17.143 22.9286C17.1034 22.9444 17.0637 22.9484 17.024 22.9405C16.9208 22.9167 16.8256 22.9246 16.7383 22.9643C16.7238 22.9726 16.7074 22.977 16.6907 22.977C16.6739 22.977 16.6575 22.9726 16.643 22.9643C16.6034 22.9405 16.5637 22.9286 16.524 22.9286C16.0875 22.9206 15.6589 22.9405 15.2383 22.9881"
    stroke="#F2F1F2" stroke-width="0.238095" />
  <path
    d="M15.2391 23C14.9852 22.8571 14.7193 22.8056 14.4415 22.8452C14.2986 22.869 14.1994 22.9325 14.1439 23.0357C14.0963 23.131 14.0685 23.2579 14.0605 23.4167"
    stroke="#B491C3" stroke-width="0.238095" />
  <path
    d="M14.0486 23.4167C13.5327 23.4325 13.0168 23.4365 12.501 23.4286C12.2629 23.4286 12.0248 23.369 11.7986 23.2976C11.7509 23.2837 11.7085 23.2559 11.6766 23.2177C11.6448 23.1795 11.6251 23.1328 11.62 23.0833L11.501 22.2024"
    stroke="#F2F1F2" stroke-width="0.238095" />
  <path
    d="M23.5242 24.5833C23.5797 24.7024 23.6155 24.8333 23.6313 24.9762C23.6342 25.0165 23.6243 25.0566 23.6029 25.0908C23.5815 25.1251 23.5497 25.1516 23.5123 25.1667C23.1075 25.3651 22.6948 25.369 22.2742 25.1786C22.2345 25.1627 22.2067 25.1349 22.1908 25.0952C22.1432 24.9683 22.1591 24.8254 22.2385 24.6667"
    stroke="#A17BB0" stroke-width="0.238095" />
  <path
    d="M6.90549 25.3452C6.9174 24.869 7.14359 24.5119 7.53644 24.3095C7.592 24.2857 7.59597 24.254 7.54835 24.2143L7.15549 23.869C7.10787 23.8294 7.05628 23.8135 7.00073 23.8214C6.10787 23.9524 5.77454 25.0952 6.6674 25.5C6.69312 25.5122 6.72155 25.5176 6.74996 25.5157C6.77838 25.5138 6.80583 25.5047 6.82971 25.4892C6.85359 25.4737 6.87309 25.4523 6.88635 25.4271C6.89962 25.4019 6.90621 25.3737 6.90549 25.3452Z"
    stroke="#5C1E76" stroke-opacity="0.6" stroke-width="0.238095" />
  <path
    d="M40.405 25.7738C40.0478 25.4405 39.6312 24.7857 39.5717 24.2976C39.5637 24.2579 39.5359 24.246 39.4883 24.2619L39.4526 24.2738C39.4379 24.2814 39.4263 24.2939 39.4198 24.3091C39.4133 24.3243 39.4123 24.3413 39.4169 24.3571C39.4963 24.746 39.5042 25.1349 39.4407 25.5238C39.439 25.5332 39.4392 25.5428 39.4413 25.5522C39.4434 25.5615 39.4473 25.5703 39.4529 25.578C39.4584 25.5858 39.4655 25.5924 39.4736 25.5974C39.4817 25.6024 39.4908 25.6057 39.5002 25.6071L39.905 25.6548C40.0717 25.6786 40.2264 25.75 40.3812 25.8095C40.4605 25.8413 40.4685 25.8294 40.405 25.7738Z"
    stroke="#642080" stroke-opacity="0.5" stroke-width="0.238095" />
  <path
    d="M48.3698 23.2976C48.3667 23.1513 48.3064 23.012 48.2018 22.9096C48.0972 22.8073 47.9567 22.75 47.8103 22.75C47.666 22.753 47.5285 22.8117 47.4265 22.9138C47.3244 23.0158 47.2657 23.1533 47.2627 23.2976C47.2627 23.444 47.32 23.5845 47.4223 23.6891C47.5247 23.7937 47.664 23.854 47.8103 23.8571C47.9587 23.8571 48.101 23.7982 48.206 23.6933C48.3109 23.5883 48.3698 23.446 48.3698 23.2976Z"
    stroke="#B08CBE" stroke-width="0.238095" />
  <path
    d="M47.6909 23.4524C47.6733 23.4358 47.6598 23.4153 47.6515 23.3926C47.6432 23.3698 47.6404 23.3455 47.6433 23.3214C47.675 23.1071 47.7544 23.0278 47.8814 23.0833C47.9449 23.1071 48.0004 23.1468 48.048 23.2024C48.0877 23.2421 48.1195 23.2341 48.1433 23.1786V23.119C48.0361 22.869 47.6909 22.7976 47.5361 23.0595C47.2623 23.5 47.8338 23.9762 48.1314 23.5357C48.1552 23.496 48.1552 23.4563 48.1314 23.4167L48.1195 23.3929C48.1195 23.3834 48.1157 23.3743 48.109 23.3676C48.1023 23.3609 48.0932 23.3571 48.0838 23.3571C48.0743 23.3571 48.0652 23.3609 48.0585 23.3676C48.0518 23.3743 48.048 23.3834 48.048 23.3929C47.929 23.5516 47.8099 23.5714 47.6909 23.4524Z"
    stroke="#B08CBE" stroke-width="0.238095" />
  <path
    d="M39.9762 22.881C39.9445 23.0079 39.8731 23.0754 39.762 23.0833V23.0595C39.754 22.9325 39.7699 22.8254 39.8096 22.7381C39.8334 22.6984 39.8493 22.6984 39.8572 22.7381C39.8969 22.873 39.9366 22.9206 39.9762 22.881ZM11.3453 24.381C11.4723 24.5317 11.5397 24.7341 11.5477 24.9881L11.6191 26.5357C11.6191 26.5576 11.6234 26.5793 11.6318 26.5995C11.6402 26.6197 11.6524 26.6381 11.6679 26.6536C11.6834 26.669 11.7018 26.6813 11.722 26.6897C11.7422 26.6981 11.7639 26.7024 11.7858 26.7024C12.3175 26.7183 12.8651 26.7262 13.4286 26.7262C14.262 26.7103 15.1786 26.7024 16.1786 26.7024C16.3215 26.7024 16.4524 26.7619 16.5953 26.7381C16.8175 26.7063 17.0477 26.6944 17.2858 26.7024C17.4405 26.7143 17.5596 26.6548 17.7143 26.6429C17.762 26.6429 17.7937 26.6151 17.8096 26.5595C17.8254 26.4802 17.8731 26.4167 17.9524 26.369C18.2461 26.6627 18.4723 26.9683 18.631 27.2857C18.6866 27.3968 18.6747 27.5238 18.5953 27.6667C18.1826 28.3095 17.7262 28.8254 17.2262 29.2143C17.012 29.381 16.5596 29.1548 16.3691 29.0238L15.2024 28.2262C15.0278 28.1071 14.8373 28.0397 14.631 28.0238C14.6012 28.0202 14.5711 28.0281 14.5468 28.0457C14.5226 28.0634 14.5058 28.0896 14.5 28.119L14.381 28.7381C14.3743 28.7674 14.3599 28.7948 14.3391 28.8177C14.3183 28.8405 14.2918 28.8582 14.262 28.869C14.0477 28.9484 13.8175 28.9881 13.5715 28.9881C12.8969 28.9643 12.262 28.9167 11.6667 28.8452C11.6033 28.8388 11.5437 28.8122 11.4965 28.7694C11.4494 28.7265 11.4172 28.6696 11.4048 28.6071C11.3493 28.2659 11.3215 27.9246 11.3215 27.5833V24.9643L11.3453 24.381ZM19.5953 24.4286C19.9127 24.5556 20.1469 24.6151 20.2977 24.6071C20.6548 24.6071 21.004 24.6548 21.3453 24.75H21.4643C21.5278 24.7341 21.5873 24.7341 21.6429 24.75C21.6826 24.7659 21.7223 24.7659 21.762 24.75L22.2381 24.6667C22.1588 24.8254 22.1429 24.9683 22.1905 25.0952C22.2064 25.1349 22.2342 25.1627 22.2739 25.1786C22.6945 25.369 23.1072 25.369 23.512 25.1786C23.5516 25.163 23.5848 25.1346 23.6064 25.0979C23.6279 25.0612 23.6366 25.0184 23.631 24.9762C23.6151 24.8333 23.5754 24.7024 23.512 24.5833C24.4008 24.6468 25.2937 24.6389 26.1905 24.5595L26.5477 25.7619C26.8254 26.7143 27.0437 27.6071 27.2024 28.4405C27.258 28.7103 27.1389 28.869 26.8453 28.9167C26.1072 29.0436 25.3413 29.0833 24.5477 29.0357C23.8572 28.9881 24.1191 27.2857 23.262 27.25C22.9286 27.2262 22.6191 27.2183 22.3334 27.2262C22.0953 27.2262 21.9167 27.3452 21.7977 27.5833C21.6231 27.9405 21.4247 28.3056 21.2024 28.6786C21.1231 28.8135 21.012 28.881 20.8691 28.881C19.9961 28.8968 19.3889 28.8571 19.0477 28.7619C18.762 28.6984 18.6667 28.4444 18.762 28C18.9604 26.7698 19.2381 25.5794 19.5953 24.4286ZM11.0477 25.1429C11.0801 26.615 10.9362 28.0858 10.6191 29.5238C10.6035 29.5954 10.5647 29.6599 10.5087 29.7072C10.4528 29.7546 10.3828 29.7822 10.3096 29.7857C9.76989 29.8016 9.23021 29.7738 8.69052 29.7024C8.4683 29.6786 8.25798 29.6111 8.05957 29.5C8.02389 29.4784 7.98177 29.47 7.94052 29.4762C5.73814 29.7738 3.77386 29.2143 2.50005 27.3333C2.12703 26.7778 1.89687 26.1746 1.80957 25.5238C1.92862 25.5556 2.03179 25.5635 2.11909 25.5476H2.23814C2.41274 25.5794 2.59132 25.5873 2.77386 25.5714H2.92862C2.98417 25.5952 3.03576 25.6032 3.08338 25.5952C3.48021 25.5635 3.87306 25.5556 4.26195 25.5714C4.43655 25.5794 4.61513 25.5635 4.79767 25.5238H4.91671C5.01195 25.5476 5.15878 25.5516 5.35719 25.5357C5.51592 25.5198 5.62703 25.4762 5.69052 25.4048C6.07148 25.8175 6.53179 26.0198 7.07148 26.0119C7.18123 26.0147 7.28857 25.9795 7.37535 25.9123C7.46213 25.845 7.523 25.7498 7.54767 25.6429L7.72624 24.9048C7.79767 24.619 8.32148 24.5238 8.58338 24.4881C9.46433 24.377 10.2024 24.4286 10.7977 24.6429C10.9802 24.7063 11.0596 24.877 11.0358 25.1548L11.0477 25.1429ZM33.7381 25.4405L33.75 25.5595C33.75 25.5833 33.7619 25.5833 33.7858 25.5595H33.8215V25.619C33.8215 25.6429 33.8294 25.6587 33.8453 25.6667C33.9246 25.6984 33.9961 25.7024 34.0596 25.6786H34.1667C34.3096 25.7143 34.4048 25.7619 34.5596 25.7381C34.7818 25.6984 35.004 25.7063 35.2262 25.7619H35.3453C35.385 25.746 35.4286 25.746 35.4762 25.7619C36.0397 25.881 36.6112 25.9206 37.1905 25.881C37.1985 25.881 37.1985 25.881 37.1905 25.881V25.8452C37.1905 25.8294 37.1985 25.8254 37.2143 25.8333L37.2858 25.8571L37.3096 25.9524C37.3254 25.9841 37.3532 26.004 37.3929 26.0119C38.0437 26.0436 38.6786 26.0635 39.2977 26.0714C39.4802 26.0714 39.6667 26.0952 39.8572 26.1429C40.1905 26.2262 40.1786 26.6548 40.1786 26.9286L40.2024 27.8214L40.0477 28.7143C40.0433 28.7329 40.0346 28.7502 40.0221 28.7647C40.0097 28.7792 39.994 28.7905 39.9762 28.7976C39.7858 28.877 39.5873 28.9167 39.381 28.9167C37.7143 29.0278 36.0873 28.9802 34.5 28.7738C34.3096 28.7381 33.9286 28.6548 33.8691 28.4405C33.8294 28.2738 33.7977 28.0873 33.7739 27.881C33.7104 27.373 33.6985 26.5595 33.7381 25.4405ZM44.7381 26.25C45.1588 26.1468 45.5913 26.1349 46.0358 26.2143C46.2143 26.2381 46.3929 26.2262 46.5596 26.1905C46.7818 26.1429 47.0199 26.1032 47.2739 26.0714C47.385 26.0635 47.5358 26.0794 47.7262 26.119C47.9008 26.1587 48.0596 26.1587 48.2024 26.119C48.2739 26.6905 48.1627 27.2302 47.8691 27.7381C47.0358 29.2024 45.3453 29.7976 43.6905 29.6786C42.8493 29.6151 42.0794 29.3095 41.381 28.7619C40.8254 28.3254 40.4604 27.754 40.2858 27.0476C40.2937 26.8413 40.3413 26.6825 40.4286 26.5714C40.9286 25.9405 42.7739 25.8333 43.4286 26.1786C43.6072 26.2738 43.6429 26.4167 43.75 26.5595C43.9881 26.9524 44.9286 26.7619 44.7381 26.25Z"
    fill="#D8D3D8" />
  <path
    d="M47.75 22.6071C46.9643 22.7857 46.9167 23.7976 47.7143 23.9524C47.8969 23.9921 48.0477 23.9643 48.1667 23.869C48.6747 23.4484 48.627 23.0397 48.0239 22.6429C48.0239 22.619 48.0477 22.6032 48.0953 22.5952C48.135 22.5873 48.1627 22.5675 48.1786 22.5357C48.1945 22.5119 48.1985 22.4881 48.1905 22.4643C48.1746 22.4008 48.135 22.381 48.0715 22.4048H47.9762C47.9366 22.381 47.9366 22.369 47.9762 22.369H48.012C48.012 22.3849 48.0199 22.3929 48.0358 22.3929C48.1786 22.3929 48.258 22.3413 48.2739 22.2381C48.631 22.373 48.8532 22.6032 48.9405 22.9286C49.1072 23.5714 48.8889 24.0595 48.2858 24.3929C48.2381 24.4167 48.2302 24.4524 48.262 24.5C48.6358 25.007 48.8755 25.6002 48.9587 26.2246C49.042 26.8489 48.9661 27.4842 48.7381 28.0714C48.3372 28.892 47.7141 29.5836 46.9396 30.0676C46.1652 30.5516 45.2705 30.8087 44.3572 30.8095C42.9762 30.873 41.7699 30.4643 40.7381 29.5833C40.7064 29.5516 40.6746 29.5516 40.6429 29.5833C40.4207 29.8214 40.1469 29.9603 39.8215 30C38.2262 30.1905 36.5596 30.119 34.9167 29.9524C34.3929 29.9048 34.008 29.8333 33.762 29.7381C33.3413 29.5714 33.0953 29.2341 33.0239 28.7262V28.631L32.9524 27.2143C32.9505 27.2042 32.9461 27.1949 32.9395 27.187C32.9329 27.1792 32.9244 27.1732 32.9149 27.1697C32.9053 27.1661 32.895 27.165 32.8849 27.1666C32.8748 27.1681 32.8652 27.1723 32.8572 27.1786C32.4604 27.5119 32.008 27.7381 31.5 27.8571C31.4048 27.881 31.3572 27.9444 31.3572 28.0476C31.3731 28.3413 31.3493 28.6389 31.2858 28.9405C31.1667 29.5595 30.6667 29.8214 30.0715 29.9524C29.5159 30.0714 28.9802 30.1429 28.4643 30.1667C28.0993 30.1825 27.7421 30.123 27.3929 29.9881C27.3612 29.9722 27.3215 29.9683 27.2739 29.9762C26.758 30.0794 26.1707 30.1429 25.512 30.1667C24.6191 30.2024 23.7739 30.2619 23.3929 29.2619C23.3056 29.0238 23.2262 28.7698 23.1548 28.5C23.1445 28.4601 23.1215 28.4246 23.0893 28.3988C23.0571 28.373 23.0175 28.3584 22.9762 28.3571L22.5239 28.3333C22.507 28.3332 22.4904 28.3375 22.4758 28.3459C22.4611 28.3542 22.449 28.3663 22.4405 28.3809L21.9048 29.3333C21.7064 29.6984 21.4048 29.9206 21 30C20.7937 30.0397 20.2699 30.0238 19.4286 29.9524C19.0159 29.9206 18.6627 29.8214 18.3691 29.6548C18.3294 29.6309 18.2897 29.6349 18.25 29.6667C18.0913 29.8413 17.9088 30.0079 17.7024 30.1667C17.3453 30.4643 16.7024 30.4167 16.3096 30.2262C15.9366 30.0436 15.5596 29.7857 15.1786 29.4524C15.168 29.4412 15.1549 29.4328 15.1403 29.4278C15.1258 29.4228 15.1102 29.4214 15.095 29.4238C15.0798 29.4261 15.0654 29.4321 15.053 29.4412C15.0406 29.4503 15.0306 29.4623 15.0239 29.4762C14.8016 29.873 14.4366 30.0794 13.9286 30.0952C13.0318 30.119 12.2104 30.0714 11.4643 29.9524C11.4167 29.9444 11.3889 29.9603 11.381 30C11.2223 30.5873 10.8453 30.8929 10.25 30.9167C9.44052 30.9484 8.70243 30.877 8.03576 30.7024C7.84528 30.6468 7.63894 30.6309 7.41671 30.6548C6.8056 30.7024 6.22227 30.6786 5.66671 30.5833C4.6921 30.4242 3.77648 30.0115 3.01171 29.3868C2.24695 28.762 1.65994 27.9471 1.30957 27.0238L1.54767 27.2738C1.58338 27.3214 1.60719 27.4167 1.60719 27.4881C1.60719 27.5278 1.62306 27.5436 1.65481 27.5357C1.67068 27.5357 1.68259 27.5278 1.69052 27.5119C1.69846 27.496 1.71433 27.4921 1.73814 27.5C1.76989 27.5079 1.78576 27.5317 1.78576 27.5714C1.78576 27.619 1.80163 27.619 1.83338 27.5714C1.84925 27.5714 1.85322 27.5595 1.84528 27.5357C1.84528 27.496 1.86116 27.4722 1.8929 27.4643L2.17862 27.369C2.22624 27.3611 2.25005 27.3373 2.25005 27.2976L2.26195 27.2619C2.2937 27.2063 2.32148 27.2063 2.34528 27.2619C2.3929 27.3413 2.44846 27.369 2.51195 27.3452C3.79767 29.2143 5.75005 29.7738 7.96433 29.4881C8.0042 29.4783 8.04625 29.4825 8.08338 29.5C8.27386 29.6111 8.48021 29.6786 8.70243 29.7024C9.24211 29.7817 9.78179 29.8095 10.3215 29.7857C10.3947 29.7822 10.4647 29.7546 10.5206 29.7072C10.5766 29.6599 10.6154 29.5954 10.631 29.5238C10.9402 28.0849 11.076 26.6141 11.0358 25.1429C11.0754 25.1587 11.1032 25.1468 11.1191 25.1071C11.127 25.0754 11.1508 25.0556 11.1905 25.0476L11.3215 24.9643V27.5833C11.3215 27.9246 11.3493 28.2619 11.4048 28.5952C11.4149 28.6599 11.446 28.7194 11.4934 28.7646C11.5407 28.8098 11.6016 28.8382 11.6667 28.8452C12.262 28.9246 12.8969 28.9722 13.5715 28.9881C13.8096 28.9881 14.0397 28.9484 14.262 28.869C14.2918 28.8582 14.3183 28.8405 14.3391 28.8177C14.3599 28.7948 14.3743 28.7674 14.381 28.7381L14.5 28.119C14.5058 28.0896 14.5226 28.0634 14.5468 28.0457C14.5711 28.0281 14.6012 28.0202 14.631 28.0238C14.8373 28.0397 15.0278 28.1071 15.2024 28.2262C15.5913 28.4802 15.9802 28.746 16.3691 29.0238C16.5596 29.1429 17.012 29.3809 17.2262 29.2143C17.7262 28.8254 18.1866 28.3095 18.6072 27.6667C18.6548 27.6508 18.6945 27.6508 18.7262 27.6667C18.75 27.6746 18.758 27.7024 18.75 27.75C18.7342 27.8452 18.7381 27.9286 18.762 28C18.6667 28.4444 18.762 28.7024 19.0477 28.7738C19.3969 28.8611 20.004 28.9008 20.8691 28.8929C21.0199 28.8849 21.131 28.8135 21.2024 28.6786C21.4247 28.3056 21.6231 27.9365 21.7977 27.5714C21.9167 27.3492 22.0953 27.2341 22.3334 27.2262L23.262 27.2381C24.1191 27.2857 23.8572 28.9881 24.5477 29.0357C25.3413 29.0833 26.1072 29.0436 26.8453 28.9167C27.1389 28.869 27.258 28.7103 27.2024 28.4405C27.0437 27.6071 26.8215 26.7143 26.5358 25.7619C26.5358 25.6667 26.5754 25.6151 26.6548 25.6071C26.7024 25.6071 26.7302 25.627 26.7381 25.6667C26.7381 25.6905 26.75 25.6984 26.7739 25.6905C26.8373 25.6746 26.8731 25.6944 26.881 25.75C26.8969 25.8611 26.9088 25.877 26.9167 25.7976L27.3096 27.5595C27.3889 27.9087 27.4961 28.254 27.631 28.5952C27.7262 28.8214 27.7739 29.0238 28.0477 29.0357C28.6826 29.0754 29.3889 28.9881 30.1667 28.7738C30.5953 28.6548 30.6072 28.25 30.5953 27.8929V26.9524C30.5936 26.943 30.5938 26.9333 30.5959 26.924C30.598 26.9147 30.6019 26.9059 30.6074 26.8981C30.613 26.8904 30.62 26.8838 30.6282 26.8788C30.6363 26.8738 30.6454 26.8705 30.6548 26.869C32.0199 26.7659 32.9524 26.0397 33.4524 24.6905C33.5 24.7381 33.5477 24.7341 33.5953 24.6786C33.6191 24.6468 33.6508 24.6389 33.6905 24.6548C33.7143 24.6548 33.7381 24.6667 33.762 24.6905L33.7262 25.4405C33.6945 26.5595 33.7104 27.373 33.7739 27.881C33.7977 28.0873 33.8294 28.2738 33.8691 28.4405C33.9286 28.6667 34.3096 28.7381 34.5 28.7738C36.0873 28.9802 37.7143 29.0317 39.381 28.9286C39.5873 28.9127 39.7858 28.873 39.9762 28.8095C39.9955 28.8013 40.0122 28.7882 40.0247 28.7715C40.0373 28.7548 40.0452 28.735 40.0477 28.7143L40.2024 27.8214C40.1627 27.4881 40.1905 27.2302 40.2858 27.0476C40.4683 27.754 40.8334 28.3254 41.381 28.7619C42.0794 29.3095 42.8493 29.6151 43.6905 29.6786C45.3572 29.7976 47.0239 29.2024 47.8691 27.7381C48.1627 27.2302 48.2739 26.6905 48.2024 26.119C47.9762 23.881 45.8215 23.2024 43.9167 23.0238C43.8215 23.0238 43.631 22.9563 43.3453 22.8214C43.5199 22.3849 43.8493 22.2262 44.3334 22.3452C44.381 22.3532 44.4127 22.377 44.4286 22.4167L44.5715 22.7024C44.5952 22.7544 44.634 22.798 44.6828 22.8277C44.7316 22.8574 44.7882 22.8718 44.8453 22.869C45.6548 22.8214 46.3969 22.5833 47.0715 22.1548C47.3651 21.9722 47.4366 21.7103 47.2858 21.369L47.2977 21.3214C47.3215 21.2659 47.3334 21.2659 47.3334 21.3214V21.3452L47.3453 21.381C47.3691 21.4048 47.3969 21.4127 47.4286 21.4048C47.4683 21.3889 47.4881 21.4048 47.4881 21.4524V21.7976L47.512 21.8452C47.5913 21.9563 47.6429 22.0635 47.6667 22.1667C47.6667 22.2222 47.6548 22.2778 47.631 22.3333C47.5754 22.4127 47.6151 22.504 47.75 22.6071Z"
    fill="#4C1A75" />
  <path
    d="M5.69028 25.4048C5.63473 25.4841 5.52362 25.5278 5.35695 25.5357C5.15854 25.5516 5.00774 25.5516 4.90457 25.5357C4.86489 25.5198 4.8252 25.5198 4.78552 25.5357C4.61092 25.5675 4.43631 25.5794 4.26171 25.5714C3.86489 25.5556 3.47203 25.5635 3.08314 25.5952L2.92838 25.5833C2.88076 25.5675 2.82917 25.5635 2.77362 25.5714C2.59108 25.5873 2.40854 25.5754 2.226 25.5357H2.10695C2.02758 25.5595 1.92838 25.5595 1.80933 25.5357C1.72997 24.4246 1.90854 23.381 2.34505 22.4048C3.29743 20.2619 5.2379 19.1905 7.60695 19.3452C8.26568 19.3929 8.90854 19.5913 9.53552 19.9405C10.3689 20.4167 10.7776 21.1825 10.7617 22.2381C10.7617 22.4127 10.7458 22.5794 10.7141 22.7381C10.7141 22.7778 10.6943 22.8095 10.6546 22.8333C10.1189 23.2857 8.80933 23.2857 8.05933 23.2381C7.84504 23.2143 7.74584 23.0952 7.76171 22.881C7.76186 22.8513 7.75096 22.8227 7.73115 22.8007C7.71134 22.7787 7.68404 22.7649 7.65457 22.7619C6.7379 22.5833 5.80933 22.9643 5.46409 23.8571C5.27362 24.3651 5.35298 24.8849 5.70219 25.4167L5.69028 25.4048ZM47.2855 21.369C47.4363 21.7103 47.3649 21.9722 47.0712 22.1548C46.3966 22.5833 45.6546 22.8214 44.845 22.869C44.788 22.8718 44.7314 22.8574 44.6826 22.8277C44.6338 22.798 44.595 22.7544 44.5712 22.7024L44.4284 22.4167C44.4125 22.377 44.3808 22.3532 44.3331 22.3452C43.8569 22.2262 43.5276 22.3849 43.345 22.8214C43.0752 22.6786 42.7816 22.619 42.4641 22.6429L41.8212 22.6905C41.5514 22.6905 41.2895 22.6786 41.0355 22.6548C40.8212 22.6389 40.603 22.6389 40.3808 22.6548C40.3411 22.6548 40.3173 22.6349 40.3093 22.5952L40.2855 22.2619C40.3728 21.7381 40.5871 21.2738 40.9284 20.869C41.4701 20.2601 42.1767 19.8213 42.9627 19.6057C43.7488 19.3902 44.5804 19.4073 45.3569 19.6548C46.2617 19.9484 46.9046 20.5198 47.2855 21.369ZM18.1069 22.7619C18.0673 22.8889 18.0276 22.9325 17.9879 22.8929C17.9165 22.9643 17.8371 22.9881 17.7498 22.9643C17.7181 22.9643 17.6982 22.9762 17.6903 23H17.6546L17.595 22.9881C17.4522 22.8849 17.3014 22.8651 17.1427 22.9286C17.103 22.9444 17.0633 22.9484 17.0236 22.9405C16.9204 22.9167 16.8252 22.9246 16.7379 22.9643C16.7234 22.9726 16.707 22.977 16.6903 22.977C16.6736 22.977 16.6571 22.9726 16.6427 22.9643C16.603 22.9405 16.5633 22.9286 16.5236 22.9286C16.0871 22.9206 15.6585 22.9405 15.2379 22.9881C14.9839 22.8532 14.7181 22.8056 14.4403 22.8452C14.2974 22.869 14.1982 22.9325 14.1427 23.0357C14.095 23.131 14.0673 23.2579 14.0593 23.4167C13.5355 23.4325 13.0157 23.4365 12.4998 23.4286C12.2617 23.4286 12.0236 23.369 11.7974 23.2976C11.7497 23.2837 11.7073 23.2559 11.6755 23.2177C11.6437 23.1795 11.624 23.1328 11.6189 23.0833L11.4998 22.2024C11.4998 21.623 11.5474 21.1587 11.6427 20.8095C11.6903 20.619 11.8212 20.5 12.0355 20.4524C12.9152 20.157 13.8545 20.0851 14.7689 20.243C15.6833 20.4009 16.544 20.7838 17.2736 21.3571C17.6943 21.7302 17.972 22.1984 18.1069 22.7619ZM33.5712 22.9048C33.5792 23.0476 33.5712 23.1746 33.5474 23.2857C33.5236 23.3968 33.4562 23.4881 33.345 23.5595C33.107 23.7183 32.8847 23.7897 32.6784 23.7738C32.4482 23.7579 31.9482 23.6627 31.1784 23.4881C31.0196 22.7738 30.5633 22.5397 29.8093 22.7857C29.73 22.8254 29.6784 22.8175 29.6546 22.7619C29.6387 22.7222 29.6149 22.6944 29.5831 22.6786C29.48 22.6071 29.3808 22.6071 29.2855 22.6786C29.2458 22.7024 29.2062 22.7143 29.1665 22.7143L27.1784 22.6905C27.0752 22.6905 26.976 22.7063 26.8808 22.7381L26.5831 22.8095C26.48 22.8254 26.4085 22.7897 26.3689 22.7024L26.2498 21.631C26.2181 21.3452 26.3173 21.127 26.5474 20.9762C26.8331 20.7936 27.1466 20.6548 27.4879 20.5595C28.6308 20.2421 29.7339 20.1468 30.7974 20.2738C32.1189 20.4167 33.5593 21.4643 33.5712 22.9048Z"
    fill="#FEFFFE" />
  <path
    d="M7.77372 18.869L8.2142 18.9524L8.80944 19.0714C9.68245 19.3413 10.4047 19.8056 10.9761 20.4643C11.0078 20.496 11.0356 20.496 11.0594 20.4643C11.2658 20.2262 11.5674 20.0556 11.9642 19.9524C12.8757 19.6862 13.834 19.6208 14.7732 19.7605C15.7124 19.9003 16.6102 20.2419 17.4047 20.7619L17.8571 21.119C18.582 21.837 18.993 22.813 18.9999 23.8333C19.0079 23.9524 19.0277 23.9524 19.0594 23.8333C19.3452 22.8413 19.7142 21.8571 20.1666 20.881C20.3253 20.6429 20.5198 20.4405 20.7499 20.2738C21.9477 19.8359 23.2481 19.7613 24.488 20.0595C24.9642 20.1786 25.3293 20.4921 25.5832 21C25.5991 21.0317 25.6269 21.0397 25.6666 21.0238C25.7142 20.9921 25.7618 20.9444 25.8094 20.881L26.2261 20.5476L27.0237 20.1905C27.1348 20.1746 27.238 20.1349 27.3332 20.0714L28.2023 19.881C29.0594 19.7619 29.9086 19.7222 30.7499 19.7619C31.7023 19.9048 32.5396 20.2738 33.2618 20.869C33.2679 20.8731 33.2747 20.8757 33.2819 20.8767C33.2891 20.8776 33.2965 20.877 33.3034 20.8747C33.3103 20.8724 33.3165 20.8685 33.3217 20.8634C33.3269 20.8583 33.3308 20.8521 33.3332 20.8452C33.5158 20.131 33.992 19.7738 34.7618 19.7738L35.2856 19.7381L35.7618 19.75L36.3213 19.7738C37.5039 19.8056 38.6785 19.9048 39.8452 20.0714C40.0594 20.119 40.2936 20.2262 40.5475 20.3929C41.6745 19.3532 43.0237 18.8929 44.5952 19.0119L45.0237 19.0357L45.0475 19.0595C45.0561 19.0716 45.0688 19.0801 45.0832 19.0833C45.7002 19.1883 46.2824 19.4414 46.78 19.8209C47.2777 20.2003 47.6758 20.6948 47.9404 21.2619C47.988 21.3492 48.0356 21.5079 48.0832 21.7381C48.1309 21.9603 48.1983 22.119 48.2856 22.2143C48.2618 22.3175 48.1825 22.369 48.0475 22.369L48.0237 22.3571L47.9999 22.3452C47.9523 22.3452 47.9523 22.3532 47.9999 22.369C48.0237 22.3849 48.0515 22.3849 48.0832 22.369C48.1467 22.3532 48.1864 22.377 48.2023 22.4405V22.5119C48.1785 22.5437 48.1467 22.5635 48.1071 22.5714C48.0674 22.5794 48.0436 22.5952 48.0356 22.619L47.7499 22.5952C47.615 22.5 47.5753 22.4048 47.6309 22.3095C47.6626 22.2619 47.6745 22.2103 47.6666 22.1548C47.6428 22.0516 47.5912 21.9444 47.5118 21.8333L47.4999 21.7857V21.4524C47.492 21.4048 47.4682 21.3889 47.4285 21.4048C47.3967 21.4127 47.369 21.4048 47.3452 21.381V21.3333C47.3452 21.2698 47.3293 21.2698 47.2975 21.3333L47.2856 21.369C46.9047 20.5198 46.2618 19.9484 45.3571 19.6548C43.8094 19.1667 41.9999 19.6071 40.9285 20.869C40.5872 21.2659 40.3729 21.7302 40.2856 22.2619C40.0832 23.7143 40.4761 24.881 41.9047 25.5C42.1428 25.6032 42.4999 25.6905 42.9761 25.7619C43.484 25.8254 43.9761 25.9206 44.4523 26.0476C44.5713 26.0794 44.6705 26.1508 44.7499 26.2619C44.9404 26.7619 44.0118 26.9524 43.7618 26.5595C43.6547 26.4048 43.619 26.2738 43.4404 26.1786C42.7856 25.8214 40.9404 25.9405 40.4404 26.5833C40.3531 26.6865 40.3055 26.8452 40.2975 27.0595C40.2023 27.2341 40.1745 27.4881 40.2142 27.8214C40.1904 27.5198 40.1825 27.2222 40.1904 26.9286C40.1904 26.6548 40.1904 26.2143 39.869 26.1429C39.6785 26.0952 39.492 26.0714 39.3094 26.0714C38.6904 26.0714 38.0555 26.0516 37.4047 26.0119C37.3571 26.0119 37.3253 25.9921 37.3094 25.9524V25.8571C37.3015 25.8095 37.3055 25.7698 37.3213 25.7381C37.3452 25.6984 37.3769 25.6786 37.4166 25.6786L38.369 25.6548C38.4282 25.651 38.4847 25.628 38.5298 25.5894C38.5749 25.5507 38.6062 25.4985 38.619 25.4405C38.7301 24.869 38.7063 24.2976 38.5475 23.7262C38.5158 23.6151 38.1666 23.5238 37.4999 23.4524C37.4692 23.4497 37.4405 23.4363 37.4187 23.4145C37.397 23.3928 37.3835 23.364 37.3809 23.3333V23.3095C37.365 23.1905 37.4126 23.131 37.5237 23.131H39.6428L39.7618 23.0833C39.8809 23.0833 39.9563 23.0159 39.988 22.881C40.1229 22.2778 40.1825 21.6667 40.1666 21.0476C40.1666 20.7619 40.0118 20.5952 39.7023 20.5476C38.0515 20.2857 36.3055 20.1944 34.4642 20.2738C34.3372 20.2738 34.2579 20.3294 34.2261 20.4405C34.115 20.7421 34.0356 21.0317 33.988 21.3095C33.9086 21.8254 33.8372 22.9524 33.7737 24.6905L33.7023 24.6548C33.6626 24.6389 33.6309 24.6468 33.6071 24.6786C33.5594 24.7341 33.5118 24.7341 33.4642 24.6786L33.6309 23.9048C33.6785 23.6905 33.6626 23.3571 33.5832 22.9048C33.5713 21.4762 32.1309 20.4167 30.8094 20.2738C29.7459 20.1468 28.6428 20.2421 27.4999 20.5595C27.1586 20.6548 26.8412 20.7937 26.5475 20.9762C26.3253 21.127 26.2261 21.3452 26.2499 21.631L26.3809 22.7024L26.9285 25.7976C26.9205 25.877 26.9086 25.8611 26.8928 25.75C26.8848 25.6944 26.8491 25.6746 26.7856 25.6905C26.7618 25.6984 26.7499 25.6905 26.7499 25.6667C26.742 25.627 26.7182 25.6071 26.6785 25.6071C26.5991 25.6151 26.5594 25.6667 26.5594 25.7619L26.2023 24.5595C25.9166 23.5833 25.6031 22.6548 25.2618 21.7738C25.0594 21.2619 24.7856 20.6071 24.2261 20.4881C23.3531 20.3056 22.4166 20.3294 21.4166 20.5595C21.1785 20.6151 21.0198 20.7183 20.9404 20.869C20.7658 21.1786 20.6031 21.5317 20.4523 21.9286C20.1507 22.7222 19.869 23.5556 19.6071 24.4286C19.2499 25.5794 18.9721 26.7698 18.7737 28C18.7499 27.9286 18.7459 27.8492 18.7618 27.7619C18.7618 27.7063 18.7539 27.6746 18.738 27.6667C18.7063 27.6508 18.6666 27.6508 18.619 27.6667C18.6904 27.5238 18.6983 27.3968 18.6428 27.2857C18.484 26.9683 18.2578 26.6627 17.9642 26.369L17.4047 25.7738C17.3973 25.7683 17.3913 25.7611 17.3871 25.7528C17.383 25.7445 17.3809 25.7354 17.3809 25.7262C17.3809 25.7169 17.383 25.7078 17.3871 25.6996C17.3913 25.6913 17.3973 25.6841 17.4047 25.6786C17.9285 25.2262 18.1904 24.6508 18.1904 23.9524C18.1904 23.4127 18.1666 23.0159 18.119 22.7619C17.984 22.2063 17.7063 21.7381 17.2856 21.3571C15.8571 20.119 13.8451 19.9405 12.0475 20.4405C11.8332 20.496 11.7023 20.6151 11.6547 20.7976C11.5674 21.1548 11.5198 21.623 11.5118 22.2024L11.3571 24.3929L11.3332 24.9643L11.2023 25.0476C11.1626 25.0556 11.1388 25.0754 11.1309 25.1071C11.1071 25.1468 11.0793 25.1587 11.0475 25.1429C11.0713 24.873 10.992 24.7063 10.8094 24.6429C10.2142 24.4286 9.4761 24.377 8.59515 24.4881C8.33325 24.5238 7.80944 24.619 7.73801 24.9048L7.55944 25.6429C7.53477 25.7498 7.4739 25.845 7.38712 25.9123C7.30034 25.9795 7.193 26.0147 7.08325 26.0119C6.54356 26.0198 6.08325 25.8175 5.70229 25.4048C5.36102 24.873 5.28563 24.3571 5.4761 23.8571C5.82134 22.9524 6.74991 22.5714 7.66658 22.75C7.69605 22.753 7.72335 22.7668 7.74316 22.7888C7.76298 22.8108 7.77387 22.8394 7.77372 22.869C7.75785 23.0833 7.85706 23.2024 8.07134 23.2262C8.82134 23.2857 10.119 23.2857 10.6666 22.8333C10.6983 22.8095 10.7182 22.7778 10.7261 22.7381C10.7578 22.5794 10.7737 22.4127 10.7737 22.2381C10.7896 21.1746 10.3809 20.4087 9.54753 19.9405C8.92055 19.5913 8.27769 19.3929 7.61896 19.3452C6.52729 19.2164 5.42327 19.445 4.47245 19.9966C3.52162 20.5482 2.77522 21.3931 2.34515 22.4048C1.90864 23.381 1.73007 24.4206 1.80944 25.5238C1.89674 26.1825 2.1269 26.7897 2.49991 27.3452C2.43642 27.377 2.38087 27.3492 2.33325 27.2619C2.30944 27.2063 2.28166 27.2063 2.24991 27.2619V27.2976C2.24198 27.3373 2.2142 27.3611 2.16658 27.369L1.88087 27.4643C1.84912 27.4722 1.83325 27.496 1.83325 27.5357V27.5833C1.79356 27.623 1.77372 27.619 1.77372 27.5714C1.77372 27.5317 1.75785 27.5079 1.7261 27.5C1.70229 27.4921 1.68642 27.496 1.67848 27.5119C1.67848 27.5278 1.66658 27.5357 1.64277 27.5357C1.61102 27.5357 1.59515 27.5198 1.59515 27.4881C1.59515 27.4167 1.57134 27.3214 1.52372 27.2738L1.29753 27.0357C1.06737 26.3849 0.968167 25.6746 0.999913 24.9048L1.03563 24.5595C1.1388 23.8373 1.32531 23.1389 1.59515 22.4643C2.46023 20.5198 3.94039 19.3452 6.03563 18.9405C6.62293 18.8611 7.20229 18.8373 7.77372 18.869ZM6.91658 25.3452C6.91658 24.869 7.13087 24.5119 7.53563 24.3095C7.59118 24.2857 7.59515 24.254 7.54753 24.2143L7.15467 23.869C7.10706 23.8294 7.05547 23.8135 6.99991 23.8214C6.10706 23.9524 5.77372 25.0952 6.66658 25.5C6.69231 25.5122 6.72073 25.5176 6.74915 25.5157C6.77756 25.5138 6.80502 25.5047 6.82889 25.4892C6.85277 25.4737 6.87227 25.4523 6.88554 25.4271C6.8988 25.4019 6.90539 25.3737 6.90468 25.3452H6.91658ZM40.4047 25.7738C40.0475 25.4405 39.6309 24.7857 39.5713 24.2976C39.5634 24.2579 39.5356 24.246 39.488 24.2619L39.4523 24.2738C39.4376 24.2814 39.426 24.2939 39.4195 24.3091C39.413 24.3243 39.412 24.3413 39.4166 24.3571C39.4959 24.746 39.5039 25.1349 39.4404 25.5238C39.4387 25.5332 39.4389 25.5428 39.441 25.5522C39.4431 25.5615 39.447 25.5703 39.4526 25.578C39.4581 25.5858 39.4652 25.5924 39.4733 25.5974C39.4814 25.6024 39.4905 25.6057 39.4999 25.6071L39.9047 25.6548C40.0713 25.6786 40.2261 25.75 40.3809 25.8095C40.4602 25.8413 40.4682 25.8294 40.4047 25.7738Z"
    fill="#692287" />
  <path
    d="M31.1781 23.4762C31.1701 24.0238 30.8844 24.3373 30.3209 24.4167C30.1622 24.4405 30.0273 24.3849 29.9162 24.25C29.5114 23.7183 29.4717 23.2302 29.7971 22.7857C30.559 22.5476 31.0193 22.7817 31.1781 23.4881V23.4762ZM48.3685 23.2976C48.3685 23.446 48.3096 23.5883 48.2047 23.6933C48.0997 23.7982 47.9574 23.8571 47.809 23.8571C47.6627 23.854 47.5234 23.7937 47.4211 23.6891C47.3187 23.5845 47.2614 23.444 47.2614 23.2976C47.2644 23.1533 47.3231 23.0158 47.4252 22.9138C47.5272 22.8117 47.6647 22.753 47.809 22.75C47.9554 22.75 48.0959 22.8073 48.2005 22.9096C48.3051 23.012 48.3654 23.1513 48.3685 23.2976ZM47.69 23.4524C47.6724 23.4358 47.6589 23.4153 47.6506 23.3926C47.6423 23.3698 47.6395 23.3455 47.6424 23.3214C47.6741 23.1071 47.7535 23.0278 47.8805 23.0833C47.9439 23.1071 47.9995 23.1468 48.0471 23.2024C48.0868 23.2421 48.1185 23.2341 48.1424 23.1786V23.119C48.0352 22.869 47.69 22.7976 47.5352 23.0595C47.2614 23.5 47.8328 23.9762 48.1305 23.5357C48.1543 23.496 48.1543 23.4563 48.1305 23.4167L48.1186 23.3929C48.1186 23.3834 48.1148 23.3743 48.1081 23.3676C48.1014 23.3609 48.0923 23.3571 48.0828 23.3571C48.0734 23.3571 48.0643 23.3609 48.0576 23.3676C48.0509 23.3743 48.0471 23.3834 48.0471 23.3929C47.9281 23.5516 47.809 23.5714 47.69 23.4524ZM15.2376 23C15.7138 23.3571 15.5947 23.9048 15.1662 24.2024C14.8805 24.3929 14.2852 24.5476 14.1424 24.0952C14.063 23.8413 14.0352 23.6151 14.059 23.4167C14.059 23.2579 14.0868 23.131 14.1424 23.0357C14.1979 22.9325 14.2971 22.869 14.44 22.8452C14.7178 22.8056 14.9836 22.8532 15.2376 22.9881V23ZM23.5233 24.5833C23.5789 24.7024 23.6146 24.8333 23.6305 24.9762C23.6334 25.0165 23.6234 25.0566 23.602 25.0908C23.5806 25.1251 23.5489 25.1516 23.5114 25.1667C23.1066 25.3651 22.6939 25.369 22.2733 25.1786C22.2336 25.1627 22.2058 25.1349 22.19 25.0952C22.1424 24.9683 22.1582 24.8254 22.2376 24.6667C22.3487 24.3095 22.5114 24.0159 22.7257 23.7857C22.747 23.7604 22.7743 23.7408 22.805 23.7285C22.8357 23.7162 22.8689 23.7116 22.9018 23.7151C22.9347 23.7186 22.9663 23.7302 22.9937 23.7487C23.0211 23.7672 23.0435 23.7922 23.059 23.8214L23.5233 24.5833Z"
    fill="#692287" />
  <path
    d="M7.77339 18.869C7.20196 18.8294 6.6226 18.8532 6.0353 18.9405C6.61466 18.7659 7.19403 18.7421 7.77339 18.869ZM8.80911 19.0833L8.21387 18.9524C8.19006 18.9206 8.15038 18.9008 8.09482 18.8929C8.05514 18.8929 8.05514 18.881 8.09482 18.8571C8.11863 18.8413 8.15038 18.8413 8.19006 18.8571C8.42815 18.9206 8.63847 19 8.82101 19.0952L8.80911 19.0833ZM45.0234 19.0476L44.6067 19.0238C44.7178 18.9603 44.8369 18.9405 44.9639 18.9643L45.0115 18.9881C45.0274 19.004 45.0313 19.0238 45.0234 19.0476ZM30.7496 19.7619C29.9083 19.7302 29.0591 19.7698 28.202 19.881C28.694 19.7698 29.075 19.6984 29.3448 19.6667C29.821 19.6111 30.2893 19.6429 30.7496 19.7619ZM35.2853 19.7619L34.7496 19.7857C34.9083 19.6825 35.0869 19.6706 35.2853 19.75V19.7619ZM36.321 19.7857L35.7615 19.7619C35.9996 19.6746 36.1861 19.6825 36.321 19.7857ZM27.3329 20.0952C27.2377 20.1508 27.1345 20.1865 27.0234 20.2024C27.1504 20.0278 27.2535 19.9881 27.3329 20.0833V20.0952ZM40.5472 20.4048C40.2853 20.246 40.0512 20.1389 39.8448 20.0833C39.9559 20.0357 40.0512 20.0476 40.1305 20.119C40.1623 20.1429 40.202 20.1548 40.2496 20.1548C40.3607 20.1786 40.4599 20.2619 40.5472 20.4048ZM20.7496 20.2857C20.5274 20.4444 20.3329 20.6508 20.1662 20.9048C20.2139 20.6111 20.4083 20.4048 20.7496 20.2857ZM26.2258 20.5595L25.7972 20.8929C25.7734 20.7976 25.7932 20.7341 25.8567 20.7024L26.2139 20.5595H26.2258ZM17.4043 20.7738C17.6028 20.7897 17.7535 20.9087 17.8567 21.131L17.4043 20.7738ZM1.59482 22.4643C1.32498 23.131 1.13847 23.8254 1.0353 24.5476C0.940058 24.4206 0.940058 24.2817 1.0353 24.131C1.05117 24.0992 1.05911 24.0595 1.05911 24.0119V23.6786C1.05911 23.6389 1.07498 23.6071 1.10672 23.5833C1.18609 23.5357 1.21784 23.4643 1.20196 23.369C1.17022 23.2579 1.19799 23.1706 1.2853 23.1071C1.32498 23.0833 1.33688 23.0516 1.32101 23.0119C1.28133 22.9087 1.30117 22.8254 1.38053 22.7619C1.41228 22.7381 1.42418 22.7063 1.41625 22.6667C1.41625 22.5397 1.47577 22.4683 1.59482 22.4524V22.4643ZM7.5353 24.3095C7.34203 24.4026 7.18033 24.5503 7.07028 24.7344C6.96023 24.9186 6.90667 25.1309 6.91625 25.3452C6.91697 25.3737 6.91038 25.4019 6.89711 25.4271C6.88384 25.4523 6.86434 25.4737 6.84047 25.4892C6.81659 25.5047 6.78913 25.5138 6.76072 25.5157C6.7323 25.5176 6.70388 25.5122 6.67815 25.5C5.77339 25.0952 6.09482 23.9524 6.99958 23.8333C7.05514 23.8175 7.10672 23.8294 7.15434 23.869L7.5472 24.2143C7.59482 24.254 7.59482 24.2857 7.5472 24.3095H7.5353Z"
    fill="#040106" fill-opacity="0.2" />
  <path
    d="M0.999612 24.9048C0.967866 25.6825 1.07104 26.3889 1.30914 27.0238C1.98771 28.9286 3.76152 30.2381 5.69009 30.5714C6.24564 30.6667 6.82898 30.6905 7.44009 30.6429C7.66231 30.619 7.86866 30.6349 8.05914 30.6905C8.7258 30.8651 9.4639 30.9365 10.2734 30.9048C10.8766 30.881 11.2536 30.5754 11.4044 29.9881C11.4123 29.9484 11.4401 29.9325 11.4877 29.9405C12.2337 30.0595 13.0552 30.1071 13.952 30.0833C14.4679 30.0675 14.8369 29.8611 15.0591 29.4643C15.0662 29.4525 15.0758 29.4424 15.0872 29.4346C15.0986 29.4269 15.1115 29.4217 15.1251 29.4195C15.1387 29.4172 15.1526 29.4179 15.1658 29.4215C15.1791 29.4252 15.1915 29.4316 15.202 29.4405C15.5829 29.7738 15.9599 30.0317 16.3329 30.2143C16.7258 30.4048 17.3687 30.4524 17.7258 30.1548C17.9242 29.996 18.1068 29.8294 18.2734 29.6548C18.3131 29.6151 18.3528 29.6111 18.3925 29.6429C18.6861 29.8095 19.0433 29.9087 19.4639 29.9405C20.2972 30.0119 20.8171 30.0278 21.0234 29.9881C21.4202 29.9087 21.7218 29.6865 21.9282 29.3214L22.4639 28.369C22.4737 28.3566 22.4865 28.3469 22.501 28.3406C22.5156 28.3344 22.5315 28.3319 22.5472 28.3333L22.9996 28.3452C23.0408 28.3465 23.0805 28.3611 23.1127 28.3869C23.1449 28.4126 23.1679 28.4482 23.1782 28.4881C23.2496 28.75 23.329 29.004 23.4163 29.25C23.7972 30.25 24.6425 30.1905 25.5353 30.1548C26.1941 30.131 26.7814 30.0675 27.2972 29.9643H27.4163C27.7655 30.1071 28.1226 30.1706 28.4877 30.1548C28.9956 30.131 29.5314 30.0595 30.0949 29.9405C30.6901 29.8095 31.1901 29.5476 31.321 28.9286C31.3766 28.627 31.3964 28.3294 31.3806 28.0357C31.3806 27.9325 31.4282 27.869 31.5234 27.8452C32.0314 27.7262 32.4837 27.5 32.8806 27.1667C32.8886 27.1604 32.8981 27.1562 32.9082 27.1547C32.9183 27.1531 32.9287 27.1542 32.9382 27.1578C32.9478 27.1613 32.9563 27.1673 32.9629 27.1751C32.9694 27.183 32.9739 27.1923 32.9758 27.2024L33.0353 28.619C32.8766 28.4921 32.7972 28.3333 32.7972 28.1429C32.7962 28.1078 32.7841 28.074 32.7627 28.0462C32.7414 28.0184 32.7118 27.9981 32.6782 27.9881C32.4242 27.9246 32.1901 27.9444 31.9758 28.0476C31.8091 28.127 31.6345 28.3016 31.452 28.5714C31.4369 28.5917 31.4259 28.6147 31.4198 28.6393C31.4136 28.6638 31.4125 28.6893 31.4163 28.7143C31.452 28.8929 31.321 29.0476 31.2972 29.2262C31.2972 29.2659 31.2853 29.2976 31.2615 29.3214C31.1345 29.4484 31.0353 29.6071 30.9639 29.7976C30.948 29.8294 30.9202 29.8492 30.8806 29.8571C30.7933 29.873 30.7139 29.9246 30.6425 30.0119C30.6187 30.0437 30.5909 30.0675 30.5591 30.0833L30.202 30.2381C30.0988 30.2778 29.9798 30.3056 29.8449 30.3214L29.4401 30.3929C29.2258 30.4405 28.9956 30.4762 28.7496 30.5C28.202 30.5357 27.5949 30.4048 27.1544 30.4167C26.5195 30.4484 25.8449 30.4722 25.1306 30.4881C24.9877 30.4881 24.8488 30.4722 24.7139 30.4405C24.579 30.4087 24.4441 30.3889 24.3091 30.381C24.2615 30.381 24.2218 30.3651 24.1901 30.3333C24.1663 30.3175 24.1544 30.2976 24.1544 30.2738C24.1464 30.2421 24.1266 30.2222 24.0948 30.2143C23.9679 30.1667 23.8647 30.0873 23.7853 29.9762C23.7695 29.9524 23.7417 29.9405 23.702 29.9405C23.6782 29.9405 23.6623 29.9286 23.6544 29.9048C23.6544 29.881 23.6464 29.8611 23.6306 29.8452C23.5512 29.7341 23.4679 29.6349 23.3806 29.5476C23.341 29.5086 23.3158 29.4583 23.3091 29.4048C23.2853 29.2778 23.2218 29.1825 23.1187 29.119C23.0949 29.1111 23.0829 29.119 23.0829 29.1429C23.0829 29.1746 23.071 29.1746 23.0472 29.1429C22.9996 29.0873 22.9401 29.0556 22.8687 29.0476C22.5512 29.0079 22.3052 29.119 22.1306 29.381C22.1068 29.4127 22.0829 29.4127 22.0591 29.381V29.3452C22.0591 29.3294 22.0552 29.3294 22.0472 29.3452C21.9996 29.3849 21.9798 29.4365 21.9877 29.5C21.9877 29.5317 21.9718 29.5516 21.9401 29.5595C21.8607 29.5992 21.8091 29.6746 21.7853 29.7857C21.7853 29.8254 21.7615 29.8532 21.7139 29.869C21.6504 29.8929 21.5988 29.9325 21.5591 29.9881L21.4877 30.0476L21.0591 30.2857C21.0474 30.2887 21.0351 30.2887 21.0234 30.2857C20.5155 30.3571 20.079 30.3611 19.7139 30.2976L19.2734 30.25L18.8449 30.2024C18.6861 30.1786 18.5393 30.1825 18.4044 30.2143C18.1425 30.2778 17.8647 30.3611 17.571 30.4643C17.5234 30.4802 17.4837 30.504 17.452 30.5357C17.4202 30.5754 17.3806 30.5873 17.3329 30.5714C17.3091 30.5635 17.2933 30.5714 17.2853 30.5952C17.2853 30.6111 17.2734 30.623 17.2496 30.631C16.8131 30.6786 16.4163 30.5913 16.0591 30.369C16.0353 30.3532 16.0195 30.3333 16.0115 30.3095C16.0115 30.2937 16.0036 30.2817 15.9877 30.2738C15.829 30.1944 15.6583 30.131 15.4758 30.0833C15.3171 30.0357 15.1702 30.0278 15.0353 30.0595C14.8607 30.0913 14.6822 30.1071 14.4996 30.1071C14.4758 30.1071 14.456 30.119 14.4401 30.1429C14.4083 30.1984 14.3607 30.2222 14.2972 30.2143C14.2496 30.2143 14.2099 30.2302 14.1782 30.2619C14.075 30.3413 13.9639 30.3651 13.8449 30.3333C13.8126 30.3279 13.7795 30.332 13.7496 30.3452C13.6941 30.369 13.6385 30.377 13.5829 30.369C13.5433 30.3611 13.5234 30.377 13.5234 30.4167V30.4405H13.4758C12.9441 30.4167 12.3964 30.4127 11.8329 30.4286L11.7377 30.4524L11.3091 30.6905L11.2258 30.75C11.1782 30.7976 11.1226 30.8175 11.0591 30.8095C11.0274 30.8095 11.0115 30.8254 11.0115 30.8571C10.9956 30.9286 10.956 30.9524 10.8925 30.9286C10.8369 30.9206 10.7972 30.9325 10.7734 30.9643C10.6702 31.0754 10.5512 31.123 10.4163 31.1071C10.3925 31.1071 10.3845 31.1151 10.3925 31.131C10.3925 31.1548 10.3806 31.1667 10.3568 31.1667C9.84882 31.246 9.3012 31.2341 8.7139 31.131C8.0631 31.0278 7.51945 30.9881 7.08295 31.0119C6.82898 31.0198 6.57501 31.0079 6.32104 30.9762L5.66628 30.881C5.48374 30.8651 5.26549 30.8175 5.01152 30.7381C4.42422 30.5556 3.94803 30.3333 3.58295 30.0714C3.55914 30.0635 3.54326 30.0476 3.53533 30.0238C3.51152 29.9921 3.47977 29.9683 3.44009 29.9524C3.24168 29.881 3.08295 29.7619 2.9639 29.5952C2.94802 29.5714 2.92025 29.5556 2.88056 29.5476C2.81707 29.5238 2.77342 29.4841 2.74961 29.4286C2.73374 29.3968 2.70993 29.369 2.67818 29.3452C2.51945 29.2262 2.3885 29.0873 2.28533 28.9286C2.28533 28.9127 2.27342 28.9048 2.24961 28.9048H2.23771C2.22183 28.9048 2.2139 28.8929 2.2139 28.869C2.19803 28.7897 2.15834 28.7183 2.09485 28.6548C2.02342 28.5992 1.96787 28.5397 1.92818 28.4762L1.57104 27.9643C1.49961 27.8452 1.44406 27.7262 1.40437 27.6071C1.34088 27.4722 1.26945 27.3413 1.19009 27.2143C1.16628 27.1825 1.16628 27.1468 1.19009 27.1071C1.2139 27.0278 1.19803 26.9563 1.14247 26.8929C1.10279 26.8532 1.07501 26.8095 1.05914 26.7619C1.01152 26.619 0.987708 26.4881 0.987708 26.369C0.987708 26.3532 0.979771 26.3413 0.963898 26.3333H0.951993L0.940089 26.2976V25.9762C0.940089 25.8968 0.924216 25.7897 0.89247 25.6548C0.836914 25.3929 0.876597 25.1468 1.01152 24.9167L0.999612 24.9048ZM48.7615 28.0476C48.825 28.1667 48.821 28.2659 48.7496 28.3452C48.7179 28.377 48.702 28.4127 48.702 28.4524C48.702 28.4921 48.6861 28.5238 48.6544 28.5476C48.6147 28.5714 48.6028 28.6071 48.6187 28.6548C48.6266 28.6865 48.6147 28.7063 48.5829 28.7143C48.571 28.7156 48.5596 28.7195 48.5493 28.7257C48.539 28.7318 48.5302 28.7401 48.5234 28.75C48.452 28.8611 48.3925 28.9683 48.3449 29.0714C48.2893 29.1667 48.2179 29.2619 48.1306 29.3571C47.7575 29.7619 47.452 30.0556 47.2139 30.2381C47.0552 30.3571 46.8409 30.4841 46.571 30.619C46.4044 30.7063 45.9917 30.8214 45.3329 30.9643C45.2377 30.9762 45.1901 31.0476 45.0829 31.0595L44.2496 31.131C43.948 31.1706 43.5115 31.131 42.9401 31.0119C42.4798 30.9167 41.9798 30.7183 41.4401 30.4167L41.0829 30.2738L40.7258 30.1786C40.5274 30.123 40.3448 30.131 40.1782 30.2024C40.0353 30.2579 39.8726 30.2976 39.6901 30.3214L39.2972 30.3929L38.9163 30.4286C37.9083 30.4762 36.9004 30.4683 35.8925 30.4048C35.8766 30.4048 35.8647 30.3968 35.8568 30.381L35.8091 30.3571C35.579 30.3651 35.3409 30.3413 35.0948 30.2857L34.2615 30.1071C34.1107 30.0754 33.9639 30.004 33.821 29.8929C33.7893 29.8611 33.7496 29.8492 33.702 29.8571C33.6385 29.873 33.5869 29.8571 33.5472 29.8095C33.4639 29.7024 33.3329 29.619 33.2377 29.5238C33.2131 29.4972 33.1966 29.4642 33.1901 29.4286C33.1614 29.3 33.0999 29.181 33.0115 29.0833C32.9163 28.9563 32.9242 28.8333 33.0353 28.7143C33.1147 29.2222 33.3607 29.5595 33.7734 29.7262C34.0195 29.8214 34.4083 29.8929 34.9401 29.9405C36.571 30.1071 38.2377 30.1786 39.8329 29.9881C40.1504 29.9484 40.4242 29.8095 40.6544 29.5714C40.6861 29.5397 40.7179 29.5397 40.7496 29.5714C41.7814 30.4524 42.9877 30.8611 44.3687 30.7976C45.284 30.799 46.1812 30.543 46.958 30.0589C47.7347 29.5747 48.3597 28.8819 48.7615 28.0595V28.0476Z"
    fill="#040106" fill-opacity="0.2" />
  <path
    d="M11.4997 22.2024L11.6187 23.0952C11.626 23.1425 11.6467 23.1867 11.6784 23.2226C11.71 23.2585 11.7513 23.2845 11.7973 23.2976C12.0354 23.369 12.2616 23.4286 12.4997 23.4286C13.0155 23.4365 13.5314 23.4325 14.0473 23.4167C14.0394 23.6151 14.0711 23.8413 14.1425 24.0952C14.2854 24.5476 14.8925 24.3929 15.1663 24.2143C15.6068 23.9048 15.7021 23.3452 15.2378 22.9881C15.6584 22.9405 16.087 22.9206 16.5235 22.9286C16.5632 22.9286 16.6028 22.9405 16.6425 22.9643C16.657 22.9726 16.6734 22.977 16.6902 22.977C16.7069 22.977 16.7233 22.9726 16.7378 22.9643C16.833 22.9246 16.9282 22.9167 17.0235 22.9405H17.1425C17.3013 22.869 17.4521 22.8849 17.5949 22.9881L17.6544 23.0119L17.6902 23C17.6981 22.9762 17.7179 22.9643 17.7497 22.9643C17.837 22.9881 17.9163 22.9643 17.9878 22.8929C18.0275 22.9325 18.0671 22.8929 18.1068 22.7738C18.1544 23.0198 18.1782 23.4127 18.1782 23.9524C18.1782 24.6508 17.9203 25.2262 17.4044 25.6786C17.397 25.6841 17.391 25.6913 17.3869 25.6996C17.3828 25.7078 17.3806 25.717 17.3806 25.7262C17.3806 25.7354 17.3828 25.7445 17.3869 25.7528C17.391 25.7611 17.397 25.7683 17.4044 25.7738L17.9521 26.369C17.8727 26.4246 17.8251 26.4881 17.8092 26.5595C17.7933 26.6151 17.7616 26.6429 17.714 26.6429C17.5592 26.6429 17.4402 26.7143 17.2854 26.7143C17.0473 26.6984 16.8171 26.7063 16.5949 26.7381C16.4521 26.75 16.3211 26.7024 16.1782 26.7024C15.1782 26.7024 14.2576 26.7103 13.4163 26.7262C12.8608 26.7262 12.3132 26.7183 11.7735 26.7024C11.7314 26.6994 11.692 26.6805 11.6633 26.6495C11.6345 26.6186 11.6186 26.5779 11.6187 26.5357L11.5473 24.9881C11.5473 24.7341 11.4759 24.5357 11.333 24.3929L11.4997 22.2024ZM29.7973 22.7857C29.4719 23.2302 29.5116 23.7183 29.9163 24.25C30.0195 24.3849 30.1544 24.4405 30.3211 24.4167C30.8767 24.3373 31.1624 24.0278 31.1782 23.4881C31.9481 23.6627 32.4481 23.7579 32.6782 23.7738C32.8846 23.7817 33.1068 23.7103 33.3449 23.5595C33.456 23.4881 33.5235 23.3968 33.5473 23.2857C33.5711 23.1746 33.579 23.0476 33.5711 22.9048C33.6505 23.3571 33.6663 23.6905 33.6187 23.9048L33.4521 24.6905C32.9521 26.0397 32.0195 26.7659 30.6544 26.869C30.644 26.8689 30.6336 26.8711 30.624 26.8754C30.6145 26.8797 30.606 26.886 30.5992 26.894C30.5924 26.9019 30.5874 26.9113 30.5846 26.9214C30.5818 26.9315 30.5813 26.9421 30.583 26.9524L30.5949 27.8929C30.5949 28.25 30.5949 28.6548 30.1663 28.7738C29.3886 28.9881 28.6822 29.0754 28.0473 29.0357C27.7735 29.0238 27.7259 28.8214 27.6306 28.5952C27.4957 28.254 27.3846 27.9048 27.2973 27.5476L26.9044 25.7976L26.3687 22.7024C26.4084 22.7817 26.4798 22.8175 26.583 22.8095L26.8806 22.7381C26.9759 22.7063 27.0751 22.6905 27.1782 22.6905L29.1663 22.7143C29.206 22.7143 29.2457 22.7024 29.2854 22.6786C29.3806 22.6071 29.4798 22.6071 29.583 22.6786C29.6148 22.6944 29.6425 22.7222 29.6663 22.7619C29.6902 22.8175 29.7378 22.8254 29.8092 22.7857H29.7973ZM39.7616 23.0595V23.0833L39.6425 23.1429L39.714 22.9286C39.7457 22.8651 39.7616 22.8651 39.7616 22.9286V23.0476V23.0595Z"
    fill="#E6E3E5" />
  <path
    d="M39.9759 22.881C39.9362 22.9206 39.8965 22.873 39.8568 22.7381C39.8489 22.6984 39.833 22.6984 39.8092 22.7381C39.7695 22.8175 39.7576 22.9246 39.7735 23.0595V22.9405C39.7655 22.8611 39.7457 22.8611 39.714 22.9405L39.6306 23.1429H37.5116C37.4005 23.1429 37.3528 23.1984 37.3687 23.3095V23.3452C37.3739 23.3738 37.3884 23.3997 37.41 23.4191C37.4315 23.4385 37.4589 23.4502 37.4878 23.4524C38.1544 23.5238 38.5036 23.6151 38.5354 23.7262C38.6941 24.2976 38.7179 24.869 38.6068 25.4405C38.5935 25.5004 38.5604 25.5541 38.5129 25.5929C38.4654 25.6318 38.4063 25.6536 38.3449 25.6548L37.3925 25.6786C37.3608 25.6786 37.333 25.6984 37.3092 25.7381C37.2933 25.7698 37.2854 25.8095 37.2854 25.8571L37.214 25.8333H37.1901V25.881C37.1981 25.881 37.1981 25.881 37.1901 25.881C36.6108 25.9206 36.0394 25.881 35.4759 25.7619C35.4282 25.746 35.3806 25.746 35.333 25.7619H35.214C34.9997 25.7063 34.7814 25.6984 34.5592 25.7381C34.4044 25.7619 34.3092 25.7143 34.1663 25.6786H34.0592C33.9878 25.7024 33.9163 25.7024 33.8449 25.6786C33.8211 25.6627 33.8132 25.6429 33.8211 25.619V25.5714L33.7973 25.5595H33.7854C33.7695 25.5833 33.7576 25.5833 33.7497 25.5595L33.7378 25.4405L33.7616 24.6905C33.8251 22.9524 33.9005 21.8214 33.9878 21.2976C34.0275 21.0278 34.0989 20.7421 34.2021 20.4405C34.2417 20.3373 34.3211 20.2817 34.4401 20.2738C36.2894 20.1944 38.0394 20.2857 39.6901 20.5476C39.9917 20.5952 40.1505 20.7619 40.1663 21.0476C40.1663 21.6667 40.1028 22.2778 39.9759 22.881ZM26.1902 24.5476C25.2933 24.627 24.4044 24.6389 23.5235 24.5833L23.0592 23.8214C23.0437 23.7922 23.0212 23.7672 22.9938 23.7487C22.9664 23.7302 22.9349 23.7186 22.902 23.7151C22.8691 23.7116 22.8359 23.7162 22.8051 23.7285C22.7744 23.7408 22.7472 23.7604 22.7259 23.7857C22.5116 24.0159 22.3489 24.3095 22.2378 24.6667L21.7616 24.7619H21.6425C21.587 24.7381 21.5275 24.7341 21.464 24.75H21.3449C21.0036 24.6468 20.6544 24.5992 20.2973 24.6071C20.1465 24.6071 19.9084 24.5516 19.583 24.4405C19.8449 23.5595 20.1306 22.7222 20.4402 21.9286C20.5909 21.5317 20.7497 21.1786 20.9163 20.869C21.0116 20.7103 21.1703 20.6071 21.3925 20.5595C22.4084 20.3214 23.3489 20.2976 24.214 20.4881C24.7735 20.6071 25.0473 21.2738 25.2497 21.7738C25.5909 22.6548 25.9044 23.5833 26.1902 24.5595V24.5476ZM40.2854 22.2619L40.3211 22.6071C40.3211 22.6389 40.3409 22.6548 40.3806 22.6548C40.6028 22.6389 40.8211 22.6389 41.0354 22.6548L41.8211 22.6905L42.464 22.6429C42.7814 22.619 43.0751 22.6786 43.3449 22.8214C43.6306 22.9563 43.8251 23.0278 43.9282 23.0357C45.833 23.2024 47.9759 23.881 48.2021 26.119C48.0592 26.1587 47.9005 26.1587 47.7259 26.119C47.5354 26.0794 47.3846 26.0635 47.2735 26.0714C47.0195 26.1032 46.7814 26.1429 46.5592 26.1905C46.3872 26.2281 46.2101 26.2362 46.0354 26.2143C45.5909 26.1349 45.1544 26.1468 44.7259 26.25C44.6465 26.1468 44.5513 26.0794 44.4401 26.0476C43.964 25.9286 43.4719 25.8333 42.964 25.7619C42.4878 25.6905 42.1306 25.6032 41.8925 25.5C40.4759 24.881 40.083 23.7143 40.2854 22.2619ZM47.7497 22.6071L48.0354 22.631C48.6306 23.0278 48.6703 23.4405 48.1544 23.869C48.0433 23.9643 47.8965 23.9921 47.714 23.9524C46.9163 23.7857 46.964 22.7857 47.7497 22.6071ZM48.3687 23.2976C48.3656 23.1513 48.3053 23.012 48.2007 22.9096C48.0961 22.8073 47.9556 22.75 47.8092 22.75C47.6649 22.753 47.5274 22.8117 47.4253 22.9138C47.3233 23.0158 47.2646 23.1533 47.2616 23.2976C47.2615 23.444 47.3189 23.5845 47.4212 23.6891C47.5236 23.7937 47.6629 23.854 47.8092 23.8571C47.9576 23.8571 48.0999 23.7982 48.2048 23.6933C48.3098 23.5883 48.3687 23.446 48.3687 23.2976Z"
    fill="#F6F5F5" />
  <path
    d="M47.6907 23.4524C47.8097 23.5714 47.9288 23.5476 48.0478 23.381C48.0478 23.3715 48.0516 23.3624 48.0583 23.3557C48.065 23.349 48.074 23.3452 48.0835 23.3452C48.093 23.3452 48.1021 23.349 48.1088 23.3557C48.1155 23.3624 48.1192 23.3715 48.1192 23.381V23.4167C48.151 23.4563 48.151 23.496 48.1192 23.5357C47.8335 23.9762 47.2621 23.5 47.524 23.0595C47.6907 22.7976 48.0359 22.869 48.143 23.119V23.1786C48.1192 23.2341 48.0875 23.2421 48.0478 23.2024C48.0002 23.1468 47.9407 23.1071 47.8692 23.0833C47.7502 23.0278 47.6748 23.1071 47.643 23.3214C47.642 23.3435 47.6457 23.3656 47.6539 23.3861C47.6622 23.4067 47.6747 23.4252 47.6907 23.4405V23.4524Z"
    fill="#F6F5F5" />
  <path
    d="M32.7497 20.119H33.0712L33.3688 20C33.4561 19.9603 33.5513 19.9286 33.6545 19.9048C33.7656 19.881 33.8529 19.8175 33.9164 19.7143C33.928 19.7008 33.9441 19.6922 33.9617 19.69C33.9793 19.6878 33.9971 19.6922 34.0116 19.7024C34.0593 19.7341 34.1148 19.7381 34.1783 19.7143C34.1942 19.7143 34.2021 19.7024 34.2021 19.6786V19.6667C34.1783 19.6508 34.1783 19.6389 34.2021 19.631C34.2339 19.5992 34.2735 19.5992 34.3212 19.631C34.3529 19.6389 34.3767 19.6349 34.3926 19.619C34.472 19.5397 34.5632 19.5198 34.6664 19.5595H34.7378C34.8331 19.5119 34.9323 19.4881 35.0354 19.4881H36.4402L36.5235 19.5L36.5593 19.5238H36.595L38.5235 19.6071C38.5452 19.6095 38.5658 19.6177 38.5831 19.631C38.6386 19.6627 38.6902 19.6667 38.7378 19.6429C38.7657 19.633 38.7951 19.633 38.8212 19.6429L39.0235 19.6905C39.0791 19.7063 39.1386 19.7143 39.2021 19.7143C39.464 19.7143 39.7497 19.754 40.0593 19.8333C40.2101 19.881 40.3728 19.8889 40.5474 19.8571C40.587 19.8571 40.6108 19.8333 40.6188 19.7857C40.6188 19.7698 40.6267 19.7579 40.6426 19.75C40.6505 19.7341 40.6664 19.7262 40.6902 19.7262C40.9521 19.6429 41.1426 19.4881 41.3926 19.381L41.7259 19.2262C41.8608 19.1468 42.0116 19.0873 42.1783 19.0476C42.2101 19.0476 42.2418 19.0317 42.2735 19C42.3608 18.9206 42.464 18.873 42.5831 18.8571C42.8688 18.8175 43.1505 18.7698 43.4283 18.7143C43.5632 18.6905 43.6982 18.6786 43.8331 18.6786H44.2616C44.3727 18.6786 44.4918 18.7024 44.6188 18.75C44.722 18.7897 44.841 18.8095 44.9759 18.8095C45.2378 18.8095 45.5116 18.8214 45.7378 18.9286C45.9521 19.0159 46.1624 19.0833 46.3688 19.131L46.3807 19.1667V19.1905C46.4045 19.2143 46.4283 19.2262 46.4521 19.2262C46.5394 19.2262 46.6108 19.2659 46.6664 19.3452C46.6738 19.3504 46.6819 19.3544 46.6902 19.3571L47.0235 19.5476C47.0553 19.5714 47.0791 19.5992 47.095 19.631C47.1347 19.7103 47.1982 19.7579 47.2855 19.7738C47.3331 19.7817 47.3728 19.8056 47.4045 19.8452C47.5632 20.0198 47.7061 20.2183 47.8331 20.4405C47.8331 20.4563 47.841 20.4603 47.8569 20.4524H47.8807C47.9601 20.5635 48.0434 20.6627 48.1307 20.75C48.2339 20.8611 48.3053 20.9722 48.345 21.0833L48.7021 21.869C48.7815 22.0516 48.8966 22.2302 49.0474 22.4048C49.4283 22.873 49.5513 23.4008 49.4164 23.9881C49.3767 24.1786 49.3132 24.381 49.2259 24.5952C49.1664 24.7738 49.1902 24.9524 49.1783 25.119C49.1783 25.1429 49.1862 25.1508 49.2021 25.1429H49.2378L49.2497 25.1786C49.3926 25.6548 49.4839 26.0754 49.5235 26.4405C49.6188 27.2817 49.4759 28.1071 49.095 28.9167C49.0394 29.0278 48.972 29.131 48.8926 29.2262L48.6426 29.5595C48.5235 29.7421 48.3926 29.9127 48.2497 30.0714C48.1386 30.1825 48.0196 30.2817 47.8926 30.369L47.6545 30.5714C47.5751 30.6429 47.4918 30.7024 47.4045 30.75C47.0077 30.9643 46.587 31.1627 46.1426 31.3452C45.9839 31.4087 45.8251 31.4484 45.6664 31.4643L45.214 31.5238C44.8013 31.6032 44.3728 31.6429 43.9283 31.6429C43.6902 31.6349 43.4521 31.5992 43.214 31.5357L42.4997 31.3929C42.3807 31.381 42.2735 31.3095 42.1783 31.25L42.0593 31.2024C41.8529 31.1706 41.6585 31.1032 41.4759 31C41.087 30.7778 40.718 30.6984 40.3688 30.7619L39.6069 30.881L39.2497 30.9167C39.1704 30.9167 39.0989 30.9246 39.0354 30.9405L38.8212 30.9643C37.2894 31.0119 35.7815 30.9325 34.2974 30.7262C34.1862 30.7183 34.0791 30.6905 33.9759 30.6429C33.8728 30.5873 33.7696 30.5476 33.6664 30.5238C33.3981 30.4232 33.1603 30.2551 32.9759 30.0357C32.8569 29.881 32.714 29.7976 32.6188 29.619L32.3807 28.9405C32.3749 28.9201 32.3637 28.9016 32.3484 28.887C32.3331 28.8724 32.3141 28.8621 32.2935 28.8573C32.2729 28.8524 32.2513 28.8531 32.2311 28.8594C32.2108 28.8657 32.1926 28.8772 32.1783 28.8929L32.0355 29.0357C31.9958 29.0754 31.968 29.119 31.9521 29.1667C31.6743 30.0714 31.0434 30.6389 30.0593 30.869C29.3688 31.0278 28.6347 31.0754 27.8569 31.0119C27.087 30.9484 26.1624 30.9683 25.0831 31.0714C24.9878 31.0714 24.9005 31.0635 24.8212 31.0476C24.7021 31.0119 24.5831 31.0476 24.464 31.0119C24.1862 30.9405 23.9243 30.8492 23.6783 30.7381C23.5355 30.6667 23.4164 30.5556 23.3212 30.4048C23.3 30.3678 23.2716 30.3354 23.2378 30.3095C23.1347 30.2381 23.0553 30.1468 22.9997 30.0357C22.9045 29.8452 22.6545 29.7619 22.4878 29.9167C22.3926 30 22.2855 30.0357 22.1902 30.1429C21.8886 30.4603 21.5315 30.6746 21.1188 30.7857C20.9204 30.8413 20.6982 30.8651 20.4521 30.8571C20.2021 30.8571 19.8331 30.9048 19.5831 30.8095C19.5672 30.7936 19.5474 30.7857 19.5235 30.7857C19.2696 30.7936 19.0116 30.7897 18.7497 30.7738C18.5944 30.7642 18.4391 30.7928 18.2974 30.8571C17.8771 31.0754 17.4135 31.1974 16.9402 31.2143C16.7259 31.2143 16.5196 31.1746 16.3212 31.0952L15.6188 30.7857C15.5235 30.746 15.4204 30.7302 15.3093 30.7381C15.1307 30.7381 14.964 30.7143 14.7855 30.7738C14.1981 30.9722 13.595 31.0476 12.9759 31C12.6347 30.9683 12.3172 30.9683 12.0235 31C11.9839 31 11.9481 31.0119 11.9164 31.0357C11.7894 31.131 11.6505 31.2024 11.4997 31.25C11.4521 31.2659 11.4124 31.2976 11.3807 31.3452C11.3648 31.3849 11.337 31.4087 11.2974 31.4167C11.0235 31.5238 10.8569 31.6905 10.5474 31.7143C10.3093 31.7302 10.0831 31.754 9.86878 31.7857C9.85126 31.7872 9.83363 31.7847 9.81716 31.7785C9.80069 31.7724 9.7858 31.7626 9.77355 31.75C9.7418 31.7183 9.71402 31.7143 9.69021 31.7381C9.6664 31.7619 9.63863 31.7738 9.60688 31.7738C9.05132 31.75 8.51561 31.7024 7.99974 31.631C7.62672 31.5754 7.25371 31.5556 6.88069 31.5714C6.63466 31.5714 6.38466 31.5556 6.13069 31.5238L5.39259 31.4167C5.28942 31.4008 5.15053 31.3611 4.97593 31.2976C4.89656 31.2659 4.80529 31.2421 4.70212 31.2262L4.39259 31.131C3.89259 30.9563 3.53545 30.7817 3.32117 30.6071C3.16244 30.4722 2.9918 30.3532 2.80926 30.25C2.58704 30.0992 2.41244 29.9603 2.28545 29.8333C1.95212 29.5 1.64656 29.1627 1.36878 28.8214L1.30926 28.7143C1.28545 28.6349 1.25371 28.5635 1.21402 28.5C0.983864 28.1429 0.797356 27.7579 0.654499 27.3452C0.594975 27.1786 0.642594 27.0238 0.571166 26.869C0.553076 26.8321 0.544872 26.7911 0.547356 26.75C0.563229 26.6389 0.559261 26.5198 0.535452 26.3929L0.475928 26.0119C0.396563 25.0675 0.567198 23.9722 0.987832 22.7262C1.08307 22.4643 1.18625 22.2619 1.29736 22.119L1.33307 22.0119C1.34101 21.9325 1.37275 21.8611 1.42831 21.7976C1.48386 21.7341 1.53148 21.6627 1.57117 21.5833C1.71402 21.2976 1.89259 21.0516 2.10688 20.8452C2.1545 20.7976 2.19418 20.746 2.22593 20.6905C2.26561 20.5952 2.33307 20.5238 2.42831 20.4762C2.48386 20.4524 2.52355 20.4127 2.54736 20.3571L2.63069 20.2738L3.03545 19.9167C3.0672 19.8849 3.10688 19.8651 3.1545 19.8571C3.18625 19.8492 3.21799 19.8294 3.24974 19.7976L3.32117 19.7262L3.58307 19.5357C3.61482 19.5119 3.6545 19.496 3.70212 19.4881C3.84498 19.4881 3.96799 19.4444 4.07117 19.3571C4.32513 19.1508 4.67037 19.0079 5.10688 18.9286C5.11482 18.9286 5.11482 18.9246 5.10688 18.9167V18.881C5.11482 18.8651 5.12672 18.8571 5.14259 18.8571C5.28545 18.8571 5.4164 18.8333 5.53545 18.7619C5.66244 18.6825 5.80529 18.6429 5.96402 18.6429C6.47196 18.6032 6.97593 18.5794 7.47593 18.5714C7.51561 18.5714 7.54736 18.5873 7.57117 18.619L7.60688 18.631H7.69021C7.92831 18.5595 8.17831 18.6548 8.42831 18.6667C8.56323 18.6667 8.69021 18.6905 8.80926 18.7381C9.36482 18.9365 9.88466 19.1905 10.3688 19.5C10.5831 19.6349 10.8132 19.746 11.0593 19.8333C11.091 19.8492 11.1228 19.8532 11.1545 19.8452L11.3926 19.8095C11.472 19.8016 11.5394 19.7857 11.595 19.7619C12.0791 19.5873 12.6069 19.5079 13.1783 19.5238C13.2021 19.5238 13.222 19.5119 13.2378 19.4881C13.2537 19.4484 13.2775 19.4325 13.3093 19.4405C13.5474 19.4563 13.7815 19.4563 14.0116 19.4405C14.0751 19.4405 14.1347 19.4603 14.1902 19.5C14.2238 19.5268 14.2665 19.5396 14.3093 19.5357C14.5712 19.5357 14.841 19.5516 15.1188 19.5833C15.1981 19.5913 15.2497 19.631 15.2735 19.7024C15.2815 19.7341 15.3013 19.746 15.3331 19.7381C15.3886 19.7222 15.4402 19.6944 15.4878 19.6548C15.5116 19.631 15.5434 19.627 15.5831 19.6429C15.8926 19.7262 16.214 19.7619 16.5116 19.881C16.7815 20.0079 17.0315 20.1667 17.2616 20.3571C17.3728 20.4524 17.4997 20.5317 17.6426 20.5952C17.8013 20.6746 17.9442 20.7698 18.0712 20.881V20.9286L18.095 20.9524C18.2934 21.0794 18.4601 21.246 18.595 21.4524C18.722 21.6429 18.8807 21.754 19.0712 21.7857C19.2061 21.8095 19.3251 21.754 19.4283 21.619C19.4521 21.5794 19.4442 21.5675 19.4045 21.5833H19.3926C19.3688 21.5754 19.3648 21.5635 19.3807 21.5476C19.4283 21.4683 19.468 21.381 19.4997 21.2857L19.5712 21.2024C19.6188 21.1627 19.6585 21.1151 19.6902 21.0595C19.9124 20.5833 20.2696 20.2421 20.7616 20.0357L20.8807 19.9524C20.9601 19.8889 21.0513 19.8651 21.1545 19.881C21.1751 19.8846 21.1964 19.8804 21.214 19.869C21.2934 19.8056 21.3807 19.7897 21.4759 19.8214C21.5077 19.8214 21.5315 19.8095 21.5474 19.7857C21.5632 19.7619 21.587 19.746 21.6188 19.7381C21.7378 19.7262 21.8093 19.7738 21.9164 19.7024C21.9482 19.6786 21.9839 19.6627 22.0235 19.6548C22.222 19.631 22.5196 19.6111 22.9164 19.5952C22.9878 19.5952 23.0394 19.6111 23.0712 19.6429C23.095 19.6746 23.1267 19.6865 23.1664 19.6786C23.4997 19.6548 23.8331 19.6548 24.1664 19.6786C24.3212 19.6786 24.4402 19.7738 24.5831 19.7738L24.6783 19.7976L24.9878 19.9524L25.0831 19.9762C25.1386 19.9762 25.1783 19.996 25.2021 20.0357C25.2259 20.0675 25.2537 20.0913 25.2855 20.1071C25.6902 20.2976 26.0632 20.2976 26.4045 20.1071C26.595 19.996 26.7537 19.9206 26.8807 19.881C26.9045 19.881 26.9164 19.8929 26.9164 19.9167V19.9524C27.3132 19.7619 27.722 19.6349 28.1426 19.5714C28.8807 19.4603 29.6624 19.4167 30.4878 19.4405C30.5831 19.4405 30.6664 19.4603 30.7378 19.5C30.7775 19.5238 30.8172 19.5357 30.8569 19.5357L31.4878 19.5952C31.5037 19.5952 31.5116 19.6032 31.5116 19.619L31.5354 19.6429H31.5712C31.8093 19.6905 32.0474 19.7619 32.2855 19.8571C32.3152 19.8685 32.3404 19.8894 32.3569 19.9167C32.3807 19.9802 32.4243 20 32.4878 19.9762C32.5354 19.9683 32.5751 19.9762 32.6069 20C32.6386 20.0159 32.6585 20.0397 32.6664 20.0714C32.6719 20.0883 32.6835 20.1025 32.6989 20.1113C32.7143 20.1201 32.7324 20.1229 32.7497 20.119ZM6.03545 18.9405C3.94021 19.3532 2.46005 20.5278 1.59498 22.4643C1.46799 22.4802 1.40847 22.5516 1.4164 22.6786C1.4164 22.7183 1.4045 22.75 1.38069 22.7738C1.30132 22.8373 1.28148 22.9206 1.32117 23.0238C1.33704 23.0635 1.32513 23.0952 1.28545 23.119C1.20609 23.1825 1.17831 23.2738 1.20212 23.3929C1.21799 23.4802 1.18625 23.5476 1.10688 23.5952C1.07513 23.619 1.05926 23.6508 1.05926 23.6905V24.0357C1.05926 24.0754 1.04736 24.1111 1.02355 24.1429C0.936245 24.2937 0.936245 24.4325 1.02355 24.5595L0.999737 24.9167C0.872753 25.1389 0.837039 25.381 0.892594 25.6429C0.92434 25.7778 0.940213 25.8849 0.940213 25.9643V26.3214L0.975928 26.3333C0.991801 26.3333 0.999737 26.3452 0.999737 26.369C0.999737 26.4881 1.02355 26.619 1.07117 26.7619C1.08704 26.8095 1.11482 26.8532 1.1545 26.8929C1.21005 26.9563 1.22196 27.0278 1.19021 27.1071C1.17434 27.1468 1.17831 27.1865 1.20212 27.2262C1.28148 27.3452 1.34498 27.4722 1.39259 27.6071C1.43228 27.7262 1.4918 27.8452 1.57117 27.9643L1.9045 28.4762C1.94418 28.5397 1.99577 28.5992 2.05926 28.6548C2.13069 28.7183 2.17037 28.7897 2.17831 28.869L2.21402 28.9048C2.23783 28.9048 2.25371 28.9127 2.26164 28.9286C2.35688 29.0873 2.48783 29.2262 2.6545 29.3452C2.68624 29.369 2.71005 29.3968 2.72593 29.4286C2.74974 29.4841 2.79339 29.5238 2.85688 29.5476C2.89656 29.5556 2.92434 29.5754 2.94021 29.6071C3.05926 29.7659 3.21799 29.8849 3.4164 29.9643C3.45609 29.9722 3.48783 29.9921 3.51164 30.0238L3.54736 30.0714C3.92037 30.3333 4.39656 30.5556 4.97593 30.7381C5.24577 30.8175 5.46799 30.8651 5.64259 30.881L6.29736 30.9762C6.55132 31.0079 6.80529 31.0198 7.05926 31.0119C7.49577 30.9881 8.03942 31.0278 8.69021 31.131C9.27752 31.2341 9.82513 31.246 10.3331 31.1667C10.3569 31.1667 10.3688 31.1548 10.3688 31.131C10.3688 31.1071 10.3767 31.0992 10.3926 31.1071C10.5355 31.123 10.6545 31.0754 10.7497 30.9643C10.7735 30.9325 10.8132 30.9206 10.8688 30.9286C10.9323 30.9524 10.972 30.9286 10.9878 30.8571C10.9878 30.8254 11.0037 30.8095 11.0355 30.8095C11.0989 30.8095 11.1545 30.7897 11.2021 30.75L11.2855 30.6905L11.714 30.4524L11.8093 30.4286C12.3648 30.4127 12.9124 30.4206 13.4521 30.4524H13.4878C13.5037 30.4444 13.5077 30.4325 13.4997 30.4167C13.4997 30.377 13.5196 30.3611 13.5593 30.369L13.7259 30.3452C13.757 30.336 13.7901 30.336 13.8212 30.3452C13.9402 30.369 14.0474 30.3373 14.1426 30.25C14.1823 30.2183 14.2259 30.2063 14.2735 30.2143C14.337 30.2222 14.3847 30.1984 14.4164 30.1429C14.4323 30.119 14.4521 30.1071 14.4759 30.1071C14.6585 30.1071 14.837 30.0913 15.0116 30.0595C15.1545 30.0278 15.3013 30.0357 15.4521 30.0833C15.6267 30.131 15.7974 30.1984 15.964 30.2857C15.9799 30.2857 15.9878 30.2936 15.9878 30.3095C15.9878 30.3333 15.9997 30.3532 16.0235 30.369C16.3886 30.5913 16.7855 30.6746 17.214 30.619C17.2378 30.619 17.2537 30.6111 17.2616 30.5952C17.2616 30.5714 17.2775 30.5635 17.3093 30.5714C17.3569 30.5873 17.3966 30.5754 17.4283 30.5357C17.4601 30.504 17.4997 30.4802 17.5474 30.4643C17.841 30.3611 18.1188 30.2817 18.3807 30.2262C18.5235 30.1865 18.6704 30.1786 18.8212 30.2024L19.2497 30.25L19.6783 30.2976C20.0513 30.3611 20.4918 30.3611 20.9997 30.2976C21.0125 30.2969 21.0248 30.2928 21.0355 30.2857L21.464 30.0476L21.5355 29.9881C21.5751 29.9325 21.6267 29.8929 21.6902 29.869C21.7299 29.8532 21.7537 29.8254 21.7616 29.7857C21.7775 29.6746 21.8291 29.5992 21.9164 29.5595C21.9482 29.5516 21.964 29.5317 21.964 29.5C21.964 29.4365 21.9839 29.3849 22.0235 29.3452C22.0394 29.3294 22.0394 29.3294 22.0235 29.3452V29.381C22.0553 29.4127 22.0831 29.4127 22.1069 29.381C22.2815 29.119 22.5275 29.0079 22.845 29.0476C22.9164 29.0476 22.9759 29.0833 23.0235 29.1548C23.0474 29.1786 23.0593 29.1746 23.0593 29.1429C23.0593 29.119 23.0712 29.1111 23.095 29.119C23.1982 29.1825 23.2616 29.2778 23.2855 29.4048C23.2921 29.4583 23.3173 29.5086 23.3569 29.5476C23.4442 29.627 23.5235 29.7262 23.595 29.8452L23.6307 29.9048C23.6386 29.9286 23.6545 29.9405 23.6783 29.9405C23.718 29.9405 23.7458 29.9563 23.7616 29.9881C23.841 30.0913 23.9442 30.1667 24.0712 30.2143C24.1029 30.2222 24.1228 30.2421 24.1307 30.2738C24.1307 30.2976 24.1386 30.3175 24.1545 30.3333C24.1942 30.3651 24.2339 30.381 24.2735 30.381C24.4164 30.381 24.5553 30.4008 24.6902 30.4405C24.8251 30.4722 24.964 30.4881 25.1069 30.4881C25.8212 30.4722 26.4958 30.4484 27.1307 30.4167C27.5712 30.4048 28.1783 30.5357 28.714 30.5C28.968 30.4762 29.2021 30.4405 29.4164 30.3929L29.8331 30.3214C29.9601 30.3056 30.0791 30.2778 30.1902 30.2381L30.5355 30.0833C30.5672 30.0675 30.5989 30.0397 30.6307 30C30.6942 29.9206 30.7735 29.873 30.8688 29.8571C30.9005 29.8492 30.9243 29.8254 30.9402 29.7857C31.0116 29.6032 31.1108 29.4484 31.2378 29.3214C31.2616 29.2976 31.2735 29.2659 31.2735 29.2262C31.2974 29.0476 31.4283 28.8929 31.3926 28.7143C31.3888 28.6893 31.39 28.6638 31.3961 28.6393C31.4022 28.6147 31.4132 28.5917 31.4283 28.5714C31.6108 28.3016 31.7854 28.127 31.9521 28.0476C32.1664 27.9444 32.4005 27.9246 32.6545 27.9881C32.6901 27.9987 32.7211 28.0208 32.7426 28.051C32.7642 28.0812 32.7751 28.1177 32.7735 28.1548C32.7735 28.3373 32.8529 28.4921 33.0116 28.619L33.0235 28.7143C32.9124 28.8333 32.9045 28.9563 32.9997 29.0833C33.1069 29.2024 33.1426 29.2976 33.1664 29.4405C33.1762 29.4775 33.197 29.5107 33.2259 29.5357C33.3331 29.619 33.464 29.7024 33.5355 29.8095C33.5751 29.8571 33.6307 29.877 33.7021 29.869C33.7418 29.8532 33.7815 29.8611 33.8212 29.8929C33.9561 30.004 34.1029 30.0754 34.2616 30.1071L35.0712 30.2857C35.3251 30.3413 35.5632 30.3651 35.7854 30.3571C35.8093 30.3571 35.8291 30.3651 35.845 30.381C35.8529 30.3968 35.8648 30.4048 35.8807 30.4048C36.8886 30.4683 37.8966 30.4762 38.9045 30.4286C39.0235 30.4286 39.1505 30.4167 39.2854 30.3929L39.6783 30.3333C39.8608 30.3016 40.0235 30.2579 40.1664 30.2024C40.3331 30.131 40.5196 30.123 40.7259 30.1786L41.0593 30.2738C41.1862 30.3135 41.3053 30.3651 41.4164 30.4286C41.972 30.7222 42.472 30.9167 42.9164 31.0119C43.4958 31.131 43.9323 31.1706 44.2259 31.131L45.0712 31.0595C45.1902 31.0476 45.2259 30.9762 45.3093 30.9643C45.9759 30.8214 46.3966 30.7063 46.5712 30.619C46.8331 30.4841 47.0434 30.3571 47.2021 30.2381C47.4402 30.0556 47.7458 29.7619 48.1188 29.3571C48.2061 29.2619 48.2775 29.1667 48.3331 29.0714C48.3807 28.9683 48.4402 28.8611 48.5116 28.75C48.5226 28.7326 48.5395 28.7199 48.5593 28.7143C48.5989 28.7063 48.6148 28.6865 48.6069 28.6548C48.591 28.6071 48.6029 28.5675 48.6426 28.5357C48.6743 28.5198 48.6902 28.4921 48.6902 28.4524C48.6902 28.4127 48.7061 28.377 48.7378 28.3452C48.8093 28.2659 48.8093 28.1667 48.7378 28.0476C48.9658 27.4604 49.0417 26.8251 48.9584 26.2007C48.8752 25.5764 48.6355 24.9832 48.2616 24.4762C48.2299 24.4365 48.2378 24.4048 48.2854 24.381C48.8886 24.0476 49.1069 23.5595 48.9402 22.9167C48.8608 22.5913 48.6386 22.3611 48.2735 22.2262C48.1783 22.131 48.1108 21.9722 48.0712 21.75C48.0235 21.5198 47.9799 21.3611 47.9402 21.2738C47.6745 20.7052 47.2745 20.2098 46.7747 19.8302C46.2749 19.4507 45.6902 19.1984 45.0712 19.0952C45.0567 19.092 45.044 19.0835 45.0354 19.0714L45.0116 19.0476C45.0196 19.0238 45.0156 19.004 44.9997 18.9881C44.9839 18.9722 44.964 18.9643 44.9402 18.9643C44.8212 18.9405 44.7021 18.9603 44.5831 19.0238C43.0116 18.9048 41.6624 19.3651 40.5354 20.4048C40.4561 20.2619 40.3529 20.1825 40.2259 20.1667C40.1862 20.1587 40.1505 20.1429 40.1188 20.119C40.0394 20.0397 39.9442 20.0278 39.8331 20.0833C38.6664 19.9246 37.4918 19.8254 36.3093 19.7857C36.1664 19.6825 35.9799 19.6746 35.7497 19.7619H35.2735C35.0831 19.6825 34.9045 19.6905 34.7378 19.7857C33.9759 19.7857 33.5037 20.1429 33.3212 20.8571C33.3188 20.864 33.3148 20.8702 33.3096 20.8753C33.3045 20.8804 33.2982 20.8843 33.2913 20.8866C33.2844 20.8889 33.2771 20.8895 33.2699 20.8886C33.2627 20.8876 33.2558 20.885 33.2497 20.881C32.5354 20.2857 31.6982 19.9127 30.7378 19.7619C30.2696 19.6429 29.8013 19.6111 29.3331 19.6667C29.0632 19.6984 28.6823 19.7738 28.1902 19.8929L27.3212 20.0952C27.2418 19.9921 27.1386 20.0278 27.0116 20.2024L26.214 20.5595C26.1585 20.5675 26.0394 20.6151 25.8569 20.7024C25.7775 20.7341 25.7537 20.7976 25.7855 20.8929C25.7458 20.9563 25.7021 21.004 25.6545 21.0357C25.6148 21.0516 25.587 21.0437 25.5712 21.0119C25.3172 20.504 24.9521 20.1865 24.4759 20.0595C23.4045 19.7976 21.8331 19.8214 20.7378 20.2857C20.3966 20.4048 20.2021 20.6111 20.1545 20.9048C19.7021 21.873 19.3331 22.8571 19.0474 23.8571C19.0156 23.9683 18.9958 23.9683 18.9878 23.8571C18.9045 22.7738 18.6426 21.8929 17.845 21.1429C17.7418 20.9048 17.591 20.7817 17.3926 20.7738C15.8093 19.6786 13.8212 19.4643 11.964 19.9643C11.5672 20.0675 11.2616 20.2381 11.0474 20.4762C11.0235 20.5079 10.9958 20.5079 10.964 20.4762C10.3926 19.8175 9.67434 19.3532 8.80926 19.0833L8.17831 18.8452C8.13863 18.8373 8.10688 18.8373 8.08307 18.8452C8.04339 18.877 8.04339 18.8929 8.08307 18.8929C8.13863 18.9008 8.17831 18.9206 8.20212 18.9524L7.76164 18.869C7.18228 18.7421 6.60291 18.7659 6.02355 18.9405H6.03545Z"
    fill="black" fill-opacity="0.1" />
  <path
    d="M39.5588 24.3095C39.6302 24.7857 40.0469 25.4405 40.404 25.7738C40.4675 25.8294 40.4596 25.8413 40.3802 25.8095C40.2254 25.75 40.0707 25.6786 39.904 25.6548L39.4993 25.6071C39.4898 25.6057 39.4808 25.6024 39.4726 25.5974C39.4645 25.5924 39.4574 25.5858 39.4519 25.578C39.4463 25.5703 39.4424 25.5615 39.4403 25.5522C39.4382 25.5428 39.438 25.5332 39.4397 25.5238C39.4953 25.127 39.4873 24.7381 39.4159 24.3571C39.4113 24.3413 39.4123 24.3243 39.4189 24.3091C39.4254 24.2939 39.437 24.2814 39.4516 24.2738H39.4874C39.535 24.25 39.5588 24.2579 39.5588 24.2976V24.3095Z"
    fill="black" fill-opacity="0.1" />
</svg>