<svg width="50" height="50" viewBox="0 0 50 50" fill="none" xmlns="http://www.w3.org/2000/svg">
<path d="M46.3722 14.9986C46.1804 14.998 45.9948 14.9319 45.8467 14.8117C45.6986 14.6915 45.5971 14.5245 45.5594 14.3389C45.2153 12.6424 44.5848 11.0853 43.6848 9.71642C43.5648 9.53387 43.5231 9.31176 43.569 9.09891C43.6149 8.88606 43.7445 8.69991 43.9294 8.58139C44.0208 8.52267 44.1232 8.48233 44.2305 8.46269C44.3378 8.44304 44.4479 8.44447 44.5547 8.4669C44.6614 8.48932 44.7626 8.53231 44.8525 8.59338C44.9424 8.65446 45.0192 8.73243 45.0785 8.82284C46.0897 10.3641 46.8029 12.1139 47.1888 14.0151C47.2138 14.1343 47.2115 14.2575 47.182 14.3756C47.1524 14.4938 47.0964 14.6039 47.0181 14.6979C46.9397 14.7919 46.8411 14.8674 46.7293 14.9188C46.6175 14.9702 46.4955 14.9961 46.3722 14.9948V14.9986Z" fill="#709CFF"/>
<path d="M16.2996 46.9956C11.0544 46.9956 6.61756 45.1881 3.63996 41.7951C0.235434 37.9267 -0.825792 32.4766 0.646314 26.4605C2.09338 20.5432 5.82854 14.7648 11.1661 10.1879C18.5145 3.88475 27.774 0.930252 35.3329 2.48355C35.7811 2.57354 36.0712 3.00829 35.9756 3.45064C35.9537 3.55582 35.911 3.6557 35.85 3.74457C35.7889 3.83344 35.7107 3.90955 35.6199 3.96854C35.529 4.02753 35.4272 4.06824 35.3203 4.08833C35.2135 4.10842 35.1037 4.10751 34.9972 4.08565C27.9313 2.64008 19.2187 5.45072 12.2524 11.4256C7.17289 15.7807 3.62391 21.2606 2.25902 26.8458C0.919806 32.3334 1.85263 37.2632 4.8925 40.726C7.93173 44.1887 12.7377 45.7991 18.4227 45.2579C24.2116 44.709 30.1995 42.0087 35.279 37.6479C35.8746 37.1371 36.4527 36.6068 37.0124 36.0578C37.1688 35.9047 37.3804 35.8192 37.6007 35.8201C37.8209 35.821 38.0318 35.9082 38.1869 36.0626C38.3421 36.217 38.4287 36.4259 38.4278 36.6433C38.4269 36.8607 38.3385 37.0689 38.1821 37.222C37.5961 37.7955 36.9917 38.3503 36.3698 38.8856C31.0328 43.4631 24.7136 46.3067 18.5844 46.8891C17.8265 46.962 17.0655 46.9991 16.3041 47L16.2996 46.9956Z" fill="#709CFF"/>
<path d="M10.8139 21.6003C10.6605 21.6003 10.5032 21.5598 10.362 21.4654C10.2703 21.4068 10.1913 21.3308 10.1295 21.2419C10.0677 21.153 10.0243 21.0529 10.0019 20.9474C9.97954 20.8418 9.97856 20.733 9.99904 20.6271C10.0195 20.5212 10.061 20.4203 10.1212 20.3303C11.4611 18.3017 13.1155 16.4373 15.0434 14.7813C23.4196 7.59784 34.5204 6.63075 39.7868 12.6266C40.2253 13.126 40.6154 13.6649 40.952 14.2363C41.0071 14.3293 41.0431 14.4321 41.0579 14.5388C41.0728 14.6456 41.0662 14.7541 41.0385 14.8584C41.0109 14.9626 40.9627 15.0604 40.8967 15.1462C40.8308 15.2321 40.7483 15.3042 40.6541 15.3586C40.5599 15.413 40.4558 15.4486 40.3476 15.4632C40.2395 15.4779 40.1295 15.4714 40.0239 15.444C39.9184 15.4167 39.8193 15.3692 39.7323 15.3041C39.6453 15.239 39.5722 15.1576 39.5171 15.0646C39.2311 14.5808 38.9008 14.1238 38.5304 13.6995C33.8656 8.38495 23.8138 9.42555 16.1259 16.019C14.3135 17.5716 12.7586 19.3265 11.5022 21.2277C11.4271 21.3426 11.324 21.4369 11.2022 21.502C11.0805 21.5672 10.9441 21.601 10.8056 21.6003H10.8139Z" fill="#709CFF"/>
<path d="M19.0418 42.6272C15.1853 42.6272 11.7268 41.3363 9.4047 38.6929C7.86197 36.9394 6.92915 34.6896 6.69674 32.1857C6.68692 32.0787 6.69853 31.9709 6.73092 31.8684C6.7633 31.7659 6.81582 31.6707 6.88548 31.5882C6.95515 31.5057 7.04058 31.4376 7.13691 31.3877C7.23324 31.3379 7.33858 31.3072 7.44692 31.2975C7.55526 31.2878 7.66447 31.2993 7.76832 31.3312C7.87216 31.3632 7.96862 31.415 8.05217 31.4838C8.13572 31.5526 8.20473 31.6369 8.25526 31.732C8.3058 31.8271 8.33686 31.9311 8.34668 32.038C8.5502 34.2263 9.32573 36.1073 10.6566 37.6194C15.322 42.9346 25.3738 41.894 33.0618 35.2999C33.3725 35.0337 33.6877 34.7511 33.9901 34.464C34.0686 34.3871 34.1618 34.3265 34.2644 34.2856C34.3669 34.2448 34.4767 34.2245 34.5873 34.2261C34.6979 34.2277 34.807 34.2511 34.9083 34.2948C35.0096 34.3386 35.1011 34.4019 35.1773 34.481C35.2535 34.5601 35.3129 34.6534 35.3521 34.7555C35.3913 34.8576 35.4094 34.9663 35.4055 35.0754C35.4015 35.1845 35.3755 35.2917 35.329 35.3908C35.2826 35.4898 35.2165 35.5787 35.1348 35.6522C34.8112 35.9558 34.4799 36.2543 34.148 36.5376C29.4666 40.5536 23.9306 42.6272 19.0418 42.6272Z" fill="#709CFF"/>
<path d="M42.6821 32.9674C46.7241 32.9674 50.0009 29.729 50.0009 25.7339C50.0009 21.7394 46.7241 18.501 42.6821 18.501C38.6401 18.501 35.3633 21.7394 35.3633 25.7339C35.3633 29.729 38.6401 32.9674 42.6821 32.9674Z" fill="#709CFF"/>
<path d="M40.5328 8.90904C41.4603 8.90853 42.3496 8.54438 43.0052 7.89667C43.6607 7.24896 44.0288 6.37073 44.0285 5.45515C44.0288 5.0017 43.9387 4.55261 43.7632 4.13355C43.5877 3.71449 43.3303 3.33367 43.0057 3.01282C42.681 2.69197 42.2956 2.43738 41.8713 2.2636C41.447 2.08982 40.9922 2.00025 40.5328 2C40.0735 2.00025 39.6187 2.0898 39.1945 2.26354C38.7702 2.43728 38.3848 2.69181 38.0602 3.01259C37.7356 3.33337 37.4782 3.71413 37.3026 4.13311C37.1271 4.5521 37.0369 5.00111 37.0371 5.45452C37.0369 5.90792 37.1271 6.35694 37.3026 6.77592C37.4782 7.19491 37.7356 7.57566 38.0602 7.89645C38.3848 8.21723 38.7702 8.47175 39.1945 8.6455C39.6187 8.81924 40.0735 8.90879 40.5328 8.90904Z" fill="#709CFF"/>
<path d="M8.64496 28.3546C8.9774 28.3544 9.30654 28.2896 9.61359 28.1639C9.92065 28.0381 10.1996 27.8539 10.4345 27.6217C10.6694 27.3895 10.8557 27.1139 10.9827 26.8106C11.1097 26.5074 11.1749 26.1824 11.1747 25.8542C11.1749 25.5261 11.1096 25.2012 10.9825 24.898C10.8555 24.5948 10.6692 24.3193 10.4343 24.0872C10.1994 23.8551 9.92046 23.6709 9.61344 23.5452C9.30643 23.4195 8.97734 23.3547 8.64496 23.3545C8.31259 23.3547 7.9835 23.4195 7.67649 23.5452C7.36947 23.6709 7.09055 23.8551 6.85564 24.0872C6.62074 24.3193 6.43444 24.5948 6.30741 24.898C6.18037 25.2012 6.11507 25.5261 6.11524 25.8542C6.11498 26.1824 6.18022 26.5074 6.30722 26.8106C6.43422 27.1139 6.6205 27.3895 6.85542 27.6217C7.09033 27.8539 7.36928 28.0381 7.67634 28.1639C7.98339 28.2896 8.31253 28.3544 8.64496 28.3546Z" fill="#709CFF"/>
</svg>
