<svg width="50" height="50" viewBox="0 0 50 50" fill="none" xmlns="http://www.w3.org/2000/svg">
<path d="M27.0552 22.9884L29.1673 21.5284L29.5292 21.2658C29.5384 21.2592 29.5978 21.2109 29.6076 21.2098C29.6353 21.2065 29.757 21.2648 29.7883 21.2762L30.3551 21.4696C31.0673 21.6997 31.7489 21.8809 32.492 21.9919L33.5448 22.071C33.5734 22.1244 33.564 22.0985 33.5764 22.1475L32.7592 27.7588L30.7312 39.027L29.2575 45.026C28.8765 46.3099 28.458 47.6721 27.7596 48.8244C27.5702 49.1371 27.2654 49.5069 26.9735 49.7268C26.8868 49.7922 26.7854 49.8442 26.6826 49.8795L26.4422 49.9038H26.1537L25.9734 49.8861C25.8942 49.8677 25.815 49.8269 25.7472 49.7829C25.2773 49.4782 24.9524 48.8944 24.6951 48.4114C24.276 47.6246 23.9435 46.8089 23.6241 45.9771L22.9168 44.0703L21.6146 40.2999L18.9078 30.3931L16.9297 21.8297L18.6034 21.611C18.9915 21.9699 19.3277 22.3758 19.7477 22.702L20.1858 23.0074C20.6674 23.3081 21.1404 23.5507 21.6895 23.7062L22.4684 23.891C23.127 23.9884 23.8121 23.9857 24.4704 23.8795C24.69 23.8441 24.9034 23.767 25.1235 23.7412L25.1452 23.7389C25.8145 23.5727 26.4362 23.2874 27.0552 22.9884Z" fill="#856331"/>
<path d="M20.1853 23.0074C20.0383 23.1743 19.8381 23.3071 19.6641 23.4462L18.6069 24.3156C18.5521 24.2251 18.5491 24.0516 18.5254 23.9448C18.4418 23.5679 18.3691 23.1861 18.2598 22.8157C18.3975 22.7706 18.5462 22.7561 18.689 22.7333C18.9589 22.6904 19.2644 22.6372 19.5352 22.6758L19.7472 22.702L20.1853 23.0074Z" fill="#AA8353"/>
<path d="M22.4677 37.9069C22.3201 37.8764 22.1907 37.8546 22.0465 37.8047C21.9761 37.661 21.9427 37.4875 21.8976 37.3335L21.6568 36.5326L20.4648 32.0276L21.0042 31.5605C21.2663 33.1828 21.6072 34.7569 22.0255 36.3459L22.3188 37.4024C22.3678 37.57 22.4037 37.7445 22.4677 37.9069Z" fill="#AA8353"/>
<path d="M20.8044 29.743C20.5083 29.664 20.1703 29.6415 19.8655 29.5956L18.9785 26.0075C19.1349 25.8248 19.319 25.6619 19.4932 25.4963C19.8347 25.1716 20.1851 24.8584 20.5568 24.5684C20.5472 25.9822 20.5395 27.3738 20.6699 28.7846C20.6974 29.0819 20.7073 29.4646 20.8044 29.743Z" fill="#AA8353"/>
<path d="M21.0039 31.5605L21.2899 31.3175L22.5859 31.604C22.6833 33.1412 22.9514 34.6936 23.2248 36.2081L23.3596 36.9134C23.3906 37.0758 23.4078 37.2417 23.4762 37.393L22.8329 38.0398L22.4674 37.9069C22.4034 37.7445 22.3675 37.57 22.3185 37.4024L22.0252 36.3459C21.6069 34.7569 21.2661 33.1828 21.0039 31.5605Z" fill="#C2A477"/>
<path d="M21.6892 23.7062L22.4682 23.891C22.4155 24.2826 22.4157 24.6846 22.399 25.0796L22.344 27.3829L22.3519 28.2959C22.3545 28.4773 22.3766 28.6787 22.3367 28.8555L21.4627 29.438C21.3202 29.5333 21.1682 29.6583 21.0137 29.7303C20.946 29.7618 20.9032 29.7616 20.8301 29.7491L20.8031 29.743C20.706 29.4646 20.6961 29.0819 20.6686 28.7846C20.5382 27.3738 20.5459 25.9822 20.5555 24.5684L21.6892 23.7062Z" fill="#C2A477"/>
<path d="M27.0547 22.9884L29.1668 21.5284L29.5287 21.2658C29.5379 21.2592 29.5973 21.2109 29.6071 21.2098C29.6348 21.2065 29.7566 21.2648 29.7878 21.2762L30.3547 21.4696C31.0668 21.6997 31.7484 21.8809 32.4915 21.9919C32.4514 22.5889 32.3365 23.1869 32.2511 23.7793C32.1751 24.3061 32.1286 24.8723 31.9739 25.3824C31.8406 25.3863 31.5838 25.4238 31.4662 25.3784C31.3292 25.3256 31.1941 25.2255 31.0718 25.1449L30.5523 24.8169L28.1668 23.4694C27.8301 23.2967 27.4525 23.0634 27.0771 22.9933L27.0547 22.9884Z" fill="#AA8353"/>
<path d="M22.5859 31.604C22.9987 31.6723 23.3943 31.793 23.7951 31.9106C25.358 32.3688 26.8944 33.0267 28.3074 33.8374L26.1032 35.2528C25.177 35.8975 24.2952 36.617 23.4763 37.393C23.4078 37.2417 23.3906 37.0758 23.3596 36.9134L23.2248 36.2081C22.9514 34.6936 22.6833 33.1412 22.5859 31.604Z" fill="#AA8353"/>
<path d="M29.6879 34.7067C29.918 34.8258 30.1504 35.0062 30.3517 35.1693L29.0827 40.7618L26.5052 39.4138L24.4238 38.518L25.356 37.6302C26.6665 36.4851 28.1549 35.5229 29.6879 34.7067Z" fill="#AA8353"/>
<path d="M22.4694 23.891C23.128 23.9884 23.8131 23.9857 24.4714 23.8795C24.691 23.8441 24.9044 23.767 25.1245 23.7412L25.1462 23.7389L25.1819 23.7552C25.2752 23.7961 25.3826 23.8019 25.4797 23.8383L26.5223 24.2585C27.2733 24.59 28.0121 24.9671 28.728 25.3681L29.3883 25.7601C27.6813 26.2326 25.9703 26.8597 24.3956 27.6759L22.3379 28.8555C22.3778 28.6787 22.3557 28.4773 22.3531 28.2959L22.3453 27.3829L22.4002 25.0796C22.4169 24.6846 22.4168 24.2826 22.4694 23.891Z" fill="#AA8353"/>
<path d="M23.1785 40.01L23.3767 39.7039L24.033 39.9515C24.4962 40.0758 24.9329 40.2687 25.3729 40.4571C26.5192 40.9477 27.6269 41.5246 28.6913 42.1742C28.706 42.2611 28.6434 42.3954 28.6176 42.4806L28.4169 43.1849C28.111 44.3033 27.8607 45.4519 27.4852 46.5492C27.3071 47.0696 27.1011 47.6711 26.7872 48.1236C26.7036 48.2441 26.6233 48.3341 26.4736 48.3601C26.3108 48.3882 26.2137 48.3542 26.0803 48.259C25.8713 48.1101 25.7142 47.8494 25.5794 47.6337C25.268 47.1361 25.0413 46.6046 24.8133 46.0654C24.2867 44.8206 23.8664 43.5409 23.4317 42.2621L23.0096 41.0128C22.9536 40.8459 22.8769 40.6711 22.8422 40.4993C22.8364 40.4702 22.837 40.465 22.8359 40.4394L23.0921 40.1108C23.1126 40.0859 23.1508 40.0249 23.1785 40.01Z" fill="#AA8353"/>
<path d="M23.1797 40.01L23.3779 39.7039L24.0342 39.9515L25.9585 45.99C25.8413 45.8605 25.7687 45.6835 25.6896 45.528L25.2462 44.6205L24.8744 43.9304L24.0912 42.2434L23.4949 40.7912C23.389 40.5312 23.3062 40.2618 23.1797 40.01Z" fill="#C2A477"/>
<path d="M30.8614 27.0844L31.0061 27.0689C31.2872 27.0529 31.493 27.2407 31.6849 27.4211C31.6517 27.8264 31.5774 28.2223 31.5115 28.6231L31.2851 30.0464L31.0573 31.3721C30.9902 31.7669 30.9412 32.1839 30.8292 32.5684L29.8068 33.0727L25.7768 31.0786L22.957 30.1375C23.7539 29.6622 24.5562 29.183 25.3895 28.7734C27.1232 27.9212 28.9577 27.3813 30.8614 27.0844Z" fill="#AA8353"/>
<path d="M16.9305 21.8297C16.0557 21.8173 15.1807 21.7424 14.3404 21.4824C12.9801 21.0616 11.6197 20.1609 10.9515 18.865C10.4706 17.9323 10.2945 16.8887 10.6236 15.8772C11.04 14.5973 12.1999 13.5139 13.3809 12.9215L13.5807 12.8284C13.4411 12.1053 13.4177 11.3677 13.462 10.6334C13.5813 8.65446 14.2414 6.7824 15.3521 5.14172C17.0432 2.64372 19.7869 0.909026 22.7378 0.344162C23.4929 0.199615 24.2579 0.148315 25.0255 0.149322C25.6129 0.150092 26.1874 0.17304 26.7707 0.249858C28.4853 0.475653 30.1952 1.14913 31.6224 2.12246C33.942 3.7045 35.6787 6.16049 36.2036 8.9395L36.4374 10.8505C37.7777 11.2565 39.3736 11.7394 40.0908 13.0617C40.3653 13.5679 40.3636 14.2075 40.1984 14.7486C40.0281 15.3057 39.7085 15.8134 39.3363 16.2572C39.2732 16.332 38.7687 16.8521 38.7653 16.8714C38.7639 16.8798 38.7725 16.8868 38.7763 16.8946C38.9007 17.159 38.9779 17.3962 39.0225 17.6854C39.2556 19.2013 37.9488 20.5295 36.7216 21.1786C36.1202 21.4967 35.4696 21.777 34.803 21.9233C34.4405 22.0028 34.0747 22.0366 33.7062 22.0698C33.6223 22.0774 33.6136 22.0755 33.5772 22.1475C33.5648 22.0985 33.5742 22.1244 33.5456 22.071L32.4928 21.9919C31.7497 21.8809 31.0681 21.6997 30.356 21.4696L29.7891 21.2762C29.7579 21.2648 29.6361 21.2065 29.6084 21.2098C29.5986 21.2109 29.5392 21.2592 29.53 21.2658L29.1681 21.5284L27.056 22.9884C26.437 23.2874 25.8153 23.5727 25.146 23.7389L25.1243 23.7412C24.9042 23.767 24.6908 23.8441 24.4713 23.8795C23.8129 23.9857 23.1278 23.9884 22.4692 23.891L21.6903 23.7062C21.1412 23.5507 20.6682 23.3081 20.1866 23.0074L19.7485 22.702C19.3285 22.3758 18.9923 21.9699 18.6042 21.611L16.9305 21.8297Z" fill="#F97495"/>
<path d="M32.0955 18.341L32.3555 18.3345C32.701 18.3404 32.9747 18.4873 33.2075 18.7378C33.371 18.9138 33.4665 19.157 33.4563 19.3976C33.4458 19.6461 33.3236 19.8986 33.1378 20.0642C32.7867 20.377 32.4274 20.4123 31.9759 20.3767C31.604 20.3148 31.2497 20.2188 30.9229 20.026C30.7003 19.8946 30.5753 19.7544 30.5078 19.5012C30.5358 19.3881 30.5609 19.2781 30.6271 19.1801C30.9376 18.7203 31.5661 18.436 32.0955 18.341Z" fill="#FEFEFE"/>
<path d="M23.8809 0.981561C24.2414 0.924646 24.5991 1.04337 24.9024 1.23445C25.1922 1.41708 25.4379 1.79333 25.5006 2.12994C25.5791 2.55153 25.494 2.97384 25.243 3.32384C25.021 3.63328 24.6863 3.81586 24.3161 3.8785C23.9437 3.93518 23.6114 3.87123 23.2887 3.67369C22.9509 3.46693 22.7247 3.13005 22.6352 2.74658C22.5475 2.37114 22.6246 1.95285 22.8355 1.63055C23.0861 1.2474 23.4514 1.07934 23.8809 0.981561Z" fill="#FEFEFE"/>
<path d="M26.7192 18.27C26.8747 18.2623 27.0252 18.2707 27.1798 18.2875C27.7879 18.3535 29.0656 18.6884 29.4485 19.1808C29.4779 19.2186 29.4969 19.2258 29.4913 19.2732C29.3132 19.5229 29.004 19.7072 28.7749 19.9097C28.4315 20.2132 28.1156 20.5448 27.7457 20.8181C27.5396 20.9586 27.3474 21.069 27.0974 21.1088C26.6376 21.1819 26.1596 21.0415 25.7937 20.7618C25.5253 20.5567 25.313 20.2368 25.2741 19.8975C25.231 19.5208 25.3204 19.1601 25.5605 18.8659C25.8488 18.5126 26.2713 18.3184 26.7192 18.27Z" fill="#FEFEFE"/>
<path d="M20.7398 2.40201L20.7891 2.39857C21.033 2.39224 21.2846 2.48072 21.4628 2.64867C21.6654 2.83968 21.7849 3.11073 21.7836 3.38974C21.7829 3.54529 21.7507 3.66219 21.6446 3.77832C21.4383 4.00426 21.1096 4.16949 20.8624 4.35564C20.3482 4.74273 19.8415 5.17659 19.393 5.63895C18.7714 6.27985 18.1888 6.96395 17.6906 7.70627C16.0648 10.1287 15.1775 13.1293 15.2214 16.0461C15.2274 16.2069 15.2431 16.3685 15.1987 16.5251C15.0845 16.2777 15.0273 16.0019 14.9633 15.7378C14.8012 15.0682 14.6847 14.3812 14.6083 13.6967C14.2615 10.5891 15.0236 7.42867 16.9947 4.97289C17.6377 4.17167 18.4252 3.43047 19.3188 2.916C19.7748 2.65345 20.2139 2.45914 20.7398 2.40201Z" fill="#FEFEFE"/>
</svg>
