<svg width="50" height="50" viewBox="0 0 50 50" fill="none" xmlns="http://www.w3.org/2000/svg">
<path d="M23.9475 0.0164366C24.3547 -0.00807396 24.7656 0.0020087 25.1735 0.00228723C25.576 0.00259361 26.0017 -0.00904879 26.4004 0.0427019C27.0868 0.131775 27.7718 0.174697 28.4546 0.30101C32.2431 1.00173 35.7343 2.84949 38.4591 5.5693C40.9497 8.05509 42.7067 11.225 43.5048 14.6507C43.7461 15.6867 43.9012 16.7615 43.9606 17.8236C44.0352 19.1659 43.9809 20.5372 43.9809 21.8825C43.9809 24.1149 43.9809 26.3473 43.9812 28.5797C43.9812 35.7195 43.9759 42.8591 43.9829 49.9986L26.0661 49.9989L6.02047 50L6.0183 49.9735C5.98253 49.4903 6.01019 48.9864 6.01041 48.5004C6.01089 47.5598 6.01164 46.6192 6.0122 45.6786C6.01395 42.7685 6.0132 39.8585 6.0144 36.9484C6.0161 32.7967 6.01523 28.6449 6.01632 24.4933C6.01668 23.1866 6.0171 21.8798 6.01763 20.5731C6.01796 19.6941 5.98966 18.8035 6.03214 17.9258C6.08318 16.8713 6.23515 15.7899 6.46843 14.7598C7.19626 11.5459 8.73716 8.68727 10.9092 6.22368C11.324 5.75316 11.7884 5.31347 12.2526 4.89225C14.1548 3.16646 16.4683 1.78969 18.9111 0.984826C19.656 0.739359 20.4077 0.555502 21.1691 0.373901C21.4699 0.302152 21.7815 0.266472 22.0868 0.220515C22.7056 0.127347 23.3227 0.0608063 23.9475 0.0164366Z" fill="url(#paint0_linear_5320_21631)"/>
<path d="M14.002 7.00139L17.9999 7L18 22.9975L14 23L14.002 7.00139Z" fill="#FEFEFE"/>
<path d="M10 27L23 27.0036L22.9977 30.8997L18.3895 30.8966L18.3874 38.3343L18.388 42.9961L14.6271 43L14.629 30.9028L10.0061 30.9089L10 27Z" fill="#FEFEFE"/>
<path d="M26.0007 27L30.1931 27.0022C30.1713 29.1877 30.191 31.3748 30.191 33.5603C30.191 34.2957 30.191 35.0314 30.191 35.7669C30.191 36.3395 30.1089 37.0249 30.2886 37.5753C30.4483 38.0644 30.8415 38.5684 31.3347 38.8063C31.5705 38.9201 31.8007 39.0283 32.0673 39.0637L32.1195 39.0701L32.4247 39.0934C33.0853 39.1004 33.669 38.9067 34.1416 38.464C34.4523 38.1727 34.6894 37.7639 34.7658 37.3593C34.8401 36.9642 34.804 36.5371 34.8043 36.1355C34.8049 35.4752 34.8049 34.8152 34.8046 34.1552C34.804 31.7705 34.8037 29.3858 34.8031 27.0011L39 27.0028L38.9943 30.9727C38.994 32.2741 38.9907 33.5756 38.9928 34.877C38.9934 35.4115 38.9949 35.9461 38.9943 36.4806C38.994 36.8331 39.0033 37.1904 38.9663 37.5419C38.8203 38.9346 38.1513 40.231 37.0977 41.2241C35.8868 42.3652 34.2228 42.9924 32.5071 42.9999C30.8307 43.0072 29.1721 42.3942 27.9797 41.2911C27.1336 40.5087 26.5216 39.5723 26.2219 38.493C25.9666 37.5747 26.001 36.6684 26.0022 35.729C26.0028 34.9883 26.0025 34.2476 26.0028 33.5065C26.0031 31.3378 26.0078 29.1688 26.0007 27Z" fill="#FEFEFE"/>
<path d="M31.8697 7.02188C32.297 6.98362 32.7412 7.00336 33.1694 7.02218C33.215 7.04788 33.2004 7.04704 33.2437 7.05077C34.669 7.17433 36.0531 7.81723 37.0619 8.75384C37.939 9.56838 38.5365 10.5608 38.8255 11.6817C39.0303 12.4761 38.998 13.2742 38.9983 14.0843C38.9983 14.7999 38.9965 15.5156 38.9959 16.2313C38.9941 18.4856 38.9938 20.7399 38.9983 22.9942L34.8036 23C34.815 20.7061 34.8054 18.4116 34.8051 16.1176C34.8051 15.3923 34.8051 14.667 34.8051 13.9418C34.8051 13.5657 34.8353 13.1665 34.7932 12.7939C34.7606 12.5095 34.657 12.2592 34.5152 12.0086C34.2149 11.478 33.6906 11.1469 33.0876 10.9749C32.8878 10.93 32.7033 10.915 32.4982 10.915C31.8653 10.9147 31.2903 11.1289 30.8454 11.5526C30.5307 11.8524 30.3167 12.2403 30.2355 12.652C30.1558 13.0573 30.1898 13.4929 30.1898 13.9047C30.1901 14.5483 30.191 15.192 30.1907 15.8356C30.1895 18.222 30.191 20.6083 30.1934 22.9947L26.0044 22.9997C26.0041 20.6178 26.0032 18.2359 26.0026 15.8539C26.0023 15.1619 26.0023 14.47 26.0029 13.778C26.0035 13.2901 25.9808 12.7873 26.0539 12.3034C26.1745 11.5038 26.4319 10.727 26.8738 10.0288C27.6933 8.73462 29.0042 7.71419 30.5612 7.28127C30.8547 7.19969 31.1523 7.13374 31.4539 7.0848C31.5733 7.06545 31.6957 7.06851 31.8127 7.03775L31.8697 7.02188Z" fill="#FEFEFE"/>
<defs>
<linearGradient id="paint0_linear_5320_21631" x1="5.85147" y1="49.7117" x2="44.1274" y2="11.3106" gradientUnits="userSpaceOnUse">
<stop stop-color="#FFDF72"/>
<stop offset="1" stop-color="#F1B4B4"/>
</linearGradient>
</defs>
</svg>
