<svg width="50" height="50" viewBox="0 0 50 50" fill="none" xmlns="http://www.w3.org/2000/svg">
  <path
    d="M24.9998 1.24937e-06C23.152 0.00941371 21.324 0.392497 19.6203 1.12744C17.9167 1.86239 16.3707 2.93485 15.0707 4.28343C13.7706 5.63199 12.7421 7.23034 12.0436 8.98714C11.3452 10.744 10.9907 12.6249 11.0002 14.5224V19.3193H22.375V12.3696C22.3749 12.0432 22.4373 11.72 22.5589 11.4184C22.6804 11.1169 22.8587 10.8429 23.0834 10.6121C23.3081 10.3813 23.5749 10.1983 23.8686 10.0734C24.1622 9.94848 24.4769 9.88426 24.7948 9.88432H25.2049C25.5227 9.88426 25.8375 9.9485 26.1311 10.0734C26.4248 10.1983 26.6916 10.3813 26.9165 10.6121C27.1412 10.8429 27.3194 11.1169 27.4411 11.4184C27.5626 11.72 27.6252 12.0432 27.6252 12.3696V31C29.1189 31 30.5981 30.6979 31.9782 30.111C33.3582 29.5239 34.6122 28.6635 35.6685 27.579C36.7248 26.4943 37.5626 25.2065 38.1342 23.7894C38.7058 22.3723 39 20.8532 39 19.3193V14.5224C39.0081 10.6777 37.5337 6.98605 34.8992 4.25423C33.6066 2.90615 32.0656 1.83574 30.3659 1.10536C28.6664 0.374982 26.8423 -0.000790759 24.9998 1.24937e-06Z"
    fill="#000000" />
  <path
    d="M25.2048 40.1595H24.7948C24.477 40.1595 24.1623 40.0951 23.8687 39.97C23.5751 39.8449 23.3083 39.6614 23.0836 39.4301C22.8589 39.1989 22.6807 38.9245 22.5591 38.6224C22.4375 38.3203 22.375 37.9963 22.3751 37.6693V19C20.8813 18.9998 19.4022 19.3024 18.0221 19.8906C16.6421 20.4789 15.3882 21.3409 14.3319 22.4279C13.2757 23.5149 12.4378 24.8053 11.8663 26.2256C11.2947 27.6457 11.0006 29.1679 11.0007 30.7051V35.4451C10.9818 37.3494 11.3299 39.2387 12.0249 41.0037C12.72 42.7687 13.7481 44.3744 15.05 45.7279C16.3518 47.0813 17.9015 48.1558 19.6093 48.8891C21.3172 49.6224 23.1495 50 25 50C26.8506 50 28.6828 49.6224 30.3907 48.8891C32.0986 48.1558 33.6483 47.0813 34.9502 45.7279C36.252 44.3744 37.2801 42.7687 37.9751 41.0037C38.6702 39.2387 39.0182 37.3494 38.9993 35.4451V30.7051H27.6251V37.6693C27.6251 37.9964 27.5624 38.3203 27.4408 38.6224C27.3191 38.9245 27.1408 39.1991 26.9161 39.4303C26.6914 39.6616 26.4246 39.8449 26.1309 39.97C25.8374 40.0951 25.5226 40.1595 25.2048 40.1595Z"
    fill="#000000" />
</svg>