<svg width="50" height="50" viewBox="0 0 50 50" fill="none" xmlns="http://www.w3.org/2000/svg">
<g clip-path="url(#clip0_5976_4262)">
<path d="M45 30.9427C45 34.5156 42.8366 37.0292 39.3238 38.6506C35.8104 40.2723 30.9498 41 25.5631 41C20.1765 41 15.2843 40.2724 11.7393 38.6506C8.19485 37.0291 6 34.5154 6 30.9427C6 27.3687 8.18073 24.1334 11.71 21.7908C15.2392 19.4484 20.1151 18 25.5 18C30.8848 18 35.7607 19.4515 39.2899 21.7956C42.8192 24.1398 45 27.3751 45 30.9427Z" fill="#24A95A" stroke="#138D3E" stroke-width="0.0387094"/>
<path d="M30.9096 11.5015L30.9198 11.5037L30.9265 11.4956C32.1755 9.97541 34.0679 9 36.1874 9C39.947 9 43 12.0657 43 15.8406C43 17.082 42.672 18.2348 42.1043 19.2355L42.0998 19.2433L42.1036 19.2515C42.6465 20.4177 42.9368 21.6597 42.9368 22.9525C42.9368 26.2788 40.9871 29.2902 37.8314 31.4709C34.6759 33.6515 30.3158 35 25.5 35C20.6843 35 16.3243 33.6515 13.1686 31.4709C10.0129 29.2902 8.06324 26.2788 8.06324 22.9525C8.06324 21.6597 8.35353 20.4177 8.89636 19.2515L8.90017 19.2433L8.89572 19.2355C8.328 18.2348 8 17.082 8 15.8406C8 12.0657 11.053 9 14.8126 9C16.9195 9 18.8119 9.97539 20.0736 11.4957L20.0803 11.5038L20.0906 11.5014C21.7967 11.108 23.6167 10.905 25.5 10.905C27.3833 10.905 29.2033 11.1207 30.9096 11.5015Z" fill="#32DA6D" stroke="#138D3E" stroke-width="0.0387094"/>
<path d="M14 20C16.2092 20 18 17.9853 18 15.5C18 13.0147 16.2092 11 14 11C11.7908 11 10 13.0147 10 15.5C10 17.9853 11.7908 20 14 20Z" fill="white"/>
<path d="M36.5 20C38.9853 20 41 17.9853 41 15.5C41 13.0147 38.9853 11 36.5 11C34.0148 11 32 13.0147 32 15.5C32 17.9853 34.0148 20 36.5 20Z" fill="white"/>
<path d="M2.6213 38.5625C2.6369 38.5562 2.63687 38.5561 2.63682 38.556L2.63564 38.5527L2.63186 38.5424L2.61706 38.5015C2.60405 38.4655 2.58489 38.4123 2.56027 38.3429C2.51102 38.2043 2.43994 38.0016 2.35261 37.7457C2.17797 37.2338 1.93837 36.5086 1.67856 35.6558C1.15889 33.9501 0.558556 31.7342 0.235345 29.6921C0.0737355 28.6712 -0.0184996 27.6942 0.00311748 26.8465C0.0247449 25.9984 0.160301 25.2818 0.452554 24.78C0.744 24.2796 1.19185 23.9914 1.84288 24.0002C2.49546 24.009 3.35291 24.3161 4.4608 25.01C11.1194 29.1796 12.6337 36.1116 12.9907 39.314C13.0881 40.2077 12.4063 41 11.5412 41H1.13054C0.444805 41 0.193273 40.0544 0.793934 39.6891L2.62963 38.5779L2.64209 38.5703L2.63682 38.556L2.6213 38.5625Z" fill="#32DA6D"/>
<path d="M2.63682 38.556C2.63687 38.5561 2.6369 38.5562 2.6213 38.5625L2.63682 38.556ZM2.63682 38.556L2.63564 38.5527L2.63186 38.5424L2.61706 38.5015C2.60405 38.4655 2.58489 38.4123 2.56027 38.3429C2.51102 38.2043 2.43994 38.0016 2.35261 37.7457C2.17797 37.2338 1.93837 36.5086 1.67856 35.6558C1.15889 33.9501 0.558556 31.7342 0.235345 29.6921C0.0737355 28.6712 -0.0184996 27.6942 0.00311748 26.8465C0.0247449 25.9984 0.160301 25.2818 0.452554 24.78C0.744 24.2796 1.19185 23.9914 1.84288 24.0002C2.49546 24.009 3.35291 24.3161 4.4608 25.01C11.1194 29.1796 12.6337 36.1116 12.9907 39.314C13.0881 40.2077 12.4063 41 11.5412 41H1.13054C0.444805 41 0.193273 40.0544 0.793934 39.6891L2.62963 38.5779L2.64209 38.5703L2.63682 38.556Z" stroke="#138D3E" stroke-width="0.0387094"/>
<path d="M47.5645 38.5567L47.5806 38.5625C47.571 38.5591 47.5671 38.5576 47.5656 38.557C47.5645 38.5566 47.5644 38.5567 47.5645 38.5567L47.5648 38.5558L47.5657 38.5532L47.5691 38.5429L47.5828 38.5021C47.5948 38.4661 47.6125 38.4127 47.6353 38.3434C47.6808 38.2048 47.7465 38.0022 47.8272 37.7462C47.9885 37.2343 48.21 36.5091 48.4501 35.6563C48.9301 33.9506 49.4848 31.7345 49.7831 29.6924C49.9323 28.6714 50.0173 27.6943 49.997 26.8465C49.9767 25.9982 49.851 25.2814 49.5805 24.7794C49.4453 24.5286 49.2742 24.3318 49.0623 24.1988C48.8505 24.0657 48.597 23.9958 48.296 24.0002C47.6933 24.009 46.9008 24.3157 45.8763 25.0096C39.7334 29.1788 38.323 36.1238 38.0082 39.3137C37.9208 40.2097 38.5449 41 39.3395 41H48.9667C49.2783 41 49.4934 40.7653 49.5613 40.4819C49.6293 40.1988 49.5488 39.8712 49.2726 39.6887L47.5645 38.5567ZM47.5645 38.5567L47.56 38.5699L47.5715 38.5774L49.2726 39.6887L47.5645 38.5567Z" fill="#32DA6D"/>
<path d="M47.5645 38.5567L47.5806 38.5625C47.571 38.5591 47.5671 38.5576 47.5656 38.557C47.5645 38.5566 47.5644 38.5567 47.5645 38.5567ZM47.5645 38.5567L47.5648 38.5558L47.5657 38.5532L47.5691 38.5429L47.5828 38.5021C47.5948 38.4661 47.6125 38.4127 47.6353 38.3434C47.6808 38.2048 47.7465 38.0022 47.8272 37.7462C47.9885 37.2343 48.21 36.5091 48.4501 35.6563C48.9301 33.9506 49.4848 31.7345 49.7831 29.6924C49.9323 28.6714 50.0173 27.6943 49.997 26.8465C49.9767 25.9982 49.851 25.2814 49.5805 24.7794C49.4453 24.5286 49.2742 24.3318 49.0623 24.1988C48.8505 24.0657 48.597 23.9958 48.296 24.0002C47.6933 24.009 46.9008 24.3157 45.8763 25.0096C39.7334 29.1788 38.323 36.1238 38.0082 39.3137C37.9208 40.2097 38.5449 41 39.3395 41H48.9667C49.2783 41 49.4934 40.7653 49.5613 40.4819C49.6293 40.1988 49.5488 39.8712 49.2726 39.6887M47.5645 38.5567L49.2726 39.6887M47.5645 38.5567L47.56 38.5699L47.5715 38.5774L49.2726 39.6887" stroke="#138D3E" stroke-width="0.0387094"/>
<path d="M14.5 18C15.8807 18 17 16.8807 17 15.5C17 14.1193 15.8807 13 14.5 13C13.1193 13 12 14.1193 12 15.5C12 16.8807 13.1193 18 14.5 18Z" fill="#092511"/>
<path d="M36.5 18C37.8807 18 39 16.8807 39 15.5C39 14.1193 37.8807 13 36.5 13C35.1193 13 34 14.1193 34 15.5C34 16.8807 35.1193 18 36.5 18Z" fill="#092511"/>
<path d="M32 25.2631C31.9267 26.2272 31.6863 27.1655 31.2926 28.0244C30.8988 28.8834 30.3593 29.6461 29.705 30.2692C29.0507 30.8923 28.2944 31.3634 27.4792 31.6557C26.664 31.948 25.8059 32.0558 24.9538 31.9729C24.1018 31.89 23.2725 31.6179 22.5134 31.1723C21.7544 30.7268 21.0802 30.1164 20.5295 29.376C19.979 28.6357 19.5625 27.7798 19.3042 26.8575C19.0458 25.9351 18.9507 24.9641 19.024 24L25.512 24.6316L32 25.2631Z" fill="#092511"/>
</g>
<defs>
<clipPath id="clip0_5976_4262">
<rect width="50" height="50" fill="white"/>
</clipPath>
</defs>
</svg>
