<svg width="50" height="50" viewBox="0 0 50 50" fill="none" xmlns="http://www.w3.org/2000/svg">
  <path
    d="M41.8148 2.96198C41.4705 1.81199 40.9106 0.745223 40.1087 0C28.4121 11.7155 16.6436 23.4991 5 35.1616C8.98335 35.1616 13.9427 35.1616 16.9463 35.1465C24.2056 27.9213 32.1609 20.0227 39.3975 12.7861C42.1817 10.0019 42.9344 6.69566 41.8148 2.96198Z"
    fill="#02B14F" />
  <path
    d="M41.0618 40.6884C40.5096 38.8575 39.3747 37.4276 38.0129 36.1338C37.5097 35.6572 36.9801 35.1389 36.9801 35.1389C36.9801 35.1389 37.5287 34.5942 38.028 34.0949C39.0153 33.1076 39.9724 32.0937 40.9938 31.1405C43.5585 28.7421 44.6214 25.8218 44.0805 22.3567C43.8195 20.6922 43.1196 19.2056 42.0605 18.0669C36.2614 23.8623 30.5417 29.5781 24.9053 35.2108C29.5733 39.894 34.3511 44.6831 39.1591 49.51C41.3115 46.9944 42.0038 43.7979 41.0618 40.6884Z"
    fill="#02B14F" />
</svg>