<svg width="50" height="50" viewBox="0 0 50 50" fill="none" xmlns="http://www.w3.org/2000/svg">
  <path fill-rule="evenodd" clip-rule="evenodd"
    d="M19.8565 7.46705C15.342 8.42041 11.3908 10.521 8.00791 13.7665C3.92274 17.6858 1.65629 21.9065 0.460298 27.8218C-0.157463 30.8766 -0.153982 32.828 0.474219 35.9472C1.29409 40.0182 2.45354 41.6515 5.00289 42.3256C6.69732 42.7739 7.89505 42.3761 10.9871 40.3381C15.7194 37.2192 19.64 35.9961 24.9527 35.9812C30.5931 35.9653 34.9157 37.3229 39.677 40.6054C42.5366 42.5767 44.1714 42.9489 46.0833 42.0636C48.8296 40.7921 50.0069 37.6834 50 31.721C49.9948 27.0929 48.8398 22.5849 46.6748 18.7389C45.1968 16.1137 41.3573 12.2369 38.5305 10.5153C36.191 9.09063 33.2782 7.95653 30.4668 7.37581C27.868 6.8391 22.6161 6.88409 19.8565 7.46705Z"
    fill="#0077FE" />
</svg>