<svg width="50" height="50" viewBox="0 0 50 50" fill="none" xmlns="http://www.w3.org/2000/svg">
  <path d="M0 20.2789H1.67364V29.5537H0V20.2789Z" fill="#000" />
  <path d="M4.53278 20.2789H6.20642V29.5537H4.53278V20.2789Z" fill="#000" />
  <path d="M9.06555 20.2789H10.7392V29.5537H9.06555V20.2789Z" fill="#000" />
  <path d="M9.62343 20.2789V21.9526L0.348675 21.9526L0.348675 20.2789L9.62343 20.2789Z" fill="#000" />
  <circle cx="17.6782" cy="24.7768" r="4.04463" stroke="#000" stroke-width="1.46444" />
  <circle cx="28.6958" cy="24.7768" r="4.04463" stroke="#000" stroke-width="1.46444" />
  <path d="M35.7041 20.2789H37.3777V29.5537H35.7041V20.2789Z" fill="#000" />
  <path d="M41.0737 20.2789H42.7473V29.5537H41.0737V20.2789Z" fill="#000" />
  <path d="M35.7041 20.2789H42.7473V21.8828H35.7041V20.2789Z" fill="#000" />
  <rect x="46.0547" y="26.225" width="0.348675" height="3.41057" transform="rotate(17.1387 46.0547 26.225)"
    fill="#000" />
  <rect width="0.348675" height="3.52071" transform="matrix(-0.955594 0.294685 0.294685 0.955594 46.3857 26.1197)"
    fill="#000" />
  <rect width="0.348675" height="3.27755" transform="matrix(-1 -8.74228e-08 -8.74228e-08 1 49.2334 26.2761)"
    fill="#000" />
  <rect width="0.348675" height="1.88285" transform="matrix(-4.37114e-08 -1 -1 4.37114e-08 50 26.6248)" fill="#000" />
  <rect width="0.348675" height="1.88285" transform="matrix(-4.37114e-08 -1 -1 4.37114e-08 50 29.5537)" fill="#000" />
  <rect width="0.209205" height="1.3947" transform="matrix(-4.37114e-08 1 1 4.37114e-08 45.4678 28.3682)" fill="#000" />
</svg>