<svg width="50" height="50" viewBox="0 0 50 50" fill="none" xmlns="http://www.w3.org/2000/svg">

  <path
    d="M33.204 15L38.044 15.002V17.006L33.977 21.073C33.892 21.158 33.844 21.273 33.844 21.393C33.844 21.643 34.047 21.846 34.297 21.846H38.044V36.251L33.244 31.449V21.806L25 30.052L16.756 21.806V31.449L11.956 36.251V21.846H15.703C15.953 21.846 16.156 21.643 16.156 21.393C16.156 21.273 16.108 21.158 16.023 21.073L11.956 17.006V15.002L16.796 15L25 23.206L33.204 15ZM7.454 15.002H2.086C0.744 18.066 0 21.448 0 25C0 29.044 0.966 32.868 2.68 36.25H8.232C6.066 33.034 4.8 29.162 4.8 25C4.8 21.366 5.766 17.952 7.454 15.002ZM25 0C16.822 0 9.548 3.946 4.984 10.034L8.422 13.472C12.074 8.234 18.144 4.8 25 4.8C31.856 4.8 37.926 8.234 41.578 13.472L45.014 10.034C40.45 3.946 33.178 0 25 0ZM47.914 15.002H42.546C44.234 17.952 45.2 21.366 45.2 25C45.2 29.162 43.934 33.034 41.768 36.25H47.32C49.034 32.868 50 29.044 50 25C50 21.448 49.256 18.066 47.914 15.002ZM40.144 38.352C36.44 42.549 31.024 45.2 25 45.2C18.976 45.2 13.56 42.548 9.856 38.352L6.458 41.751C11.036 46.814 17.653 50.001 25 50.001C32.347 50.001 38.964 46.814 43.542 41.751L40.144 38.352Z"
    fill="#000" />
</svg>