<svg width="50" height="50" viewBox="0 0 50 50" fill="none" xmlns="http://www.w3.org/2000/svg">
<path d="M50 25C50 11.1929 38.8071 0 25 0C11.1929 0 0 11.1929 0 25C0 38.8071 11.1929 50 25 50C38.8071 50 50 38.8071 50 25Z" fill="url(#paint0_radial_4651_12060)"/>
<path d="M37.8906 15.918C37.8446 15.4869 37.7094 15.0701 37.4936 14.6941C37.2777 14.3181 36.9861 13.9911 36.637 13.7339C36.288 13.4768 35.8893 13.295 35.4663 13.2003C35.0432 13.1055 34.6051 13.0999 34.1797 13.1836C33.6914 13.1836 33.3008 13.3789 32.5195 13.7695L31.1523 14.4531C29.7852 15.0391 28.3203 15.1367 26.8555 14.7461L25.3906 14.3555L24.3164 13.9648C21.6797 13.0859 20.3125 12.5977 19.043 12.8906C17.7734 13.0859 16.6016 13.7695 15.918 14.7461C15.0391 15.8203 14.8438 17.1875 14.3555 19.9219L12.3047 32.4219L12.1094 34.082C12.207 34.9609 12.5977 35.8398 13.3789 36.3281C14.0625 36.8164 14.9414 37.1094 15.8203 36.9141L17.4805 36.1328L18.75 35.5469C20.2148 34.9609 21.6797 34.8633 23.1445 35.2539L24.5117 35.6445L25.6836 36.0352C27.832 36.7187 29.1016 37.207 30.2734 37.207L30.957 37.1094C32.2266 36.9141 33.3008 36.2305 34.082 35.2539C34.9609 34.1797 35.1562 32.8125 35.6445 30.0781L37.6953 17.6758L37.8906 15.918Z" fill="white"/>
<defs>
<radialGradient id="paint0_radial_4651_12060" cx="0" cy="0" r="1" gradientUnits="userSpaceOnUse" gradientTransform="translate(25) rotate(90) scale(50)">
<stop stop-color="#99EEFF"/>
<stop offset="0.5" stop-color="#BB33FF"/>
<stop offset="0.9" stop-color="#2200CC"/>
<stop offset="1" stop-color="#00AACC"/>
</radialGradient>
</defs>
</svg>
