<svg width="50" height="50" viewBox="0 0 50 50" fill="none" xmlns="http://www.w3.org/2000/svg">
  <path
    d="M20.9302 19.7835C19.7344 19.9741 18.9227 21.0776 19.1175 22.248C19.3125 23.4185 20.44 24.2128 21.6361 24.0219L20.9302 19.7835ZM45.2468 28.8046C45.2468 29.9904 46.2293 30.9518 47.441 30.9518C48.6527 30.9518 49.6351 29.9904 49.6351 28.8046H45.2468ZM3.98835 24.6656C3.25147 23.7243 1.87425 23.5455 0.912208 24.2668C-0.0498248 24.9876 -0.232352 26.3356 0.504505 27.2769L3.98835 24.6656ZM23.9941 31.7012L24.9272 33.6448C25.5873 33.3411 26.0503 32.7362 26.1622 32.0306C26.2741 31.3252 26.0204 30.6115 25.4853 30.1262L23.9941 31.7012ZM23.0838 22.4778C23.3473 21.3201 22.6021 20.1727 21.4192 19.9151C20.2365 19.6572 19.064 20.3864 18.8004 21.5437L23.0838 22.4778ZM45.5877 25.0268C45.5877 35.8322 36.4188 44.674 25.0036 44.674V48.9685C38.7488 48.9685 49.976 38.2948 49.976 25.0268H45.5877ZM25.0036 44.674C13.5884 44.674 4.41959 35.8322 4.41959 25.0268H0.03125C0.03125 38.2948 11.2585 48.9685 25.0036 48.9685V44.674ZM4.41959 25.0268C4.41959 14.2214 13.5884 5.37966 25.0036 5.37966V1.08521C11.2585 1.08521 0.03125 11.7588 0.03125 25.0268H4.41959ZM25.0036 5.37966C36.4188 5.37966 45.5877 14.2214 45.5877 25.0268H49.976C49.976 11.7588 38.7488 1.08521 25.0036 1.08521V5.37966ZM21.6361 24.0219C24.6219 23.5458 30.7675 22.0744 36.3365 22.2623C39.107 22.3557 41.3768 22.8627 42.9007 23.8627C44.2684 24.7603 45.2468 26.186 45.2468 28.8046H49.6351C49.6351 24.8758 48.0271 22.0561 45.3447 20.2959C42.8178 18.6378 39.5734 18.0744 36.4876 17.9702C30.3445 17.763 23.4115 19.3877 20.9302 19.7835L21.6361 24.0219ZM0.504505 27.2769C5.26708 33.3619 10.8364 35.2986 15.5536 35.4807C20.16 35.6585 23.7968 34.1644 24.9272 33.6448L23.061 29.758C22.2275 30.141 19.332 31.3289 15.7267 31.1897C12.2317 31.0546 7.90895 29.6748 3.98835 24.6656L0.504505 27.2769ZM25.4853 30.1262C24.2743 29.0282 23.341 27.9261 23.0742 26.9113L18.8243 27.9815C19.436 30.308 21.254 32.1444 22.5028 33.2762L25.4853 30.1262ZM23.0742 26.9113C22.7321 25.61 22.7143 24.1006 23.0838 22.4778L18.8004 21.5437C18.3007 23.7388 18.2878 25.941 18.8243 27.9815L23.0742 26.9113Z"
    fill="#1267d6" />
</svg>