<svg width="50" height="50" viewBox="0 0 50 50" fill="none" xmlns="http://www.w3.org/2000/svg">

  <g mask="url(#mask0_4990_4045)">
    <path
      d="M2.27648 24.4927C2.27648 22.0027 3.72234 20.6698 5.46047 20.6698C7.19858 20.6698 8.64443 22.0027 8.64443 24.4927C8.64443 26.9973 7.19858 28.3302 5.46047 28.3302C3.72234 28.3302 2.27648 26.9973 2.27648 24.4927ZM10.9209 24.4927C10.9209 21.1971 8.78288 19 5.46047 19C2.13804 19 0 21.1971 0 24.4927C0 27.7883 2.13804 30 5.46047 30C8.78288 30 10.9209 27.7883 10.9209 24.4927Z"
      fill="#000" />
    <path
      d="M19.1531 29.8099L21.8911 21.8272V29.8099H23.9368V19.1907H20.7067L18.0764 27.4663L15.3693 19.1907H12.1699V29.8099H14.2157V21.8272L16.969 29.8099H19.1531Z"
      fill="#000" />
    <path
      d="M35.0193 29.8099V19.1907H32.9427V27.2906L28.4821 19.1907H25.6211V29.8099H27.6976V21.71L32.1583 29.8099H35.0193Z"
      fill="#000" />
    <path d="M38.9144 19.1907H36.7148V29.8099H38.9144V19.1907Z" fill="#000" />
    <path
      d="M39.4629 29.8099H41.7086L42.493 27.6567H46.8307L47.6152 29.8099H49.9992L45.8309 19.1907H43.6159L39.4629 29.8099ZM44.6619 21.7539L46.2 25.943H43.1237L44.6619 21.7539Z"
      fill="#000" />
  </g>
</svg>