<svg width="50" height="50" viewBox="0 0 50 50" fill="none" xmlns="http://www.w3.org/2000/svg">
<path d="M9.06641 43.6172C8.95067 43.5073 8.82593 43.3484 8.7126 43.2362C8.59922 43.124 8.48705 43.0107 8.37608 42.8962C8.26516 42.7817 8.15545 42.6662 8.04694 42.5495C7.93848 42.4328 7.83124 42.315 7.72524 42.1961C7.61924 42.0773 7.51454 41.9573 7.41114 41.8363C7.30769 41.7153 7.20554 41.5933 7.1047 41.4702C7.00385 41.3472 6.90433 41.2231 6.80614 41.098C6.70795 40.9729 6.6111 40.8469 6.51561 40.7198C6.42011 40.5928 6.32597 40.4648 6.23318 40.3358C6.14038 40.2069 6.04896 40.077 5.95891 39.9462C5.86891 39.8153 5.78029 39.6836 5.69304 39.551C5.60583 39.4184 5.52005 39.2849 5.43569 39.1506C5.35129 39.0162 5.26833 38.881 5.18681 38.7449C5.1053 38.6089 5.02525 38.472 4.94668 38.3344C4.8681 38.1967 4.79098 38.0583 4.71529 37.9191C4.63966 37.7798 4.56552 37.6399 4.49288 37.4991C4.42018 37.3584 4.34901 37.217 4.27935 37.0748C4.20969 36.9326 4.14156 36.7898 4.07494 36.6462C4.00832 36.5026 3.94324 36.3584 3.87971 36.2135C3.81617 36.0687 3.75418 35.9232 3.69373 35.777C3.63323 35.6309 3.57433 35.4842 3.51701 35.3368C3.4597 35.1895 3.40395 35.0416 3.34977 34.8932C3.29558 34.7447 3.24297 34.5957 3.19192 34.4462C3.14092 34.2966 3.09151 34.1466 3.04369 33.9961C2.99587 33.8455 2.94966 33.6945 2.90507 33.5431C2.86044 33.3916 2.81744 33.2397 2.77608 33.0873C2.73472 32.935 2.69497 32.7823 2.65684 32.6291C2.61871 32.476 2.58222 32.3225 2.54737 32.1686C2.51252 32.0147 2.4793 31.8605 2.44773 31.7059C2.41615 31.5513 2.38622 31.3964 2.35792 31.2413C2.32963 31.0861 2.30299 30.9307 2.27802 30.7749C2.25305 30.6193 2.22975 30.4633 2.2081 30.3071C2.1826 30.1219 2.15941 29.9364 2.13854 29.7506C2.11772 29.5648 2.09923 29.3788 2.08308 29.1926C2.06693 29.0064 2.05315 28.82 2.04172 28.6334C2.03025 28.4468 2.02116 28.2602 2.01446 28.0734C2.00771 27.8866 2.00333 27.6998 2.0013 27.5129C1.99928 27.326 1.99961 27.1391 2.00231 26.9523C2.00501 26.7654 2.01008 26.5786 2.0175 26.3918C2.02492 26.2051 2.03468 26.0184 2.04678 25.8319C2.05893 25.6454 2.07342 25.459 2.09024 25.2728C2.10706 25.0867 2.12622 24.9007 2.14772 24.715C2.16927 24.5293 2.19313 24.3439 2.21931 24.1588C2.24553 23.9736 2.27407 23.7888 2.30492 23.6044C2.33577 23.42 2.36894 23.2359 2.40442 23.0522C2.43994 22.8686 2.47776 22.6854 2.51787 22.5027C2.55802 22.3199 2.60047 22.1377 2.6452 21.956C2.68989 21.7742 2.73689 21.5931 2.7862 21.4125C2.83551 21.2319 2.88709 21.052 2.94094 20.8726C2.99474 20.6933 3.05082 20.5146 3.1092 20.3366C3.16753 20.1586 3.2281 19.9813 3.29091 19.8048C3.35377 19.6282 3.41882 19.4525 3.48607 19.2775C3.55331 19.1025 3.62275 18.9284 3.69438 18.7551C3.76606 18.5818 3.83989 18.4094 3.91586 18.2378C3.99188 18.0663 4.07005 17.8957 4.15035 17.726C4.23066 17.5564 4.31309 17.3877 4.39765 17.2201C4.4822 17.0524 4.56887 16.8858 4.65767 16.7202C4.74641 16.5546 4.83725 16.3901 4.93019 16.2267C5.02308 16.0634 5.11805 15.9011 5.21508 15.74C5.31207 15.5789 5.41109 15.419 5.51212 15.2602C5.61316 15.1015 5.7162 14.944 5.82124 14.7878C5.92628 14.6315 6.03324 14.4766 6.14214 14.3229C6.25108 14.1692 6.36195 14.0169 6.47475 13.8659C6.58751 13.7149 6.70216 13.5653 6.81872 13.417C6.91629 13.2929 7.01518 13.1697 7.1154 13.0476C7.21562 12.9255 7.31709 12.8044 7.41981 12.6843C7.52259 12.5642 7.62664 12.4452 7.73197 12.3273C7.83725 12.2093 7.94378 12.0924 8.05157 11.9766C8.15935 11.8608 8.26837 11.7461 8.37861 11.6325C8.48886 11.5189 8.60028 11.4064 8.71289 11.2951C8.8255 11.1837 8.93929 11.0735 9.05426 10.9645C9.16918 10.8555 9.28528 10.7477 9.40256 10.641C9.51979 10.5343 9.63816 10.4288 9.75766 10.3245C9.87716 10.2202 9.99775 10.1172 10.1194 10.0154C10.2411 9.91355 10.3638 9.81295 10.4877 9.7136C10.6115 9.61426 10.7363 9.51616 10.8622 9.41931C10.9881 9.3225 11.1151 9.22697 11.243 9.1327C11.3709 9.03848 11.4999 8.94556 11.6298 8.85393C11.7597 8.7623 11.8906 8.67199 12.0224 8.583C12.1542 8.49401 12.287 8.40635 12.4207 8.32004C12.5544 8.23378 12.6889 8.14886 12.8244 8.06528C12.9599 7.98174 13.0963 7.89957 13.2336 7.81877C13.3708 7.73796 13.5089 7.65857 13.6479 7.58059C13.7868 7.50256 13.9266 7.42597 14.0671 7.35081C14.2076 7.27565 14.349 7.20191 14.4911 7.12958C14.6332 7.05729 14.7761 6.98644 14.9198 6.91702C15.0634 6.84761 15.2078 6.77967 15.3528 6.71322C15.4979 6.64672 15.6437 6.58171 15.7901 6.51818C15.9366 6.45464 16.0837 6.39262 16.2315 6.3321C16.3793 6.27153 16.5277 6.21248 16.6767 6.15494C16.8258 6.09741 16.9754 6.04138 17.1256 5.98688C17.2758 5.93237 17.4266 5.87939 17.5779 5.82794C17.7293 5.77649 17.8812 5.72658 18.0336 5.67821C18.186 5.62984 18.3389 5.58301 18.4923 5.53774C18.6457 5.49247 18.7996 5.44875 18.954 5.40659C19.1083 5.36444 19.263 5.32386 19.4182 5.28484C20.6005 4.98659 21.7911 4.80984 23 4.65378C22.2948 5.03366 21.5922 5.37685 20.9235 5.82019C18.9793 7.10896 17.1803 8.91076 16.7236 11.2313C16.1463 11.6416 15.4635 11.9386 14.8658 12.3349C14.6023 12.5093 14.3437 12.6902 14.0898 12.8776C13.8359 13.065 13.5871 13.2587 13.3435 13.4587C13.0998 13.6586 12.8616 13.8645 12.6289 14.0765C12.3961 14.2884 12.169 14.5061 11.9478 14.7295C11.7265 14.9528 11.5112 15.1816 11.3021 15.4158C11.0929 15.6501 10.89 15.8894 10.6934 16.1338C10.4969 16.3783 10.3069 16.6275 10.1235 16.8815C9.94012 17.1355 9.76355 17.3939 9.59382 17.6568C9.51312 17.7815 9.43399 17.9072 9.35643 18.0338C9.27887 18.1603 9.20292 18.2878 9.12859 18.4162C9.05421 18.5446 8.98146 18.6739 8.91036 18.8041C8.83921 18.9342 8.76972 19.0652 8.7019 19.197C8.63403 19.3288 8.56784 19.4614 8.50334 19.5948C8.4388 19.7282 8.37594 19.8623 8.31476 19.9972C8.25359 20.1321 8.19413 20.2677 8.13638 20.404C8.07859 20.5402 8.02252 20.6772 7.96819 20.8149C7.91382 20.9525 7.86118 21.0907 7.81028 21.2297C7.75942 21.3685 7.7103 21.508 7.66291 21.6481C7.61548 21.7882 7.56983 21.9288 7.52596 22.0699C7.48209 22.2111 7.43999 22.3528 7.39964 22.4949C7.35929 22.6371 7.32075 22.7797 7.28402 22.9228C7.24724 23.0659 7.21227 23.2094 7.1791 23.3533C7.14594 23.4972 7.11458 23.6415 7.08503 23.7862C7.05543 23.9308 7.02767 24.0758 7.00173 24.2212C6.9758 24.3665 6.9517 24.5121 6.92942 24.658C6.90715 24.8039 6.88669 24.95 6.86804 25.0964C6.84943 25.2428 6.83263 25.3894 6.81764 25.5362C6.80269 25.683 6.78958 25.8299 6.7783 25.977C6.76702 26.1241 6.75757 26.2713 6.74996 26.4187C6.74239 26.566 6.73663 26.7134 6.73268 26.8609C6.72877 27.0083 6.72672 27.1558 6.72653 27.3034C6.72629 27.4509 6.7279 27.5983 6.73137 27.7458C6.73485 27.8933 6.74017 28.0407 6.74735 28.1881C6.75449 28.3354 6.7635 28.4827 6.7744 28.6298C6.78524 28.777 6.79792 28.9239 6.81243 29.0708C6.82694 29.2176 6.84331 29.3643 6.86153 29.5107C6.8797 29.6571 6.89973 29.8033 6.92162 29.9493C6.94345 30.0952 6.96712 30.2409 6.99262 30.3863C7.01812 30.5317 7.04543 30.6768 7.07455 30.8215C7.10371 30.9663 7.13466 31.1107 7.16739 31.2547C7.19718 31.3858 7.22844 31.5166 7.26117 31.647C7.2939 31.7774 7.32813 31.9075 7.36385 32.0372C7.39957 32.1669 7.43676 32.2961 7.47542 32.425C7.51408 32.5539 7.55419 32.6824 7.59574 32.8104C7.63734 32.9384 7.68039 33.0659 7.72488 33.193C7.76937 33.3201 7.81529 33.4466 7.86263 33.5727C7.91001 33.6988 7.95882 33.8243 8.00905 33.9493C8.05928 34.0744 8.11093 34.1988 8.164 34.3227C8.21708 34.4466 8.27155 34.5699 8.32742 34.6927C8.38329 34.8154 8.44056 34.9374 8.49922 35.0589C8.55784 35.1804 8.61785 35.3012 8.67927 35.4214C8.74068 35.5415 8.80344 35.661 8.86756 35.7798C8.93172 35.8986 8.9972 36.0167 9.06402 36.1341C9.13083 36.2515 9.19897 36.3681 9.26843 36.484C9.33789 36.5999 9.40868 36.7151 9.4808 36.8294C9.55291 36.9438 9.6263 37.0574 9.70097 37.1701C9.77564 37.2829 9.85159 37.3948 9.92882 37.5059C10.0061 37.617 10.0846 37.7273 10.1643 37.8367C10.2441 37.9461 10.325 38.0547 10.4073 38.1624C10.4895 38.27 10.5729 38.3767 10.6575 38.4826C10.7422 38.5884 10.828 38.6933 10.9151 38.7973C11.0021 38.9013 11.0904 39.0043 11.1797 39.1064C11.2691 39.2085 11.3596 39.3095 11.4513 39.4096C11.543 39.5097 11.6358 39.6088 11.7298 39.7069C11.8237 39.805 11.9188 39.902 12.015 39.998C12.1111 40.094 12.2083 40.189 12.3066 40.2829C12.4049 40.3768 12.5043 40.4696 12.6048 40.5614C12.7052 40.6531 12.8067 40.7438 12.9092 40.8334C13.0117 40.9229 13.1152 41.0113 13.2197 41.0986C13.3242 41.1859 13.4297 41.272 13.5362 41.357C13.6426 41.442 13.75 41.5259 13.8584 41.6085C13.9668 41.6912 14.0761 41.7727 14.1864 41.853C14.6634 42.2012 15.0829 42.6484 15.5932 42.9483C15.5972 42.9644 16.3317 43.4014 16.724 43.6438C16.026 43.8527 15.0783 43.6432 14.3334 43.6438C13.1075 43.6446 11.8787 43.663 10.6532 43.6418C10.1208 43.6325 9.59772 43.6154 9.06641 43.6172Z" fill="url(#paint0_linear_5846_4195)"/>
<path d="M36.5166 0H36.574C36.4206 0.211342 35.1849 0.936071 34.8773 1.14877C34.4206 1.46584 33.9724 1.79474 33.5328 2.13547C32.1528 3.2224 30.8014 4.47768 29.6888 5.84267C30.5173 5.68335 31.3567 5.64322 32.1812 5.49034C34.2973 5.09795 35.6248 3.77128 36.8105 2.06948C36.3231 3.84114 35.4882 5.60998 34.1306 6.87861C35.4487 6.0295 36.8859 5.63591 38.4438 5.98794C39.7227 6.27693 40.638 7.09785 41.5232 8.02024C40.4576 7.46252 39.4534 7.27841 38.2832 7.6453C37.8112 7.79333 37.4177 8.0373 37.0122 8.31658C39.117 8.2787 41.2518 8.92584 42.803 10.4119C42.8586 10.4654 42.9126 10.5205 42.965 10.5772C41.7206 10.3583 40.4907 10.3254 39.2465 10.5627C41.2794 10.6091 43.1202 11.2836 44.5503 12.7776C44.6659 12.8964 44.7769 13.0192 44.8835 13.1461C44.9901 13.273 45.0919 13.4037 45.189 13.5381C45.2861 13.6726 45.3781 13.8104 45.4651 13.9517C45.5521 14.0929 45.6339 14.2372 45.7104 14.3844C44.5716 13.7363 43.3388 13.4403 42.0356 13.6949C43.6723 13.8231 45.1543 14.6317 46.2164 15.884C46.8768 16.6628 47.3075 17.5752 47.5455 18.5669C46.4084 17.8952 45.5151 17.425 44.1732 17.2844C45.7553 18.1564 47.1239 19.4277 47.6502 21.2156C47.6878 21.3477 47.7207 21.4811 47.749 21.6156C47.7773 21.7501 47.8008 21.8855 47.8195 22.0217C47.8383 22.1579 47.8523 22.2946 47.8614 22.4317C47.8706 22.5689 47.8749 22.7063 47.8745 22.8438C47.284 22.1862 46.6916 21.7229 45.9301 21.2837L45.8411 21.294L45.8017 21.2388C45.7888 21.3474 45.8375 21.4149 45.9015 21.499C46.2015 21.8934 46.5298 22.2421 46.8045 22.6597C47.7635 24.1178 48.1424 25.9131 47.9525 27.6424C47.9389 27.766 47.9229 27.8862 47.8941 28.0071C47.7002 27.7666 47.5153 27.5133 47.3141 27.2795C47.4703 28.4827 47.4441 29.2645 47.4109 30.4562C47.19 30.1606 46.9865 29.8522 46.7799 29.5464C46.7658 30.1691 46.7645 30.7919 46.7761 31.4146C46.6655 31.3785 46.5522 31.3211 46.437 31.3605C46.3129 31.4951 45.9114 33.4411 45.8024 33.8297C45.6047 34.5344 45.3758 35.2451 45.1001 35.9229C44.954 36.2921 44.7984 36.6572 44.6333 37.0182C44.4682 37.3792 44.2939 37.7356 44.1102 38.0874C43.9266 38.4393 43.734 38.786 43.5323 39.1277C43.3307 39.4693 43.1203 39.8055 42.9012 40.1361C42.7804 40.3173 42.657 40.4966 42.5309 40.6742C42.4049 40.8518 42.2763 41.0274 42.1451 41.2012C42.0139 41.3749 41.8802 41.5467 41.7441 41.7164C41.6079 41.8862 41.4692 42.054 41.3281 42.2197C41.1871 42.3854 41.0436 42.5489 40.8977 42.7104C40.7519 42.8719 40.6037 43.0311 40.4531 43.1882C40.3026 43.3452 40.1498 43.5 39.9948 43.6526C39.8398 43.8051 39.6825 43.9554 39.5231 44.1033C39.3637 44.2512 39.2021 44.3967 39.0385 44.5398C38.8748 44.6829 38.7091 44.8236 38.5413 44.9618C38.3735 45.1 38.2037 45.2357 38.032 45.369C37.8602 45.5021 37.6866 45.6328 37.5111 45.7608C37.3355 45.8889 37.1581 46.0143 36.9789 46.1371C36.7997 46.26 36.6187 46.3801 36.4359 46.4976C36.2532 46.615 36.0688 46.7298 35.8827 46.8418C35.6967 46.9538 35.509 47.0631 35.3197 47.1696C35.1305 47.276 34.9397 47.3797 34.7474 47.4805C34.5551 47.5813 34.3614 47.6792 34.1662 47.7743C33.9711 47.8694 33.7745 47.9616 33.5767 48.0509C33.3788 48.1402 33.1798 48.2265 32.9794 48.3099C32.779 48.3933 32.5775 48.4737 32.3748 48.5512C32.172 48.6286 31.9682 48.703 31.7634 48.7744C31.5585 48.8458 31.3526 48.9142 31.1457 48.9795C30.9388 49.0448 30.731 49.1071 30.5223 49.1663C30.3136 49.2255 30.1041 49.2815 29.8937 49.3345C29.6834 49.3875 29.4723 49.4373 29.2605 49.484C29.0487 49.5308 28.8363 49.5744 28.6232 49.6149C28.4101 49.6553 28.1965 49.6926 27.9824 49.7268C27.7682 49.7609 27.5536 49.7918 27.3386 49.8196C27.1235 49.8474 26.9081 49.872 26.6923 49.8934C26.4765 49.9149 26.2604 49.9331 26.0441 49.9481C25.8278 49.9631 25.6113 49.975 25.3947 49.9836C25.2134 49.9906 25.0321 49.9954 24.8506 49.9979C24.6692 50.0004 24.4878 50.0007 24.3064 49.9987C24.125 49.9967 23.9436 49.9925 23.7623 49.9861C23.581 49.9796 23.3997 49.9709 23.2186 49.96C23.0376 49.9491 22.8566 49.9359 22.6758 49.9205C22.4951 49.9051 22.3145 49.8875 22.1341 49.8676C21.9538 49.8478 21.7737 49.8257 21.5939 49.8014C21.4141 49.7771 21.2346 49.7505 21.0554 49.7218C20.8763 49.6931 20.6975 49.6621 20.5191 49.6289C20.3407 49.5958 20.1627 49.5604 19.9851 49.5229C19.8076 49.4853 19.6305 49.4456 19.4539 49.4037C19.2774 49.3618 19.1013 49.3176 18.9258 49.2713C18.7503 49.2251 18.5754 49.1766 18.4011 49.126C18.2268 49.0754 18.0531 49.0227 17.8801 48.9678C17.707 48.9129 17.5347 48.8559 17.363 48.7967C17.1914 48.7376 17.0205 48.6763 16.8504 48.613C16.6802 48.5496 16.5109 48.4841 16.3423 48.4166C16.1738 48.349 16.0061 48.2794 15.8392 48.2077C15.6724 48.136 15.5064 48.0622 15.3414 47.9864C15.1763 47.9106 15.0122 47.8328 14.849 47.7529C14.6859 47.6731 14.5237 47.5912 14.3626 47.5074C14.2014 47.4235 14.0413 47.3377 13.8822 47.2499C13.7232 47.1621 13.5652 47.0723 13.4083 46.9806C13.2514 46.8888 13.0957 46.7952 12.9411 46.6997C12.7866 46.6041 12.6332 46.5066 12.4809 46.4073C12.3287 46.3079 12.1777 46.2067 12.028 46.1036C11.8783 46.0005 11.7298 45.8956 11.5826 45.7888C11.4354 45.6821 11.2896 45.5736 11.1451 45.4632C11.0005 45.3528 10.8573 45.2407 10.7155 45.1268C10.5738 45.0129 10.4334 44.8973 10.2944 44.7799C10.1554 44.6626 10.0179 44.5435 9.8818 44.4227C9.74575 44.302 9.61117 44.1795 9.47806 44.0555C9.30949 43.8977 9.14554 43.734 9 43.5542C9.5066 43.5524 10.0151 43.6164 10.5227 43.6255C11.6913 43.6463 12.8629 43.6282 14.0318 43.6274C14.742 43.6268 15.79 43.6933 16.4555 43.488C16.9772 43.7627 17.4954 44.0162 18.0429 44.235C18.1768 44.2885 18.3113 44.3402 18.4464 44.3904C18.5816 44.4405 18.7173 44.489 18.8536 44.5358C18.99 44.5825 19.1268 44.6276 19.2643 44.671C19.4017 44.7144 19.5396 44.7561 19.6781 44.796C19.8165 44.836 19.9554 44.8742 20.0948 44.9108C20.2342 44.9473 20.374 44.9821 20.5142 45.0152C20.6545 45.0482 20.7951 45.0796 20.9361 45.1092C21.0771 45.1387 21.2185 45.1665 21.3601 45.1926C21.5018 45.2187 21.6438 45.243 21.786 45.2656C21.9283 45.2882 22.0709 45.309 22.2136 45.328C22.3564 45.3471 22.4994 45.3644 22.6426 45.3798C22.7858 45.3953 22.9292 45.4091 23.0728 45.421C23.2163 45.433 23.36 45.4431 23.5037 45.4515C23.6476 45.4599 23.7914 45.4665 23.9354 45.4713C24.0794 45.4762 24.2233 45.4792 24.3673 45.4804C24.5114 45.4817 24.6554 45.4812 24.7994 45.4789C24.9434 45.4766 25.0874 45.4725 25.2313 45.4666C25.3752 45.4608 25.519 45.4531 25.6627 45.4437C25.8065 45.4342 25.9501 45.423 26.0936 45.41C26.237 45.397 26.3803 45.3823 26.5234 45.3658C26.6665 45.3492 26.8093 45.3309 26.9519 45.3108C27.0946 45.2908 27.237 45.2689 27.3791 45.2453C27.5212 45.2217 27.663 45.1963 27.8045 45.1692C27.946 45.1421 28.0871 45.1133 28.2279 45.0827C28.3687 45.0521 28.5091 45.0197 28.6491 44.9856C28.7891 44.9515 28.9286 44.9157 29.0677 44.8782C29.2068 44.8406 29.3455 44.8014 29.4836 44.7604C29.6218 44.7194 29.7594 44.6768 29.8966 44.6324C30.0337 44.588 30.1702 44.5419 30.3062 44.4942C30.4422 44.4464 30.5776 44.3969 30.7124 44.3458C30.8471 44.2947 30.9813 44.242 31.1147 44.1875C31.2483 44.133 31.3811 44.077 31.5132 44.0193C31.6236 43.971 31.7335 43.9217 31.8429 43.8712C31.9524 43.8208 32.0613 43.7692 32.1697 43.7165C32.2781 43.6637 32.3859 43.6099 32.4932 43.555C32.6005 43.5002 32.7073 43.4441 32.8135 43.387C32.9196 43.33 33.0252 43.2718 33.1302 43.2126C33.2352 43.1533 33.3395 43.093 33.4433 43.0316C33.5471 42.9702 33.6503 42.9078 33.7528 42.8443C33.8553 42.7808 33.9572 42.7163 34.0584 42.6507C34.1596 42.5851 34.2601 42.5185 34.36 42.4508C34.4599 42.3832 34.559 42.3146 34.6575 42.2449C34.756 42.1752 34.8538 42.1046 34.9508 42.0329C35.0479 41.9613 35.1442 41.8886 35.2398 41.8149C35.3354 41.7413 35.4302 41.6667 35.5243 41.5912C35.6183 41.5156 35.7116 41.4391 35.8042 41.3615C35.8967 41.2841 35.9884 41.2057 36.0794 41.1263C36.1703 41.0469 36.2605 40.9666 36.3498 40.8855C36.4391 40.8043 36.5276 40.7221 36.6153 40.6391C36.703 40.5561 36.7898 40.4722 36.8757 40.3874C36.9617 40.3026 37.0469 40.2169 37.1311 40.1304C37.2153 40.0439 37.2987 39.9565 37.3812 39.8683C37.4636 39.78 37.5452 39.6909 37.6259 39.601C37.7066 39.5111 37.7863 39.4204 37.8652 39.3288C37.944 39.2373 38.0219 39.145 38.0989 39.0519C38.1759 38.9587 38.2519 38.8648 38.327 38.7701C38.4021 38.6754 38.4762 38.58 38.5494 38.4838C38.6225 38.3876 38.6947 38.2907 38.7659 38.1929C38.8371 38.0953 38.9073 37.9969 38.9765 37.8978C39.0457 37.7987 39.1139 37.6988 39.1811 37.5983C39.2483 37.4978 39.3145 37.3966 39.3796 37.2948C39.4447 37.1929 39.5089 37.0903 39.572 36.9872C39.635 36.884 39.697 36.7802 39.758 36.6758C39.819 36.5713 39.8789 36.4662 39.9378 36.3606C40.4319 35.4679 40.8225 34.5376 41.1953 33.589C41.109 33.6899 41.0213 33.7896 40.9322 33.8881C40.8432 33.9865 40.7527 34.0837 40.6609 34.1796C40.569 34.2754 40.4759 34.3699 40.3814 34.4631C40.2869 34.5563 40.1911 34.6481 40.0939 34.7385C39.9968 34.829 39.8984 34.918 39.7988 35.0056C39.6992 35.0932 39.5983 35.1794 39.4963 35.2641C39.3942 35.3489 39.2909 35.4321 39.1865 35.5139C39.0821 35.5956 38.9765 35.6758 38.8698 35.7546C38.763 35.8333 38.6552 35.9104 38.5463 35.9861C38.4374 36.0617 38.3275 36.1358 38.2165 36.2082C38.1055 36.2807 37.9935 36.3516 37.8805 36.4208C37.7675 36.4901 37.6536 36.5578 37.5386 36.6238C37.4237 36.6897 37.3078 36.7541 37.1911 36.8167C37.0744 36.8794 36.9568 36.9404 36.8383 36.9997C36.7199 37.0589 36.6006 37.1165 36.4804 37.1724C36.3603 37.2283 36.2395 37.2824 36.1178 37.3348C32.4338 38.926 28.4839 38.9757 24.7651 37.4796C27.2904 37.5364 30.0722 37.0789 32.3323 35.9007C32.4263 35.851 32.5197 35.8001 32.6124 35.748C32.7051 35.696 32.7972 35.6428 32.8887 35.5885C32.9801 35.5342 33.0709 35.4787 33.161 35.4222C33.2511 35.3656 33.3405 35.3079 33.4292 35.2491C33.5179 35.1904 33.6058 35.1305 33.6931 35.0696C33.7803 35.0087 33.8668 34.9467 33.9525 34.8836C34.0382 34.8205 34.1232 34.7564 34.2073 34.6912C34.2915 34.626 34.3748 34.5598 34.4574 34.4926C34.5399 34.4254 34.6216 34.3571 34.7025 34.2878C34.7834 34.2186 34.8634 34.1484 34.9425 34.0772C35.0217 34.0059 35.1 33.9337 35.1774 33.8606C35.2548 33.7874 35.3313 33.7133 35.4069 33.6383C35.4825 33.5632 35.5572 33.4872 35.6309 33.4103C35.7047 33.3335 35.7775 33.2557 35.8493 33.177C35.9211 33.0983 35.992 33.0187 36.0619 32.9383C36.1318 32.8579 36.2007 32.7766 36.2687 32.6944C36.3366 32.6122 36.4035 32.5293 36.4695 32.4455C36.5354 32.3617 36.6002 32.2771 36.6641 32.1917C36.7279 32.1063 36.7907 32.0201 36.8524 31.9332C36.9142 31.8463 36.9748 31.7586 37.0345 31.6701C37.0941 31.5817 37.1526 31.4925 37.21 31.4026C37.2674 31.3127 37.3238 31.2222 37.379 31.1309C37.4342 31.0396 37.4883 30.9476 37.5413 30.855C37.5943 30.7624 37.6461 30.6692 37.6968 30.5752C37.7475 30.4814 37.797 30.3869 37.8454 30.2917C37.8938 30.1966 37.9411 30.1009 37.9871 30.0046C38.0332 29.9083 38.0781 29.8115 38.1218 29.7141C38.1655 29.6167 38.208 29.5188 38.2493 29.4203C38.2906 29.3219 38.3308 29.2229 38.3697 29.1235C38.4086 29.0241 38.4463 28.9242 38.4828 28.8238C38.5192 28.7235 38.5545 28.6227 38.5885 28.5215C38.6225 28.4202 38.6552 28.3186 38.6868 28.2165C39.5593 25.4482 39.448 22.6084 38.5407 19.8673C38.3782 19.3765 38.2362 18.8457 37.9995 18.3874C37.9601 18.4516 38.0557 18.6931 38.0803 18.7793C38.9143 21.699 38.8513 24.1178 38.1075 27.0402C38.0044 26.4899 38.0572 25.8644 38.0572 25.3029C38.0573 23.9492 37.8956 22.8471 37.4183 21.5841C36.584 19.3768 34.9472 17.2911 32.7762 16.318C31.738 15.8526 30.3705 15.5288 29.2328 15.7079C28.8789 15.7636 28.5513 15.8852 28.2184 16.0145C27.8903 14.8511 28.5183 14.2166 28.3038 13.2593C28.1731 12.6758 27.7452 12.2459 27.5424 11.6929C27.2639 10.9337 27.4047 10.3482 27.7323 9.63673C26.899 10.644 27.2491 11.3788 27.5945 12.4853C27.6525 12.6714 27.7414 12.9063 27.7398 13.1027C27.7378 13.3369 27.5244 13.418 27.3757 13.5556L27.3996 13.5901C27.5345 13.5658 27.6801 13.5273 27.8062 13.5959C27.8506 13.6763 27.866 13.7096 27.8631 13.8051C27.8577 13.98 27.7966 14.158 27.7719 14.3317C27.709 14.7724 27.7084 15.2446 27.7513 15.6874C27.7846 16.0059 27.842 16.32 27.9235 16.6296C27.9955 16.9001 28.3065 17.4428 28.2434 17.6972C27.8841 17.8387 26.2512 17.6864 25.724 17.677C25.2318 17.6683 24.7336 17.6685 24.2458 17.7393C24.5178 18.091 24.7252 18.4039 24.8681 18.8294C24.2797 18.9787 23.1954 19.0507 22.5386 19.1394C20.8894 19.3621 18.1853 20.0299 16.8103 20.9529C16.4035 21.226 16.168 21.5365 16.0716 22.0211C16.2449 22.639 16.6611 22.9288 17.1145 23.3277C16.5123 23.6063 15.7999 23.681 15.1485 23.5801C14.8122 23.5279 14.1597 23.4026 13.9589 23.1032C13.8938 23.0062 13.8884 22.8967 13.9184 22.787C13.9617 22.6291 14.1125 22.3954 14.2614 22.3205C14.4651 22.2181 14.9323 22.4953 15.1625 22.5525L15.2165 22.5657C15.0019 22.3257 14.6235 22.0574 14.534 21.739C14.4166 21.3208 15.448 20.3623 15.6571 19.9625L15.6395 19.9296C15.5025 19.9814 15.3793 20.1569 15.2796 20.2653C14.5511 21.0572 14.0206 21.9086 13.4677 22.8249C13.1804 22.7215 12.8908 22.6258 12.6799 22.3905C12.5355 22.2293 12.4611 22.0213 12.4859 21.804C12.5342 21.3809 12.8978 21.097 13.2071 20.853C13.057 20.7612 12.9005 20.677 12.7478 20.5897C12.611 21.0428 12.498 21.6381 12.2639 22.0456L12.1978 22.0456C11.9442 21.8451 11.8224 21.5417 11.7523 21.2324C11.5413 20.3011 11.7143 19.1877 12.2144 18.3773C12.2722 18.6281 12.3335 18.98 12.547 19.1423C12.847 19.1598 13.2699 18.7255 13.4934 18.532C13.9997 18.0934 14.6963 17.3426 15.2264 17.0195C15.7246 16.7158 16.342 16.5494 16.8842 16.2164C17.419 15.8879 18.1346 15.4114 18.4149 14.8243C18.5154 14.6139 18.5589 14.3497 18.6127 14.1222C18.3917 14.1798 18.0843 14.2403 17.9115 14.3955C17.7253 14.5629 17.7209 14.7476 17.7118 14.9807C16.9521 15.5584 16.2243 16.1855 15.4917 16.7976C15.6588 16.0841 15.6604 15.2438 15.9474 14.5713C16.1484 14.1 16.7846 13.6323 17.1576 13.2736C17.7796 12.666 18.3971 12.0536 19.0099 11.4366C19.3521 11.0943 19.7742 10.74 20.0475 10.3402C20.5179 9.6522 20.7517 8.06415 21.1479 7.17935C21.166 7.64974 21.1616 8.06082 21.3826 8.48709C21.527 8.49798 21.6714 8.51685 21.8154 8.53239C21.9551 8.3314 22.0986 8.13322 22.2458 7.93783C22.3918 7.74609 22.5409 7.55679 22.6929 7.36991C22.845 7.18303 23.0001 6.99869 23.1582 6.8169C23.3162 6.63511 23.4772 6.45595 23.6411 6.27943C23.8049 6.10291 23.9716 5.92912 24.1411 5.75806C24.3106 5.58699 24.4828 5.41875 24.6577 5.25333C24.8326 5.08791 25.0101 4.92539 25.1903 4.76578C25.3705 4.60617 25.5532 4.44955 25.7384 4.29593C25.9237 4.1423 26.1113 3.99175 26.3014 3.84427C26.4915 3.6968 26.684 3.55247 26.8788 3.41129C27.0735 3.27012 27.2705 3.13216 27.4698 2.99744C27.669 2.86271 27.8703 2.73129 28.0739 2.60315C28.2773 2.47503 28.4828 2.35026 28.6904 2.22886C28.8978 2.10746 29.1073 1.98949 29.3186 1.87495C29.5299 1.7604 29.7431 1.64935 29.958 1.54179C30.1729 1.43423 30.3895 1.33021 30.6078 1.22974C30.8261 1.12927 31.046 1.03241 31.2674 0.939137C32.0843 0.597698 32.9584 0.249629 33.8377 0.128654C33.4118 0.483829 32.8503 0.748388 32.381 1.05195C31.3399 1.72532 30.3834 2.49448 29.4573 3.3173C29.2268 3.52209 28.9554 3.72318 28.7593 3.96119L28.7939 3.98187C30.4484 2.5904 32.4574 1.48355 34.4645 0.703992C34.8594 0.550622 36.283 0.161534 36.5166 0Z" fill="#ED3B27"/>
<defs>
<linearGradient id="paint0_linear_5846_4195" x1="1.85666" y1="25.6451" x2="23.8146" y2="24.1212" gradientUnits="userSpaceOnUse">
<stop stop-color="#D83F21"/>
<stop offset="1" stop-color="#CB2839"/>
</linearGradient>
</defs>
</svg>
