<svg width="50" height="50" viewBox="0 0 50 50" fill="none" xmlns="http://www.w3.org/2000/svg">
<mask id="mask0_4990_4065" style="mask-type:alpha" maskUnits="userSpaceOnUse" x="0" y="3" width="50" height="45">
<path d="M14.2875 20.5499L13.9285 21.7421C13.4978 23.195 12.2057 24.201 10.6982 24.201C8.43688 24.201 6.82171 21.9283 7.46777 19.693L7.8267 18.5008C8.25742 17.0478 9.54958 16.0419 11.0571 16.0419C13.3184 16.0419 14.9335 18.3145 14.2875 20.5499Z" fill="black"/>
<path d="M50 20.1378C50 29.6009 42.6061 37.2756 33.4891 37.2756H20.9624L19.0601 45.8446C18.8807 46.7015 18.1269 47.2975 17.3014 47.2975H16.4399C13.5685 47.2975 11.4149 44.5032 12.061 41.5974L13.0301 37.2756L14.3222 31.3892C14.6094 30.0107 15.7939 29.042 17.1219 29.042H28.6077C29.6486 29.042 30.5818 28.3714 30.9048 27.3655C30.9766 27.1047 31.0125 26.8439 31.0125 26.6204C31.0125 25.3164 30.0075 24.1987 28.6795 24.1987H20.8189C18.9165 24.1987 17.3732 22.783 17.0142 21.032C16.9065 20.4731 16.8707 19.877 17.0142 19.2809V19.2437V19.1692C17.4449 17.3064 19.0242 16.0024 20.8548 16.0024H31.515C32.52 16.0024 33.4891 15.369 33.8122 14.3631C33.884 14.1023 33.9557 13.8416 33.9557 13.5435C33.9557 12.2395 32.9507 11.1218 31.6227 11.1218H3.94916C1.29306 11.1963 -0.609268 8.51391 0.180381 5.90598C0.682885 4.15494 2.22628 3 3.94916 3H33.4891C42.6061 3 50 10.6748 50 20.1378Z" fill="black"/>
</mask>
<g mask="url(#mask0_4990_4065)">
<path d="M-8.89258 62.0634V1.76917L55.1232 1.76917V62.0634H-8.89258Z" fill="url(#paint0_radial_4990_4065)"/>
</g>
<defs>
<radialGradient id="paint0_radial_4990_4065" cx="0" cy="0" r="1" gradientUnits="userSpaceOnUse" gradientTransform="translate(2.11217 35.1592) rotate(-36.4481) scale(45.5494 41.8141)">
<stop stop-color="#85EAFF"/>
<stop offset="0.706211" stop-color="#DADADA"/>
<stop offset="1" stop-color="#FFCB80"/>
</radialGradient>
</defs>
</svg>
