<svg width="50" height="50" viewBox="0 0 50 50" fill="none" xmlns="http://www.w3.org/2000/svg">
  <path
    d="M29.9435 19.9995C29.9435 22.7608 27.7097 24.9996 24.9547 24.9996V29.9997C30.4646 29.9997 34.932 25.522 34.932 19.9995C34.932 14.4771 30.4646 9.9993 24.9547 9.9993C23.1385 9.9993 21.4328 10.4855 19.9662 11.3381C16.9834 13.0659 14.9775 16.2974 14.9775 19.9995V45L19.463 49.4956L19.9662 50V19.9995C19.9662 17.2383 22.1998 14.9993 24.9547 14.9993C27.7097 14.9993 29.9435 17.2383 29.9435 19.9995Z"
    fill="#111522" />
  <path
    d="M24.9545 0C21.3196 0 17.9127 0.974688 14.9772 2.67756C13.0978 3.76533 11.4146 5.15161 9.98861 6.77308C6.88399 10.2987 5 14.9301 5 20.0003V35.0005L9.98861 40.0006V20.0003C9.98861 15.5589 11.9155 11.5674 14.9772 8.81968C16.4167 7.53067 18.1067 6.51299 19.9659 5.85719C21.525 5.30085 23.2059 5.00009 24.9545 5.00009C33.2192 5.00009 39.9204 11.7166 39.9204 20.0003C39.9204 28.284 33.2192 35.0005 24.9545 35.0005V40.0006C35.9764 40.0006 44.9089 31.0453 44.9089 20.0003C44.9089 8.95536 35.9764 0 24.9545 0Z"
    fill="#111522" />
</svg>