<svg width="50" height="50" viewBox="0 0 50 50" fill="none" xmlns="http://www.w3.org/2000/svg">
<g clip-path="url(#clip0_309_1145)">
<path d="M10.9706 0C4.91176 0 0 4.91177 0 10.9706V39.0882C0 45.1471 4.91176 50.0588 10.9706 50.0588H39.0294C45.0882 50.0588 50 45.1471 50 39.0882V10.9706C50 4.91177 45.0882 0 39.0294 0H10.9706Z" fill="#FEDA03"/>
<path d="M34.5886 24.9706C36.1474 24.5588 37.5592 23.3529 37.5592 20.9706C37.5592 16.9706 34.2356 16.0294 29.9415 16.0294H12.9121V34.0294H20.0886V27.9118H28.5886C29.9121 27.9118 30.6768 28.4412 30.6768 29.7353V34H37.8533V29.5C37.8239 27.0882 36.4709 25.5294 34.5886 24.9706Z" fill="black"/>
<path d="M29.7644 21.0588H20.0879V23.5294H29.7644H29.7938C30.4702 23.5294 30.9997 22.9706 30.9997 22.2941C30.9997 21.6177 30.4702 21.0588 29.7938 21.0588C29.7938 21.0588 29.7938 21.0588 29.7644 21.0588Z" fill="#FEDA03"/>
</g>
<defs>
<clipPath id="clip0_309_1145">
<rect width="50" height="50" fill="white"/>
</clipPath>
</defs>
</svg>
