<svg width="50" height="50" viewBox="0 0 50 50" fill="none" xmlns="http://www.w3.org/2000/svg">
  <g opacity="0.07">
    <path opacity="0.07" fill-rule="evenodd" clip-rule="evenodd"
      d="M34.7989 1.07567C31.4695 1.18307 28.8381 4.00232 28.9187 7.35871C28.9455 8.08365 29.0798 8.75488 29.3214 9.39937C29.214 9.37251 29.1067 9.3188 28.9724 9.29194L22.0986 4.00232C21.5885 3.59956 20.9977 3.33109 20.3802 3.17007L12.7278 1.18307C10.6871 0.699754 8.61964 1.93488 8.10948 4.00232C7.86783 4.99586 8.02893 6.01613 8.56594 6.90223C9.10295 7.78833 9.93532 8.40584 10.9019 8.64757L17.5609 10.3391C17.6683 10.3659 17.7757 10.4196 17.8831 10.5002L21.0246 12.8899L12.0834 22.395C11.3584 23.1737 10.9288 24.2208 10.9825 25.3485C11.0093 26.53 11.5195 27.5504 12.3519 28.3022L12.5667 28.4901L12.5935 28.5169L21.4811 36.0082L21.5079 36.0351C21.857 36.3841 22.1254 36.8138 22.1523 37.2971L22.394 45.9967C22.4476 48.2521 24.3541 50.0779 26.6095 49.9974C28.8649 49.9437 30.664 48.0374 30.5834 45.755L30.2881 34.5046C30.2612 33.4575 29.8048 32.4908 29.0261 31.7927L24.0855 27.6308L31.7917 19.6294C33.5101 17.8035 33.9397 15.1722 33.1073 12.9705C33.7787 13.1853 34.4767 13.3196 35.2286 13.2927C38.5581 13.1853 41.1894 10.3928 41.1088 7.00967C40.9209 3.62642 38.1285 0.968257 34.7989 1.07567Z"
      fill="#000" />
  </g>
  <g opacity="0.07">
    <path opacity="0.07" fill-rule="evenodd" clip-rule="evenodd"
      d="M34.7989 1.07567C31.4695 1.18307 28.8381 4.00232 28.9187 7.35871C28.9455 8.08365 29.0798 8.75488 29.3214 9.39937C29.214 9.37251 29.1067 9.3188 28.9724 9.29194L22.0986 4.00232C21.5885 3.59956 20.9977 3.33109 20.3802 3.17007L12.7278 1.18307C10.6871 0.699754 8.61964 1.93488 8.10948 4.00232C7.86783 4.99586 8.02893 6.01613 8.56594 6.90223C9.10295 7.78833 9.93532 8.40584 10.9019 8.64757L17.5609 10.3391C17.6683 10.3659 17.7757 10.4196 17.8831 10.5002L21.0246 12.8899L12.0834 22.395C11.3584 23.1737 10.9288 24.2208 10.9825 25.3485C11.0093 26.53 11.5195 27.5504 12.3519 28.3022L12.5667 28.4901L12.5935 28.5169L21.4811 36.0082L21.5079 36.0351C21.857 36.3841 22.1254 36.8138 22.1523 37.2971L22.394 45.9967C22.4476 48.2521 24.3541 50.0779 26.6095 49.9974C28.8649 49.9437 30.664 48.0374 30.5834 45.755L30.2881 34.5046C30.2612 33.4575 29.8048 32.4908 29.0261 31.7927L24.0855 27.6308L31.7917 19.6294C33.5101 17.8035 33.9397 15.1722 33.1073 12.9705C33.7787 13.1853 34.4767 13.3196 35.2286 13.2927C38.5581 13.1853 41.1894 10.3928 41.1088 7.00967C40.9209 3.62642 38.1285 0.968257 34.7989 1.07567Z"
      fill="#000" />
  </g>
  <path fill-rule="evenodd" clip-rule="evenodd"
    d="M35.8731 0.00178346C32.5437 0.109182 29.9124 2.9016 29.9928 6.28485C30.0197 7.00979 30.154 7.68102 30.3956 8.32551C30.2883 8.29866 30.1809 8.24494 30.0466 8.21808L23.146 2.95532C22.6358 2.55256 22.0451 2.28409 21.4276 2.12298L13.802 0.136029C11.7614 -0.347285 9.69385 0.887846 9.1837 2.95532C8.94204 3.94886 9.10315 4.96913 9.64016 5.85523C10.1772 6.74133 11.0095 7.35884 11.9762 7.60044L18.6351 9.29206C18.7425 9.31892 18.8499 9.37264 18.9573 9.45322L22.0988 11.8429L13.1307 21.3212C12.4058 22.0999 11.9762 23.147 12.0299 24.2747C12.0567 25.4561 12.5669 26.4764 13.3992 27.2283L13.614 27.4162L13.6409 27.4431L22.5284 34.9344L22.5553 34.9612C22.9043 35.3103 23.1729 35.7399 23.1998 36.2232L23.4414 44.9228C23.4951 47.1782 25.4014 49.004 27.6569 48.9236C29.9124 48.8699 31.7113 46.9634 31.6308 44.6811L31.3354 33.4308C31.3086 32.3835 30.8521 31.417 30.0734 30.7189L25.133 26.557L32.839 18.5556C34.5575 16.7297 34.9871 14.0983 34.1548 11.8965C34.826 12.1114 35.5241 12.2457 36.2759 12.2188C39.6054 12.1114 42.2367 9.31892 42.1561 5.93581C41.9951 2.57942 39.2026 -0.0787688 35.8731 0.00178346Z"
    fill="#000" />
  <g opacity="0.5">
    <path opacity="0.2" fill-rule="evenodd" clip-rule="evenodd"
      d="M33.6718 11.5742L29.8859 8.11051L30.1544 8.27154C30.1544 8.27154 29.0267 5.93555 30.4498 3.16994C30.4498 3.16994 31.4164 1.07564 33.5914 0.296978C33.5914 0.296978 27.6574 4.13662 33.6718 11.5742Z"
      fill="#020B1F" />
  </g>
  <g opacity="0.5">
    <path opacity="0.2" fill-rule="evenodd" clip-rule="evenodd"
      d="M32.9994 18.5822L25.1053 26.6106L22.1787 24.2477C23.3333 24.9189 24.7563 25.6707 26.4748 24.2746L32.9994 18.5822Z"
      fill="#000" />
  </g>
  <g opacity="0.5">
    <path opacity="0.2" fill-rule="evenodd" clip-rule="evenodd"
      d="M25.991 13.8024L19.2784 8.56648C19.171 8.4859 19.0636 8.43231 18.9562 8.40545L12.1898 6.66011C9.4242 5.55926 9.1557 3.08898 9.1557 2.90109C9.12885 2.98154 9.102 3.06212 9.07515 3.14269C8.8335 4.13623 9.102 5.07592 9.61217 5.98888C10.1492 6.87498 11.1426 7.43877 12.1361 7.68051L18.5803 9.29142C18.6876 9.31828 18.7951 9.372 18.9025 9.45258L22.0439 11.8423L20.5672 13.3459L25.991 13.8024Z"
      fill="#020B1F" />
  </g>
  <g opacity="0.5">
    <path opacity="0.2" fill-rule="evenodd" clip-rule="evenodd"
      d="M13.0508 26.8793L22.1262 34.5855C22.1262 34.5855 23.0929 35.203 23.1198 36.5187L23.3882 44.8691C23.3882 44.8691 23.3614 48.3061 27.1741 48.8699C27.1741 48.8699 24.6771 48.2524 24.5965 44.896L24.3818 36.465C24.3281 34.5855 23.3614 33.941 23.3614 33.941L13.5341 27.1746L13.0508 26.8793Z"
      fill="#020B1F" />
  </g>
  <path
    d="M14.0432 0.887787C13.8821 0.86094 13.7747 0.67299 13.8284 0.511885C13.8553 0.350781 14.0432 0.243369 14.2043 0.297074L21.4271 2.17661C22.0179 2.33769 22.5817 2.57942 23.0382 2.98218L30.0193 8.32539C30.1536 8.43283 30.1804 8.62072 30.073 8.75501C29.9657 8.88931 29.7777 8.91617 29.6434 8.80873L22.6891 3.46539C22.2863 3.14321 21.803 2.92847 21.2929 2.79417L14.0432 0.887787Z"
    fill="#000" />
  <path
    d="M24.784 27.1478C24.6498 27.0404 24.623 26.8525 24.7573 26.7182C24.8646 26.5839 25.0526 26.5571 25.1867 26.6914L29.993 30.7458C30.7448 31.3633 31.1744 32.3032 31.2282 33.2697L31.5503 44.6275C31.5503 44.7886 31.4162 44.9498 31.255 44.9498C31.0939 44.9498 30.9328 44.8155 30.9328 44.6543L30.6107 33.2697C30.5838 32.4642 30.2348 31.7124 29.6171 31.2023L24.784 27.1478Z"
    fill="#000" />
  <path
    d="M41.6465 8.32526C41.5928 8.48629 41.4318 8.59372 41.2438 8.54C41.0559 8.48629 40.9753 8.32526 41.029 8.13724C41.5124 6.55306 41.4587 5.07631 40.7873 3.70687C40.1429 2.44499 38.8541 1.3709 37.3773 0.860744C37.2162 0.807051 37.1357 0.645947 37.1894 0.457996C37.243 0.296891 37.4042 0.216338 37.5921 0.270031C39.2837 0.807051 40.6531 1.93477 41.3781 3.35783C42.2642 5.21061 42.2373 6.57992 41.6465 8.32526Z"
    fill="#000" />
</svg>