<svg width="50" height="50" viewBox="0 0 50 50" fill="none" xmlns="http://www.w3.org/2000/svg">
  <path
    d="M45 41.7923C45 41.9417 44.987 42.0908 44.9611 42.238C44.9119 42.5598 44.8075 42.8711 44.6524 43.1589L44.5617 43.3109C44.4538 43.4922 44.3225 43.659 44.1709 43.8073L44.0328 43.9425L43.9766 43.9847L43.8428 44.0776V44.0903C43.6959 44.1875 43.4995 44.3142 43.3958 44.3712C42.6862 44.8429 41.9594 45.2844 41.2152 45.6955C40.8676 45.894 40.5135 46.0778 40.1616 46.2594C39.9004 46.3946 39.6327 46.5235 39.3671 46.6502C39.2591 46.7051 39.1519 46.7558 39.0454 46.8023C38.8036 46.9163 38.5682 47.0261 38.3221 47.1296L38.2487 47.1592C37.9522 47.3 37.6514 47.426 37.3462 47.5373C37.3113 47.5539 37.2753 47.568 37.2383 47.5795C36.9684 47.6893 36.6964 47.7907 36.4265 47.89C36.3444 47.9196 36.2624 47.9533 36.176 47.9829C35.5478 48.211 34.9109 48.4159 34.2718 48.6018L34.1811 48.6313C33.8637 48.7243 33.5334 48.813 33.2139 48.8953C32.6849 49.0305 32.1473 49.1573 31.6054 49.2692C31.2621 49.341 30.9166 49.4086 30.5734 49.4677L30.0012 49.5649C29.645 49.624 29.2866 49.6747 28.9217 49.7212C28.5568 49.7676 28.1898 49.8057 27.8206 49.8395C27.4514 49.8733 27.093 49.9028 26.7281 49.9282C25.9962 49.9746 25.2621 50 24.5259 50C23.0822 50.0016 21.6398 49.912 20.2078 49.7317C19.3572 49.6219 18.5087 49.4867 17.6753 49.3093C16.8419 49.1319 16.0906 48.9629 15.309 48.7454C14.7023 48.5785 14.1064 48.3884 13.5127 48.1899C12.31 47.7888 11.1321 47.3198 9.98483 46.7854C8.50843 46.0933 7.08547 45.297 5.72723 44.4029L5.58041 44.31C5.49405 44.2551 5.40769 44.2001 5.32565 44.141L5.07952 43.9699C5.01906 43.915 4.96293 43.8601 4.90679 43.801C4.85066 43.7418 4.79884 43.6869 4.75134 43.632C4.65492 43.5213 4.5696 43.4017 4.49658 43.275C4.34934 43.0416 4.24008 42.7873 4.17272 42.521C4.10829 42.2819 4.07635 42.0354 4.07773 41.7881C4.07844 41.6681 4.08564 41.5483 4.09932 41.4291C4.1353 41.131 4.22062 40.8407 4.35192 40.5694C4.37783 40.5145 4.40374 40.4596 4.43397 40.4089C4.46419 40.3582 4.49874 40.2991 4.53328 40.2442C4.56783 40.1893 4.60669 40.1343 4.64555 40.0794C6.04358 37.7951 7.7261 35.6894 9.6545 33.8107C9.84882 33.6206 10.0453 33.4326 10.2439 33.2468C10.4425 33.0609 10.6433 32.8814 10.8463 32.6997C11.0017 32.5603 11.155 32.4273 11.3148 32.2921C11.3154 32.2885 11.3169 32.2851 11.3192 32.2821C11.3215 32.2792 11.3244 32.2768 11.3278 32.2752C11.9949 31.707 12.6858 31.1558 13.4047 30.6341L13.4868 30.5707L13.5775 30.5031C13.6764 30.4189 13.7809 30.3413 13.8905 30.2708C14.0001 30.1932 14.1148 30.1226 14.2338 30.0596C14.4009 29.962 14.5748 29.8759 14.7541 29.8019C14.8405 29.7639 14.9355 29.7301 15.024 29.7005C15.2109 29.6371 15.4021 29.5863 15.5962 29.5485C15.8932 29.4892 16.1955 29.4595 16.4986 29.4598C16.8374 29.4594 17.1751 29.4976 17.5047 29.5738C17.6127 29.5992 17.7206 29.6287 17.8264 29.6583C18.3273 29.8094 18.7972 30.0453 19.2147 30.3553C19.2795 30.4018 19.3435 30.4503 19.4068 30.501C19.4781 30.5581 19.5472 30.6172 19.6227 30.6806C19.76 30.8048 19.8897 30.9366 20.0114 31.0755L20.0977 31.1811C20.2964 31.4346 20.4972 31.6817 20.7044 31.9309C21.1175 32.4238 21.545 32.9032 21.9869 33.3693C22.2028 33.6058 22.4338 33.836 22.6627 34.0642C23.1441 34.5394 23.6429 35.0062 24.1502 35.4518C24.6144 35.8594 25.0873 36.2502 25.5774 36.6346H25.5903L25.8472 36.8458C25.9466 36.9261 26.0631 37.0105 26.1517 37.0781L26.1905 37.1077C26.5682 37.3309 27.0067 37.4356 27.4471 37.4076C27.9643 37.3733 28.4529 37.1632 28.8286 36.8138C29.2043 36.4644 29.4434 35.9976 29.5046 35.494C29.5429 35.1726 29.506 34.8468 29.3968 34.5413C29.2876 34.2358 29.1089 33.9585 28.8742 33.7304L27.6435 32.5265C27.6306 32.5265 27.622 32.5096 27.609 32.497L24.6727 29.6203L21.7667 26.7774L4.94566 10.322L4.96293 10.3093C4.66403 10.0371 4.42461 9.70855 4.25911 9.34337C4.09362 8.97818 4.00547 8.58397 4 8.18454C3.99987 7.70808 4.11922 7.23885 4.3476 6.81801L4.36272 6.79267C4.5337 6.52656 4.73191 6.27817 4.95429 6.05132L5.01906 6.00063C5.05361 5.97951 5.09679 5.94994 5.1486 5.91192C5.29974 5.81054 5.49189 5.68804 5.59552 5.62679C6.14176 5.26562 6.70095 4.91923 7.26446 4.59608C12.7532 1.42552 19.0461 -0.16314 25.4178 0.0132425C31.7894 0.189625 37.9804 2.12386 43.2771 5.59299L43.4196 5.68592C43.5923 5.79575 43.7586 5.91403 43.9226 6.0302C44.1514 6.23099 44.3485 6.46372 44.5077 6.72086C44.7918 7.18386 44.9349 7.71656 44.9201 8.25635C44.9081 8.60322 44.8351 8.94547 44.7042 9.26805C44.6195 9.49796 44.5018 9.71487 44.3545 9.91225C43.3461 11.5549 42.19 13.1064 40.9 14.5483C39.3098 16.3286 37.5309 17.9386 35.5931 19.3512L35.4117 19.4864C35.2141 19.6613 34.9968 19.8137 34.764 19.9405C34.076 20.3287 33.2933 20.5272 32.4992 20.515H32.4776C31.4484 20.4917 30.4688 20.0773 29.7464 19.3597C28.0343 17.708 23.4313 13.374 23.4313 13.374L23.1614 13.1501C23.0656 13.0676 22.9654 12.99 22.8613 12.9178L22.8224 12.8882C22.5165 12.7054 22.168 12.6022 21.8098 12.5883C21.2881 12.5681 20.7756 12.7276 20.3618 13.0391C19.9479 13.3506 19.6589 13.7942 19.545 14.2927C19.4703 14.6433 19.4862 15.0066 19.5914 15.3497C19.6966 15.6927 19.8877 16.0046 20.1474 16.257L44.0414 39.6718C44.34 39.9431 44.5789 40.271 44.7438 40.6356C44.9086 41.0001 44.9958 41.3937 45 41.7923Z"
    fill="#f99c3d" />
</svg>