<svg width="50" height="50" viewBox="0 0 50 50" fill="none" xmlns="http://www.w3.org/2000/svg">
<path d="M35.9153 25C35.9153 34.7945 27.8689 42.726 17.9508 42.726C8.03279 42.726 0 34.7945 0 25C0 15.2055 8.03279 7.27397 17.9508 7.27397C20.292 7.2541 22.6142 7.69684 24.7848 8.57692C26.9554 9.457 28.9318 10.7572 30.6012 12.4032C32.2707 14.0492 33.6004 16.0089 34.5146 18.1702C35.4287 20.3316 35.9093 22.6524 35.929 25H35.9153ZM7.36339 25C7.38505 27.7951 8.51225 30.4673 10.4974 32.4297C12.4826 34.392 15.1633 35.484 17.9508 35.4658C19.3322 35.4766 20.7022 35.2145 21.9826 34.6944C23.263 34.1743 24.4287 33.4064 25.4131 32.4345C26.3975 31.4627 27.1813 30.3059 27.7199 29.0303C28.2585 27.7547 28.5412 26.3852 28.5519 25C28.5267 22.2049 27.396 19.5341 25.4083 17.5743C23.4206 15.6145 20.7383 14.526 17.9508 14.5479C15.1704 14.5333 12.4972 15.6231 10.5158 17.5792C8.53439 19.5352 7.4059 22.1983 7.37705 24.9863L7.36339 25Z" fill="url(#paint0_radial_4651_12066)"/>
<path d="M50 25C50 38.8082 38.7978 50 25 50C11.2022 50 0 38.8082 0 25C0 11.1918 11.2022 0 25 0C38.7978 0 50 11.1918 50 25ZM7.51366 25C7.5209 29.6456 9.3664 34.0985 12.6449 37.3809C15.9235 40.6633 20.3671 42.5069 25 42.5068C29.6353 42.5105 34.0824 40.6685 37.3639 37.3857C40.6454 34.1029 42.4928 29.648 42.5 25C42.4928 20.3544 40.6473 15.9015 37.3687 12.6191C34.0902 9.33674 29.6466 7.49315 25.0137 7.49315C22.715 7.48775 20.4379 7.93684 18.3125 8.81475C16.1871 9.69265 14.2552 10.9821 12.6273 12.6094C10.9994 14.2367 9.70738 16.1699 8.82524 18.2983C7.94311 20.4268 7.48813 22.7088 7.48634 25.0137L7.51366 25Z" fill="url(#paint1_radial_4651_12066)"/>
<defs>
<radialGradient id="paint0_radial_4651_12066" cx="0" cy="0" r="1" gradientUnits="userSpaceOnUse" gradientTransform="translate(35.9153 25) rotate(180) scale(35.929 35.4795)">
<stop stop-color="#54F0FD"/>
<stop offset="1" stop-color="#C342F7"/>
</radialGradient>
<radialGradient id="paint1_radial_4651_12066" cx="0" cy="0" r="1" gradientUnits="userSpaceOnUse" gradientTransform="translate(0 25) scale(50)">
<stop stop-color="#54F0FD"/>
<stop offset="1" stop-color="#C342F7"/>
</radialGradient>
</defs>
</svg>
