<svg width="50" height="50" viewBox="0 0 50 50" fill="none" xmlns="http://www.w3.org/2000/svg">
<path d="M0 0H12.8347H37.0578L37.0983 0.119624C40.381 0.195989 43.7873 2.01948 46.0238 4.35828C46.1301 4.46928 46.2346 4.58202 46.3372 4.69649C46.4398 4.81097 46.5404 4.92712 46.6391 5.04495C46.7378 5.16278 46.8346 5.28222 46.9294 5.40326C47.0242 5.52432 47.1169 5.64691 47.2076 5.77104C47.2982 5.89518 47.3868 6.02079 47.4734 6.14788C47.5599 6.27496 47.6442 6.40344 47.7264 6.53334C47.8087 6.66323 47.8888 6.79446 47.9666 6.92701C48.0445 7.05957 48.1202 7.19339 48.1936 7.32847C48.2671 7.46354 48.3383 7.5998 48.4071 7.73725C48.476 7.8747 48.5426 8.01325 48.607 8.15291C48.6712 8.29257 48.7332 8.43327 48.7928 8.575C48.8525 8.71672 48.9098 8.8594 48.9647 9.00303C49.0195 9.14666 49.072 9.29116 49.122 9.43654C49.1722 9.58192 49.2198 9.72809 49.265 9.87506C49.3103 10.022 49.3531 10.1697 49.3934 10.3181C49.4337 10.4665 49.4715 10.6155 49.5069 10.7651C50.283 14.0462 49.9121 19.4769 49.9068 22.9886C49.9005 27.2585 50.0073 31.5487 49.9091 35.8161C49.8185 39.7512 48.4399 43.3555 45.5602 46.0956C43.4616 48.0927 40.0286 49.9477 37.0564 49.8853C37.0303 49.8847 37.0042 49.8835 36.9782 49.8823L36.9809 50H12.9605H0V37.1243V12.8729V0ZM0 37.1243V50H12.9605L12.938 49.8905C10.4875 49.8874 7.78266 48.7512 5.8225 47.3345C2.31622 44.8 0.674617 41.293 0 37.1243ZM0 0V12.8729C0.514893 9.54006 1.63538 6.63959 4.03709 4.19458C6.25266 1.93908 9.63386 0.147922 12.8497 0.11713L12.8347 0H0ZM12.8347 0L12.8497 0.11713C20.926 0.141214 29.0241 0.24532 37.0983 0.119624L37.0578 0H12.8347ZM12.938 49.8905L12.9605 50H36.9809L36.9782 49.8823C33.276 49.8136 29.5633 49.8718 25.8602 49.8725C21.5545 49.8732 17.2431 49.8263 12.938 49.8905Z" fill="#FCB974"/>
<path d="M15.6577 6C18.1801 7.08543 21.0626 8.05954 23.3617 9.57832C24.7636 10.5044 25.9567 11.9335 27.1267 13.1538L31.6845 17.9226C33.1676 19.4785 34.7773 20.9922 35.5282 23.1065C36.2678 25.1894 35.9176 40.627 35.9142 44H31.6426V38.7586V34.0346C31.0832 34.3555 30.4968 34.6394 29.8901 34.8453C29.754 34.8927 29.6169 34.9365 29.4788 34.9768C29.3407 35.017 29.2016 35.0536 29.0618 35.0867C28.9219 35.1197 28.7813 35.149 28.64 35.1747C28.4988 35.2005 28.357 35.2226 28.2146 35.2409C28.0723 35.2592 27.9296 35.2738 27.7866 35.2847C27.6436 35.2957 27.5004 35.3029 27.3571 35.3063C27.2137 35.3098 27.0704 35.3095 26.9271 35.3056C26.7837 35.3016 26.6405 35.2939 26.4975 35.2824C26.3546 35.2711 26.212 35.2559 26.0697 35.237C25.9275 35.2182 25.7858 35.1957 25.6446 35.1696C25.5034 35.1433 25.3629 35.1134 25.2231 35.08C25.0833 35.0464 24.9444 35.0093 24.8064 34.9686C24.6684 34.9279 24.5315 34.8836 24.3956 34.8357C24.2596 34.7878 24.125 34.7365 23.9915 34.6816C23.858 34.6268 23.7259 34.5685 23.5952 34.5068C23.4645 34.4451 23.3353 34.38 23.2077 34.3115C23.0807 34.243 22.9553 34.1712 22.8316 34.0962C22.7079 34.0212 22.586 33.9431 22.466 33.8619C22.346 33.7807 22.2279 33.6964 22.1118 33.609C21.9957 33.5217 21.8818 33.4315 21.77 33.3383C21.6581 33.2451 21.5485 33.1492 21.4412 33.0504C21.3338 32.9516 21.2288 32.8501 21.1262 32.7459C21.0237 32.6417 20.9236 32.5349 20.826 32.4257C20.7284 32.3163 20.6334 32.2045 20.541 32.0904C20.4487 31.9761 20.3591 31.8596 20.2722 31.7408C20.1853 31.622 20.1013 31.501 20.0201 31.3779C19.9388 31.2548 19.8606 31.1296 19.7852 31.0025C19.7099 30.8754 19.6376 30.7463 19.5683 30.6155C19.499 30.4846 19.4328 30.3521 19.3697 30.2177C19.3066 30.0835 19.2467 29.9477 19.19 29.8104C19.1333 29.673 19.0798 29.5343 19.0295 29.3943C18.9794 29.2542 18.9325 29.1129 18.8889 28.9704C18.8452 28.8272 18.8049 28.6831 18.7678 28.5379C18.7309 28.3927 18.6974 28.2466 18.6673 28.0997C18.6372 27.9528 18.6106 27.8052 18.5874 27.657C18.5642 27.5087 18.5445 27.3599 18.5283 27.2106C18.5122 27.0613 18.4995 26.9117 18.4903 26.7618C18.4811 26.6119 18.4755 26.4618 18.4733 26.3115C18.4712 26.1612 18.4726 26.011 18.4775 25.8609C18.4824 25.7107 18.4908 25.5608 18.5027 25.4111C18.5146 25.2614 18.5301 25.112 18.549 24.963C18.5679 24.8141 18.5903 24.6658 18.6162 24.518C18.6421 24.3702 18.6715 24.2232 18.7043 24.0769C18.737 23.9306 18.7732 23.7853 18.8128 23.6408C18.8524 23.4964 18.8954 23.3531 18.9418 23.2108C18.988 23.0686 19.0376 22.9277 19.0906 22.7881C19.1436 22.6484 19.1997 22.5102 19.2591 22.3734C19.3185 22.2366 19.3811 22.1014 19.4469 21.9679C20.6442 19.5445 22.6143 18.1455 25.0463 17.3308C23.9145 16.1227 22.7982 14.8361 21.5051 13.8166C19.3542 12.1207 16.4755 11.1924 14 10.1285L15.6577 6Z" fill="black"/>
<path d="M27.0229 22.0071C27.9928 21.9631 28.9117 22.1191 29.763 22.6054C29.8262 22.6417 29.8883 22.6796 29.9495 22.719C30.0108 22.7584 30.071 22.7994 30.1302 22.8417C30.1895 22.884 30.2476 22.9278 30.3047 22.9731C30.3618 23.0183 30.4177 23.0648 30.4725 23.1128C30.5273 23.1608 30.5809 23.2101 30.6332 23.2606C30.6856 23.3113 30.7367 23.3631 30.7865 23.4162C30.8363 23.4694 30.8849 23.5236 30.932 23.5791C30.9792 23.6346 31.0249 23.6912 31.0693 23.7489C31.1137 23.8066 31.1566 23.8654 31.1981 23.9253C31.2397 23.9851 31.2797 24.0459 31.3181 24.1078C31.3567 24.1696 31.3937 24.2323 31.4291 24.2959C31.4646 24.3595 31.4984 24.424 31.5307 24.4893C31.563 24.5546 31.5936 24.6206 31.6227 24.6874C31.6517 24.7542 31.6791 24.8217 31.7048 24.8898C31.7305 24.9579 31.7546 25.0266 31.777 25.0959C31.7993 25.1653 31.8199 25.2351 31.8389 25.3054C31.8586 25.3771 31.8765 25.4493 31.8925 25.5218C31.9086 25.5944 31.9229 25.6673 31.9355 25.7405C31.948 25.8138 31.9587 25.8873 31.9675 25.9611C31.9765 26.0349 31.9835 26.1089 31.9887 26.183C31.994 26.2572 31.9974 26.3314 31.999 26.4057C32.0006 26.48 32.0003 26.5543 31.9982 26.6286C31.9961 26.703 31.9922 26.7772 31.9864 26.8513C31.9807 26.9254 31.9731 26.9993 31.9637 27.073C31.9543 27.1468 31.9432 27.2202 31.9301 27.2934C31.9171 27.3666 31.9023 27.4394 31.8857 27.5119C31.8691 27.5843 31.8507 27.6563 31.8305 27.7278C31.8104 27.7994 31.7885 27.8704 31.7649 27.9408C31.7411 28.0113 31.7158 28.0811 31.6887 28.1503C31.6616 28.2195 31.6328 28.2881 31.6023 28.3559C31.5718 28.4237 31.5397 28.4907 31.506 28.5569C31.4722 28.623 31.4368 28.6884 31.3998 28.7528C30.6704 30.0177 29.576 30.6178 28.2041 30.9818C27.0454 31.0597 25.9732 30.9004 24.9914 30.2449C24.9305 30.2039 24.8706 30.1615 24.8117 30.1177C24.7528 30.0737 24.6951 30.0284 24.6385 29.9816C24.5818 29.9349 24.5263 29.8868 24.4719 29.8374C24.4177 29.7879 24.3646 29.7371 24.3128 29.6851C24.261 29.633 24.2105 29.5797 24.1613 29.5252C24.1121 29.4707 24.0642 29.415 24.0178 29.3581C23.9714 29.3012 23.9263 29.2432 23.8826 29.1841C23.839 29.1251 23.7969 29.065 23.7562 29.0038C23.7155 28.9426 23.6763 28.8805 23.6387 28.8175C23.601 28.7544 23.565 28.6904 23.5305 28.6256C23.4959 28.5607 23.463 28.4951 23.4317 28.4287C23.4004 28.3622 23.3708 28.295 23.3428 28.2271C23.3148 28.1592 23.2884 28.0906 23.2638 28.0214C23.2391 27.9522 23.2162 27.8825 23.195 27.8122C23.1738 27.7419 23.1543 27.671 23.1366 27.5997C23.1187 27.5285 23.1027 27.4568 23.0885 27.3847C23.0739 27.3121 23.0611 27.2391 23.0501 27.1658C23.0391 27.0925 23.0299 27.019 23.0225 26.9452C23.0151 26.8715 23.0096 26.7976 23.0058 26.7236C23.0021 26.6495 23.0002 26.5755 23 26.5013C22.9999 26.4272 23.0017 26.3532 23.0053 26.2791C23.0088 26.2051 23.0142 26.1312 23.0213 26.0574C23.0286 25.9836 23.0376 25.9101 23.0484 25.8368C23.0592 25.7634 23.0718 25.6904 23.0862 25.6177C23.1006 25.545 23.1168 25.4727 23.1348 25.4007C23.1528 25.3289 23.1725 25.2575 23.194 25.1866C23.2155 25.1156 23.2387 25.0453 23.2637 24.9754C23.2886 24.9057 23.3153 24.8365 23.3436 24.768C23.372 24.6996 23.4021 24.6318 23.4338 24.5648C23.4655 24.4978 23.4989 24.4317 23.5338 24.3664C23.5688 24.301 23.6054 24.2365 23.6434 24.173C23.6816 24.1094 23.7213 24.0469 23.7625 23.9853C24.5489 22.821 25.6776 22.2684 27.0229 22.0071Z" fill="#FCB974"/>
</svg>
