<svg width="50" height="50" viewBox="0 0 50 50" fill="none" xmlns="http://www.w3.org/2000/svg">
<g clip-path="url(#clip0_309_1244)">
<path d="M29 33.75C29 31.679 30.679 30 32.75 30H34.25C36.321 30 38 31.679 38 33.75V35.25C38 37.321 36.321 39 34.25 39H32.75C30.679 39 29 37.321 29 35.25V33.75Z" fill="#1EEFA4"/>
<path d="M32.75 16C30.679 16 29 17.679 29 19.75V21.25C29 23.321 30.679 25 32.75 25H34.25C36.321 25 38 23.321 38 21.25V19.75C38 17.679 36.321 16 34.25 16H32.75Z" fill="#1EEFA4"/>
<path fill-rule="evenodd" clip-rule="evenodd" d="M15.3846 0C6.88793 0 0 6.88793 0 15.3846V34.6154C0 43.1121 6.88793 50 15.3846 50H34.6154C43.1121 50 50 43.1121 50 34.6154V15.3846C50 6.88793 43.1121 0 34.6154 0H15.3846ZM34.6154 6.15385H15.3846C10.2866 6.15385 6.15385 10.2866 6.15385 15.3846V34.6154C6.15385 39.7134 10.2866 43.8461 15.3846 43.8461H34.6154C39.7134 43.8461 43.8461 39.7134 43.8461 34.6154V15.3846C43.8461 10.2866 39.7134 6.15385 34.6154 6.15385Z" fill="#1EEFA4"/>
</g>
<defs>
<clipPath id="clip0_309_1244">
<rect width="50" height="50" fill="white"/>
</clipPath>
</defs>
</svg>
