<svg width="50" height="50" viewBox="0 0 50 50" fill="none" xmlns="http://www.w3.org/2000/svg">
<g clip-path="url(#clip0_5092_12990)">
<path d="M43 18C40.2167 18 37.8083 19.625 36.6833 21.9833C36.275 22.8333 35.4917 23.5 34.55 23.5H34C32.8917 23.5 32 22.6083 32 21.5V16C32 12.1333 28.8667 9 25 9C21.1333 9 18 12.1333 18 16V21.5C18 22.6083 17.1083 23.5 16 23.5C14.8917 23.5 14 22.6083 14 21.5V7C14 3.13333 10.8667 0 7 0C3.13333 0 0 3.13333 0 7V43C0 46.8667 3.13333 50 7 50C10.8667 50 14 46.8667 14 43V28.5C14 27.3917 14.8917 26.5 16 26.5C17.1083 26.5 18 27.3917 18 28.5V34C18 37.8667 21.1333 41 25 41C28.8667 41 32 37.8667 32 34V28.5C32 27.3917 32.8917 26.5 34 26.5H34.55C35.4917 26.5 36.275 27.175 36.6833 28.0167C37.8083 30.3667 40.2167 32 43 32C46.8667 32 50 28.8667 50 25C50 21.1333 46.8667 18 43 18Z" fill="#7949F6"/>
</g>
<defs>
<clipPath id="clip0_5092_12990">
<rect width="50" height="50" fill="white"/>
</clipPath>
</defs>
</svg>
