<svg width="50" height="50" viewBox="0 0 50 50" fill="none" xmlns="http://www.w3.org/2000/svg">



  <path
    d="M29.3652 1.94944L30.6693 5.00404C33.229 11.0016 38.0062 15.7788 44.0037 18.3385L47.0584 19.6426C47.8578 19.9835 48.5068 20.4724 49.0078 21.0547C47.4867 10.1476 38.8602 1.52003 27.9531 0C28.5343 0.499765 29.0243 1.14997 29.3652 1.94944Z"
    fill="#999999" />
  <path
    d="M1.94944 19.6426L5.00407 18.3385C11.0017 15.7788 15.7788 11.0016 18.3397 5.00404L19.6426 1.94944C19.9847 1.14997 20.4737 0.499765 21.0547 0C10.1476 1.52003 1.52121 10.1476 0 21.0547C0.500985 20.4724 1.15001 19.9835 1.94944 19.6426Z"
    fill="#999999" />
  <path
    d="M47.0584 29.3605L44.0037 30.6646C38.0062 33.2241 33.229 38.0027 30.6693 44.0002L29.3652 47.0537C29.0243 47.8531 28.5343 48.5034 27.9531 49.0043C38.8602 47.4831 47.4867 38.8555 49.0078 27.9484C48.5068 28.5307 47.8578 29.0196 47.0584 29.3605Z"
    fill="#999999" />
  <path
    d="M19.6426 47.0537L18.3397 44.0002C15.7788 38.0027 11.0017 33.2241 5.00407 30.6646L1.94944 29.3605C1.15001 29.0196 0.500985 28.5307 0 27.9484C1.52121 38.8555 10.1476 47.4831 21.0547 49.0043C20.4737 48.5034 19.9847 47.8531 19.6426 47.0537Z"
    fill="#999999" />

  <path
    d="M13.386 22.1078L14.8914 21.4649C17.8465 20.2031 20.2012 17.8497 21.4629 14.8946L22.1046 13.3891C23.0048 11.2807 25.9937 11.2807 26.8939 13.3891L27.5357 14.8946C28.7973 17.8497 31.152 20.2031 34.1071 21.4649L35.6126 22.1078C37.7209 23.0078 37.7209 25.9957 35.6126 26.8959L34.1071 27.5388C31.152 28.8005 28.7973 31.1538 27.5357 34.1103L26.8939 35.6144C25.9937 37.7228 23.0048 37.7228 22.1046 35.6144L21.4629 34.1103C20.2012 31.1538 17.8465 28.8005 14.8914 27.5388L13.386 26.8959C11.2776 25.9957 11.2776 23.0078 13.386 22.1078Z"
    fill="#000" />

</svg>