<svg width="50" height="50" viewBox="0 0 50 50" fill="none" xmlns="http://www.w3.org/2000/svg">
  <path
    d="M24.9975 16.6458L40.3464 16.6638C43.56 16.6636 46.7868 16.7248 49.9994 16.6463L49.9996 24.9988L24.9902 25.0028C25.0787 22.2268 25.006 19.4248 24.9975 16.6458Z"
    fill="#001240" />
  <path
    d="M24.9339 0.0033245C33.2861 0.0030745 41.6488 0.0893248 50 0L49.9995 8.35206L33.6261 8.33881L28.0759 8.33956C27.0527 8.33981 26.0123 8.30131 24.9914 8.36056C24.9916 11.1148 24.9096 13.8946 24.9971 16.6458L8.42047 16.652C5.62798 16.652 2.78799 16.543 0 16.6705L0.000499813 0.00557517L24.9339 0.0033245Z"
    fill="#001240" />
  <path
    d="M0.000749719 25.0056L24.9901 25.0028L25.0024 25.0536C24.9711 27.3503 24.9269 29.678 25.0004 31.9725C24.9654 32.4245 24.9899 32.898 24.9861 33.3528L42.0006 33.3483C44.6638 33.3485 47.3365 33.397 49.9987 33.3378L49.9995 49.9988L0 50L0.00125144 41.647C8.32946 41.7565 16.6702 41.6615 24.9994 41.6598L25.0029 33.3505C21.3165 33.3008 17.6243 33.341 13.9374 33.3405L0.00275088 33.353L0.000749719 25.0056Z"
    fill="#001240" />
</svg>