<svg width="50" height="50" viewBox="0 0 50 50" fill="none" xmlns="http://www.w3.org/2000/svg">
  <path
    d="M31.1698 33.891C31.309 33.8698 31.3794 33.8811 31.4996 33.9523C31.5602 34.0359 31.554 34.0986 31.5489 34.1963C31.4779 34.2913 31.4483 34.2997 31.3417 34.339C31.3214 34.3494 31.2832 34.3494 31.2599 34.3526C31.1465 34.2966 31.1232 34.2776 31.0625 34.1658C31.0717 34.0306 31.0921 34.0014 31.1698 33.891Z"
    fill="#000" />
  <path
    d="M24.2309 33.8701C24.3134 33.8701 24.4074 33.8658 24.4784 33.9155C24.5439 33.9613 24.5842 34.022 24.5886 34.1048C24.5953 34.233 24.5164 34.274 24.433 34.3503C24.3272 34.3682 24.2755 34.3475 24.1816 34.303C24.121 34.2252 24.0908 34.1931 24.0898 34.0896C24.0891 34.0039 24.1766 33.9278 24.2309 33.8701Z"
    fill="#000" />
  <path
    d="M35.405 32.3356L35.4518 32.3278C35.582 32.31 35.6455 32.3324 35.745 32.4104C35.7934 32.5067 35.7992 32.5216 35.7883 32.6284C35.7223 32.7173 35.697 32.7322 35.5999 32.7739L35.5468 32.7993C35.5032 32.7885 35.4479 32.7778 35.4087 32.7552C35.3375 32.7141 35.3051 32.6581 35.2871 32.5797C35.2899 32.465 35.3337 32.4184 35.405 32.3356Z"
    fill="#000" />
  <path
    d="M29.1293 32.912C29.1861 32.9146 29.2087 32.9054 29.2511 32.9457C29.2512 32.9887 29.2574 33.3535 29.2521 33.3588C29.2503 33.3606 29.1875 33.3664 29.1825 33.3671C29.0538 33.3828 28.9556 33.3816 28.8595 33.4795C28.7697 33.6575 28.8263 34.1146 28.8275 34.3262L28.4227 34.3265L28.3828 34.2695L28.3863 32.9264L28.7698 32.9259C28.8609 32.9872 28.7723 33.0374 28.8302 33.1095C28.92 33.0219 29.0193 32.9698 29.1293 32.912Z"
    fill="#000" />
  <path
    d="M35.2795 32.9235L35.7688 32.9248L35.77 34.1186C35.7696 34.3166 35.7979 34.5982 35.7051 34.7758C35.6538 34.8739 35.5774 34.9121 35.4772 34.9439C35.4553 34.961 35.4234 34.9724 35.3966 34.9787C35.3127 34.9983 35.1939 35.0172 35.1177 34.9727C35.1115 34.8967 35.0887 34.709 35.1185 34.6442C35.1216 34.6372 35.2585 34.6227 35.2759 34.6105C35.2897 34.6009 35.31 34.5624 35.3209 34.5471L35.3253 33.4767C35.3253 33.3017 35.3523 33.0842 35.2795 32.9235Z"
    fill="#000" />
  <path
    d="M17.3411 32.5898C17.4722 32.5891 17.6231 32.5735 17.7493 32.6102C17.7508 32.6915 17.7405 32.8029 17.7641 32.8797C17.7853 32.9483 17.964 32.9102 18.0421 32.9457C18.0432 33.0538 18.058 33.1859 18.017 33.2864L17.7596 33.3117L17.7687 33.8979C17.8622 33.983 17.9498 33.9215 18.0288 33.9824C18.0649 34.0102 18.0645 34.1498 18.0702 34.1998L18.0424 34.3203L17.9436 34.3272C17.7994 34.3323 17.5761 34.3254 17.4684 34.2185C17.268 34.0193 17.3205 33.5949 17.3147 33.327C17.2828 33.3068 17.2535 33.2893 17.2183 33.2755L17.1884 33.2641C17.1812 33.1566 17.1875 33.0667 17.208 32.961C17.2357 32.9432 17.2629 32.9278 17.2927 32.9141L17.3239 32.9L17.3411 32.5898Z"
    fill="#000" />
  <path
    d="M18.3546 32.5904C18.4761 32.5911 18.6728 32.5644 18.7738 32.6255L18.7861 32.9215C18.8769 32.9199 18.9598 32.9143 19.0468 32.9457C19.0489 33.0536 19.0735 33.1978 19.0216 33.2904C18.9401 33.2932 18.86 33.2934 18.7802 33.3118L18.7805 33.9065C18.8647 33.9938 18.9579 33.9283 19.054 33.998L19.056 34.2754L19.0442 34.3232C18.8795 34.3372 18.6023 34.3349 18.4725 34.22C18.277 34.0468 18.3273 33.5575 18.3223 33.3118C18.271 33.301 18.2324 33.2877 18.185 33.2649C18.1674 33.1503 18.1716 33.0599 18.1904 32.9457L18.2963 32.9197C18.3568 32.8359 18.3463 32.695 18.3546 32.5904Z"
    fill="#000" />
  <path
    d="M34.4094 32.9151C34.5812 32.9056 34.7583 32.9348 34.8881 33.0585C35.1431 33.3015 35.0495 33.9985 35.0483 34.3274C34.9463 34.3284 34.7066 34.3597 34.6235 34.3115L34.5955 33.4337C34.5496 33.367 34.5341 33.3316 34.458 33.2998C34.3435 33.2519 34.2453 33.2996 34.1379 33.3422C34.0695 33.6597 34.0946 34.0032 34.0991 34.3267L33.6651 34.3285L33.6641 32.9247C33.7039 32.9249 34.0723 32.9287 34.0764 32.9345C34.1105 32.9844 34.0624 33.028 34.1274 33.0772C34.2182 32.9921 34.292 32.9542 34.4094 32.9151Z"
    fill="#000" />
  <path
    d="M21.606 32.906C21.7585 32.9215 21.8838 32.9399 21.9992 33.0497C22.264 33.3015 22.1839 33.9729 22.1909 34.3278L21.7595 34.3262C21.7315 34.273 21.7427 34.194 21.7428 34.1336C21.7431 33.8749 21.8082 33.5046 21.6179 33.3118C21.4848 33.2715 21.451 33.2786 21.317 33.3147L21.3052 33.3317L21.2873 33.361C21.1612 33.5586 21.2299 34.0832 21.2335 34.3283L20.7982 34.3263L20.7969 32.9215L21.2143 32.94L21.2306 33.0753C21.3656 32.9951 21.4465 32.937 21.606 32.906Z"
    fill="#000" />
  <path
    d="M29.3984 32.915C29.5159 32.9184 29.7812 32.8912 29.8668 32.96L29.8652 33.0766C30.0243 33.0052 30.0848 32.9151 30.279 32.9149C30.4115 32.9147 30.557 32.9617 30.651 33.0582C30.9206 33.335 30.8258 33.9687 30.8263 34.3285L30.3957 34.3266C30.3933 34.1942 30.4144 34.0045 30.3459 33.8891L30.3531 33.8763C30.4041 33.7747 30.404 33.5512 30.3626 33.4432C30.3216 33.3362 30.2405 33.3066 30.1432 33.2708C30.056 33.283 30.0044 33.3083 29.9319 33.3581C29.7998 33.552 29.8748 34.0979 29.8846 34.328L29.4374 34.3258L29.4366 33.3088C29.4362 33.1958 29.4582 33.0272 29.4062 32.9281L29.3984 32.915Z"
    fill="#000" />
  <path
    d="M32.2871 32.5578L33.4107 32.562L33.413 32.9252L32.7613 32.9293L32.7684 33.2594L33.3262 33.26L33.3261 33.6061L32.7706 33.616L32.7112 33.7376C32.7619 33.8325 32.7689 33.8458 32.7591 33.9523C32.8758 34.0186 33.2647 33.9701 33.4151 33.9682L33.4196 34.3292L32.3493 34.3275C32.3123 34.2577 32.3329 34.0879 32.3333 34.0042L32.3346 33.0875C32.3342 32.9178 32.3596 32.7137 32.2871 32.5578Z"
    fill="#000" />
  <path
    d="M37.4375 32.9243L37.9543 32.9311L38.1644 33.4695C38.1996 33.5677 38.2285 33.6915 38.2858 33.7774L38.5867 32.9279L39.0562 32.9245L38.7544 33.6468C38.7005 33.7773 38.6631 33.9338 38.557 34.0305C38.5737 34.1074 38.5248 34.191 38.4962 34.2623L38.1905 34.9885L37.7337 34.9925L38.042 34.275L37.6654 33.3762C37.6044 33.2323 37.5609 33.0545 37.453 32.9396L37.4375 32.9243Z"
    fill="#000" />
  <path
    d="M25.3607 32.5596L26.4419 32.5618L26.445 32.9261L25.7927 32.929L25.798 33.2596L26.3556 33.2604L26.3528 33.6065C26.1724 33.6066 25.983 33.5943 25.8041 33.6168L25.8006 33.6949L25.7944 33.9632L26.4458 33.9675L26.4487 34.3287L25.3777 34.3274C25.3312 34.2319 25.361 33.9858 25.3608 33.8749L25.3607 32.5596Z"
    fill="#000" />
  <path
    d="M19.8317 32.908C19.9101 32.9033 20.0016 32.9148 20.0783 32.9308C20.2456 32.9657 20.3966 33.0688 20.4879 33.2146C20.5717 33.3484 20.6135 33.5661 20.5763 33.721L19.6557 33.7326L19.6271 33.7693C19.6502 33.8478 19.6746 33.8929 19.7306 33.9523C19.8302 33.9882 19.8821 33.9993 19.9877 33.9718L20.0043 33.9554C20.1578 33.8086 20.3572 33.8562 20.5534 33.8632C20.5352 33.9153 20.5162 33.9683 20.489 34.0163C20.3949 34.1818 20.2409 34.2834 20.0589 34.3293C19.8785 34.3748 19.6628 34.3411 19.5048 34.2418C19.3454 34.1415 19.2507 33.9888 19.2103 33.8056C19.1622 33.5876 19.1965 33.3643 19.3212 33.1774C19.4423 32.9958 19.6304 32.9443 19.8317 32.908ZM19.7645 33.2602C19.7078 33.327 19.6507 33.3846 19.6328 33.4739L20.0556 33.4841L20.1352 33.4726C20.1319 33.3901 20.1075 33.3627 20.0478 33.3094C19.9711 33.2407 19.8591 33.2517 19.7645 33.2602Z"
    fill="#000" />
  <path
    d="M36.5679 32.9152C36.7802 32.8897 36.9924 32.9301 37.1677 33.0592C37.3059 33.1611 37.3993 33.3394 37.4219 33.51C37.4485 33.7099 37.3965 33.9174 37.2752 34.0779C37.1388 34.2584 36.9594 34.3158 36.746 34.3442C36.5946 34.3687 36.4149 34.3099 36.2848 34.2342C36.1453 34.1531 36.0433 33.992 36.004 33.8362C35.9533 33.6349 35.9775 33.4059 36.0843 33.2269C36.1967 33.0384 36.3666 32.9672 36.5679 32.9152ZM36.5486 33.3117C36.4376 33.4518 36.4081 33.5623 36.4337 33.7441C36.442 33.803 36.4769 33.8518 36.5124 33.8975C36.6092 33.9531 36.633 33.9668 36.7489 33.9604L36.7743 33.9417C36.8688 33.8959 36.9242 33.8733 36.9636 33.7661C37.0026 33.6603 36.9682 33.5378 36.9411 33.4338C36.8785 33.3646 36.8254 33.2906 36.7236 33.2854C36.6679 33.2825 36.6031 33.2998 36.5486 33.3117Z"
    fill="#000" />
  <path
    d="M15.9502 32.5625L16.4433 32.5657L17.0766 34.3238L16.629 34.3296C16.5867 34.2302 16.5599 34.1304 16.533 34.026H15.8728L15.7752 34.3249L15.3262 34.3267L15.9502 32.5625ZM16.1923 33.0688L16.0012 33.6473L16.0318 33.6838L16.2807 33.6895L16.3865 33.6778C16.4146 33.5651 16.2449 33.1822 16.1923 33.0688Z"
    fill="#000" />
  <path
    d="M27.1564 32.9035C27.3691 32.9229 27.4728 32.9485 27.638 33.0896C27.6427 33.0343 27.6539 32.9849 27.6682 32.9314L28.0758 32.9226L28.0786 34.3283L27.663 34.3229L27.6214 34.1776C27.5495 34.2443 27.4526 34.3042 27.3593 34.3342C27.2317 34.3751 27.0766 34.3456 26.96 34.2825C26.7995 34.1957 26.7004 34.0619 26.6483 33.8859C26.5827 33.6646 26.5914 33.4153 26.7081 33.2122C26.8139 33.0281 26.9613 32.9563 27.1564 32.9035ZM27.2244 33.2945C27.1223 33.3907 27.0598 33.4567 27.0558 33.6063C27.0529 33.712 27.067 33.7958 27.142 33.8745C27.2078 33.9436 27.2648 33.9685 27.3607 33.9677L27.4694 33.9624C27.5681 33.8673 27.6449 33.7866 27.6458 33.6414C27.6465 33.5463 27.6177 33.4367 27.5475 33.369C27.4575 33.2824 27.3414 33.2863 27.2244 33.2945Z"
    fill="#000" />
  <path
    d="M23.421 32.4696L23.8528 32.4702L23.8577 34.3287L23.4356 34.3183L23.4198 34.1963L23.3828 34.1777C23.3553 34.209 23.3299 34.2323 23.2953 34.2558C23.1389 34.3619 22.9868 34.3635 22.8086 34.3246L22.6716 34.2447C22.4936 34.1224 22.4269 33.9541 22.3899 33.7469C22.3548 33.55 22.4051 33.308 22.5225 33.1455C22.6139 33.0191 22.7403 32.9407 22.8935 32.9178C23.1164 32.8846 23.2478 32.9618 23.4231 33.0948L23.421 32.4696ZM22.9966 33.2929C22.8995 33.3887 22.8251 33.455 22.8232 33.6011C22.8218 33.7121 22.8386 33.8107 22.9237 33.8893C23.0128 33.9715 23.1026 33.9742 23.215 33.9637L23.2394 33.9611C23.3363 33.8702 23.4086 33.791 23.4183 33.6514C23.4242 33.5644 23.3969 33.4641 23.3372 33.4001C23.2717 33.3298 23.2066 33.2866 23.1076 33.285L22.9966 33.2929Z"
    fill="#000" />
  <path
    d="M33.4214 19.586C33.7914 19.5461 34.0882 19.5497 34.4139 19.762C34.6355 19.9065 34.7693 20.1654 34.8213 20.4208C34.8792 20.7057 34.8294 21.0273 34.6689 21.2701C34.5023 21.522 34.2508 21.6611 33.9631 21.7212C33.7819 21.7683 33.5828 21.7545 33.4042 21.6977C33.1173 21.6065 32.8995 21.4389 32.7608 21.1653C32.6339 20.9148 32.6108 20.548 32.7007 20.2804C32.8366 19.876 33.0677 19.7589 33.4214 19.586Z"
    fill="#000" />
  <path
    d="M14.9091 19.5765C15.1679 19.5496 15.3963 19.5485 15.6389 19.6516C15.8931 19.7596 16.0844 19.9644 16.1852 20.2222C16.299 20.5132 16.2952 20.8534 16.1652 21.1381C16.0155 21.4657 15.761 21.6045 15.4427 21.72C15.1641 21.769 14.8922 21.7473 14.636 21.6178C14.3527 21.4748 14.202 21.2695 14.1084 20.9673C14.0261 20.7018 14.0629 20.3641 14.1894 20.1205C14.3515 19.8082 14.5872 19.6752 14.9091 19.5765Z"
    fill="#000" />
  <path
    d="M32.7871 22.7473L34.6608 22.7485L34.6659 24.4299L34.6647 27.5811L34.6691 29.3024C34.6712 29.5695 34.7025 29.8763 34.6715 30.1396C34.6662 30.1845 34.6453 30.2244 34.6216 30.2621L34.6271 30.3414L32.8215 30.35L32.8146 28.2978L32.8145 24.5023C32.8146 24.1926 32.8785 22.9315 32.7871 22.7473Z"
    fill="#000" />
  <path d="M14.2406 22.7435L16.0948 22.741L16.0871 30.3506L14.2402 30.3513L14.2406 22.7435Z" fill="#000" />
  <path
    d="M21.0893 22.5735L21.1491 22.5676C22.3055 22.525 23.1636 22.9048 24.0077 23.6869L22.837 24.9305C22.4458 24.6297 22.0838 24.4185 21.5873 24.3527C21.0501 24.2817 20.4305 24.4256 20.002 24.7653C19.5145 25.152 19.2655 25.6861 19.1968 26.3015C19.1329 26.8732 19.2411 27.5441 19.6097 28.0003C19.9483 28.4193 20.4495 28.7036 20.9852 28.757C21.7595 28.8343 22.3401 28.6451 22.936 28.1493L23.6603 28.8535L24.1868 29.3799C23.3773 30.1194 22.6145 30.4992 21.5208 30.5735C20.5203 30.6414 19.3354 30.3327 18.573 29.655C17.7056 28.884 17.3879 27.8838 17.3152 26.7493C17.2494 25.7222 17.5632 24.5741 18.2507 23.7987C18.987 22.9683 20.0139 22.6313 21.0893 22.5735Z"
    fill="#000" />
  <path
    d="M39.4273 19.4336C40.2731 19.395 41.037 19.56 41.7498 20.0383L41.0642 21.4324C40.6926 21.2034 40.3342 21.0361 39.8921 21.0353C39.6169 21.0347 39.3401 21.1449 39.1461 21.344C38.7614 21.7386 38.7988 22.3736 38.7959 22.8846L40.9963 22.8881L40.9977 24.5429L38.8187 24.5428C38.7642 24.6206 38.799 25.0354 38.7992 25.1505L38.8008 27.6571L38.799 28.3695C38.7983 28.4982 38.8186 28.6247 38.7441 28.7365C38.855 28.8806 38.8007 30.1099 38.7952 30.3499L36.9495 30.3478L36.9492 24.5418L35.5473 24.5445L35.543 22.871C35.9974 22.9283 36.4924 22.8899 36.9506 22.8859C36.9429 22.0445 36.9579 21.2692 37.452 20.5453C37.9305 19.8442 38.6328 19.5781 39.4273 19.4336Z"
    fill="#000" />
  <path
    d="M41.7578 22.7753L43.9495 22.7828L45.7986 28.1821L47.9472 22.7859C48.1649 22.7546 48.4111 22.7767 48.6319 22.7768L50 22.7778L48.6238 26.0266L48.2265 26.9619C48.1545 27.1342 48.0903 27.3571 47.9595 27.4894C47.9821 27.6761 47.3508 29.0108 47.2372 29.2753L45.4316 33.5074L43.9454 33.506C43.782 33.5056 43.5463 33.539 43.3965 33.4892L44.7889 30.2194L43.082 25.9761L42.2253 23.8463L41.9461 23.146C41.8981 23.0236 41.8664 22.8853 41.7727 22.7895L41.7578 22.7753Z"
    fill="#000" />
  <path
    d="M24.9605 19.6149L26.8112 19.6154L26.8053 25.8168L29.3218 22.7794L30.8229 22.7788C31.0434 22.7789 31.3062 22.7471 31.5188 22.7975L31.5428 22.8497C31.5111 22.9674 31.3944 23.0615 31.314 23.1493L30.8527 23.6711L28.4957 26.3359C28.5429 26.4686 28.7845 26.6684 28.8867 26.7805C29.147 27.0663 30.656 28.6668 30.6963 28.8242C30.8124 28.8942 30.9117 29.0288 31.0048 29.1287L31.6905 29.8896C31.7672 29.977 31.9175 30.1136 31.9567 30.216C31.9771 30.2696 31.9633 30.2866 31.939 30.3353L29.7535 30.3349C29.6244 30.2427 29.5209 30.0977 29.4178 29.9775L28.8592 29.324L26.8072 26.9282L26.8069 30.3483L24.959 30.3483L24.9605 19.6149Z"
    fill="#000" />
  <path
    d="M0.459613 14.0009L11.7057 14.003L14.1466 14.0031C14.3961 14.0033 14.6511 13.9929 14.9 14.0089C14.9533 14.0123 15.0591 14.0082 15.1064 14.0265C15.1676 14.0503 15.2442 14.1111 15.2932 14.1564L17.194 16.0785L18.078 16.9674C18.2505 17.1411 18.4425 17.3129 18.5933 17.506C18.6615 17.5933 18.6943 17.6828 18.6976 17.7943C18.7019 17.9354 18.6461 18.0482 18.5479 18.1463C18.477 18.2171 18.3676 18.2672 18.2686 18.2775C18.0503 18.3003 17.8109 18.2817 17.5901 18.2805L16.3678 18.2774L12.118 18.2828L12.1324 30.4063L12.1331 32.2553C12.1332 32.526 12.1626 32.8322 12.1291 33.0991C12.1178 33.1894 12.0715 33.2848 12.0116 33.3523C11.9257 33.4489 11.8113 33.5085 11.6819 33.5124C11.5185 33.5174 11.3941 33.445 11.279 33.3348L9.19872 31.2338L8.3131 30.3413C8.20394 30.2308 7.99419 30.0562 7.92803 29.9151C7.82842 29.7028 7.88802 29.2402 7.88766 28.998L7.88762 26.6248L7.8692 20.4049L10.9455 18.2709L6.76983 18.2793L4.89956 18.2812C4.57251 18.2823 4.23387 18.3013 3.90777 18.2803C3.78689 18.2726 3.66706 18.2506 3.5651 18.1803C3.41477 18.0766 3.27955 17.9121 3.14876 17.7818L2.34518 16.9872L0.869391 15.5283C0.627824 15.289 0.362769 15.0569 0.138398 14.8018C0.0765804 14.7315 0.0250353 14.647 0.00824598 14.5533C-0.0153315 14.4216 0.0115043 14.3038 0.0906541 14.1977C0.195735 14.0568 0.292488 14.0248 0.459613 14.0009Z"
    fill="#000" />
</svg>