<svg width="50" height="50" viewBox="0 0 50 50" fill="none" xmlns="http://www.w3.org/2000/svg">
<path d="M16.3945 20.0969H16.4035C16.3945 20.0429 16.3945 19.98 16.3945 19.9261V20.0969Z" fill="#29AEFF"/>
<path d="M34.2984 21.8057H24.3887V39.6922C24.3887 40.5379 25.0721 41.2213 25.9173 41.2213H32.7698C33.615 41.2213 34.2984 40.5379 34.2984 39.6922V21.8057Z" fill="white"/>
<path d="M19.6044 9H19.2715H1.52879C0.683459 9 0 9.68346 0 10.5288V16.7338C0 17.5791 0.683459 18.2626 1.52879 18.2626H5.69237H7.3469V20.0971V39.7375C7.3469 40.5827 8.03077 41.2661 8.87596 41.2661H15.3865C16.2322 41.2661 16.9156 40.5827 16.9156 39.7375V20.0971V19.9262V18.2626H18.5701H19.2446H19.5771C22.131 18.2626 24.2086 16.1852 24.2086 13.6313C24.2355 11.0774 22.1584 9 19.6044 9Z" fill="white"/>
<path d="M34.3066 21.8057V34.2877C34.6486 34.3688 34.9995 34.4315 35.3589 34.4857C35.8626 34.5574 36.3842 34.6022 36.9059 34.6112C36.9327 34.6112 36.9596 34.6112 36.9955 34.6112V24.6834C35.4938 24.5845 34.3066 23.3345 34.3066 21.8057Z" fill="url(#paint0_linear_4990_4088)"/>
<path d="M37.1943 9C30.1258 9 24.3887 14.7374 24.3887 21.8057C24.3887 27.8846 28.624 32.9746 34.3074 34.2877V21.8057C34.3074 20.214 35.6025 18.919 37.1943 18.919C38.7861 18.919 40.0808 20.214 40.0808 21.8057C40.0808 23.1456 39.1728 24.2697 37.9315 24.5935C37.698 24.6565 37.4461 24.6924 37.1943 24.6924V34.6112C37.4461 34.6112 37.689 34.6023 37.9315 34.5933C44.6581 34.2065 49.9999 28.6312 49.9999 21.8057C50.0088 14.7374 44.2718 9 37.1943 9Z" fill="white"/>
<path d="M37.1953 34.6112V24.6922C37.1232 24.6922 37.06 24.6922 36.9883 24.6832V34.6112C37.06 34.6112 37.1321 34.6112 37.1953 34.6112Z" fill="white"/>
<defs>
<linearGradient id="paint0_linear_4990_4088" x1="37.1976" y1="28.2104" x2="34.308" y2="28.2104" gradientUnits="userSpaceOnUse">
<stop stop-color="white"/>
<stop offset="0.9667" stop-color="#DFDFDF"/>
<stop offset="1" stop-color="white"/>
</linearGradient>
</defs>
</svg>
