<svg width="50" height="50" viewBox="0 0 50 50" fill="none" xmlns="http://www.w3.org/2000/svg">
  <path
    d="M21.7751 23.1007C23.9358 23.0039 26.0901 23.0039 28.2378 23.1007C28.2783 23.1043 28.3188 23.0942 28.3536 23.0718C28.3884 23.0495 28.4158 23.016 28.4319 22.9762L30.2174 18.1402C30.2691 18.0295 30.3467 17.9949 30.4503 18.0364L49.9741 25.9857C50 25.9857 50.0065 26.0065 49.9935 26.048L49.9547 26.0687C42.8516 24.353 35.742 23.3705 28.626 23.1215C28.5559 23.1198 28.487 23.1406 28.4281 23.1813C28.3693 23.222 28.3233 23.2807 28.296 23.3498L25.1132 31.9218C25.0744 32.0186 25.0226 32.0255 24.958 31.9425L24.8221 31.6727L21.6393 23.2045C21.6321 23.1823 21.6192 23.1627 21.602 23.148C21.5848 23.1333 21.5641 23.1241 21.5422 23.1215C14.3356 23.3567 7.16781 24.3391 0.0388146 26.0687H0L0.0194071 26.0065L19.5433 18.0156C19.5649 18.0055 19.5882 18.0002 19.6117 18C19.6353 17.9998 19.6587 18.0047 19.6804 18.0144C19.7022 18.0241 19.7219 18.0384 19.7383 18.0564C19.7548 18.0745 19.7677 18.0959 19.7762 18.1194L21.5811 22.9554C21.5972 22.9953 21.6245 23.0287 21.6594 23.0511C21.6942 23.0734 21.7347 23.0835 21.7751 23.08V23.1007Z"
    fill="#000" />
</svg>