<svg width="50" height="50" viewBox="0 0 50 50" fill="none" xmlns="http://www.w3.org/2000/svg">
  <path fill-rule="evenodd" clip-rule="evenodd"
    d="M14.8069 16.2575V16.5794H15.397C15.5125 16.5759 15.6244 16.5386 15.7189 16.4721L15.8798 16.3648L15.9335 16.2039V15.882L15.8262 15.7747L15.6652 15.6674L15.5043 15.6137H14.8069V16.2575ZM14.1631 18.4571L14.2167 18.2961C14.2568 18.1751 14.275 18.048 14.2704 17.9206V17.3305L14.3777 17.2232L14.4313 17.0622C14.4751 16.9762 14.511 16.8864 14.5386 16.794L14.4313 16.9013L14.2704 17.0086V15.6137C14.2682 15.5044 14.2501 15.396 14.2167 15.2918L14.1631 15.1309C14.3419 15.1291 14.5207 15.1291 14.6996 15.1309L14.9142 15.1846H15.0751L15.1824 15.1309H15.6116C15.7028 15.1378 15.7929 15.1558 15.8798 15.1846L16.0408 15.2918L16.1481 15.3991L16.309 15.5064L16.3627 15.6137L16.4163 15.7747L16.47 15.9356V16.2575C16.4515 16.3698 16.4153 16.4785 16.3627 16.5794C16.292 16.7318 16.1806 16.8618 16.0408 16.9549L15.8798 17.0086L15.6652 17.1159H15.7189L15.7725 17.2768L15.8798 17.3841L15.8262 17.4378L15.9335 17.5451C15.9335 17.706 16.0944 17.8133 16.2017 17.8133L16.2554 17.867C16.2554 17.9743 16.309 18.0815 16.4163 18.1352V18.1888L16.5236 18.3498L16.6309 18.4571H15.6652L15.7189 18.2961V18.1888L15.6652 18.0279L15.5579 17.9206L15.4506 17.7597L15.397 17.6524L15.2897 17.5451L15.1824 17.4378L15.0751 17.2768L14.9678 17.1695L14.8605 17.0622V17.5987L14.8069 17.7597L14.8605 17.9206V18.1888L14.9142 18.3498L14.9678 18.4571H14.1631ZM20.8155 17.9206H21.0837L21.2983 17.867L21.4592 17.8133L21.6202 17.7597L21.7275 17.6524C21.8555 17.5681 21.9651 17.4586 22.0494 17.3305L22.103 17.1695L22.1567 17.0086V16.6867L22.103 16.5258L22.0494 16.4185L21.9957 16.2575L21.9421 16.0966L21.8348 15.9893L21.7811 15.882L21.6202 15.8283L21.5129 15.721C21.4265 15.6905 21.3361 15.6724 21.2446 15.6674H21.0837L20.9227 15.6137H20.6545V17.9206H20.8155ZM20.8155 18.4571H19.9571L20.0107 18.3498L20.0644 18.1888V18.0815L20.118 17.9206V16.9549L20.0644 16.794L20.118 16.633V15.6137L20.0644 15.4528L20.0107 15.2918L19.9571 15.0773H20.4399L20.6009 15.1309H20.8691L21.0837 15.1846L21.191 15.1309H21.2983L21.4592 15.2382H21.6738L21.8348 15.2918L21.9957 15.3991L22.103 15.4528L22.2639 15.6137L22.3712 15.721L22.4249 15.8283L22.5322 15.9893C22.5754 16.0755 22.6113 16.1652 22.6395 16.2575L22.5322 16.3648L22.4785 16.4721L22.3712 16.5794L22.5322 16.5258L22.6931 16.4721V17.0086L22.6395 17.1695V17.3305L22.5858 17.4914L22.4785 17.5987L22.4249 17.7597L22.3176 17.867C22.2532 17.9453 22.1814 18.0172 22.103 18.0815L21.9957 18.1888L21.8884 18.2425L21.7811 18.2961L21.6202 18.3498L21.4592 18.4034L21.2983 18.4571H20.8155ZM17.221 15.3455V15.721H17.2747V15.882L17.221 15.9356L17.2747 16.0429L17.221 16.0966V16.2575L17.2747 16.4185V16.5258L17.221 16.633V18.1352L17.1674 18.2961L17.1137 18.4571H18.5086C18.5443 18.455 18.5801 18.455 18.6159 18.4571H19.2597V17.8133H19.206L19.0451 17.867L18.8841 17.9206H17.8112V17.0622H18.6159L18.7768 17.1159L18.9378 17.1695V17.2232V16.3648V16.4185L18.7768 16.4721H18.6159L18.4549 16.5258H17.8112L17.7575 16.4721L17.8112 16.3648V16.1502L17.7575 15.9893V15.8283L17.8112 15.6137H18.7232L18.8305 15.6674H18.9914L19.1524 15.721L19.2597 15.7747V15.0773H18.7768L18.6159 15.1309H18.4549L18.294 15.1846H18.1867L18.0258 15.2382L17.8648 15.2918L18.0258 15.1846L18.1867 15.1309L17.9721 15.0773L17.8112 15.1309H17.6502L17.4893 15.0773L17.2747 15.1309L17.0601 15.0773V15.1309L17.1674 15.2382L17.221 15.3455ZM6.49142 15.2382L6.54506 15.4528L6.59871 15.6137L6.65236 15.7747L6.75966 15.9356L6.8133 16.0966L6.70601 15.9893L6.59871 15.882V16.0429L6.54506 16.1502L6.59871 16.3112V17.0086L6.54506 17.0622V17.3305L6.59871 17.4914L6.54506 17.6524V17.8133L6.59871 17.9743L6.54506 18.1352L6.49142 18.2961L6.43777 18.4571V18.5107L6.59871 18.4571L6.75966 18.5107H7.0279L7.18884 18.4571H7.34979L7.51073 18.5107L7.67167 18.4571H7.99356L8.15451 18.5107H8.31545L8.47639 18.4571H8.58369V17.8133L8.42275 17.9206H8.04721L7.88627 17.9743L7.77897 17.9206L7.61803 17.9743L7.45708 17.9206H7.13519V17.0622H7.93991C8.05591 17.0964 8.1649 17.1509 8.2618 17.2232H8.31545L8.2618 17.0622V16.4185L8.10086 16.4721L7.93991 16.5258H7.13519V15.6674L7.18884 15.6137L7.34979 15.6674L7.51073 15.6137L7.67167 15.6674H8.04721C8.1363 15.6567 8.22636 15.6567 8.31545 15.6674L8.47639 15.721L8.58369 15.7747V15.1309H8.2618L8.15451 15.1846H7.61803L7.56438 15.1309H6.43777L6.49142 15.2382ZM3.05794 15.1309L3.11159 15.2918L3.16524 15.4528V18.0815L3.11159 18.2425V18.3498L3.00429 18.4571H3.37983L3.54077 18.5107L3.75536 18.4571H3.91631C3.83495 18.3457 3.77992 18.2173 3.75536 18.0815V17.5987L3.70172 17.4378V17.2768L3.75536 17.1159L3.70172 17.0622H5.09657V18.0815L5.04292 18.2425L4.98927 18.3498L4.93562 18.5107H5.36481L5.31116 18.3498L5.25751 18.2425L5.20386 18.1352L5.31116 18.2425L5.41846 18.3498L5.52575 18.5107L5.63305 18.4571H5.79399L5.84764 18.5107H5.79399L5.74034 18.3498L5.6867 18.2425V18.0815L5.63305 17.9206V17.867L5.5794 17.7597V17.4378L5.63305 17.2232V15.6137L5.6867 15.4528C5.69918 15.3391 5.73576 15.2294 5.79399 15.1309H4.93562L5.04292 15.2918C5.08001 15.395 5.09818 15.5041 5.09657 15.6137V16.5258H4.34549V16.5794L4.29185 16.633H3.80901C3.75536 16.633 3.70172 16.5794 3.75536 16.5258H3.70172V16.0966L3.75536 15.9356V15.7747L3.70172 15.6137L3.75536 15.4528L3.80901 15.2918L3.91631 15.1309H3.00429H3.05794ZM0.643777 15.6674H1.01931V17.2768L1.07296 17.3841C1.01931 17.3305 1.01931 17.4914 1.01931 17.5987V18.0815C0.995804 18.1754 0.959712 18.2656 0.912017 18.3498L0.858369 18.4571H1.01931L1.23391 18.5107H1.39485L1.55579 18.4571L1.71674 18.5107C1.61878 18.3483 1.56343 18.1638 1.55579 17.9743V15.6674L1.50215 15.5064L1.39485 15.3991L1.60944 15.5064L1.77039 15.6137L1.93133 15.6674H2.30687L2.52146 15.7747V15.8283L2.57511 15.6674V15.1309H0.697425V15.1846H0.321888V15.1309H0V15.8283L0.160944 15.721L0.321888 15.6674H0.643777ZM35.515 28.7575L35.4077 28.6502L35.3541 28.4893L35.2468 28.382L35.1931 28.221L35.0858 28.1137L35.0322 27.9528L34.9785 27.8455L34.9249 27.6846L34.8176 27.5236L34.764 27.3627L34.7103 27.2554L34.6567 27.0944L34.603 26.9335L34.5494 26.7725L34.4421 26.6652L34.3884 26.5043L34.3348 26.3433L34.2811 26.1824L34.2275 26.0215L34.1202 25.9142L34.0665 25.7532L34.0129 25.5923L33.9592 25.4313L33.9056 25.324L33.8519 25.1631L33.7446 25.0021L33.691 24.8412L33.6373 24.6803L33.5837 24.573L33.53 24.412L33.4227 24.2511L33.3691 24.0901L33.3155 23.9828L33.2618 23.8219L33.2082 23.6609L33.1545 23.5L33.1009 23.3391L32.9936 23.2318L32.9399 23.0708L32.8863 22.9099L32.8326 22.7489L32.779 22.6416L32.7253 22.4807L32.618 22.3197L32.5644 22.1588L32.5107 21.9979L32.1888 21.515L32.0815 21.1395L31.9742 20.9785L32.0279 20.8176L31.9206 20.6567L31.867 20.5494L31.8133 20.3884L31.7597 20.2275L31.706 20.0665L31.5987 19.9592L31.5451 19.7983L31.4914 19.6373L31.4378 19.4764C31.4378 19.4227 31.4378 19.3691 31.3841 19.4227L31.3305 19.6373L31.2232 19.7983L31.1695 19.9056L31.1159 20.0665L31.0622 20.2275L31.0086 20.3884L30.9013 20.4957L30.8476 20.6567L30.794 20.8176L30.7403 20.9785L30.6867 21.0858L30.5794 21.2468L30.5258 21.4077L30.4721 21.5687L30.4185 21.676L30.3648 21.8369L30.2575 21.9979L30.2039 22.1588L30.1502 22.3197L30.0966 22.427L30.0429 22.588L29.9893 22.7489L29.882 22.9099L29.8283 23.0172L29.7747 23.1781L29.721 23.3391L29.6674 23.5L29.6137 23.6073L29.5064 23.7682L29.4528 23.9292L29.3991 24.0901L29.3455 24.1974L29.2918 24.3047C29.3455 24.4657 29.3991 24.6266 29.2918 24.7876L29.1309 24.9485C29.0236 25.0021 28.97 25.1094 28.97 25.2167C28.9163 25.3777 28.7554 25.8069 28.5944 25.9142L28.5408 26.0215L28.4871 26.1288L28.4335 26.2897L28.5408 26.1824L28.6481 26.0751L28.7554 25.9678L28.8627 25.8605L28.97 25.7532L28.9163 25.8605L28.809 26.0215L28.7554 26.1824L28.7017 26.3433L28.5944 26.5043L28.5408 26.6116L28.4335 26.7725L28.3798 26.9335L28.2725 27.0408L28.1652 27.1481L28.0043 27.2554L27.9506 27.47L27.8433 27.6309L27.7897 27.7918L27.7361 27.9528L27.6288 28.0601L27.5751 28.221L27.4678 28.382L27.4142 28.4893L27.3069 28.6502L27.1996 28.7575L27.0923 28.8648L26.985 29.0258H29.4528C29.4024 28.9239 29.3663 28.8156 29.3455 28.7039C29.2789 28.5514 29.2424 28.3874 29.2382 28.221V28.0601L29.2918 27.8991L29.3455 27.7382L29.3991 27.6309L29.4528 27.47L29.5601 27.309L29.6137 27.1481L29.6674 27.0408L29.721 26.8798L29.8283 26.7189L29.882 26.5579L29.9356 26.4506L29.9893 26.2897L30.0429 26.1288L30.0966 25.9678L30.2039 25.8605L30.2575 25.6996L30.3112 25.5386L30.3648 25.3777L30.4185 25.2704L30.5258 25.1094L30.5794 24.9485L30.633 24.7876L30.6867 24.6803L30.7403 24.5193L30.794 24.3584L30.9013 24.1974L30.9549 24.0901L31.0086 23.9292L31.0622 23.7682L31.1695 23.6073L31.2232 23.4464L31.2768 23.3391L31.3305 23.1781V23.0172L31.3841 22.8562L31.4378 23.0172L31.4914 23.1781L31.5451 23.3391L31.5987 23.5L31.6524 23.6609L31.706 23.7682L31.7597 23.9292L31.8133 24.0901L31.9206 24.2511L31.9742 24.3584L32.0279 24.5193L32.0815 24.6803L32.1352 24.8412L32.1888 24.9485L32.2425 25.1094L32.3498 25.2704L32.4034 25.4313L32.4571 25.5386L32.5107 25.6996L32.5644 25.8605L32.618 26.0215L32.7253 26.1288L32.779 26.2897L32.8326 26.4506L32.8863 26.6116L32.9399 26.7189L32.9936 26.8798L33.0472 27.0408L33.1545 27.2017L33.2082 27.309L33.2618 27.47L33.3155 27.6309L33.3691 27.7918L33.4227 27.8991L33.4764 28.0601V28.5429L33.4227 28.7039L33.3691 28.8648L33.2618 29.0258H35.676L35.5687 28.9185L35.515 28.7575ZM8.85193 20.4421H8.20815V20.4957L8.04721 20.5494C7.92202 20.5672 7.79684 20.5851 7.67167 20.603L7.51073 20.5494H7.29614V20.4421H6.59871L6.65236 20.5494L6.70601 20.7103L6.75966 20.8712L6.8133 21.0322V21.1931L6.75966 21.3541V21.515L6.70601 21.676L6.65236 21.8369L6.54506 21.9979L6.49142 22.1052L6.43777 22.2661L6.38412 22.427L6.27682 22.588L6.22318 22.6953L6.16953 22.8562L6.11588 23.0172L6.06223 23.1781L6.00858 23.2854L5.90129 23.4464L5.84764 23.6073L5.79399 23.7682L5.74034 23.8755L5.6867 24.0365L5.5794 24.1974L5.52575 24.3584L5.4721 24.5193L5.41846 24.6266L5.36481 24.7876L5.25751 24.9485L5.20386 25.1094L5.15021 25.2167L5.09657 25.3777L5.04292 25.5386L4.98927 25.6996L4.88197 25.8069L4.82833 25.9678L4.77468 26.1288L4.72103 26.2897L4.66738 26.4506V26.6116L4.61373 26.4506L4.56009 26.2897L4.50644 26.1288L4.45279 25.9678L4.39914 25.8069L4.34549 25.6459L4.29185 25.485L4.2382 25.3777L4.1309 25.2167L4.07725 25.0558L4.02361 24.8949L3.96996 24.7876L3.91631 24.6266L3.86266 24.4657L3.75536 24.3047L3.70172 24.1974L3.64807 24.0365L3.59442 23.8755L3.54077 23.7682L3.48712 23.6073L3.37983 23.4464L3.32618 23.2854L3.27253 23.1245L3.21888 23.0172L3.16524 22.8562L3.11159 22.6953L3.00429 22.588L2.95064 22.427L2.897 22.2661L2.84335 22.1052L2.7897 21.9979L2.73605 21.8369L2.6824 21.676L2.57511 21.515V21.3541L2.52146 21.1931L2.57511 21.0322V20.8712L2.62876 20.7103L2.6824 20.5494L2.7897 20.4421H1.87768L1.93133 20.5494L1.98498 20.6567C1.8709 20.6459 1.7608 20.6092 1.66309 20.5494L1.50215 20.4421H0.375537L0.429185 20.5494L0.536481 20.6567L0.643777 20.8176L0.697425 20.9249L0.804721 21.0858L0.858369 21.1931L0.965665 21.3541L1.01931 21.4614L1.07296 21.6223L1.12661 21.7833L1.23391 21.8906V22.0515L1.3412 22.2124L1.39485 22.3197L1.77039 22.6416L1.60944 22.7489L1.87768 23.4464L2.09227 23.9292L2.36052 24.4657C2.41416 24.573 2.46781 24.6803 2.41416 24.8412L2.46781 24.8949L2.52146 25.0021L2.57511 25.1631L2.62876 25.324L2.73605 25.485L2.7897 25.5923L2.84335 25.7532L2.897 25.9142L2.95064 26.0751L3.00429 26.2361L3.11159 26.3433L3.16524 26.5043L3.21888 26.6652L3.27253 26.8262L3.32618 26.9335L3.37983 27.0944L3.48712 27.2554L3.54077 27.4163L3.59442 27.5236L3.64807 27.6846L3.70172 27.8455L3.75536 28.0064L3.86266 28.1674L3.91631 28.2747L3.96996 28.4356L4.02361 28.5966L4.07725 28.7575L4.18455 28.8648L4.2382 29.0258L4.29185 29.1867L4.34549 29.3476L4.39914 29.4549L4.45279 29.6159L4.56009 29.7768L4.61373 29.9378V30.0451H4.66738V29.9378L4.77468 29.7768V29.7232L4.88197 29.4549L4.93562 29.3476V29.294L5.04292 29.133L5.09657 28.9721L5.15021 28.8648V28.8112L5.20386 28.5966L5.15021 28.5429V28.382L5.09657 28.221L5.04292 28.0601L4.98927 27.8991V27.7382L4.93562 27.5773L5.04292 27.6846L5.09657 27.7918L5.15021 27.9528L5.25751 28.0601L5.31116 28.221V28.2747L5.36481 28.1674H5.4721V28.0601L5.5794 27.8991L5.63305 27.7382L5.6867 27.5773L5.74034 27.47L5.84764 27.309V27.1481L5.95494 26.9871L6.00858 26.8798L6.06223 26.7189L6.11588 26.5579L6.22318 26.397L6.27682 26.2897L6.33047 26.1288L6.38412 25.9678L6.43777 25.8069L6.49142 25.6459L6.59871 25.5386L6.65236 25.3777L6.70601 25.2167L6.75966 25.0558L6.8133 24.9485L6.9206 24.7876L6.97425 24.6266L7.0279 24.4657L7.08155 24.3584L7.13519 24.1974L7.24249 24.0365L7.29614 23.8755L7.34979 23.7146L7.40343 23.6073L7.45708 23.4464L7.56438 23.2854L7.61803 23.1245L7.67167 23.0172L7.72532 22.8562L7.77897 22.6953L7.88627 22.5343L7.93991 22.427L7.99356 22.2661L8.04721 22.1052L8.10086 21.9442L8.20815 21.7833L8.2618 21.676L8.31545 21.515L8.3691 21.3541L8.47639 21.2468L8.53004 21.0858L8.63734 20.9249L8.74464 20.8176L8.85193 20.6567L8.90558 20.5494L9.06652 20.4421H8.85193ZM43.6695 24.3584V24.0365H42.3283L42.1674 24.1438H41.8455C41.7382 24.0901 41.6309 24.0365 41.5236 24.0901H41.1481L40.9871 24.0365H40.8262L40.6652 23.9828H40.5579L40.4506 23.9292L40.3433 23.8755H40.1824L40.0215 23.7682L39.8605 23.7146V25.7532L40.0215 25.6996L40.1288 25.5923L40.2897 25.5386L40.4506 25.485H40.5579L40.7189 25.4313H41.0408L41.2017 25.3777H42.221V25.5386L42.1674 25.6996L42.1137 25.8605L42.0601 26.0215L42.0064 26.1824L41.9528 26.3433L41.8991 26.4506L41.7918 26.6116L41.7382 26.7189L41.6309 26.8798L41.5236 26.9871L41.4163 27.0944L41.2554 27.2017L41.1481 27.309L41.0408 27.4163L40.8798 27.47L40.7189 27.5773L40.6116 27.6309L40.4506 27.6846L40.2897 27.7382H40.1288L39.9678 27.7918H39.8069L39.6459 27.8455H39.485L39.324 27.7918H39.0021L38.8412 27.7382L38.6803 27.6846L38.573 27.6309L38.412 27.5773L38.2511 27.5236L38.1438 27.4163L37.9828 27.3627L37.8755 27.2554L37.7146 27.1481L37.6073 27.0408L37.5 26.9335L37.3927 26.8262L37.2854 26.6652L37.2318 26.5579L37.1245 26.397L37.0708 26.2897L37.0172 26.1288L36.9099 25.9678L36.8562 25.8069L36.8026 25.6459V25.5386L36.7489 25.3777V25.2167L36.6953 25.0558V24.412L36.7489 24.2511V24.0901L36.8026 23.9292L36.8562 23.7682V23.6073L36.9635 23.5L37.0172 23.3391L37.0708 23.1781L37.1781 23.0708L37.2318 22.9099L37.3391 22.8026L37.4464 22.6953L37.5536 22.5343L37.6609 22.427L37.7682 22.3197L37.8755 22.2124L38.0365 22.1588L38.1438 22.0515L38.3047 21.9979L38.412 21.8906C38.5171 21.8484 38.6246 21.8126 38.7339 21.7833L38.8412 21.7296C38.9474 21.7056 39.0549 21.6877 39.1631 21.676L39.324 21.6223H39.9678L40.1288 21.676H40.2897L40.4506 21.7296L40.6116 21.7833L40.7189 21.8369L40.8798 21.8906L41.0408 21.9979L41.1481 22.1052L41.2554 22.2124L41.3627 22.3197L41.47 22.4807L41.5773 22.588L41.6846 22.4807L41.7918 22.3734L41.8991 22.2661L42.0601 22.1052L42.1674 21.9979L42.2747 21.8906L42.382 21.7833L42.4893 21.676L42.5966 21.515L42.7575 21.4077L42.6502 21.3004L42.4893 21.1931L42.382 21.0858L42.2747 21.0322L42.1137 20.9249L42.0064 20.8712L41.8455 20.764L41.6846 20.7103L41.5773 20.6567L41.4163 20.5494L41.2554 20.4957L41.1481 20.4421H40.9871L40.8262 20.3884L40.6652 20.3348L40.5043 20.2811H40.3433L40.1824 20.2275H39.4313L39.2704 20.2811H39.1094L38.9485 20.3348H38.6803L38.3584 20.5494L37.9828 20.6567H37.8755L37.7146 20.7103L37.6073 20.8176H37.5536L37.4464 20.9785C37.3391 21.0858 37.2318 21.0858 37.0708 21.0858V21.1395L36.9099 21.2468L36.8026 21.3541L36.6953 21.4614L36.588 21.5687L36.4807 21.676L36.3734 21.7833L36.2661 21.8906L36.1588 22.0515L36.0515 22.1588L35.9979 22.3197L35.8906 22.427L35.8369 22.588L35.7296 22.6953L35.676 22.8562L35.7833 22.7489L35.8369 22.588L35.9442 22.4807L36.0515 22.3197L36.1588 22.2124L36.3197 22.1052C36.4046 22.0281 36.4942 21.9564 36.588 21.8906L36.6953 21.8369L36.588 21.9442L36.5343 22.0515L36.427 22.2124L36.3197 22.3197L36.2124 22.4807L36.1588 22.588L36.0515 22.7489L35.9442 22.8562L35.8906 23.0172L35.7833 23.1245L35.7296 23.2854L35.6223 23.4464L35.5687 23.5536L35.4614 23.7146L35.4077 23.8755L35.3541 24.0365L35.3004 24.1974V24.573L35.2468 24.7339L35.3004 24.8949V25.2167C35.3147 25.3246 35.3326 25.432 35.3541 25.5386V25.6996L35.4077 25.8605L35.4614 26.0215L35.515 26.1824L35.5687 26.3433L35.6223 26.4506L35.676 26.6116L35.7296 26.7725L35.7833 26.9335L35.8906 27.0408L35.9442 27.2017L36.0515 27.3627L36.1588 27.47L36.2661 27.6309L36.3734 27.7382L36.4807 27.8455L36.588 27.9528L36.6953 28.0601L36.8026 28.1674L36.9099 28.2747L37.0708 28.382L37.1781 28.4893L37.3391 28.5966L37.4464 28.6502L37.6073 28.7575L37.7682 28.8112L37.9292 28.8648L38.0365 28.9721H38.0901C38.2511 28.9721 38.412 28.9721 38.4657 29.0794H38.5193L38.6266 29.133H38.7876L38.8412 29.1867H39.1631L39.2704 29.2403L39.324 29.1867L39.4313 29.133L39.5386 29.1867H39.9678C40.0733 29.1592 40.181 29.1413 40.2897 29.133H40.4506L40.6116 29.0794L40.7725 29.0258L40.9335 28.9721H41.0944L41.2017 28.8648L41.3627 28.8112L41.5236 28.7575L41.6309 28.7039L41.7918 28.5966L41.9528 28.5429L42.0601 28.4356L42.1674 28.3283L42.3283 28.221L42.4356 28.1137L42.5429 28.0064L42.6502 27.8991L42.7575 27.7382L42.8648 27.6309L42.9185 27.47L43.0258 27.3627L43.133 27.2017L43.1867 27.0944L43.2403 26.9335L43.294 26.7725L43.4013 26.6116L43.4549 26.5043V26.3433L43.5086 26.1824L43.5622 26.0215L43.6159 25.8605V25.6996L43.6695 25.5386V25.0558L43.7232 24.8949C43.7257 24.7876 43.7257 24.6802 43.7232 24.573L43.6695 24.3584ZM26.0193 27.47L26.073 27.309L25.912 27.3627L25.7511 27.47H25.5901L25.4828 27.5236L25.3219 27.5773L25.1609 27.6309H23.2296L23.0687 27.6846H22.5322C22.4785 27.7382 22.4249 27.6846 22.3712 27.5773V27.309L22.4249 26.9871L22.3176 26.4506L22.4249 25.9678L22.4785 25.7532V25.5923L22.4249 25.4313V25.2704L22.4785 25.1094L22.4249 24.9485V24.7876L22.4785 24.6266V23.9828L22.4249 23.8219V23.5L22.4785 23.3391V23.0172L22.3176 23.1245L22.1567 23.2854L22.2639 23.1245L22.3176 22.9635L22.3712 22.8562L22.4785 22.6953V22.2124L22.4249 22.0515L22.4785 21.8906V21.3541L22.5322 21.1931L22.5858 21.0322L22.6395 20.8712L22.6931 20.7103L22.8004 20.5494L22.8541 20.4421H22.103L21.9957 20.4957C21.9421 20.5494 21.8348 20.4957 21.7811 20.4421H20.6545C20.7161 20.5452 20.7699 20.6528 20.8155 20.764L20.9227 20.8712V20.9249L20.9764 21.0322L21.0837 21.3004L21.191 21.7296L21.1373 22.3197L21.0837 22.427V22.7489L21.1373 22.9635L21.03 23.1245V23.1781L21.0837 23.3391L21.03 23.5L21.0837 23.6609V23.8219L21.03 23.9828V24.1438L21.0837 24.3047V24.6266L21.03 24.8412L21.0837 25.0021L21.03 25.1631L21.0837 25.324L21.03 25.485V25.9678L21.0837 26.1288V26.4506L21.03 26.6116V26.7725L21.0837 26.9335V27.0944L21.1373 26.9335L21.2446 26.8262L21.2983 26.6652L21.4056 26.5579L21.3519 26.7189V26.8262L21.2983 26.9871L21.2446 27.1481L21.191 27.309V27.47L21.1373 27.6309L21.0837 27.7918L21.03 27.9528V28.1137L20.9764 28.2747L20.9227 28.4356L20.8691 28.5966L20.8155 28.7039L20.7618 28.8648L20.7082 29.0258H23.927V28.9721L24.088 29.0258H26.0193V28.4893L26.073 28.3283V28.0064L26.0193 27.7918V27.47ZM19.4742 27.309L19.367 27.3627L19.206 27.4163L19.0451 27.47L18.8841 27.5236L18.7768 27.5773L18.6159 27.6309H15.9335L15.8798 27.47V25.1094L15.7189 25.2167L15.5579 25.3777L15.6652 25.2167L15.7189 25.1094L15.8262 24.9485L15.8798 24.8412V24.1974L15.8262 24.1438L15.8798 23.8219V21.5687L15.9335 21.4077V21.2468L15.9871 21.1395L16.0408 20.9785L16.0944 20.8176C16.1421 20.7247 16.1958 20.6351 16.2554 20.5494L16.309 20.4421H16.1481L16.0408 20.4957L15.9335 20.5494L15.7725 20.4957L15.7189 20.4421H15.8798H14.1094L14.2167 20.5494L14.2704 20.7103L14.324 20.8176L14.3777 20.9785L14.4313 21.1395V21.2468L14.485 21.4077V21.9442L14.5923 21.8369L14.6996 21.676L14.7532 21.5687V21.676L14.6996 21.8369L14.6459 21.9979V22.1052L14.5386 22.2661L14.485 22.427V26.5579L14.5386 26.6652V26.8798L14.485 26.9335V27.2017L14.6459 27.3627C14.8069 27.4163 14.8069 27.6846 14.6996 27.8455L14.485 28.0601V28.1137L14.4313 28.2747L14.3777 28.4356C14.3359 28.5829 14.2821 28.7264 14.2167 28.8648L14.1631 29.0258H14.6459L14.8069 28.9721V29.0258H19.4742V28.221L19.4206 28.1674L19.367 28.0601L19.4206 27.8991L19.4742 27.6846V27.309ZM49.9464 28.3283V29.0258H47.4785C47.3356 29.018 47.1923 29.018 47.0494 29.0258H45.7082L45.0107 28.9185L44.4206 28.9721H44.4743V28.9185L44.5279 28.8112L44.6352 28.6502L44.6888 28.4893V28.382L44.7425 28.221V28.0601L44.7961 27.8991V26.9335C44.8122 26.8448 44.8122 26.7539 44.7961 26.6652V23.6609L44.9034 23.2318V22.8026L44.7961 22.588V21.5687L44.7425 21.4077V21.3004L44.6888 21.1395V20.9785L44.5815 20.8176L44.5279 20.7103L44.4743 20.5494L44.367 20.4421H44.5279L44.6352 20.4957L45.0107 20.4421H45.4936L45.7618 20.4957C45.9764 20.603 46.191 20.5494 46.2446 20.4421H46.8348C46.9442 20.4711 47.0517 20.507 47.1567 20.5494L47.3176 20.603L47.4785 20.6567L47.6395 20.7103L47.8004 20.8176L47.9077 20.9249L47.8541 20.764L47.7468 20.6567L47.6395 20.5494L47.5322 20.4421H49.9464V20.8712H49.8927L49.9464 21.1395V21.515L49.8927 21.7296L49.9464 22.0515V22.1588L49.7854 22.0515L49.6781 21.9979L49.5172 21.9442L49.3562 21.8906L49.1953 21.8369H49.0343L48.8734 21.7833H46.191V24.0365H48.1223L48.2833 23.9828H48.3906L48.5515 23.9292L48.7124 23.8755L48.8734 23.8219L48.9807 23.7682L49.1416 23.7146V25.7532L48.9807 25.6996L48.8734 25.5923L48.7124 25.5386L48.5515 25.485H48.3906L48.2833 25.4313H48.1223L47.9614 25.3777H46.191V27.6846L46.4056 27.6309H47.5858L47.7468 27.6846L47.9077 27.6309H48.2296L48.4442 27.6846H48.6052L48.7661 27.6309H49.0343L49.1953 27.5773H49.3562L49.5172 27.5236L49.6781 27.4163L49.7854 27.3627L49.9464 27.309V27.6309L50 27.7918V28.0064L49.9464 28.1674V28.3283Z"
    fill="#000" />
  <path fill-rule="evenodd" clip-rule="evenodd"
    d="M14.9679 32.4592L14.8607 32.5129L14.6997 32.4592H14.5388L14.3778 32.4056L14.2169 32.3519H14.0559L13.895 32.2983H13.734L13.5731 32.2446H12.1246L11.9637 32.2983H11.8564L11.6954 32.3519H11.6418V32.5129L11.8027 32.5665L11.8564 32.6202L11.8027 32.7811V32.9421L11.7491 33.103V33.4249L11.6954 33.5858V34.0687L11.6418 34.2296V34.3906L11.5881 34.5515L11.6418 34.7661V34.927L11.5881 35.088V35.8927L11.6418 36.0536L11.6954 36.2146L11.6418 36.3755V36.5365L11.6954 36.6974L11.7491 36.8584L11.8027 37.0193V37.1803L11.8564 37.3412L11.8027 37.4485L11.6954 37.5021L11.5881 37.5558L11.6954 37.6094L11.8027 37.7704L11.8564 37.824L12.0173 37.9313V38.0386L11.8564 38.0923L11.6954 38.1996L11.5345 38.3069L11.4272 38.3605L11.2662 38.4142H11.1589L10.998 38.3069L10.8907 38.1996L10.7298 38.1459L10.5688 38.0386V37.9313L10.7298 37.824L10.7834 37.7167L10.8907 37.6094L10.998 37.5021H10.8907L10.7834 37.3948L10.7298 37.3412V37.1803L10.837 37.0193V36.8584L10.8907 36.6974V36.5365L10.9443 36.3755V35.7318L10.998 35.5708V35.2489L10.9443 35.088V34.3906L10.8907 34.2296V34.0687L10.9443 33.9077L10.8907 33.7468V33.5858L10.837 33.4249L10.7834 33.2639V32.9421L10.7298 32.7811V32.5129H10.9443V32.3519H10.8907L10.7834 32.2983H10.6225L10.4615 32.2446H9.97868L9.81773 32.191L9.65679 32.2446H8.85207L8.69113 32.2983L8.53018 32.3519L8.36924 32.4056H8.04735L7.94005 32.5129H7.72546L7.61816 32.4056V32.3519L7.72546 32.2446L7.83276 32.0837L7.8864 31.9764L7.9937 31.8155V31.4936L7.94005 31.3326L7.8864 31.1717L7.94005 31.118L8.101 30.9034H8.15464L8.31559 31.0107L8.47653 31.0644L8.63748 31.118L8.74477 31.2253L8.90572 31.279L9.06666 31.3326L9.22761 31.3863H9.71044L9.87138 31.4399H10.5688L10.7298 31.3863L10.6761 31.2253V30.7425L10.6225 30.5815L10.5688 30.4742L10.5152 30.3133L10.4615 30.1524L10.4079 29.9914L10.3542 29.8305L10.2469 29.7232L10.1933 29.5622L10.086 29.4549L9.97868 29.3476L9.87138 29.1867V28.8648L9.92503 28.7039L9.97868 28.5966V28.4356L10.0323 28.2747V27.8991L10.086 27.7918V27.6309L10.1396 27.47V27.0944L10.1933 26.9871V26.4506L10.2469 26.2897V25.9678L10.3006 25.8069V25.1631L10.3542 25.0021V24.3047L10.4615 24.1438L10.6761 23.7146L10.4079 23.5V22.2661L10.4615 22.1052V21.9442L10.4079 21.7833V20.3348H10.4615L10.6225 20.1738C10.5152 20.1202 10.4079 20.0129 10.4079 19.9056V19.1545L10.3542 18.9936V18.3498L10.3006 18.1888V18.0279L10.3542 17.867V17.706L10.3006 17.5451V17.0622L10.2469 16.9013V16.0966L10.1933 15.9356V15.7747L10.1396 15.6137L10.1933 15.4528V15.2918L10.1396 15.1309V14.809L10.086 14.6481L10.1396 14.4871V14.3262L10.1933 14.1652V14.0043L10.2469 13.8433L10.3006 13.6824L10.3542 13.5215V13.3605L10.4615 13.1996V13.0386L10.5152 12.9313L10.5688 12.7704L10.6225 12.6094L10.6761 12.4485L10.7834 12.2876L10.837 12.1266V11.9657L10.9443 11.8047L10.998 11.6974L11.0516 11.5365L11.1053 11.3755L11.2126 11.2146L11.2662 11L11.3199 11.2146L11.4272 11.3755L11.4808 11.5365L11.5881 11.6974L11.6418 11.8584L11.6954 12.0193L11.7491 12.1803L11.8564 12.3412L11.91 12.5021L11.9637 12.6631L12.0173 12.7704L12.071 12.9313L12.1246 13.0923V13.2532L12.2319 13.4142L12.2855 13.5215V13.6824L12.3392 13.8433V14.0043L12.3928 14.1652V14.3262L12.4465 14.4871V15.1309L12.3928 15.2918L12.4465 15.4528V15.6137L12.3928 15.7747V16.0966L12.3392 16.2575V16.9013L12.2855 17.0622V17.5451L12.2319 17.706V18.9936L12.1782 19.1545V21.5687L11.9637 21.9442L12.1246 22.0515V22.2661L12.1782 22.427V23.7146L12.2319 23.8755L12.1782 24.0365L12.2319 24.1974V25.0021L12.2855 25.1631V25.8069L12.3392 25.9678V26.1288L12.3928 26.2897V26.4506L12.3392 26.6116L12.4465 26.7725V27.1481L12.5001 27.2554V27.7918L12.5538 27.9528V28.1137L12.6074 28.221V28.4356L12.6611 28.5429V28.7039L12.7147 28.8648V29.1867L12.6074 29.3476L12.5001 29.4549L12.4465 29.5622L12.3392 29.7232L12.2319 29.8305L12.1782 29.9914L12.1246 30.1524L12.071 30.3133L12.0173 30.4206V30.6352L11.91 30.7425V31.0644L11.8564 31.2253V31.3863H12.0173L12.1782 31.4399H12.8757L13.0366 31.3863L13.1976 31.4399L13.3585 31.3863L13.5195 31.3326L13.6804 31.279L13.8413 31.2253L14.0023 31.1717L14.1096 31.0644L14.2705 31.0107L14.4315 30.9571L14.4851 30.9034L14.6461 31.118V31.1717L14.5924 31.3326V31.8155L14.6997 31.9764L14.7534 32.0837L14.8607 32.2446L14.9679 32.3519V32.4592Z"
    fill="#D5001D" />
</svg>